<?xml version="1.0" encoding="utf-8"?>
<!-- Generator: Adobe Illustrator 26.0.1, SVG Export Plug-In . SVG Version: 6.00 Build 0)  -->
<svg version="1.1" id="图层_1" xmlns="http://www.w3.org/2000/svg" xmlns:xlink="http://www.w3.org/1999/xlink" x="0px" y="0px"
	 viewBox="0 0 304.6 287" style="enable-background:new 0 0 304.6 287;" xml:space="preserve">
<style type="text/css">
	.st0{fill:#231815;}
	.st1{fill:none;stroke:#040000;stroke-width:0.5;stroke-linecap:round;stroke-linejoin:round;stroke-miterlimit:10;}
</style>
<g>
	<g>
		<path class="st0" d="M32.7,116.9c-0.1,0.3-0.2,0.6-0.3,0.8h6.2v0.8H32c-0.5,0.9-1.1,1.7-1.7,2.3c-0.2-0.2-0.6-0.4-0.8-0.6
			c1-0.8,1.8-2.2,2.3-3.6L32.7,116.9z M37,120.7c0,2.3,0.3,4.4,1,4.4c0.2,0,0.2-0.5,0.2-1.3c0.2,0.2,0.4,0.4,0.6,0.6
			c-0.1,1.2-0.3,1.7-0.9,1.7c-1.4,0-1.8-2-1.9-4.5h-5.3v-0.8H37z M37.8,119.2v0.8h-5.9v-0.8H37.8z"/>
		<path class="st0" d="M48.4,117.2v0.8h-4.7c-0.2,0.3-0.5,0.5-0.7,0.7h4.7v2.4h-5.9v-1.5c-0.5,0.3-1,0.6-1.5,0.8
			c-0.1-0.2-0.4-0.5-0.6-0.7c1.1-0.4,2.1-1,2.9-1.7h-2.4v-0.8H48.4z M42.9,122l0.6,0.3c-0.5,1.8-1.8,2.9-3.2,3.4
			c-0.1-0.2-0.4-0.6-0.5-0.8c1.1-0.4,2-1,2.5-2h-2.1V122h2.4l0.2,0L42.9,122z M44.8,121.2v0.6c0.2,0.4,0.5,0.7,0.9,1.1
			c0.6-0.4,1.3-0.9,1.7-1.3l0.8,0.6c-0.6,0.4-1.3,0.9-1.9,1.2c0.7,0.6,1.6,1,2.6,1.2c-0.2,0.2-0.5,0.6-0.6,0.9
			c-1.4-0.4-2.6-1.3-3.5-2.3v1.7c0,0.5-0.1,0.7-0.4,0.8c-0.3,0.1-0.8,0.1-1.5,0.1c0-0.3-0.2-0.6-0.3-0.8c0.5,0,1,0,1.1,0
			c0.1,0,0.2,0,0.2-0.2v-3.7H44.8z M42.7,120.3h4v-0.9h-4V120.3z"/>
		<path class="st0" d="M51.6,121.3v-1.5l-0.8,0.5c-0.2-0.5-0.7-1.3-1.2-1.9l0.7-0.4c0.4,0.5,1,1.3,1.2,1.8v-3.1h0.9v8.6
			c1.7-1.5,2.3-3.2,2.5-4.8h-2.1v-0.9h2.2v-0.4v-2.4H56v2.4v0.4h2.8v0.9h-2.6c0.5,2,1.4,3.8,2.9,4.6c-0.2,0.2-0.5,0.5-0.7,0.8
			c-1.2-0.8-2.1-2.2-2.6-3.9c-0.3,1.4-1,2.8-2.4,3.9c-0.2-0.2-0.5-0.4-0.7-0.6v0.6h-0.9v-3.5c-0.5,0.5-1.1,1-1.5,1.4l-0.5-0.8
			C50.1,122.7,50.8,122,51.6,121.3z M57.3,117c0.4,0.5,0.9,1.3,1.2,1.7l-0.8,0.5c-0.2-0.5-0.7-1.2-1.1-1.8L57.3,117z"/>
		<path class="st0" d="M64.8,116.7c-0.1,0.5-0.1,1-0.2,1.4h4.2v0.9h-3.4c0.7,1.3,1.9,2.2,3.6,2.6c-0.2,0.2-0.5,0.6-0.6,0.9
			c-1.9-0.5-3.2-1.7-3.9-3.4c-0.5,1.5-1.6,2.8-4.1,3.5c-0.1-0.2-0.3-0.6-0.5-0.8c2.2-0.6,3.2-1.5,3.7-2.7h-3.6v-0.9h3.8
			c0.1-0.5,0.1-0.9,0.2-1.4H64.8z M61.5,123c-0.2,0.9-0.5,1.9-0.9,2.6l-0.8-0.4c0.4-0.6,0.8-1.6,1-2.5L61.5,123z M62.8,122.7v1.8
			c0,0.3,0.1,0.4,0.7,0.4c0.3,0,1.6,0,2,0c0.5,0,0.6-0.1,0.6-1.2c0.2,0.1,0.6,0.3,0.8,0.3c-0.1,1.3-0.4,1.7-1.4,1.7
			c-0.3,0-1.9,0-2.2,0c-1.3,0-1.6-0.3-1.6-1.2v-1.8H62.8z M63.8,120.6c0.6,0.3,1.3,0.8,1.7,1.2l-0.9,0.5c-0.3-0.4-1-0.9-1.6-1.2
			L63.8,120.6z M64,122.1c0.6,0.5,1.2,1.2,1.6,1.7l-0.8,0.5c-0.3-0.5-1-1.2-1.5-1.7L64,122.1z M67.5,122.6c0.5,0.8,1,1.9,1.2,2.7
			l-0.9,0.3c-0.2-0.7-0.7-1.9-1.1-2.7L67.5,122.6z"/>
		<path class="st0" d="M71.9,116.7v2H73v0.9h-1.1v1.7L73,121l0.1,0.9l-1.3,0.4v2.7c0,0.5-0.1,0.7-0.4,0.9c-0.3,0.1-0.7,0.2-1.4,0.2
			c0-0.2-0.2-0.6-0.3-0.9c0.4,0,0.8,0,1,0c0.1,0,0.2,0,0.2-0.2v-2.4l-1.2,0.3l-0.2-0.9c0.4-0.1,0.9-0.2,1.5-0.4v-2h-1.3v-0.9h1.3v-2
			H71.9z M78.2,117.9c-1,0.4-2.4,0.8-3.7,1v0.6c0,0.4,0.1,0.4,0.7,0.4c0.3,0,1.6,0,2,0c0.5,0,0.6-0.2,0.7-1.2
			c0.2,0.1,0.6,0.3,0.9,0.3c-0.1,1.4-0.4,1.7-1.5,1.7c-0.3,0-1.9,0-2.2,0c-1.3,0-1.6-0.3-1.6-1.3v-2.8h0.9v1.4
			c1.1-0.3,2.3-0.6,3-0.9L78.2,117.9z M78.3,121.5v4.4h-0.9v-0.4h-3v0.5h-0.9v-4.5H78.3z M77.4,123.1v-0.8h-3v0.8H77.4z M74.5,124.8
			h3v-0.9h-3V124.8z"/>
		<path class="st0" d="M82.3,121.9c-0.5,1.2-1.2,2.4-2,3.2c-0.2-0.2-0.6-0.4-0.9-0.6c0.8-0.7,1.5-1.8,1.9-2.9L82.3,121.9z
			 M88.6,119.8v0.9h-3.9v4c0,0.6-0.1,0.8-0.5,1c-0.4,0.1-1,0.2-1.9,0.2c0-0.3-0.2-0.7-0.3-1c0.6,0,1.3,0,1.5,0c0.2,0,0.2,0,0.2-0.2
			v-4h-3.9v-0.9H88.6z M87.7,117.4v0.9h-7v-0.9H87.7z M86.8,121.6c0.7,0.9,1.5,2.2,1.7,3l-1,0.4c-0.3-0.8-1-2.1-1.7-3.1L86.8,121.6z
			"/>
		<path class="st0" d="M92.1,116.8v3.2c0,0.7,0,1.5-0.1,2.2c0.4,0.4,1.4,1.4,1.7,1.7l-0.6,0.7c-0.3-0.4-0.8-1-1.2-1.5
			c-0.3,1-0.8,1.9-1.6,2.7c-0.1-0.2-0.4-0.6-0.7-0.7c1.5-1.5,1.7-3.4,1.7-5.2v-3.2H92.1z M90.7,118.9c0,0.8-0.1,1.9-0.4,2.7
			l-0.7-0.3c0.2-0.6,0.4-1.7,0.4-2.5L90.7,118.9z M93.7,118.9c-0.3,0.7-0.6,1.5-0.9,2l-0.6-0.3c0.2-0.6,0.5-1.5,0.7-2.1L93.7,118.9z
			 M98.8,117.5v0.9h-1.7v6.3c0,0.6-0.1,0.9-0.5,1.1c-0.4,0.2-1,0.2-2,0.2c0-0.3-0.2-0.7-0.4-1c0.7,0,1.4,0,1.6,0
			c0.2,0,0.3-0.1,0.3-0.3v-6.3h-2.5v-0.9H98.8z"/>
	</g>
	<g>
		<path class="st0" d="M43,172.4V171h1v1.4h3.3v5.2H44v0.8c0,0.6,0.1,0.7,0.7,0.7c0.3,0,1.6,0,1.9,0c0.5,0,0.6-0.3,0.7-1.6
			c0.2,0.2,0.6,0.3,0.9,0.4c-0.1,1.5-0.4,2.1-1.6,2.1c-0.3,0-1.8,0-2.1,0c-1.2,0-1.6-0.3-1.6-1.7v-0.8h-2.2v0.6h-1v-5.8H43z
			 M43,173.3h-2.2v1.2H43V173.3z M40.7,175.4v1.2H43v-1.2H40.7z M46.3,174.5v-1.2H44v1.2H46.3z M44,176.6h2.3v-1.2H44V176.6z"/>
		<path class="st0" d="M49.4,173.7c0.5,0.3,1.3,0.7,1.7,1l-0.6,0.8c-0.4-0.3-1.1-0.7-1.7-1L49.4,173.7z M50.5,176.3l0.8,0.5
			c-0.4,1.1-0.9,2.3-1.4,3.2l-0.8-0.5C49.5,178.8,50.1,177.4,50.5,176.3z M49.9,171c0.5,0.3,1.3,0.7,1.7,1l-0.6,0.8
			c-0.4-0.3-1.1-0.8-1.6-1.1L49.9,171z M58.1,171.4v0.9h-5.3v1.9c0,1.8-0.2,4.3-1.4,6c-0.2-0.1-0.6-0.4-0.8-0.5
			c1.1-1.6,1.2-3.8,1.2-5.5v-2.8H58.1z M54.4,177.5c-0.3,0.7-0.8,1.5-1.2,2.1c-0.2-0.1-0.5-0.4-0.7-0.5c0.4-0.5,0.8-1.2,1.1-1.8
			L54.4,177.5z M56.1,172.5l-0.4,0.8h2.1v3.5h-1.8v2.4c0,0.4-0.1,0.7-0.4,0.8c-0.3,0.1-0.7,0.1-1.4,0.1c0-0.2-0.1-0.6-0.2-0.8
			c0.4,0,0.8,0,1,0c0.1,0,0.2,0,0.2-0.1v-2.4h-1.7v-3.5h1.4c0.1-0.3,0.2-0.7,0.3-1L56.1,172.5z M54.1,174.7h2.7V174h-2.7V174.7z
			 M54.1,176.1h2.7v-0.7h-2.7V176.1z M57.2,177.2c0.4,0.6,0.8,1.4,1.1,1.9l-0.9,0.4c-0.2-0.5-0.6-1.4-1-2L57.2,177.2z"/>
		<path class="st0" d="M61.2,170.9v2h1.1v0.9h-1.1v1.7l1.1-0.3l0.1,0.9l-1.3,0.4v2.7c0,0.5-0.1,0.7-0.4,0.9
			c-0.3,0.1-0.7,0.2-1.4,0.2c0-0.2-0.2-0.6-0.3-0.9c0.4,0,0.8,0,1,0c0.1,0,0.2,0,0.2-0.2v-2.4l-1.2,0.3l-0.2-0.9
			c0.4-0.1,0.9-0.2,1.5-0.4v-2h-1.3v-0.9h1.3v-2H61.2z M67.5,172.1c-1,0.4-2.4,0.8-3.7,1v0.6c0,0.4,0.1,0.4,0.7,0.4c0.3,0,1.6,0,2,0
			c0.5,0,0.6-0.2,0.7-1.2c0.2,0.1,0.6,0.3,0.9,0.3c-0.1,1.4-0.4,1.7-1.5,1.7c-0.3,0-1.9,0-2.2,0c-1.3,0-1.6-0.3-1.6-1.3v-2.8h0.9
			v1.4c1.1-0.3,2.3-0.6,3-0.9L67.5,172.1z M67.7,175.7v4.4h-0.9v-0.4h-3v0.5h-0.9v-4.5H67.7z M66.7,177.3v-0.8h-3v0.8H66.7z
			 M63.8,179h3v-0.9h-3V179z"/>
		<path class="st0" d="M71.7,176.1c-0.5,1.2-1.2,2.4-2,3.2c-0.2-0.2-0.6-0.4-0.9-0.6c0.8-0.7,1.5-1.8,1.9-2.9L71.7,176.1z M77.9,174
			v0.9H74v4c0,0.6-0.1,0.8-0.5,1c-0.4,0.1-1,0.2-1.9,0.2c0-0.3-0.2-0.7-0.3-1c0.6,0,1.3,0,1.5,0c0.2,0,0.2,0,0.2-0.2v-4h-3.9V174
			H77.9z M77,171.6v0.9h-7v-0.9H77z M76.2,175.8c0.7,0.9,1.5,2.2,1.7,3l-1,0.4c-0.3-0.8-1-2.1-1.7-3.1L76.2,175.8z"/>
		<path class="st0" d="M81.5,171v3.2c0,0.7,0,1.5-0.1,2.2c0.4,0.4,1.4,1.4,1.7,1.7l-0.6,0.7c-0.3-0.4-0.8-1-1.2-1.5
			c-0.3,1-0.8,1.9-1.6,2.7c-0.1-0.2-0.4-0.6-0.7-0.7c1.5-1.5,1.7-3.4,1.7-5.2V171H81.5z M80.1,173.1c0,0.8-0.1,1.9-0.4,2.7l-0.7-0.3
			c0.2-0.6,0.4-1.7,0.4-2.5L80.1,173.1z M83,173.1c-0.3,0.7-0.6,1.5-0.9,2l-0.6-0.3c0.2-0.6,0.5-1.5,0.7-2.1L83,173.1z M88.1,171.7
			v0.9h-1.7v6.3c0,0.6-0.1,0.9-0.5,1.1c-0.4,0.2-1,0.2-2,0.2c0-0.3-0.2-0.7-0.4-1c0.7,0,1.4,0,1.6,0c0.2,0,0.3-0.1,0.3-0.2v-6.3
			h-2.5v-0.9H88.1z"/>
	</g>
	<line class="st1" x1="154.7" y1="51.7" x2="154.9" y2="51.9"/>
	<line class="st1" x1="188.4" y1="51.8" x2="188.5" y2="51.6"/>
	<line class="st1" x1="151.6" y1="63.5" x2="151.6" y2="63.5"/>
	<line class="st1" x1="188.5" y1="63.4" x2="188.5" y2="63.4"/>
	<polyline class="st1" points="240.6,162 241.1,162 241.3,162 	"/>
	<polyline class="st1" points="247.8,169.1 247.8,169.1 247.7,169.1 247.5,169.1 247,169 246.3,169.1 	"/>
	<polyline class="st1" points="254.3,176.2 254.3,176.2 254,176.2 253.5,176.2 252.8,176.1 251.8,176.1 	"/>
	<polyline class="st1" points="145.9,161.9 145.9,161.9 146.1,161.9 146.6,161.9 	"/>
	<polyline class="st1" points="140.7,169 139.7,169 139.6,169 139.5,169 139.4,169 	"/>
	<polyline class="st1" points="132.9,176.2 132.9,176.2 133.1,176.2 133.5,176.2 134.1,176.1 135,176.1 	"/>
	<polyline class="st1" points="251.8,201.2 252.8,201.2 253.5,201.2 254,201.2 254.3,201.2 254.4,201.2 	"/>
	<polyline class="st1" points="132.9,201.2 132.9,201.2 133.1,201.2 133.5,201.2 134.2,201.2 135,201.2 	"/>
	<polyline class="st1" points="170.9,49.2 170.9,49.2 170.9,49.2 170.7,49.2 170.5,49.2 170.2,49.2 170,49.2 	"/>
	<polyline class="st1" points="170,49.2 169.8,49.2 169.7,49.2 169.6,49.2 	"/>
	<polyline class="st1" points="174.1,49.2 174.1,49.2 174,49.2 173.9,49.2 173.6,49.2 173.4,49.2 173.2,49.2 	"/>
	<polyline class="st1" points="173.2,49.2 173,49.2 172.8,49.2 172.8,49.2 	"/>
	<polyline class="st1" points="169.2,49.2 169.2,49.2 169.1,49.2 168.9,49.2 168.7,49.2 168.4,49.2 168.2,49.2 	"/>
	<polyline class="st1" points="168.2,49.2 168,49.2 167.9,49.2 167.9,49.2 	"/>
	<polyline class="st1" points="177.3,49.2 177.3,49.2 177.2,49.1 177,49.1 176.8,49.1 176.6,49.1 176.3,49.1 	"/>
	<polyline class="st1" points="176.3,49.1 176.1,49.2 176,49.2 176,49.2 	"/>
	<polyline class="st1" points="172.3,49.2 172.3,49.2 172.2,49.2 172.1,49.1 171.9,49.1 171.6,49.2 171.4,49.2 	"/>
	<polyline class="st1" points="171.4,49.2 171.2,49.2 171.1,49.2 171,49.2 	"/>
	<polyline class="st1" points="180.4,49.1 180.4,49.1 180.4,49.1 180.2,49.1 180,49.1 179.7,49.1 179.5,49.1 	"/>
	<polyline class="st1" points="179.5,49.1 179.3,49.1 179.2,49.1 179.2,49.1 	"/>
	<polyline class="st1" points="175.5,49.1 175.5,49.1 175.4,49.1 175.2,49.1 175,49.1 174.8,49.1 174.5,49.1 	"/>
	<polyline class="st1" points="174.5,49.1 174.3,49.1 174.2,49.1 174.2,49.1 	"/>
	<polyline class="st1" points="183.6,49.1 183.6,49.1 183.5,49.1 183.4,49.1 183.1,49.1 182.9,49.1 182.7,49.1 	"/>
	<polyline class="st1" points="182.7,49.1 182.5,49.1 182.4,49.1 182.3,49.1 	"/>
	<polyline class="st1" points="178.7,49.1 178.7,49.1 178.6,49.1 178.4,49.1 178.2,49.1 177.9,49.1 177.7,49.1 	"/>
	<polyline class="st1" points="177.7,49.1 177.5,49.1 177.4,49.1 	"/>
	<polyline class="st1" points="186.8,49.1 186.8,49.1 186.7,49.1 186.5,49.1 186.3,49.1 186.1,49.1 185.8,49.1 	"/>
	<polyline class="st1" points="185.8,49.1 185.6,49.1 185.5,49.1 185.5,49.1 	"/>
	<polyline class="st1" points="181.8,49.1 181.8,49.1 181.8,49.1 181.6,49.1 181.4,49.1 181.1,49.1 180.9,49.1 	"/>
	<polyline class="st1" points="180.9,49.1 180.7,49.1 180.6,49.1 180.5,49.1 	"/>
	<polyline class="st1" points="185,49.1 185,49.1 184.9,49.1 184.8,49.1 184.5,49.1 184.3,49.1 184.1,49.1 	"/>
	<polyline class="st1" points="184.1,49.1 183.9,49.1 183.7,49.1 183.7,49.1 	"/>
	<line class="st1" x1="185.6" y1="227.5" x2="185.7" y2="227.5"/>
	<line class="st1" x1="209.6" y1="227.5" x2="209.6" y2="227.5"/>
	<line class="st1" x1="175.7" y1="223.8" x2="175.7" y2="223.8"/>
	<line class="st1" x1="219.6" y1="223.7" x2="219.6" y2="223.7"/>
	<line class="st1" x1="222.7" y1="227.7" x2="222.7" y2="227.7"/>
	<line class="st1" x1="256.6" y1="224" x2="256.6" y2="224"/>
	<line class="st1" x1="181.7" y1="227.7" x2="181.7" y2="227.7"/>
	<line class="st1" x1="140.7" y1="227.7" x2="140.7" y2="227.7"/>
	<line class="st1" x1="130.7" y1="224" x2="130.7" y2="224"/>
	<line class="st1" x1="174.7" y1="223.9" x2="174.7" y2="223.9"/>
	<line class="st1" x1="177.8" y1="227.9" x2="177.8" y2="227.9"/>
	<line class="st1" x1="176" y1="51.7" x2="175.5" y2="51.7"/>
	<line class="st1" x1="177.4" y1="51.7" x2="177.3" y2="51.7"/>
	<line class="st1" x1="179.2" y1="51.7" x2="178.7" y2="51.7"/>
	<line class="st1" x1="180.5" y1="51.7" x2="180.4" y2="51.7"/>
	<line class="st1" x1="182.3" y1="51.7" x2="181.8" y2="51.7"/>
	<line class="st1" x1="183.7" y1="51.7" x2="183.6" y2="51.7"/>
	<line class="st1" x1="185.5" y1="51.7" x2="185" y2="51.7"/>
	<line class="st1" x1="188.5" y1="51.6" x2="186.8" y2="51.7"/>
	<polyline class="st1" points="167.9,51.7 166.2,51.7 164.4,51.7 162.7,51.7 161.1,51.7 159.6,51.7 158.1,51.7 156.8,51.7 
		155.7,51.7 154.7,51.7 	"/>
	<line class="st1" x1="169.6" y1="51.7" x2="169.2" y2="51.7"/>
	<line class="st1" x1="171.1" y1="51.7" x2="170.9" y2="51.7"/>
	<line class="st1" x1="172.8" y1="51.7" x2="172.3" y2="51.7"/>
	<line class="st1" x1="174.2" y1="51.7" x2="174.1" y2="51.7"/>
	<line class="st1" x1="154.7" y1="51.7" x2="150.1" y2="51.7"/>
	<line class="st1" x1="150.2" y1="52" x2="150.2" y2="51.9"/>
	<line class="st1" x1="150" y1="63.1" x2="150.2" y2="63.3"/>
	<line class="st1" x1="241" y1="63" x2="241.9" y2="63.4"/>
	<line class="st1" x1="189.4" y1="51.6" x2="188.5" y2="51.6"/>
	<line class="st1" x1="189" y1="51.9" x2="189.1" y2="51.8"/>
	<line class="st1" x1="189" y1="63.3" x2="189" y2="51.9"/>
	<line class="st1" x1="150.2" y1="51.9" x2="150.1" y2="51.7"/>
	<polyline class="st1" points="246.6,51.7 246.6,51.7 246.4,51.6 246,51.6 245.4,51.6 244.6,51.6 243.6,51.6 242.4,51.6 241,51.6 
		239.5,51.6 237.7,51.6 235.8,51.5 233.7,51.5 231.5,51.5 229.1,51.5 226.6,51.5 223.9,51.5 221.2,51.5 218.3,51.5 215.3,51.5 
		212.3,51.5 209.2,51.5 206,51.5 202.7,51.5 199.5,51.5 196.2,51.5 192.9,51.5 189.6,51.5 	"/>
	<polyline class="st1" points="150.1,51.7 148.3,51.7 146.6,51.7 145.2,51.7 143.9,51.7 142.8,51.8 141.8,51.8 141.1,51.8 
		140.6,51.8 140.3,51.8 140.2,51.8 	"/>
	<line class="st1" x1="189.6" y1="51.5" x2="189.1" y2="51.8"/>
	<line class="st1" x1="189.1" y1="51.8" x2="189.3" y2="51.9"/>
	<line class="st1" x1="149.9" y1="52.1" x2="150.2" y2="51.9"/>
	<polyline class="st1" points="239.4,63 240.2,62.9 241,63 	"/>
	<polyline class="st1" points="247.1,63.1 247.1,63.1 246.8,63.1 246.3,63.1 245.7,63.1 244.8,63 243.8,63 242.5,63 241,63 	"/>
	<polyline class="st1" points="150,63.1 148,63.1 146.3,63.1 144.7,63.2 143.4,63.2 142.2,63.2 141.3,63.2 140.6,63.2 140.1,63.2 
		139.8,63.3 139.8,63.3 	"/>
	<line class="st1" x1="150" y1="63.1" x2="149.9" y2="52.1"/>
	<polyline class="st1" points="247.1,52.1 247.1,52.1 246.8,52.1 246.4,52.1 245.8,52 245,52 244,52 242.8,52 241.4,52 239.8,52 
		238,52 236.1,52 234,52 231.7,52 229.3,51.9 226.7,51.9 224,51.9 221.2,51.9 218.3,51.9 215.3,51.9 212.2,51.9 209.1,51.9 
		205.9,51.9 202.6,51.9 199.3,51.9 196,51.9 192.6,51.9 189.3,51.9 	"/>
	<polyline class="st1" points="149.9,52.1 148.1,52.1 146.4,52.1 144.9,52.1 143.6,52.2 142.4,52.2 141.5,52.2 140.8,52.2 
		140.2,52.2 139.9,52.2 139.8,52.3 	"/>
	<line class="st1" x1="189.3" y1="51.9" x2="189.3" y2="63"/>
	<line class="st1" x1="189.1" y1="63.4" x2="189.1" y2="63.4"/>
	<line class="st1" x1="237.5" y1="63.4" x2="239.4" y2="63"/>
	<polyline class="st1" points="239.4,63 237.5,63 235.4,63 233.1,63 230.7,63 228.1,63 225.4,63 222.5,62.9 219.5,62.9 216.4,62.9 
		213.2,62.9 209.9,62.9 206.6,62.9 203.2,62.9 199.7,62.9 196.3,62.9 192.8,63 189.3,63 	"/>
	<line class="st1" x1="189.3" y1="63" x2="189" y2="63.3"/>
	<line class="st1" x1="189" y1="63.3" x2="189.1" y2="63.4"/>
	<polyline class="st1" points="241.1,63.6 241.6,63.6 242.9,63.6 244,63.6 245,63.6 245.7,63.6 246.2,63.6 246.5,63.5 246.6,63.5 
		246.6,63.5 246.3,63.5 245.8,63.5 245.1,63.5 244.3,63.5 243.2,63.5 241.9,63.4 	"/>
	<polyline class="st1" points="241.9,63.4 241.8,63.5 241.5,63.5 241,63.5 240.3,63.5 239.4,63.5 238.4,63.5 237.3,63.5 236,63.5 
		234.7,63.5 233.4,63.5 232,63.5 230.6,63.5 229.3,63.5 228.1,63.5 226.9,63.5 226,63.5 225.1,63.5 224.4,63.5 224,63.5 223.7,63.5 
		223.6,63.5 223.7,63.5 224,63.5 224.5,63.5 225.3,63.4 226.1,63.4 227.1,63.4 228.3,63.4 229.5,63.4 230.9,63.4 232.2,63.4 
		233.6,63.4 234.9,63.4 236.3,63.4 237.5,63.4 	"/>
	<polyline class="st1" points="237.5,63.4 235.5,63.4 233.4,63.4 231.2,63.4 228.8,63.4 226.2,63.4 223.6,63.4 220.8,63.4 
		217.9,63.4 214.9,63.4 211.9,63.4 208.7,63.4 205.5,63.4 202.3,63.4 199,63.4 195.7,63.4 192.4,63.4 189.1,63.4 	"/>
	<polyline class="st1" points="189.1,63.4 189.2,63.4 189.2,63.4 189.2,63.4 189.1,63.4 189,63.4 188.9,63.4 188.7,63.4 188.5,63.4 
			"/>
	<polyline class="st1" points="188.5,63.4 185.2,63.4 181.9,63.4 178.7,63.4 175.5,63.4 172.4,63.4 169.4,63.4 166.4,63.5 
		163.6,63.5 160.9,63.5 158.4,63.5 156,63.5 153.7,63.5 151.6,63.5 	"/>
	<polyline class="st1" points="151.6,63.5 151.5,63.5 151.4,63.5 151.2,63.5 151,63.5 150.8,63.5 150.7,63.5 150.5,63.5 150.4,63.5 
			"/>
	<polyline class="st1" points="150.4,63.5 148.6,63.6 146.9,63.6 145.4,63.6 144.1,63.6 142.9,63.6 142,63.6 141.2,63.6 140.7,63.7 
		140.4,63.7 140.3,63.7 140.3,63.7 140.6,63.7 141.1,63.7 141.8,63.7 142.6,63.8 143.7,63.8 145,63.8 	"/>
	<polyline class="st1" points="145,63.8 145.1,63.8 145.4,63.8 145.8,63.8 	"/>
	<line class="st1" x1="239.8" y1="63.6" x2="240.2" y2="63.6"/>
	<polyline class="st1" points="240.2,63.6 240.6,63.6 240.9,63.6 241.1,63.6 241.1,63.6 	"/>
	<line class="st1" x1="240.4" y1="162" x2="240.6" y2="162"/>
	<line class="st1" x1="204" y1="63.4" x2="239.8" y2="63.6"/>
	<polyline class="st1" points="205.6,161.8 205.3,161.7 205,161.5 204.8,161.3 204.6,160.9 204.4,160.5 204.3,160 204.2,159.4 
		204.2,158.9 	"/>
	<line class="st1" x1="240.4" y1="162" x2="239" y2="162"/>
	<line class="st1" x1="239" y1="162" x2="205.6" y2="161.8"/>
	<line class="st1" x1="205.6" y1="161.8" x2="204.2" y2="161.8"/>
	<polyline class="st1" points="209.7,168.8 208.6,168.6 207.5,168.1 206.6,167.4 205.7,166.5 205.1,165.4 204.6,164.3 204.3,163 
		204.2,161.8 	"/>
	<polyline class="st1" points="198.5,63.4 199.3,63.4 200.2,63.4 201,63.4 201.7,63.4 202.4,63.4 203,63.4 203.6,63.4 204,63.4 	"/>
	<line class="st1" x1="204" y1="161.8" x2="204.2" y2="161.8"/>
	<line class="st1" x1="204.2" y1="161.8" x2="204.2" y2="158.9"/>
	<line class="st1" x1="204.2" y1="158.9" x2="204" y2="63.4"/>
	<line class="st1" x1="245.9" y1="169" x2="209.7" y2="168.8"/>
	<line class="st1" x1="209.7" y1="168.8" x2="209.3" y2="168.8"/>
	<polyline class="st1" points="246.3,169.1 247.4,169.3 248.4,169.8 249.4,170.5 250.2,171.4 250.9,172.4 251.4,173.6 251.7,174.9 
		251.8,176.1 	"/>
	<line class="st1" x1="246.3" y1="169.1" x2="245.9" y2="169"/>
	<line class="st1" x1="251.8" y1="176.1" x2="251.8" y2="180.4"/>
	<line class="st1" x1="214.8" y1="175.9" x2="251.8" y2="176.1"/>
	<polyline class="st1" points="167.9,63.4 171,63.4 174.3,63.4 177.6,63.4 181,63.4 184.4,63.4 187.9,63.4 191.4,63.4 195,63.4 
		198.5,63.4 	"/>
	<line class="st1" x1="198.1" y1="161.7" x2="198.6" y2="161.7"/>
	<line class="st1" x1="198.6" y1="161.7" x2="198.5" y2="63.4"/>
	<line class="st1" x1="168" y1="161.8" x2="167.9" y2="63.4"/>
	<polyline class="st1" points="204,161.8 204.1,163 204.3,164.3 204.8,165.4 205.5,166.5 206.3,167.4 207.2,168.1 208.2,168.6 
		209.3,168.8 	"/>
	<polyline class="st1" points="198.6,161.7 200.2,161.7 201.6,161.7 202.9,161.7 204,161.8 	"/>
	<polyline class="st1" points="198.6,161.7 198.7,163 198.7,164.3 198.7,165.5 198.8,166.6 198.9,167.4 199,168.1 199.1,168.6 
		199.3,168.8 	"/>
	<polyline class="st1" points="168,161.8 171.1,161.7 174.3,161.7 177.5,161.7 180.9,161.7 184.3,161.7 187.7,161.7 191.1,161.7 
		194.6,161.7 198.1,161.7 	"/>
	<polyline class="st1" points="164.8,168.9 165.4,168.6 166.1,168.2 166.6,167.5 167.1,166.6 167.5,165.6 167.8,164.4 168,163.1 
		168,161.8 	"/>
	<polyline class="st1" points="198.1,161.7 198.1,163 198.1,164.3 198.2,165.5 198.3,166.6 198.3,167.4 198.4,168.1 198.5,168.6 
		198.7,168.8 	"/>
	<polyline class="st1" points="209.3,168.8 208.2,168.8 207.1,168.8 206.6,168.8 206,168.8 205.5,168.8 205,168.8 203.6,168.8 
		202.1,168.8 199.3,168.8 	"/>
	<line class="st1" x1="199.3" y1="168.8" x2="198.7" y2="168.8"/>
	<polyline class="st1" points="209.3,168.8 210.3,169.1 211.4,169.6 212.4,170.3 213.2,171.2 213.8,172.2 214.4,173.4 214.7,174.6 
		214.8,175.9 	"/>
	<line class="st1" x1="214.8" y1="180.2" x2="214.8" y2="175.9"/>
	<polyline class="st1" points="214.8,175.9 213.6,175.9 212.3,175.9 210.8,175.9 209.1,175.9 207.3,175.9 205.4,175.9 203.4,175.9 
		201.4,175.9 199.2,175.9 	"/>
	<polyline class="st1" points="199.2,175.9 199.2,174.5 199.2,173.3 199.1,172.1 199.1,171 199,170.1 198.9,169.5 198.8,169 
		198.7,168.8 	"/>
	<polyline class="st1" points="198.7,168.8 195.2,168.8 191.6,168.8 188.1,168.8 184.6,168.8 181.2,168.8 177.8,168.8 174.4,168.8 
		171.1,168.8 167.9,168.8 164.8,168.9 	"/>
	<polyline class="st1" points="161.5,176 161.6,174.6 161.8,173.4 162.1,172.2 162.5,171.1 163,170.2 163.5,169.5 164.1,169.1 
		164.8,168.9 	"/>
	<line class="st1" x1="199.2" y1="175.9" x2="199.2" y2="180.2"/>
	<polyline class="st1" points="199.2,175.9 195.3,175.9 191.4,175.9 187.5,175.9 183.6,175.9 179.8,175.9 176,175.9 172.2,175.9 
		168.6,175.9 165,176 161.5,176 	"/>
	<line class="st1" x1="161.5" y1="180.3" x2="161.5" y2="176"/>
	<polyline class="st1" points="251.8,180.4 252.8,180.4 253.5,180.5 254,180.5 254.3,180.5 254.3,180.5 	"/>
	<line class="st1" x1="214.8" y1="180.2" x2="251.8" y2="180.4"/>
	<polyline class="st1" points="199.2,180.2 201.4,180.2 203.4,180.2 205.4,180.2 207.3,180.2 209.1,180.2 210.8,180.2 212.3,180.2 
		213.6,180.2 214.8,180.2 	"/>
	<polyline class="st1" points="161.5,180.3 165,180.3 168.6,180.3 172.2,180.2 176,180.2 179.8,180.2 183.6,180.2 187.5,180.2 
		191.4,180.2 195.3,180.2 199.2,180.2 	"/>
	<polyline class="st1" points="145.8,63.6 145.8,63.6 145.9,63.6 146.1,63.6 146.5,63.6 	"/>
	<line class="st1" x1="140.9" y1="169" x2="140.7" y2="169"/>
	<polyline class="st1" points="157.4,141.7 157.3,141.2 157,140.7 156.6,140.3 156.1,140.2 155.6,140.2 155.2,140.5 154.9,140.9 
		154.7,141.5 154.7,142.1 154.9,142.6 155.2,143 155.6,143.3 156.1,143.3 156.6,143.2 157,142.8 157.3,142.3 157.4,141.7 	"/>
	<polyline class="st1" points="157.4,153.2 157.3,152.6 157.1,152.1 156.7,151.8 156.1,151.6 155.7,151.7 155.2,151.9 154.9,152.4 
		154.7,152.9 154.7,153.5 154.9,154 155.2,154.5 155.7,154.7 156.2,154.8 156.7,154.6 157.1,154.3 157.3,153.8 157.4,153.2 	"/>
	<line class="st1" x1="154.1" y1="138.1" x2="157.4" y2="138.1"/>
	<line class="st1" x1="152.4" y1="137.4" x2="154.1" y2="138.1"/>
	<polyline class="st1" points="154.1,138.1 154.5,138.1 154.9,138.1 155.3,138.1 155.7,138.1 156.1,138.1 156.6,138.1 157,138.1 
		157.4,138.1 	"/>
	<polyline class="st1" points="157.4,156.7 157,156.7 156.6,156.7 156.1,156.7 155.7,156.7 155.3,156.7 154.9,156.7 154.5,156.7 
		154.2,156.7 	"/>
	<line class="st1" x1="154.2" y1="156.7" x2="152.5" y2="157.4"/>
	<line class="st1" x1="158.1" y1="138.1" x2="157.4" y2="138.1"/>
	<line class="st1" x1="158.4" y1="155.3" x2="158.4" y2="139.5"/>
	<line class="st1" x1="156.9" y1="137.4" x2="157.4" y2="138.1"/>
	<polyline class="st1" points="157.4,138.1 157.7,138.2 158,138.4 158.3,138.8 158.4,139.3 158.4,139.5 	"/>
	<line class="st1" x1="158.4" y1="139.5" x2="158.5" y2="139.5"/>
	<line class="st1" x1="158.5" y1="155.3" x2="158.4" y2="155.3"/>
	<polyline class="st1" points="158.4,155.3 158.3,155.8 158.2,156.2 157.9,156.5 157.7,156.7 157.4,156.7 	"/>
	<line class="st1" x1="156.9" y1="157.4" x2="157.4" y2="156.7"/>
	<polyline class="st1" points="152.4,137.4 152.9,137.4 153.5,137.4 154,137.4 154.6,137.4 155.1,137.4 155.7,137.4 156.3,137.4 
		156.9,137.4 	"/>
	<polyline class="st1" points="156.9,137.4 157.5,137.5 158,137.9 158.3,138.5 158.5,139.2 158.5,139.5 	"/>
	<line class="st1" x1="158.5" y1="139.5" x2="158.5" y2="155.3"/>
	<polyline class="st1" points="158.5,155.3 158.5,156 158.2,156.6 157.8,157 157.4,157.3 156.9,157.4 	"/>
	<polyline class="st1" points="156.9,157.4 156.3,157.4 155.7,157.4 155.2,157.4 154.6,157.4 154.1,157.4 153.5,157.4 153,157.4 
		152.5,157.4 	"/>
	<line class="st1" x1="152.5" y1="157.4" x2="152.4" y2="137.4"/>
	<line class="st1" x1="146.6" y1="161.9" x2="146.9" y2="161.9"/>
	<polyline class="st1" points="146.5,63.6 148.1,63.6 150,63.5 152,63.5 154.3,63.5 156.7,63.5 159.3,63.5 162,63.5 164.9,63.5 
		167.9,63.4 	"/>
	<polyline class="st1" points="146.9,161.9 148.5,161.9 150.3,161.8 152.4,161.8 154.6,161.8 157,161.8 159.5,161.8 162.2,161.8 
		165.1,161.8 168,161.8 	"/>
	<polyline class="st1" points="164.8,168.9 161.8,168.9 158.9,168.9 156.1,168.9 153.5,168.9 151,168.9 148.6,168.9 146.4,168.9 
		144.4,169 142.6,169 140.9,169 	"/>
	<polyline class="st1" points="140.9,169 139.7,169.2 138.6,169.7 137.6,170.4 136.7,171.3 136,172.3 135.4,173.5 135.1,174.8 
		135,176.1 	"/>
	<polyline class="st1" points="161.5,176 158.2,176 155,176 151.9,176 148.9,176 146.2,176 143.6,176.1 141.1,176.1 138.9,176.1 
		136.8,176.1 135,176.1 	"/>
	<line class="st1" x1="135" y1="176.1" x2="135" y2="180.4"/>
	<polyline class="st1" points="135,180.4 136.8,180.4 138.9,180.4 141.1,180.4 143.6,180.4 146.2,180.4 149,180.3 151.9,180.3 
		155,180.3 158.2,180.3 161.5,180.3 	"/>
	<polyline class="st1" points="132.9,180.5 132.9,180.5 133.1,180.5 133.5,180.5 134.1,180.4 135,180.4 	"/>
	<polyline class="st1" points="164.8,168.9 164.1,169.1 163.5,169.5 163,170.2 162.5,171.1 162.1,172.2 161.8,173.4 161.6,174.6 
		161.5,176 	"/>
	<line class="st1" x1="161.5" y1="176" x2="161.5" y2="180.3"/>
	<line class="st1" x1="167.9" y1="63.4" x2="168" y2="161.8"/>
	<polyline class="st1" points="168,161.8 168,163.1 167.8,164.4 167.5,165.6 167.1,166.6 166.6,167.5 166.1,168.2 165.4,168.6 
		164.8,168.9 	"/>
	<polyline class="st1" points="177.4,205 177.4,205 177.5,205 177.9,205 178.4,205 179.2,205 180.1,205 181.2,205 181.5,204.9 	"/>
	<polyline class="st1" points="251.8,197.6 252.8,197.6 253.5,197.6 254,197.6 254.3,197.6 254.4,197.6 	"/>
	<polyline class="st1" points="222.3,204.8 222.3,204.8 222.5,204.8 222.8,204.8 223.3,204.8 224.1,204.8 225,204.8 226,204.8 
		227.3,204.7 228.6,204.7 230.1,204.7 231.6,204.7 233.2,204.7 234.8,204.7 236.4,204.7 238,204.7 239.5,204.7 240.9,204.7 
		242.2,204.7 243.4,204.7 244.5,204.7 245.4,204.7 246,204.7 246.5,204.7 246.8,204.8 246.9,204.8 	"/>
	<polyline class="st1" points="181.4,204.8 181.4,204.8 181.5,204.8 181.8,204.7 182.4,204.7 183.1,204.7 184,204.7 185.1,204.7 
		185.4,204.7 	"/>
	<polyline class="st1" points="132.9,197.6 132.9,197.6 133.1,197.6 133.5,197.6 134.1,197.6 135,197.6 	"/>
	<polyline class="st1" points="140.4,204.7 140.4,204.7 140.5,204.7 140.8,204.7 141.4,204.7 142.1,204.7 143,204.7 144.1,204.7 
		145.3,204.7 146.7,204.7 148.1,204.7 149.6,204.7 151.2,204.7 152.8,204.7 154.4,204.7 156,204.7 157.5,204.7 159,204.7 
		160.3,204.7 161.5,204.7 162.5,204.7 163.4,204.7 164.1,204.7 164.6,204.7 164.9,204.7 165,204.7 	"/>
	<line class="st1" x1="214.8" y1="197.4" x2="251.8" y2="197.6"/>
	<line class="st1" x1="251.8" y1="197.6" x2="251.8" y2="201.2"/>
	<polyline class="st1" points="251.8,201.2 251.8,201.6 251.7,202 251.5,202.4 251.3,202.7 251,203 250.7,203.2 250.3,203.3 
		250,203.3 	"/>
	<line class="st1" x1="214.8" y1="200.9" x2="251.8" y2="201.2"/>
	<polyline class="st1" points="185.3,204.6 185.3,204.6 185.4,204.6 185.7,204.5 186.3,204.5 187,204.5 187.9,204.5 189,204.5 
		190.2,204.5 191.6,204.5 193,204.5 194.5,204.5 196.1,204.5 197.7,204.5 199.3,204.5 200.9,204.5 202.4,204.5 203.9,204.5 
		205.2,204.5 206.4,204.5 207.4,204.5 208.3,204.5 209,204.5 209.5,204.5 209.8,204.5 209.9,204.5 	"/>
	<polyline class="st1" points="199.3,197.3 201.4,197.3 203.5,197.3 205.4,197.3 207.4,197.3 209.2,197.3 210.8,197.3 212.3,197.4 
		213.6,197.4 214.8,197.4 	"/>
	<line class="st1" x1="214.8" y1="200.9" x2="214.8" y2="197.4"/>
	<polyline class="st1" points="212.9,203.1 213.3,203 213.6,202.9 214,202.7 214.3,202.5 214.5,202.1 214.7,201.7 214.8,201.3 
		214.8,200.9 	"/>
	<polyline class="st1" points="199.3,200.9 201.4,200.9 203.5,200.9 205.4,200.9 207.4,200.9 209.2,200.9 210.8,200.9 212.3,200.9 
		213.6,200.9 214.8,200.9 	"/>
	<polyline class="st1" points="135,197.6 136.7,197.6 138.7,197.6 140.8,197.5 143.1,197.5 145.6,197.5 148.1,197.5 150.9,197.5 
		153.8,197.5 156.8,197.5 160,197.4 163.2,197.4 166.6,197.4 170,197.4 173.5,197.4 177.1,197.4 180.7,197.4 184.4,197.4 
		188.1,197.4 191.8,197.4 195.6,197.3 199.3,197.3 	"/>
	<line class="st1" x1="199.3" y1="197.3" x2="199.3" y2="200.9"/>
	<line class="st1" x1="135" y1="197.6" x2="135" y2="201.2"/>
	<polyline class="st1" points="161.8,203.2 162.6,203.2 163.5,203.2 	"/>
	<polyline class="st1" points="199.3,200.9 199.3,201.3 199.3,201.7 199.2,202.1 199.2,202.4 199.2,202.7 199.2,202.9 199.1,203 
		199.1,203.1 	"/>
	<polyline class="st1" points="135,201.2 136.8,201.1 138.7,201.1 140.8,201.1 143.1,201.1 145.6,201.1 148.2,201.1 150.9,201.1 
		153.8,201 156.8,201 160,201 163.2,201 166.6,201 170,201 173.5,201 177.1,201 180.7,200.9 184.4,200.9 188.1,200.9 191.8,200.9 
		195.6,200.9 199.3,200.9 	"/>
	<polyline class="st1" points="135,201.2 135.1,201.6 135.2,202 135.3,202.4 135.6,202.7 135.9,203 136.2,203.2 136.6,203.3 
		136.9,203.3 	"/>
	<polyline class="st1" points="140.4,203.3 140.4,203.3 140.5,203.3 140.8,203.3 141.4,203.3 142.1,203.3 143,203.3 144.1,203.3 
		145.3,203.3 146.7,203.3 148.1,203.3 149.6,203.3 151.2,203.3 152.8,203.3 154.4,203.3 156,203.3 157.5,203.3 159,203.3 
		160.3,203.3 161.5,203.3 162.5,203.3 163.4,203.3 164.1,203.3 164.6,203.3 164.9,203.3 165,203.3 	"/>
	<polyline class="st1" points="177.4,203.6 177.4,203.6 177.5,203.6 177.9,203.6 178.4,203.6 179.2,203.6 180.1,203.5 181.1,203.5 
		181.4,203.5 	"/>
	<polyline class="st1" points="222.3,203.4 222.3,203.4 222.5,203.4 222.8,203.4 223.3,203.4 224,203.4 225,203.4 226,203.4 
		227.3,203.4 228.6,203.3 230.1,203.3 231.6,203.3 233.2,203.3 234.8,203.3 236.4,203.3 238,203.3 239.5,203.3 240.9,203.3 
		242.2,203.3 243.4,203.3 244.5,203.3 245.4,203.3 246,203.4 246.5,203.4 246.8,203.4 246.9,203.4 	"/>
	<polyline class="st1" points="185.3,203.2 185.3,203.2 185.4,203.2 185.7,203.2 186.3,203.1 187,203.1 187.9,203.1 189,203.1 
		190.2,203.1 191.6,203.1 193,203.1 194.5,203.1 196.1,203.1 197.7,203.1 199.3,203.1 200.9,203.1 202.4,203.1 203.9,203.1 
		205.2,203.1 206.4,203.1 207.4,203.1 208.3,203.1 209,203.1 209.5,203.1 209.8,203.1 209.9,203.1 	"/>
	<polyline class="st1" points="181.4,203.4 181.4,203.4 181.5,203.4 181.8,203.4 182.4,203.4 183.1,203.3 184,203.3 185.1,203.3 
		185.3,203.3 	"/>
	<polyline class="st1" points="222.3,203.6 219.7,203.6 215.5,203.6 	"/>
	<polyline class="st1" points="222.3,203.6 221.8,203.6 220.9,203.6 220,203.6 219.1,203.6 218.5,203.6 218,203.6 217.7,203.6 
		217.6,203.5 217.7,203.5 218,203.5 218.5,203.5 219.2,203.5 220,203.5 220.9,203.5 221.9,203.5 222.3,203.5 	"/>
	<polyline class="st1" points="250.4,203.4 247,203.4 246.9,203.4 	"/>
	<polyline class="st1" points="250,203.3 250.9,203.3 251.6,203.3 252,203.4 252.2,203.4 	"/>
	<line class="st1" x1="233.2" y1="203.2" x2="250" y2="203.3"/>
	<polyline class="st1" points="233.2,203.2 232.8,203.2 232.2,203.2 231.4,203.2 230.6,203.2 229.6,203.2 228.6,203.2 227.5,203.2 
		226.6,203.2 225.7,203.2 225,203.2 224.4,203.2 224,203.2 223.8,203.2 223.8,203.2 224,203.2 224.5,203.2 225.1,203.2 225.9,203.2 
		226.7,203.2 227.7,203.2 228.7,203.2 229.7,203.2 	"/>
	<line class="st1" x1="212.9" y1="203.1" x2="229.7" y2="203.2"/>
	<polyline class="st1" points="199.1,203.1 201.2,203.1 203.2,203.1 205.2,203.1 207.1,203.1 208.9,203.1 210.4,203.1 211.8,203.1 
		212.9,203.1 	"/>
	<polyline class="st1" points="178.7,203.1 185.4,203.1 192.2,203.1 199.1,203.1 	"/>
	<polyline class="st1" points="178.7,203.1 179.5,203.1 180.1,203.1 180.6,203.1 180.9,203.1 181,203.1 180.8,203.1 180.5,203.1 
		180,203.1 179.3,203.1 178.5,203.1 177.6,203.1 176.6,203.2 175.6,203.2 174.6,203.2 173.7,203.2 172.9,203.2 172.2,203.1 
		171.7,203.1 171.5,203.1 171.4,203.1 171.5,203.1 171.8,203.1 	"/>
	<polyline class="st1" points="163.5,203.2 167.6,203.1 171.8,203.1 	"/>
	<polyline class="st1" points="163.5,203.2 164.4,203.2 165.5,203.2 166.4,203.2 167.4,203.2 168.2,203.2 168.9,203.2 169.3,203.2 
		169.7,203.2 169.7,203.2 169.6,203.2 169.3,203.2 168.8,203.2 168.1,203.2 167.3,203.2 166.4,203.2 165.4,203.2 164.4,203.2 
		163.4,203.2 162.5,203.2 161.7,203.2 161,203.2 160.5,203.2 160.2,203.2 160.2,203.2 160.3,203.2 160.6,203.2 161.1,203.2 
		161.8,203.2 	"/>
	<polyline class="st1" points="154.3,203.2 157.9,203.2 161.8,203.2 	"/>
	<polyline class="st1" points="154.3,203.2 155.2,203.2 156.1,203.2 157,203.2 157.6,203.2 158.1,203.2 158.4,203.2 158.5,203.2 
		158.4,203.2 158.1,203.2 157.6,203.2 156.9,203.2 156.1,203.2 155.2,203.2 154.2,203.2 153.2,203.2 152.2,203.2 151.3,203.2 
		150.5,203.2 149.8,203.2 149.3,203.2 149,203.2 148.9,203.2 	"/>
	<polyline class="st1" points="136.9,203.3 140.3,203.3 144.3,203.3 148.9,203.2 	"/>
	<polyline class="st1" points="137.4,203.4 136.4,203.4 135.7,203.4 135.3,203.4 135.1,203.4 135.2,203.3 135.5,203.3 136.1,203.3 
		136.9,203.3 	"/>
	<line class="st1" x1="140.4" y1="203.4" x2="137.4" y2="203.4"/>
	<line class="st1" x1="174.4" y1="203.6" x2="165" y2="203.6"/>
	<polyline class="st1" points="177.4,203.6 176.9,203.6 175.5,203.6 174.4,203.6 	"/>
	<polyline class="st1" points="209.9,203.6 210.7,203.6 211.7,203.6 212.7,203.6 213.6,203.6 214.4,203.6 215.1,203.6 215.6,203.6 
		215.9,203.6 215.9,203.6 215.8,203.6 215.5,203.6 	"/>
	<line class="st1" x1="189.1" y1="51.8" x2="188.9" y2="51.8"/>
	<line class="st1" x1="189.5" y1="63.4" x2="188.9" y2="63.4"/>
	<line class="st1" x1="150.2" y1="63.5" x2="150.8" y2="63.5"/>
	<polyline class="st1" points="150.8,63.5 152.8,63.5 155,63.5 157.3,63.5 159.7,63.5 162.3,63.5 165,63.5 167.8,63.4 170.7,63.4 
		173.6,63.4 176.7,63.4 179.8,63.4 183,63.4 186.2,63.4 189.5,63.4 	"/>
	<line class="st1" x1="188.9" y1="63.4" x2="188.9" y2="51.8"/>
	<polyline class="st1" points="188.9,51.8 185.4,51.8 181.9,51.8 178.5,51.8 175.2,51.8 171.9,51.8 168.7,51.9 165.7,51.9 
		162.7,51.9 159.9,51.9 157.2,51.9 154.7,51.9 152.4,51.9 150.2,52 	"/>
	<line class="st1" x1="150.2" y1="52" x2="150.2" y2="63.5"/>
	<polyline class="st1" points="150.2,63.5 152.4,63.5 154.7,63.5 157.3,63.5 159.9,63.5 162.7,63.5 165.7,63.5 168.7,63.4 
		171.9,63.4 175.2,63.4 178.5,63.4 181.9,63.4 185.4,63.4 188.9,63.4 	"/>
	<line class="st1" x1="151.6" y1="156.2" x2="151.3" y2="156.2"/>
	<line class="st1" x1="152.4" y1="156.2" x2="151.3" y2="156.2"/>
	<line class="st1" x1="156" y1="151.6" x2="156" y2="154.8"/>
	<line class="st1" x1="151.3" y1="148.8" x2="152.4" y2="148.8"/>
	<line class="st1" x1="151.3" y1="156.2" x2="151.3" y2="148.8"/>
	<line class="st1" x1="221.9" y1="203.5" x2="221.9" y2="203.5"/>
	<polyline class="st1" points="222.3,203.6 221.7,203.6 220.8,203.6 220,203.6 219.3,203.6 218.8,203.6 218.5,203.5 218.4,203.5 
		218.5,203.5 218.8,203.5 219.3,203.5 220,203.5 220.8,203.5 221.7,203.5 222.3,203.5 	"/>
	<line class="st1" x1="220.8" y1="203.5" x2="221.9" y2="203.5"/>
	<line class="st1" x1="221.2" y1="203.5" x2="220.8" y2="203.5"/>
	<line class="st1" x1="222.3" y1="203.5" x2="221.2" y2="203.5"/>
	<line class="st1" x1="221.9" y1="203.5" x2="222.3" y2="203.5"/>
	<polyline class="st1" points="251.8,180.4 252.8,180.4 253.5,180.5 254,180.5 254.3,180.5 254.3,180.5 	"/>
	<polyline class="st1" points="132.9,180.5 132.9,180.5 133.1,180.5 133.5,180.5 134.1,180.4 135,180.4 	"/>
	<line class="st1" x1="214.8" y1="180.2" x2="251.8" y2="180.4"/>
	<line class="st1" x1="251.8" y1="180.4" x2="251.8" y2="197.6"/>
	<polyline class="st1" points="199.2,180.2 201.4,180.2 203.4,180.2 205.4,180.2 207.3,180.2 209.1,180.2 210.8,180.2 212.3,180.2 
		213.6,180.2 214.8,180.2 	"/>
	<line class="st1" x1="214.8" y1="180.2" x2="214.8" y2="197.4"/>
	<polyline class="st1" points="135,180.4 136.7,180.4 138.7,180.4 140.8,180.4 143.1,180.4 145.5,180.4 148.1,180.3 150.9,180.3 
		153.8,180.3 156.8,180.3 160,180.3 163.2,180.3 166.5,180.3 170,180.2 173.5,180.2 177.1,180.2 180.7,180.2 184.4,180.2 
		188.1,180.2 191.8,180.2 195.5,180.2 199.2,180.2 	"/>
	<line class="st1" x1="199.3" y1="197.3" x2="199.2" y2="180.2"/>
	<line class="st1" x1="135" y1="180.4" x2="135" y2="197.6"/>
	<polyline class="st1" points="135,197.6 136.7,197.6 138.7,197.6 140.8,197.5 143.1,197.5 145.6,197.5 148.1,197.5 150.9,197.5 
		153.8,197.5 156.8,197.5 160,197.4 163.2,197.4 166.6,197.4 170,197.4 173.5,197.4 177.1,197.4 180.7,197.4 184.4,197.4 
		188.1,197.4 191.8,197.4 195.6,197.3 199.3,197.3 	"/>
	<polyline class="st1" points="132.9,197.6 132.9,197.6 133.1,197.6 133.5,197.6 134.1,197.6 135,197.6 	"/>
	<polyline class="st1" points="251.8,197.6 252.8,197.6 253.5,197.6 254,197.6 254.3,197.6 254.4,197.6 	"/>
	<line class="st1" x1="214.8" y1="197.4" x2="251.8" y2="197.6"/>
	<polyline class="st1" points="199.3,197.3 201.4,197.3 203.5,197.3 205.4,197.3 207.4,197.3 209.2,197.3 210.8,197.3 212.3,197.4 
		213.6,197.4 214.8,197.4 	"/>
	<polyline class="st1" points="171.6,44.6 171.7,44.6 172,44.6 172.5,44.6 173.2,44.6 174.1,44.6 175.1,44.6 176.4,44.6 177.7,44.5 
		179.3,44.5 180.9,44.5 182.7,44.5 	"/>
	<polyline class="st1" points="182.7,44.5 184.6,44.5 186.6,44.5 188.6,44.5 190.7,44.5 192.8,44.5 194.9,44.5 197,44.5 199.1,44.5 
		201.1,44.5 203,44.5 204.9,44.5 206.6,44.5 208.2,44.5 209.7,44.5 211,44.5 212.2,44.5 213.2,44.5 214,44.5 214.6,44.5 215,44.5 
		215.2,44.5 215.2,44.6 	"/>
	<polyline class="st1" points="215.9,45.3 215.9,45.3 215.8,45.2 215.4,45.2 214.8,45.2 214,45.2 213.1,45.2 	"/>
	<polyline class="st1" points="213.1,45.2 211.9,45.2 210.6,45.2 209.2,45.2 207.6,45.2 205.8,45.2 204,45.2 202,45.2 200,45.2 
		198,45.2 195.8,45.2 193.7,45.2 191.5,45.2 189.4,45.2 187.3,45.2 185.3,45.2 183.3,45.2 181.5,45.2 179.7,45.2 178.1,45.2 
		176.6,45.3 175.2,45.3 174.1,45.3 173.1,45.3 172.2,45.3 171.6,45.3 171.2,45.3 170.9,45.3 170.9,45.3 	"/>
	<polyline class="st1" points="207.8,51.6 209,51.6 210.3,51.6 211.2,51.6 211.9,51.6 212.3,51.6 212.5,51.6 212.3,51.6 211.7,51.6 
		210.9,51.6 209.8,51.6 208.5,51.6 207.1,51.6 	"/>
	<polyline class="st1" points="207.1,51.6 205.6,51.6 204,51.6 202.4,51.6 200.7,51.6 199.3,51.6 198,51.6 197,51.6 196.4,51.6 
		196,51.6 	"/>
	<polyline class="st1" points="211.8,205.3 211.7,205.3 211.5,205.3 211.1,205.3 210.5,205.3 209.7,205.3 208.7,205.2 207.6,205.2 
		206.3,205.2 204.9,205.2 203.4,205.2 201.7,205.2 200.1,205.2 198.4,205.2 196.7,205.2 195,205.2 193.3,205.2 191.7,205.3 
		190.2,205.3 	"/>
	<polyline class="st1" points="190.2,205.3 188.8,205.3 187.5,205.3 186.4,205.3 185.4,205.3 184.7,205.3 184.1,205.3 183.6,205.3 
		183.4,205.3 183.4,205.3 	"/>
	<polyline class="st1" points="183.4,220.8 183.5,220.8 183.7,220.7 184.1,220.7 184.7,220.7 185.5,220.7 186.4,220.7 187.6,220.7 
		188.8,220.7 190.2,220.7 	"/>
	<polyline class="st1" points="190.2,220.7 191.7,220.7 193.3,220.7 195,220.7 196.7,220.7 198.4,220.7 200.1,220.7 201.8,220.7 
		203.4,220.7 204.9,220.7 206.3,220.7 207.6,220.7 208.7,220.7 209.7,220.7 210.5,220.7 211.1,220.7 211.5,220.7 211.8,220.7 
		211.8,220.7 	"/>
	<polyline class="st1" points="185.7,227.5 186,227.5 186.4,227.5 187.1,227.5 187.9,227.5 188.9,227.5 190.1,227.5 191.4,227.5 	
		"/>
	<line class="st1" x1="185.6" y1="227.5" x2="185.6" y2="227.5"/>
	<line class="st1" x1="209.6" y1="227.5" x2="209.6" y2="227.5"/>
	<polyline class="st1" points="191.4,227.5 192.8,227.4 194.2,227.4 195.8,227.4 197.3,227.4 198.9,227.4 200.5,227.4 201.9,227.4 
		203.4,227.4 204.7,227.4 205.9,227.4 207,227.4 207.9,227.4 208.6,227.5 209.1,227.5 209.5,227.5 209.6,227.5 	"/>
	<polyline class="st1" points="208.7,232.5 210.5,232.5 212.1,232.5 213.5,232.5 214.9,232.5 216,232.5 217,232.5 217.8,232.5 
		218.3,232.5 218.7,232.5 218.9,232.5 218.9,232.4 218.7,232.4 218.3,232.4 217.6,232.4 216.8,232.4 215.8,232.4 214.7,232.4 
		213.3,232.4 211.8,232.4 210.2,232.4 208.4,232.4 206.6,232.4 204.7,232.4 202.6,232.4 200.6,232.4 198.5,232.4 196.4,232.4 
		194.3,232.4 192.3,232.4 190.3,232.4 188.4,232.4 186.5,232.4 184.8,232.4 183.2,232.4 181.7,232.4 180.4,232.5 179.3,232.5 
		178.3,232.5 177.5,232.5 176.9,232.5 176.5,232.5 176.3,232.5 176.4,232.5 176.6,232.5 177,232.5 177.6,232.5 178.4,232.5 
		179.4,232.6 180.6,232.6 181.9,232.6 183.4,232.6 185.1,232.6 186.8,232.6 188.7,232.6 190.6,232.6 192.6,232.6 194.7,232.6 
		196.7,232.6 198.8,232.6 200.9,232.6 203,232.6 205,232.6 206.9,232.6 208.7,232.5 	"/>
	<polyline class="st1" points="209.6,228 209.6,228 209.5,228 209.1,228 208.6,228 207.8,228 206.9,228 205.9,228 204.7,228 
		203.4,228 201.9,228 200.5,228 198.9,228 197.3,228 195.8,228 194.2,228 192.8,228 191.4,228 	"/>
	<polyline class="st1" points="191.4,228 190.1,228 188.9,228 187.9,228 187.1,228 186.4,228 186,228 185.7,228 185.6,228 	"/>
	<polyline class="st1" points="175.7,223.8 175.7,223.8 175.9,223.8 176.3,223.8 177,223.8 177.8,223.8 178.8,223.7 179.9,223.7 
		181.3,223.7 182.8,223.7 184.4,223.7 186.2,223.7 	"/>
	<line class="st1" x1="175.7" y1="223.8" x2="175.7" y2="223.8"/>
	<line class="st1" x1="219.6" y1="223.7" x2="219.6" y2="223.7"/>
	<polyline class="st1" points="186.2,223.7 188,223.7 190,223.7 192,223.7 194.1,223.7 196.2,223.7 198.3,223.7 200.5,223.7 
		202.5,223.7 204.6,223.7 206.6,223.7 208.4,223.7 210.2,223.7 211.9,223.7 213.5,223.7 214.9,223.7 216.1,223.7 217.2,223.7 
		218,223.7 218.7,223.7 219.2,223.7 219.5,223.7 219.6,223.7 	"/>
	<polyline class="st1" points="216.4,223.2 217.4,223.2 218.2,223.2 218.8,223.2 219.3,223.2 219.5,223.2 219.6,223.2 	"/>
	<polyline class="st1" points="186.2,232.4 188,232.4 190,232.4 192,232.4 194.1,232.4 196.2,232.4 198.3,232.4 200.5,232.4 
		202.5,232.4 204.6,232.4 206.6,232.4 208.5,232.4 210.3,232.4 212,232.4 213.5,232.4 214.9,232.4 216.1,232.4 217.2,232.4 
		218.1,232.4 218.8,232.4 219.3,232.4 219.6,232.4 219.7,232.4 219.5,232.5 219.2,232.5 218.7,232.5 218,232.5 217.1,232.5 
		215.9,232.5 214.7,232.5 213.3,232.5 211.7,232.5 210,232.5 208.2,232.6 206.3,232.6 204.3,232.6 202.2,232.6 200.1,232.6 
		198,232.6 195.9,232.6 193.7,232.6 191.7,232.6 189.7,232.6 187.7,232.6 185.8,232.6 184.1,232.6 182.5,232.6 181,232.6 
		179.7,232.6 178.6,232.6 177.6,232.6 176.8,232.5 176.2,232.5 175.8,232.5 175.6,232.5 175.9,232.5 176.3,232.5 176.9,232.5 
		177.7,232.5 178.7,232.5 179.9,232.4 181.3,232.4 182.8,232.4 184.4,232.4 186.2,232.4 	"/>
	<polyline class="st1" points="175.5,232.2 175.7,232.2 176,232.2 176.5,232.2 177.2,232.2 178.1,232.2 179.3,232.2 180.5,232.1 
		182,232.1 183.5,232.1 185.2,232.1 187.1,232.1 189,232.1 191,232.1 193,232.1 195.2,232.1 197.3,232.1 199.4,232.1 201.5,232.1 
		203.6,232.1 205.6,232.1 207.6,232.1 209.4,232.1 211.2,232.1 212.8,232.1 214.3,232.1 215.6,232.1 216.7,232.1 217.7,232.1 
		218.5,232.1 219.1,232.1 219.5,232.1 219.7,232.1 219.7,232.2 	"/>
	<polyline class="st1" points="248.8,205.5 248.8,205.5 248.6,205.5 248.3,205.5 247.7,205.5 247,205.5 246.1,205.5 245,205.5 
		243.7,205.5 242.4,205.5 240.9,205.5 239.3,205.5 237.6,205.5 235.9,205.5 234.2,205.5 232.5,205.5 230.9,205.5 229.2,205.5 
		227.7,205.5 	"/>
	<polyline class="st1" points="227.7,205.5 226.3,205.5 224.9,205.5 223.8,205.5 222.8,205.5 221.9,205.5 221.2,205.5 220.8,205.5 
		220.5,205.6 220.5,205.6 	"/>
	<polyline class="st1" points="220.5,221 220.6,221 220.8,221 221.3,221 221.9,221 222.8,221 223.8,220.9 225,220.9 226.3,220.9 
		227.7,220.9 	"/>
	<polyline class="st1" points="227.7,220.9 229.3,220.9 230.9,220.9 232.5,220.9 234.3,220.9 236,220.9 237.7,220.9 239.3,220.9 
		240.9,220.9 242.4,220.9 243.7,220.9 245,220.9 246.1,220.9 247,220.9 247.8,220.9 248.3,220.9 248.7,220.9 248.8,220.9 	"/>
	<polyline class="st1" points="222.7,227.7 222.8,227.7 223.1,227.7 223.6,227.7 224.4,227.7 225.3,227.7 226.3,227.7 227.5,227.7 
		228.8,227.7 	"/>
	<line class="st1" x1="222.7" y1="227.7" x2="222.7" y2="227.7"/>
	<polyline class="st1" points="228.8,227.7 230.2,227.7 231.7,227.7 233.3,227.7 234.8,227.7 236.4,227.7 237.9,227.7 239.4,227.7 
		240.8,227.7 242.1,227.7 243.2,227.7 244.3,227.7 245.1,227.7 245.8,227.7 246.3,227.7 246.6,227.7 246.6,227.7 	"/>
	<polyline class="st1" points="245.1,232.8 246.9,232.8 248.5,232.8 250.1,232.8 251.4,232.8 252.6,232.7 253.7,232.7 254.5,232.7 
		255.2,232.7 255.7,232.7 255.9,232.7 256,232.7 255.8,232.7 255.5,232.7 254.9,232.7 254.2,232.7 253.3,232.6 252.1,232.6 
		250.9,232.6 249.4,232.6 247.9,232.6 246.1,232.6 244.3,232.6 242.4,232.6 240.4,232.6 238.4,232.6 236.3,232.6 234.2,232.6 
		232.1,232.6 230.1,232.6 228.1,232.6 226.1,232.6 224.2,232.7 222.5,232.7 220.8,232.7 219.3,232.7 217.9,232.7 216.7,232.7 
		215.7,232.7 214.8,232.7 214.2,232.7 213.7,232.7 213.4,232.7 213.4,232.7 213.5,232.8 213.8,232.8 214.4,232.8 215.2,232.8 
		216.1,232.8 217.2,232.8 218.5,232.8 219.9,232.8 221.5,232.8 223.2,232.8 225,232.8 226.9,232.8 228.9,232.8 231,232.8 233,232.8 
		235.1,232.8 237.2,232.8 239.3,232.8 241.3,232.8 243.2,232.8 245.1,232.8 	"/>
	<polyline class="st1" points="246.6,228.2 246.6,228.2 246.3,228.2 245.8,228.2 245.1,228.2 244.3,228.2 243.2,228.2 242.1,228.2 
		240.8,228.2 239.4,228.2 237.9,228.2 236.4,228.2 234.8,228.2 233.3,228.2 231.7,228.2 230.2,228.2 228.8,228.2 	"/>
	<polyline class="st1" points="228.8,228.2 227.5,228.2 226.3,228.2 225.3,228.2 224.4,228.2 223.7,228.2 223.1,228.3 222.8,228.3 
		222.7,228.3 	"/>
	<polyline class="st1" points="219,224 220.4,224 222.1,223.9 223.9,223.9 	"/>
	<line class="st1" x1="256.6" y1="224" x2="256.6" y2="224"/>
	<polyline class="st1" points="223.9,223.9 225.8,223.9 227.8,223.9 229.8,223.9 231.9,223.9 234,223.9 236.2,223.9 238.3,223.9 
		240.3,223.9 242.4,223.9 244.3,223.9 246.2,223.9 247.9,223.9 249.5,223.9 251,223.9 252.4,223.9 253.6,223.9 254.5,223.9 
		255.4,223.9 256,223.9 256.4,224 256.6,224 256.6,224 	"/>
	<polyline class="st1" points="253.8,223.4 254.7,223.4 255.5,223.4 256.1,223.4 256.4,223.4 256.6,223.4 	"/>
	<polyline class="st1" points="223.9,232.6 225.8,232.6 227.8,232.6 229.8,232.6 231.9,232.6 234.1,232.6 236.2,232.6 238.3,232.6 
		240.4,232.6 242.4,232.6 244.4,232.6 246.2,232.6 248,232.6 249.6,232.6 251.1,232.6 252.5,232.6 253.6,232.6 254.6,232.6 
		255.4,232.7 256,232.7 256.5,232.7 256.7,232.7 256.7,232.7 256.5,232.7 256.1,232.7 255.5,232.7 254.7,232.7 253.7,232.7 
		252.6,232.7 251.2,232.8 249.8,232.8 248.1,232.8 246.4,232.8 244.5,232.8 242.6,232.8 240.5,232.8 238.5,232.8 236.4,232.8 
		234.2,232.8 232.1,232.8 230,232.8 228,232.8 226,232.8 224,232.8 222.2,232.8 220.5,232.8 219,232.8 217.6,232.8 216.3,232.8 
		215.2,232.8 214.3,232.8 213.6,232.8 213.1,232.8 212.8,232.8 212.6,232.7 212.7,232.7 213,232.7 213.5,232.7 214.3,232.7 
		215.1,232.7 216.2,232.7 217.5,232.7 218.8,232.7 220.4,232.7 222.1,232.7 223.9,232.6 	"/>
	<polyline class="st1" points="219.8,232.4 221.2,232.4 223,232.4 224.8,232.3 226.8,232.3 228.8,232.3 230.9,232.3 233,232.3 
		235.1,232.3 237.2,232.3 239.4,232.3 241.4,232.3 243.4,232.3 245.3,232.3 247.2,232.3 248.8,232.3 250.4,232.3 251.8,232.3 
		253.1,232.3 254.2,232.3 255.1,232.4 255.8,232.4 256.3,232.4 256.6,232.4 256.8,232.4 	"/>
	<polyline class="st1" points="183.4,205.5 182.8,205.5 181.8,205.5 180.9,205.5 180.3,205.5 179.8,205.5 179.6,205.5 179.5,205.5 	
		"/>
	<polyline class="st1" points="179.5,221 179.6,221 179.8,220.9 180.3,220.9 180.9,220.9 181.8,220.9 182.8,220.9 182.9,220.9 	"/>
	<polyline class="st1" points="181.7,227.7 181.8,227.7 182.2,227.7 182.7,227.7 183.4,227.7 184.3,227.7 185.3,227.7 185.7,227.7 	
		"/>
	<line class="st1" x1="181.7" y1="227.7" x2="181.7" y2="227.7"/>
	<polyline class="st1" points="204.1,232.8 205.9,232.7 207.6,232.7 209.1,232.7 210.4,232.7 211.7,232.7 212.7,232.7 213.5,232.7 
		214.2,232.7 214.7,232.7 215,232.7 215,232.7 214.9,232.6 214.5,232.6 214,232.6 213.2,232.6 212.3,232.6 211.2,232.6 209.9,232.6 
		208.4,232.6 206.9,232.6 205.2,232.6 203.4,232.6 201.5,232.6 199.5,232.6 197.4,232.6 195.4,232.6 193.3,232.6 191.2,232.6 
		189.1,232.6 187.1,232.6 185.1,232.6 183.3,232.6 181.5,232.6 179.8,232.6 178.3,232.6 176.9,232.7 175.7,232.7 174.7,232.7 
		173.8,232.7 173.2,232.7 172.7,232.7 172.4,232.7 172.4,232.7 172.5,232.7 172.9,232.7 173.4,232.7 174.2,232.8 175.1,232.8 
		176.2,232.8 177.5,232.8 178.9,232.8 180.5,232.8 182.2,232.8 184.1,232.8 185.9,232.8 187.9,232.8 190,232.8 192,232.8 
		194.1,232.8 196.2,232.8 198.3,232.8 200.3,232.8 202.3,232.8 204.1,232.8 	"/>
	<polyline class="st1" points="185.2,228.2 184.3,228.2 183.4,228.2 182.7,228.2 182.2,228.2 181.8,228.2 181.7,228.2 	"/>
	<polyline class="st1" points="174.6,224 175.3,223.9 176,223.9 	"/>
	<line class="st1" x1="174.7" y1="223.4" x2="175.5" y2="223.4"/>
	<polyline class="st1" points="182.9,232.6 184.8,232.6 186.8,232.6 188.9,232.6 191,232.6 193.1,232.6 195.2,232.6 197.3,232.6 
		199.4,232.6 201.4,232.6 203.4,232.6 205.2,232.6 207,232.6 208.6,232.6 210.1,232.6 211.5,232.6 212.6,232.6 213.6,232.6 
		214.5,232.6 215.1,232.6 215.5,232.6 215.7,232.6 215.7,232.7 215.5,232.7 215.1,232.7 214.5,232.7 213.7,232.7 212.7,232.7 
		211.6,232.7 210.2,232.7 208.8,232.7 207.1,232.7 205.4,232.8 203.5,232.8 201.6,232.8 199.6,232.8 197.5,232.8 195.4,232.8 
		193.3,232.8 191.1,232.8 189,232.8 187,232.8 185,232.8 183.1,232.8 181.3,232.8 179.6,232.8 178,232.8 176.6,232.8 175.3,232.8 
		174.2,232.8 173.3,232.8 172.6,232.7 172.1,232.7 171.8,232.7 171.7,232.7 171.8,232.7 172.1,232.7 172.6,232.7 173.3,232.7 
		174.2,232.7 175.2,232.7 176.5,232.7 177.9,232.6 179.4,232.6 181.1,232.6 182.9,232.6 	"/>
	<line class="st1" x1="174.8" y1="232.4" x2="175.5" y2="232.4"/>
	<line class="st1" x1="151.6" y1="144.8" x2="151.3" y2="144.8"/>
	<line class="st1" x1="152.4" y1="144.7" x2="151.3" y2="144.8"/>
	<line class="st1" x1="156" y1="140.2" x2="156" y2="143.3"/>
	<line class="st1" x1="151.3" y1="137.4" x2="152.4" y2="137.4"/>
	<line class="st1" x1="151.3" y1="144.8" x2="151.3" y2="137.4"/>
	<polyline class="st1" points="166.8,205.5 166.8,205.5 166.7,205.4 166.3,205.4 165.8,205.4 165,205.4 164.1,205.4 163,205.4 
		161.8,205.4 160.4,205.4 158.9,205.4 157.3,205.4 155.7,205.4 154,205.4 152.3,205.4 150.6,205.4 148.9,205.4 147.3,205.4 
		145.8,205.4 	"/>
	<polyline class="st1" points="145.8,205.4 144.3,205.4 143,205.4 141.8,205.5 140.8,205.5 140,205.5 139.3,205.5 138.8,205.5 
		138.6,205.5 138.5,205.5 	"/>
	<polyline class="st1" points="138.5,220.9 138.6,220.9 138.9,220.9 139.3,220.9 140,220.9 140.8,220.9 141.8,220.9 143,220.9 
		144.3,220.9 145.8,220.9 	"/>
	<polyline class="st1" points="145.8,220.9 147.3,220.9 148.9,220.9 150.6,220.9 152.3,220.8 154,220.8 155.7,220.8 157.4,220.8 
		158.9,220.8 160.4,220.8 161.8,220.8 163,220.9 164.1,220.9 165.1,220.9 165.8,220.9 166.4,220.9 166.7,220.9 166.9,220.9 	"/>
	<polyline class="st1" points="140.7,227.7 140.9,227.7 141.2,227.7 141.7,227.7 142.4,227.7 143.3,227.6 144.3,227.6 145.5,227.6 
		146.8,227.6 	"/>
	<line class="st1" x1="140.7" y1="227.7" x2="140.7" y2="227.7"/>
	<polyline class="st1" points="146.8,227.6 148.3,227.6 149.8,227.6 151.3,227.6 152.9,227.6 154.4,227.6 156,227.6 157.4,227.6 
		158.8,227.6 160.1,227.6 161.3,227.6 162.3,227.6 163.2,227.6 163.8,227.6 164.3,227.6 164.6,227.6 164.7,227.6 	"/>
	<polyline class="st1" points="163.2,232.7 164.9,232.7 166.6,232.7 168.1,232.7 169.5,232.7 170.7,232.7 171.7,232.7 172.6,232.7 
		173.3,232.7 173.7,232.6 174,232.6 174,232.6 173.9,232.6 173.5,232.6 173,232.6 172.2,232.6 171.3,232.6 170.2,232.6 168.9,232.6 
		167.5,232.6 165.9,232.6 164.2,232.6 162.4,232.6 160.5,232.6 158.5,232.6 156.5,232.6 154.4,232.6 152.3,232.6 150.2,232.6 
		148.1,232.6 146.1,232.6 144.2,232.6 142.3,232.6 140.5,232.6 138.9,232.6 137.4,232.6 136,232.6 134.8,232.6 133.7,232.6 
		132.9,232.7 132.2,232.7 131.7,232.7 131.5,232.7 131.4,232.7 131.5,232.7 131.9,232.7 132.5,232.7 133.2,232.7 134.1,232.7 
		135.3,232.7 136.5,232.7 138,232.7 139.5,232.7 141.3,232.8 143.1,232.8 145,232.8 147,232.8 149,232.8 151.1,232.8 153.2,232.7 
		155.2,232.7 157.3,232.7 159.3,232.7 161.3,232.7 163.2,232.7 	"/>
	<polyline class="st1" points="164.7,228.2 164.6,228.2 164.3,228.2 163.8,228.2 163.2,228.2 162.3,228.1 161.3,228.1 160.1,228.1 
		158.8,228.1 157.4,228.1 156,228.1 154.4,228.1 152.9,228.1 151.3,228.1 149.8,228.1 148.3,228.2 146.9,228.2 	"/>
	<polyline class="st1" points="146.9,228.2 145.6,228.2 144.3,228.2 143.3,228.2 142.4,228.2 141.7,228.2 141.2,228.2 140.9,228.2 
		140.7,228.2 	"/>
	<polyline class="st1" points="130.7,224 130.8,224 131.1,224 131.6,223.9 132.3,223.9 133.2,223.9 134.3,223.9 135.5,223.9 
		136.9,223.9 138.5,223.9 140.2,223.9 142,223.9 	"/>
	<line class="st1" x1="130.7" y1="224" x2="130.7" y2="224"/>
	<line class="st1" x1="174.7" y1="223.9" x2="174.7" y2="223.9"/>
	<polyline class="st1" points="142,223.9 143.9,223.9 145.8,223.9 147.9,223.9 150,223.9 152.1,223.8 154.2,223.8 156.3,223.8 
		158.4,223.8 160.4,223.8 162.4,223.8 164.2,223.8 166,223.8 167.6,223.9 169.1,223.9 170.4,223.9 171.6,223.9 172.6,223.9 
		173.4,223.9 174,223.9 174.4,223.9 174.7,223.9 174.7,223.9 	"/>
	<polyline class="st1" points="171.9,223.3 172.8,223.3 173.6,223.3 174.1,223.4 174.5,223.4 174.7,223.4 174.7,223.4 	"/>
	<polyline class="st1" points="141.9,232.6 143.8,232.6 145.8,232.6 147.9,232.6 150,232.6 152.1,232.6 154.2,232.6 156.3,232.6 
		158.4,232.6 160.5,232.6 162.4,232.6 164.3,232.6 166,232.6 167.7,232.6 169.2,232.6 170.5,232.6 171.7,232.6 172.7,232.6 
		173.5,232.6 174.1,232.6 174.5,232.6 174.7,232.6 174.7,232.6 174.5,232.6 174.1,232.6 173.5,232.7 172.7,232.7 171.8,232.7 
		170.6,232.7 169.3,232.7 167.8,232.7 166.2,232.7 164.4,232.7 162.6,232.7 160.6,232.7 158.6,232.7 156.5,232.7 154.4,232.8 
		152.3,232.8 150.2,232.8 148,232.8 146,232.8 144,232.8 142.1,232.8 140.3,232.8 138.6,232.8 137,232.7 135.6,232.7 134.3,232.7 
		133.3,232.7 132.4,232.7 131.6,232.7 131.1,232.7 130.8,232.7 130.7,232.7 130.8,232.7 131.1,232.7 131.6,232.7 132.3,232.7 
		133.2,232.6 134.2,232.6 135.5,232.6 136.9,232.6 138.5,232.6 140.2,232.6 141.9,232.6 	"/>
	<polyline class="st1" points="130.6,232.4 130.7,232.4 130.9,232.4 131.3,232.4 131.9,232.4 132.7,232.3 133.6,232.3 134.8,232.3 
		136.1,232.3 137.6,232.3 139.2,232.3 141,232.3 142.9,232.3 144.8,232.3 146.8,232.3 148.9,232.3 151,232.3 153.2,232.3 
		155.3,232.3 157.4,232.3 159.5,232.3 161.5,232.3 163.4,232.3 165.2,232.3 166.9,232.3 168.5,232.3 169.9,232.3 171.2,232.3 
		172.2,232.3 173.2,232.3 173.9,232.3 174.4,232.3 174.7,232.3 174.8,232.3 	"/>
	<polyline class="st1" points="179.5,205.7 178.9,205.7 177.8,205.7 177,205.7 176.4,205.7 175.9,205.7 175.6,205.7 175.6,205.7 	
		"/>
	<polyline class="st1" points="175.6,221.2 175.7,221.2 175.9,221.2 176.4,221.1 177,221.1 177.9,221.1 178.9,221.1 179,221.1 	"/>
	<polyline class="st1" points="177.8,227.9 177.9,227.9 178.2,227.9 178.8,227.9 179.5,227.9 180.3,227.9 181.4,227.9 181.8,227.9 	
		"/>
	<line class="st1" x1="177.8" y1="227.9" x2="177.8" y2="227.9"/>
	<polyline class="st1" points="181.3,228.4 180.3,228.4 179.5,228.4 178.8,228.4 178.2,228.4 177.9,228.4 177.8,228.4 	"/>
	<line class="st1" x1="246.6" y1="63.5" x2="247.1" y2="63.1"/>
	<line class="st1" x1="139.8" y1="63.3" x2="140.3" y2="63.7"/>
	<line class="st1" x1="140.2" y1="51.8" x2="139.8" y2="52.2"/>
	<line class="st1" x1="247.1" y1="52.1" x2="246.6" y2="51.7"/>
	<line class="st1" x1="247.1" y1="63.1" x2="247.1" y2="52.1"/>
	<line class="st1" x1="139.8" y1="52.3" x2="139.8" y2="63.3"/>
	<line class="st1" x1="241.3" y1="162" x2="241.1" y2="63.6"/>
	<polyline class="st1" points="247.8,169.1 246.7,168.9 245.6,168.5 244.5,167.9 243.4,167 242.5,165.9 241.9,164.7 241.4,163.3 
		241.3,162 	"/>
	<polyline class="st1" points="254.3,176.2 254.3,176 254.2,174.9 253.9,173.8 253.5,172.9 253,172 252.4,171.3 251.7,170.7 
		251,170.2 250.4,169.8 249.7,169.5 249,169.3 248.5,169.1 248.1,169.1 247.8,169.1 	"/>
	<line class="st1" x1="254.3" y1="180.5" x2="254.3" y2="176.2"/>
	<line class="st1" x1="145.8" y1="63.6" x2="145.9" y2="162"/>
	<polyline class="st1" points="145.9,161.9 145.8,162.9 145.6,164 145.2,165.1 144.5,166.2 143.5,167.3 142.3,168.1 140.9,168.7 
		139.4,169 	"/>
	<line class="st1" x1="132.9" y1="176.2" x2="132.9" y2="180.5"/>
	<polyline class="st1" points="139.4,169 139.3,169 139,169.1 138.6,169.2 137.9,169.3 137.1,169.7 136.2,170.2 135.5,170.7 
		134.7,171.4 134.1,172.2 133.6,173.1 133.2,174.1 133,175.2 132.9,176.2 	"/>
	<line class="st1" x1="177.4" y1="203.6" x2="177.4" y2="205"/>
	<line class="st1" x1="177.4" y1="205" x2="177.8" y2="205.7"/>
	<line class="st1" x1="254.4" y1="201.2" x2="254.4" y2="197.6"/>
	<polyline class="st1" points="250.5,203.4 250.7,203.4 251.2,203.4 251.6,203.4 251.9,203.4 252.1,203.4 252.2,203.4 252.4,203.4 
		252.5,203.3 252.6,203.3 252.8,203.3 253,203.2 253.3,203.1 253.7,202.8 254.1,202.3 254.3,201.7 254.3,201.2 	"/>
	<line class="st1" x1="222.3" y1="203.4" x2="222.3" y2="204.8"/>
	<line class="st1" x1="246.9" y1="204.8" x2="246.9" y2="203.4"/>
	<line class="st1" x1="246.5" y1="205.5" x2="246.9" y2="204.8"/>
	<line class="st1" x1="222.3" y1="204.8" x2="222.8" y2="205.5"/>
	<line class="st1" x1="181.4" y1="203.4" x2="181.4" y2="204.8"/>
	<line class="st1" x1="181.4" y1="204.8" x2="181.8" y2="205.5"/>
	<line class="st1" x1="132.9" y1="197.6" x2="132.9" y2="201.2"/>
	<polyline class="st1" points="133,201.2 132.9,201.4 133.1,202 133.4,202.5 133.8,203 134.3,203.2 134.6,203.3 134.7,203.3 
		134.9,203.3 135,203.4 135.2,203.4 135.5,203.4 135.9,203.4 136.5,203.4 137.1,203.4 137.3,203.4 	"/>
	<line class="st1" x1="140.4" y1="203.3" x2="140.4" y2="204.7"/>
	<line class="st1" x1="165" y1="204.7" x2="165" y2="203.3"/>
	<line class="st1" x1="164.6" y1="205.4" x2="165" y2="204.7"/>
	<line class="st1" x1="140.4" y1="204.7" x2="140.8" y2="205.5"/>
	<line class="st1" x1="185.3" y1="203.2" x2="185.3" y2="204.6"/>
	<line class="st1" x1="209.9" y1="204.5" x2="209.9" y2="203.1"/>
	<line class="st1" x1="209.5" y1="205.3" x2="209.9" y2="204.5"/>
	<line class="st1" x1="185.3" y1="204.6" x2="185.7" y2="205.3"/>
	<line class="st1" x1="218.4" y1="203.5" x2="218.4" y2="203.5"/>
	<line class="st1" x1="254.4" y1="197.6" x2="254.3" y2="180.5"/>
	<line class="st1" x1="132.9" y1="180.5" x2="132.9" y2="197.6"/>
	<line class="st1" x1="171.6" y1="44.6" x2="170.9" y2="45.3"/>
	<line class="st1" x1="215.9" y1="45.3" x2="215.2" y2="44.6"/>
	<line class="st1" x1="170.9" y1="45.3" x2="170.9" y2="49"/>
	<line class="st1" x1="216" y1="51.5" x2="215.9" y2="45.3"/>
	<polyline class="st1" points="170.9,49.2 170.9,48.9 170.8,48.7 170.6,48.6 170.3,48.5 170,48.6 169.8,48.7 169.7,48.9 169.6,49.2 
			"/>
	<line class="st1" x1="170.9" y1="51.8" x2="170.9" y2="49.2"/>
	<line class="st1" x1="169.6" y1="49.2" x2="169.6" y2="51.9"/>
	<polyline class="st1" points="174.1,49.2 174.1,48.9 173.9,48.7 173.7,48.6 173.5,48.5 173.2,48.6 173,48.7 172.9,48.9 172.8,49.2 
			"/>
	<line class="st1" x1="174.1" y1="51.8" x2="174.1" y2="49.2"/>
	<line class="st1" x1="172.8" y1="49.2" x2="172.8" y2="51.8"/>
	<polyline class="st1" points="169.2,49.2 169.1,48.9 169,48.7 168.8,48.6 168.5,48.5 168.3,48.6 168.1,48.7 167.9,48.9 167.9,49.2 
			"/>
	<line class="st1" x1="169.2" y1="51.9" x2="169.2" y2="49.2"/>
	<line class="st1" x1="167.9" y1="49.2" x2="167.9" y2="51.9"/>
	<polyline class="st1" points="177.3,49.2 177.2,48.9 177.1,48.7 176.9,48.6 176.6,48.5 176.4,48.6 176.2,48.7 176,48.9 176,49.2 	
		"/>
	<line class="st1" x1="177.3" y1="51.8" x2="177.3" y2="49.2"/>
	<line class="st1" x1="176" y1="49.2" x2="176" y2="51.8"/>
	<polyline class="st1" points="172.3,49.2 172.3,48.9 172.1,48.7 171.9,48.6 171.7,48.5 171.4,48.6 171.2,48.7 171.1,48.9 171,49.2 
			"/>
	<line class="st1" x1="172.3" y1="51.8" x2="172.3" y2="49.2"/>
	<line class="st1" x1="171" y1="49.2" x2="171.1" y2="51.8"/>
	<polyline class="st1" points="180.4,49.1 180.4,48.9 180.3,48.7 180,48.5 179.8,48.5 179.6,48.6 179.3,48.7 179.2,48.9 179.2,49.1 
			"/>
	<line class="st1" x1="180.4" y1="51.8" x2="180.4" y2="49.1"/>
	<line class="st1" x1="179.2" y1="49.1" x2="179.2" y2="51.8"/>
	<polyline class="st1" points="175.5,49.1 175.4,48.9 175.3,48.7 175.1,48.6 174.8,48.5 174.6,48.6 174.4,48.7 174.3,48.9 
		174.2,49.1 	"/>
	<line class="st1" x1="175.5" y1="51.8" x2="175.5" y2="49.1"/>
	<line class="st1" x1="174.2" y1="49.1" x2="174.2" y2="51.8"/>
	<polyline class="st1" points="183.6,49.1 183.6,48.9 183.4,48.7 183.2,48.5 183,48.5 182.7,48.5 182.5,48.7 182.4,48.9 182.3,49.1 
			"/>
	<line class="st1" x1="183.6" y1="51.8" x2="183.6" y2="49.1"/>
	<line class="st1" x1="182.3" y1="49.1" x2="182.3" y2="51.8"/>
	<polyline class="st1" points="178.7,49.1 178.6,48.9 178.5,48.7 178.3,48.5 178,48.5 177.8,48.5 177.6,48.7 177.4,48.9 177.4,49.1 
			"/>
	<line class="st1" x1="178.7" y1="51.8" x2="178.7" y2="49.1"/>
	<line class="st1" x1="177.4" y1="49.1" x2="177.4" y2="51.8"/>
	<polyline class="st1" points="186.8,49.1 186.7,48.9 186.6,48.7 186.4,48.5 186.1,48.5 185.9,48.5 185.7,48.7 185.5,48.9 
		185.5,49.1 	"/>
	<line class="st1" x1="186.8" y1="51.8" x2="186.8" y2="49.1"/>
	<line class="st1" x1="185.5" y1="49.1" x2="185.5" y2="51.8"/>
	<polyline class="st1" points="181.8,49.1 181.8,48.9 181.7,48.7 181.4,48.5 181.2,48.5 180.9,48.5 180.7,48.7 180.6,48.9 
		180.5,49.1 	"/>
	<line class="st1" x1="181.8" y1="51.8" x2="181.8" y2="49.1"/>
	<line class="st1" x1="180.5" y1="49.1" x2="180.5" y2="51.8"/>
	<polyline class="st1" points="185,49.1 185,48.9 184.8,48.7 184.6,48.5 184.4,48.4 184.1,48.5 183.9,48.7 183.8,48.9 183.7,49.1 	
		"/>
	<line class="st1" x1="185" y1="51.8" x2="185" y2="49.1"/>
	<line class="st1" x1="183.7" y1="49.1" x2="183.7" y2="51.8"/>
	<polyline class="st1" points="209.5,227.9 209.4,227.8 209.4,227.7 209.4,227.6 	"/>
	<polyline class="st1" points="185.8,227.7 185.8,227.8 185.8,227.9 185.8,227.9 	"/>
	<line class="st1" x1="211.8" y1="220.7" x2="211.8" y2="205.3"/>
	<line class="st1" x1="183.4" y1="205.3" x2="183.4" y2="220.8"/>
	<line class="st1" x1="183.4" y1="220.8" x2="175.7" y2="223.3"/>
	<line class="st1" x1="219.6" y1="223.2" x2="211.8" y2="220.7"/>
	<line class="st1" x1="209.6" y1="227.5" x2="219.6" y2="223.7"/>
	<line class="st1" x1="175.7" y1="223.8" x2="185.6" y2="227.5"/>
	<line class="st1" x1="185.6" y1="228" x2="175.5" y2="232.2"/>
	<line class="st1" x1="219.7" y1="232.2" x2="209.6" y2="228"/>
	<polyline class="st1" points="219.7,223.6 219.8,223.5 219.8,223.4 219.7,223.3 219.7,223.3 	"/>
	<polyline class="st1" points="175.5,223.3 175.5,223.4 175.4,223.5 175.5,223.6 175.5,223.7 175.5,223.7 	"/>
	<polyline class="st1" points="219.8,232.3 219.8,232.3 219.8,232.2 	"/>
	<line class="st1" x1="175.5" y1="232.4" x2="175.5" y2="232.5"/>
	<polyline class="st1" points="246.5,228.1 246.5,228 246.5,227.9 246.5,227.8 	"/>
	<polyline class="st1" points="222.8,227.9 222.8,227.9 222.9,228 222.9,228.1 222.8,228.1 	"/>
	<line class="st1" x1="248.8" y1="220.9" x2="248.8" y2="205.5"/>
	<line class="st1" x1="220.5" y1="205.6" x2="220.5" y2="221"/>
	<line class="st1" x1="220.5" y1="221" x2="216.6" y2="222.3"/>
	<line class="st1" x1="256.6" y1="223.4" x2="248.8" y2="220.9"/>
	<line class="st1" x1="246.6" y1="227.7" x2="256.6" y2="224"/>
	<line class="st1" x1="215.7" y1="225.2" x2="222.7" y2="227.7"/>
	<line class="st1" x1="222.7" y1="228.3" x2="216.5" y2="230.8"/>
	<line class="st1" x1="256.8" y1="232.4" x2="246.6" y2="228.2"/>
	<polyline class="st1" points="256.8,223.9 256.8,223.8 256.8,223.7 256.8,223.6 256.8,223.5 256.7,223.5 	"/>
	<line class="st1" x1="256.8" y1="232.6" x2="256.8" y2="232.5"/>
	<polyline class="st1" points="181.9,227.9 181.9,227.9 181.9,228 181.9,228.1 181.9,228.1 	"/>
	<line class="st1" x1="179.5" y1="205.5" x2="179.5" y2="221"/>
	<line class="st1" x1="179.5" y1="221" x2="173.3" y2="223"/>
	<line class="st1" x1="173.1" y1="224.5" x2="181.7" y2="227.7"/>
	<line class="st1" x1="181.7" y1="228.2" x2="173.3" y2="231.7"/>
	<line class="st1" x1="215.9" y1="232.6" x2="215.9" y2="232.5"/>
	<polyline class="st1" points="164.5,228 164.5,227.9 164.5,227.8 164.5,227.8 	"/>
	<polyline class="st1" points="140.9,227.8 140.9,227.8 140.9,227.9 140.9,228 140.9,228.1 	"/>
	<line class="st1" x1="166.9" y1="220.9" x2="166.8" y2="205.5"/>
	<line class="st1" x1="138.5" y1="205.5" x2="138.5" y2="220.9"/>
	<line class="st1" x1="138.5" y1="220.9" x2="130.8" y2="223.4"/>
	<line class="st1" x1="174.7" y1="223.4" x2="166.9" y2="220.9"/>
	<line class="st1" x1="164.7" y1="227.6" x2="174.7" y2="223.9"/>
	<line class="st1" x1="130.7" y1="224" x2="140.7" y2="227.7"/>
	<line class="st1" x1="140.7" y1="228.2" x2="130.6" y2="232.4"/>
	<line class="st1" x1="174.8" y1="232.3" x2="164.7" y2="228.2"/>
	<polyline class="st1" points="174.8,223.8 174.8,223.8 174.9,223.7 174.8,223.6 174.8,223.5 174.8,223.4 	"/>
	<polyline class="st1" points="130.6,223.6 130.6,223.6 130.6,223.7 130.6,223.8 130.6,223.9 	"/>
	<line class="st1" x1="174.9" y1="232.5" x2="174.9" y2="232.5"/>
	<polyline class="st1" points="130.6,232.6 130.6,232.6 130.6,232.6 	"/>
	<polyline class="st1" points="177.9,228.1 177.9,228.1 178,228.2 177.9,228.3 	"/>
	<line class="st1" x1="175.6" y1="205.7" x2="175.6" y2="221.2"/>
	<line class="st1" x1="175.6" y1="221.2" x2="171.7" y2="222.4"/>
	<line class="st1" x1="170.8" y1="225.4" x2="177.8" y2="227.9"/>
	<line class="st1" x1="177.8" y1="228.4" x2="171.6" y2="231"/>
	<polyline class="st1" points="211.9,232.8 211.9,232.7 211.9,232.7 	"/>
	<line class="st1" x1="167.6" y1="232.8" x2="167.6" y2="232.8"/>
	<polyline class="st1" points="153.7,141.8 64,141.8 64,130.1 	"/>
	<polyline class="st1" points="153.3,153.2 64,153.2 64,165.2 	"/>
</g>
</svg>
