<?xml version="1.0" encoding="utf-8"?>
<!-- Generator: Adobe Illustrator 26.0.1, SVG Export Plug-In . SVG Version: 6.00 Build 0)  -->
<svg version="1.1" id="图层_1" xmlns="http://www.w3.org/2000/svg" xmlns:xlink="http://www.w3.org/1999/xlink" x="0px" y="0px"
	 viewBox="0 0 251.8 243.5" style="enable-background:new 0 0 251.8 243.5;" xml:space="preserve">
<style type="text/css">
	.st0{fill:none;stroke:#000000;stroke-width:0.709;stroke-linecap:round;stroke-linejoin:round;stroke-miterlimit:10;}
</style>
<path class="st0" d="M100.3,52.4L100.3,52.4 M99.9,51.7l0.2-0.1 M100.7,53.4l-0.4-1 M97.5,52.6l0.2,0.1l0.4,0.2h0.7l0.8-0.2l0.7-0.3
	 M98,51.4L98,51.4l-0.1,0.4L98,52l0.3,0.1h0.5l0.6-0.1l0.5-0.3 M98.8,49.1l0.4-0.2l0.3-0.3l0.1-0.2l-0.1-0.1 M97.8,47.6L97.8,47.6
	l0.1,0.1 M97.2,49.2v0.2h0.3h0.4l0.5-0.1l0.4-0.2 M94.1,55.6h0.1 M93.7,55l0.2-0.1 M94.5,56.6l-0.4-1 M91.3,55.8l0.2,0.2l0.4,0.1
	h0.7l0.8-0.2l0.7-0.3 M91.8,54.7L91.8,54.7L91.7,55l0.1,0.2l0.3,0.1h0.5l0.6-0.1l0.5-0.2 M92.6,52.4l0.4-0.3l0.3-0.3v-0.2v-0.1
	 M91.6,50.9L91.6,50.9h0.1 M91,52.5L91,52.5l0.3,0.2h0.4l0.5-0.2l0.4-0.1 M87.9,58.8H88 M87.5,58.2l0.2-0.1 M88.3,59.8l-0.4-1
	 M85.1,59l0.2,0.2l0.4,0.1h0.7l0.8-0.2l0.7-0.3 M85.6,57.9L85.6,57.9l-0.2,0.3l0.2,0.3l0.3,0.1h0.5l0.6-0.2l0.5-0.2 M86.4,55.6
	l0.4-0.3l0.3-0.2v-0.3 M85.3,54.1L85.3,54.1h0.2 M84.7,55.7L84.7,55.7l0.4,0.2h0.4l0.5-0.1l0.4-0.2 M81.7,62L81.7,62 M81.3,61.4
	l0.2-0.1 M82.1,63l-0.4-1 M78.9,62.2l0.2,0.2l0.4,0.2h0.7l0.7-0.2l0.8-0.4 M79.4,61.1l-0.1,0.1l-0.1,0.3l0.2,0.2l0.3,0.1h0.5
	l0.5-0.2l0.6-0.2 M80.2,58.8l0.4-0.2l0.3-0.3v-0.2V58 M103.1,54.4l0.6-0.5l0.5-0.4l0.1-0.4V53 M102.7,53.7l0.5-0.3l0.3-0.3l0.1-0.3
	l-0.2-0.2l-0.2-0.1 M79.1,57.3h0.1l0.1,0.1 M78.5,58.9L78.5,58.9l0.4,0.2h0.4l0.5-0.1l0.4-0.2 M75.5,65.3L75.5,65.3 M75.1,64.6
	l0.2-0.1 M100.3,54.5l0.2,0.2l0.4,0.2h0.7l0.7-0.2l0.8-0.3 M100.8,53.4L100.8,53.4l-0.2,0.4l0.2,0.2l0.3,0.1h0.5l0.5-0.2l0.6-0.2
	 M75.9,66.3l-0.4-1 M101.6,51.1l0.4-0.2l0.2-0.3l0.1-0.2v-0.1 M72.7,65.5l0.2,0.1l0.4,0.2H74l0.7-0.2l0.8-0.3 M73.2,64.3l-0.1,0.1
	L73,64.7l0.2,0.2l0.3,0.1H74l0.5-0.1l0.6-0.3 M100.5,49.6L100.5,49.6L100.5,49.6l0.2,0.1 M99.9,51.2l0.1,0.1l0.3,0.1h0.4l0.5-0.1
	l0.4-0.2 M74,62l0.4-0.2l0.2-0.3l0.1-0.2v-0.1 M96.9,57.6l0.6-0.4l0.5-0.5l0.1-0.4v-0.1 M96.5,56.9l0.5-0.3l0.3-0.3l0.1-0.3
	l-0.2-0.2L97,55.7 M72.9,60.5L72.9,60.5H73l0.1,0.1 M72.3,62.1l0.1,0.1l0.3,0.1h0.4l0.5-0.1L74,62 M69.3,68.5L69.3,68.5 M68.9,67.9
	l0.2-0.1 M94.1,57.8l0.1,0.1l0.5,0.2h0.7l0.7-0.2l0.8-0.3 M94.6,56.6l-0.1,0.1L94.4,57l0.2,0.2l0.3,0.1h0.5l0.5-0.1l0.6-0.3
	 M69.7,69.5l-0.4-1 M95.4,54.3l0.4-0.2l0.2-0.3l0.1-0.2v-0.1 M66.5,68.7l0.1,0.2l0.5,0.1h0.7l0.7-0.2l0.8-0.3 M67,67.5l-0.1,0.1
	l-0.1,0.3l0.2,0.2l0.3,0.1h0.5l0.5-0.1l0.6-0.2 M94.3,52.8L94.3,52.8L94.3,52.8l0.2,0.1 M93.7,54.4L93.7,54.4l0.4,0.2h0.4l0.4-0.1
	l0.5-0.2 M67.8,65.2l0.4-0.2l0.2-0.3l0.1-0.2v-0.1 M90.7,60.8l0.6-0.4l0.4-0.4l0.2-0.4v-0.2 M90.3,60.2l0.5-0.3l0.3-0.4l0.1-0.2
	L91,59l-0.3-0.1 M66.7,63.8L66.7,63.8L66.7,63.8h0.2 M66.1,65.4l0.1,0.1l0.3,0.1l0.4-0.1l0.4-0.1l0.5-0.2 M87.9,61l0.1,0.2l0.5,0.1
	h0.7l0.7-0.2l0.8-0.3 M88.4,59.9L88.4,59.9l-0.2,0.3l0.1,0.2l0.4,0.1h0.5l0.5-0.1l0.6-0.2 M89.2,57.5l0.4-0.2l0.2-0.3l0.1-0.2v-0.1
	 M88.1,56.1L88.1,56.1h0.1h0.1 M87.5,57.7L87.5,57.7l0.4,0.2l0.4-0.1l0.4-0.1l0.5-0.2 M84.5,64l0.6-0.4l0.4-0.4l0.2-0.4v-0.1
	 M84.1,63.4l0.4-0.3l0.4-0.3l0.1-0.3l-0.2-0.2l-0.3-0.1 M81.7,64.2l0.1,0.2l0.5,0.1H83l0.7-0.2l0.8-0.3 M82.2,63.1h-0.1L82,63.4
	l0.1,0.3l0.4,0.1H83l0.5-0.2l0.6-0.2 M83,60.8l0.4-0.3l0.2-0.2l0.1-0.3 M81.9,59.3L81.9,59.3H82h0.1 M81.3,60.9L81.3,60.9l0.4,0.2
	h0.4l0.4-0.1l0.5-0.2 M78.3,67.2l0.6-0.4l0.4-0.4l0.2-0.4l-0.1-0.1 M77.9,66.6l0.4-0.3l0.3-0.3l0.1-0.3l-0.1-0.2l-0.3-0.1
	 M75.5,67.4l0.1,0.2l0.5,0.2l0.6-0.1l0.8-0.1l0.8-0.4 M76,66.3l-0.1,0.1l-0.1,0.3l0.1,0.2l0.4,0.1h0.4l0.6-0.2l0.6-0.2 M76.8,64
	l0.4-0.3l0.2-0.2l0.1-0.2v-0.1 M75.7,62.5L75.7,62.5L75.7,62.5l0.2,0.1 M75.1,64.1l0.1,0.1l0.3,0.1h0.4l0.4-0.1l0.5-0.2 M72.1,70.5
	l0.6-0.4l0.4-0.5l0.2-0.4l-0.1-0.1 M71.7,69.8l0.4-0.3l0.3-0.3l0.1-0.3l-0.1-0.2l-0.3-0.1 M64.8,70.9l0.7,1.9 M69.3,70.7L69.3,70.7
	l0.6,0.3h0.6l0.8-0.2l0.8-0.3 M69.7,69.5L69.7,69.5l-0.1,0.4l0.1,0.2l0.4,0.1h0.4l0.6-0.1l0.6-0.3 M70.6,67.2L71,67l0.2-0.3l0.1-0.2
	v-0.1 M69.5,65.7L69.5,65.7L69.5,65.7l0.2,0.1 M68.9,67.3l0.1,0.1l0.3,0.1h0.4l0.4-0.1l0.5-0.2 M200.1,143.3l-2.3-5.8 M187.1,212.2
	l2.5,6.5 M59,180.7l0.8,1.9 M101.6,192.8v0.6 M117.6,48.4l-0.3-1 M105.1,49.8l1.6,4.3 M66.2,67.3l0.3,0.7 M108.2,52.9l-0.4-1.2
	 M54.1,81.4l-0.4-1 M160.9,20.8l3.4-2.8 M167.1,44.1l-2.5-6.2 M41.2,92.9l-2.4-6.2 M37.7,116.6l-6.2,5 M173.5,72.7l0.7,0.1
	 M99.8,51.7l0.3-0.2 M100.3,52.4v-0.1l-0.1-0.1v-0.1l-0.1-0.1v-0.1l-0.1-0.1l-0.1-0.1 M98.1,51.8l0.1,0.1l0.3,0.1h0.4l0.5-0.1
	l0.4-0.2 M99.8,51.7l-1-2.6 M98.8,49.1l-0.1-0.2l-0.1-0.2l-0.1-0.2l-0.1-0.2l-0.1-0.2l-0.2-0.2L98,47.8l-0.1-0.1 M93.6,54.9l0.2-0.2
	 M94.1,55.6L94.1,55.6L94,55.4v-0.1l-0.1-0.1v-0.1h-0.1V55h-0.1 M91.9,55l0.1,0.1l0.3,0.1h0.4l0.5-0.1l0.4-0.2 M93.6,54.9l-1-2.5
	 M92.6,52.4l-0.1-0.3l-0.1-0.2l-0.1-0.2l-0.1-0.2l-0.1-0.2l-0.2-0.2L91.8,51l-0.1-0.1 M87.4,58.1l0.2-0.1 M87.9,58.8L87.9,58.8
	l-0.1-0.2v-0.1l-0.1-0.1l-0.1-0.1v-0.1h-0.1 M85.7,58.2L85.7,58.2l0.4,0.2h0.4l0.4-0.1l0.5-0.2 M87.4,58.1l-1-2.5 M86.4,55.6
	l-0.1-0.2l-0.1-0.3l-0.1-0.2L86,54.7l-0.1-0.2l-0.2-0.1l-0.1-0.2l-0.1-0.1 M81.2,61.3l0.2-0.1 M81.7,62L81.7,62l-0.1-0.1v-0.1
	l-0.1-0.1v-0.1l-0.1-0.1v-0.1h-0.1 M79.5,61.4l0.1,0.2h0.3h0.4l0.4-0.1l0.5-0.2 M81.2,61.3l-1-2.5 M80.2,58.8l-0.1-0.2L80,58.4
	l-0.1-0.3l-0.1-0.2l-0.1-0.2l-0.2-0.1l-0.1-0.1l-0.1-0.1 M103.9,56.3l-0.8-1.9 M102.6,53.6l0.4-0.2l0.2-0.3l0.1-0.2v-0.1
	 M103.1,54.4v-0.1l-0.1-0.1v-0.1l-0.1-0.1v-0.1l-0.1-0.1h-0.1v-0.1 M100.9,53.7l0.1,0.2h0.3h0.4l0.4-0.1l0.5-0.2 M102.6,53.6l-1-2.5
	 M75,64.6l0.2-0.2 M75.5,65.3L75.5,65.3l-0.1-0.2V65l-0.1-0.1v-0.1l-0.1-0.1h-0.1v-0.1 M73.3,64.7L73.3,64.7l0.4,0.2h0.4l0.4-0.2
	l0.5-0.1 M75,64.6L74,62 M101.6,51.1l-0.1-0.2l-0.1-0.2l-0.1-0.3l-0.1-0.2L101,50l-0.1-0.1l-0.1-0.1l-0.1-0.1 M74,62l-0.1-0.2
	l-0.1-0.2l-0.1-0.2l-0.1-0.2L73.4,61l-0.1-0.2l-0.1-0.1l-0.1-0.1 M97.6,59.5l-0.7-1.9 M96.4,56.9l0.4-0.3l0.2-0.2l0.1-0.3V56
	 M96.9,57.6L96.9,57.6l-0.1-0.2v-0.1l-0.1-0.1l-0.1-0.1V57h-0.1v-0.1 M94.7,57L94.7,57l0.4,0.2h0.4l0.4-0.1l0.5-0.2 M96.4,56.9
	l-1-2.6 M68.8,67.8l0.2-0.2 M69.3,68.5L69.3,68.5l-0.1-0.2v-0.1l-0.1-0.1L69,68l-0.1-0.1 M67.1,67.9l0.1,0.1l0.3,0.1h0.4l0.4-0.1
	l0.5-0.2 M68.8,67.8l-1-2.6 M95.4,54.3l-0.1-0.2l-0.1-0.2l-0.1-0.2L95,53.5l-0.2-0.2l-0.1-0.2L94.6,53l-0.1-0.1 M67.8,65.2L67.7,65
	l-0.1-0.2l-0.1-0.2l-0.1-0.2l-0.2-0.2L67.1,64L67,63.9l-0.1-0.1 M91.4,62.7l-0.7-1.9 M90.2,60.1l0.4-0.3l0.2-0.2l0.1-0.3 M90.7,60.8
	L90.7,60.8l-0.1-0.2v-0.1l-0.1-0.1l-0.1-0.1l-0.1-0.1 M88.5,60.2L88.5,60.2l0.4,0.2h0.4l0.4-0.1l0.5-0.2 M90.2,60.1l-1-2.6
	 M89.2,57.5l-0.1-0.2L89,57.1l-0.1-0.2l-0.1-0.2l-0.2-0.2l-0.1-0.2l-0.1-0.1l-0.1-0.1 M85.2,66l-0.7-2 M84,63.3l0.4-0.2l0.2-0.3
	l0.1-0.2v-0.1 M84.5,64l-0.1-0.1v-0.1l-0.1-0.1v-0.1h-0.1v-0.1l-0.1-0.1 M82.3,63.4L82.3,63.4l0.4,0.2h0.4l0.4-0.1l0.5-0.2 M84,63.3
	l-1-2.5 M83,60.8l-0.1-0.2l-0.1-0.3l-0.1-0.2l-0.1-0.2l-0.2-0.2l-0.1-0.1l-0.1-0.2l-0.1-0.1 M79,69.2l-0.7-2 M77.8,66.5l0.3-0.2
	l0.3-0.3l0.1-0.2v-0.1 M78.3,67.2l-0.1-0.1V67l-0.1-0.1L78,66.8v-0.1l-0.1-0.1 M76.1,66.6l0.1,0.1l0.2,0.1h0.4l0.5-0.1l0.5-0.2
	 M77.8,66.5l-1-2.5 M76.8,64l-0.1-0.2l-0.1-0.2l-0.1-0.3l-0.2-0.2l-0.1-0.2l-0.1-0.1L76,62.6h-0.1 M72.8,72.4l-0.7-1.9 M71.6,69.8
	l0.3-0.3l0.3-0.3l0.1-0.2v-0.1 M72.1,70.5L72.1,70.5L72,70.3l-0.1-0.1v-0.1L71.8,70v-0.1h-0.1v-0.1 M69.9,69.9L70,70l0.2,0.1h0.4
	l0.5-0.2l0.5-0.1 M71.6,69.8l-1-2.6 M98.3,54.5l0.1,0.2l0.5,0.1h0.6l0.8-0.2 M76.2,69.4l0.2,0.1l0.4,0.2h0.7l0.8-0.2l0.7-0.3
	 M79,69.2l0.7-0.4l0.4-0.5l0.1-0.4v-0.1 M67.2,70.6l0.2,0.2l0.4,0.1h0.7l0.8-0.2 M70,72.6l0.2,0.2l0.4,0.1h0.7l0.8-0.2l0.7-0.3
	 M72.8,72.4l0.7-0.4l0.4-0.4l0.1-0.4V71 M85.9,60.9l0.1,0.2l0.5,0.2h0.6l0.8-0.2 M94.8,59.7l0.2,0.2l0.4,0.1h0.7l0.8-0.2l0.7-0.3
	 M97.6,59.5l0.7-0.4l0.4-0.4l0.1-0.4v-0.1 M92.1,57.7l0.1,0.2l0.5,0.2l0.6-0.1l0.8-0.1v-0.1 M101.1,56.5l0.1,0.2l0.5,0.1h0.6
	l0.8-0.2l0.8-0.3 M103.9,56.3l0.6-0.4l0.4-0.5L105,55v-0.1 M73.5,67.4l0.1,0.2l0.5,0.1h0.6l0.8-0.2 M82.4,66.1l0.2,0.2l0.4,0.2h0.7
	l0.8-0.2l0.7-0.3 M85.2,66l0.7-0.5l0.4-0.4l0.1-0.4v-0.1 M79.7,64.2L79.7,64.2l0.6,0.3h0.6l0.8-0.2 M88.6,62.9l0.2,0.2l0.4,0.1h0.7
	l0.8-0.2l0.7-0.3 M91.4,62.7l0.7-0.4l0.4-0.4l0.1-0.4v-0.1 M96.3,54.1l1.5-0.8 M90.1,57.3l1.5-0.7 M83.9,60.6l1.5-0.8 M77.7,63.8
	l1.5-0.8 M71.5,67l1.5-0.8 M65.2,70.3l1.6-0.8 M65.2,70.3l-0.1,0.1h-0.2l-0.1,0.1v0.1l-0.1,0.1v0.1l0.1,0.1 M68.8,73.7l-4-2.8
	 M102.7,51.2l4.5,3.2 M70.6,67.2L70.5,67l-0.1-0.2l-0.1-0.2l-0.2-0.3L70,66.2L69.9,66l-0.1-0.1l-0.1-0.1 M74.5,179.6l2.4,0.3
	l4.2,0.4l4.4,0.2h4.7l4.8-0.3l5.1-0.4l5.1-0.7l5.4-0.9l5.4-1.1l5.5-1.3l5.6-1.5l5.6-1.6l5.6-1.9l5.6-2l5.5-2.2l5.4-2.3l5.4-2.5
	l5.2-2.6l5-2.7l4.8-2.8l4.7-2.9l4.4-3l4.2-3l3.9-3.1l3.6-3.1l3.2-3.1l3-3.1l2.6-3.1l0.2-0.2 M61.4,178.9l-0.3,0.2 M61.6,179.9
	l0.2-0.1 M206.7,127.5l-0.5,0.7l-2.5,3.1l-2.8,3.1l-3.1,3.1 M197.8,137.5l-3.4,3.1l-3.8,3.1l-4,3.1l-4.3,3l-4.5,2.9l-4.8,2.9
	l-4.9,2.7L163,161l-5.3,2.5l-5.4,2.4l-5.5,2.3l-5.5,2.1l-5.6,1.9l-5.6,1.8l-5.6,1.6L119,177l-5.5,1.2l-5.4,1l-5.3,0.7l-5.1,0.6
	l-5,0.4L88,181l-4.5-0.1l-4.3-0.3l-4.1-0.5l-2.9-0.5 M61.8,180.3l-0.2-0.4 M61.6,179.9l0.1,0.3 M61.2,179.9l-0.1-0.8 M61.1,179.1
	l-0.1-0.4 M61.5,178.8l0.1,0.6 M61.6,179.4l0.7,1.2 M189.6,218.7l5.4-2.8l5.1-3l4.9-3.1l4.7-3.2l4.4-3.2l4.1-3.3l3.8-3.3l3.5-3.3
	l3.1-3.3l2.8-3.3l2.3-3.2l2-3.2l1.6-3.2l1.1-3l0.1-0.3 M234,183.5l-1.4,2.3l-2.2,3l-2.5,3.1l-2.8,3.1l-3.2,3.2l-3.5,3.1l-3.7,3.1
	l-4.1,3l-4.3,3l-4.6,3l-4.7,2.9l-5,2.7l-5.1,2.7l-5.3,2.5l-5.4,2.5l-5.5,2.2l-5.6,2.2l-5.6,1.9l-5.6,1.8l-5.6,1.6l-5.6,1.4l-5.5,1.2
	l-5.4,1.1l-5.3,0.8l-5.2,0.6l-5,0.4l-4.8,0.2l-4.6-0.1l-4.4-0.2l-4.1-0.5l-3.8-0.7l-3.6-0.9l-1.2-0.4 M243.7,166.5l-0.3,0.5
	l-2.2,3.4l-2.5,3.4l-2.9,3.4l-3.2,3.5l-3.6,3.5l-3.9,3.5l-4.1,3.4l-4.5,3.4l-4.8,3.4l-5,3.3l-5.2,3.2l-5.5,3.1l-5.6,3.1 M83.9,235.9
	l0.7,1.7 M84.6,237.6l3.4,1.1l3.7,1l4.1,0.7l4.4,0.5l4.6,0.2h4.9l5.2-0.2l5.3-0.5l5.5-0.6l5.7-1l5.7-1.1l5.9-1.3l5.9-1.6l6-1.8
	l5.9-1.9l6-2.2l5.8-2.3l5.8-2.5l5.7-2.6l5.5-2.8 M190.5,208.9l5.7-3l5.5-3.2l5.3-3.2l5.1-3.3l4.8-3.4l4.5-3.4l4.3-3.5l3.9-3.5
	l3.7-3.5l3.3-3.5l3-3.5l2.6-3.4l2.2-3.5l1.9-3.3l1.5-3.3l1.1-3.2l0.7-3.1l0.4-3l-0.1-2.8l-0.5-2.8l-0.6-2.1 M227.3,96.7l0.3,0.3
	l2.4,1.9l2,2.1l1.7,2.3l1.2,2.4l0.9,2.6l0.5,2.7v2.9l-0.3,3l-0.7,3.1l-1.1,3.2l-1.5,3.3l-1.9,3.3l-2.2,3.4l-2.7,3.5l-2.9,3.5
	l-3.4,3.5l-3.6,3.5l-4,3.5l-4.2,3.4l-4.6,3.5l-4.8,3.3l-5,3.4l-5.3,3.2l-5.5,3.1l-5.7,3.1 M190.4,210.6l-5.8,2.9l-5.9,2.7l-6.1,2.7
	l-6.1,2.5l-6.2,2.3l-6.3,2.2l-6.3,1.9l-6.2,1.8l-6.2,1.6l-6.2,1.4l-6,1.2l-6,1l-5.8,0.8l-5.6,0.5l-5.5,0.3l-5.3,0.1l-5-0.1l-4.8-0.4
	l-4.5-0.5l-4.2-0.8l-3.9-1l-1.4-0.4 M190.4,210.6l0.1-1.7 M40.1,172.9l0.2,2l0.6,2.6l1,2.4l1.3,2.3l1.8,2.2l2.1,1.9l2.5,1.8l2.8,1.5
	l3.2,1.4l3.5,1.2l3.8,1L67,194l4.4,0.5l4.7,0.4L81,195l5.1-0.1l5.3-0.3l5.5-0.6l5.6-0.7l5.8-0.9l5.9-1.2l6-1.4l6-1.5l6.1-1.8
	l6.1-1.9l6.1-2.1l6-2.2l6-2.5l5.9-2.5l5.8-2.7l5.6-2.9 M173.8,169.7l5.5-2.9l5.3-3.1l5.1-3.1l4.8-3.2l4.7-3.3l4.3-3.3l4.1-3.3
	l3.8-3.4l3.4-3.4l3.2-3.4l2.8-3.4l2.4-3.3l2.1-3.3l1.7-3.2l1.4-3.1l0.9-3.1l0.6-2.9l0.2-2.9l-0.3-2.7l-0.6-2.6l-1-2.4l-1.3-2.3
	l-0.9-1.2 M174.9,170.5l5.6-3l5.5-3.2l5.2-3.2l5-3.3l4.8-3.3l4.4-3.4l4.2-3.5l3.9-3.5l3.6-3.5l3.2-3.4l2.9-3.5l2.5-3.4l2.2-3.4
	l1.7-3.3l1.4-3.2l1-3.2l0.6-3l0.1-2.9l-0.2-2.8l-0.6-2.7l-1-2.5l-1.4-2.3l-1.8-2.2l-0.8-0.7 M50.5,218.2l0.2,0.4l1.2,2.5l1.7,2.3
	l2,2.1l2.4,1.9l2.7,1.7l3.1,1.6l3.5,1.3l3.7,1.1l4.1,1l4.4,0.7l4.6,0.5l4.9,0.2l5.2,0.1l5.3-0.2l5.6-0.4l5.7-0.6l5.9-0.8l6-1
	l6.2-1.3l6.2-1.4l6.2-1.7l6.3-1.8l6.3-2l6.3-2.2l6.3-2.4l6.2-2.5l6-2.6l6-2.8l5.8-3 M176.9,173.7l13.6,35.2 M37.4,171.4v1.6l0.2,2.8
	l0.6,2.7l1,2.5l1.4,2.4l1.8,2.1l2.2,2l2.6,1.9l2.9,1.6l3.3,1.4l3.6,1.2l3.9,1l4.2,0.8l4.5,0.6l4.8,0.3l5,0.2l5.3-0.1l5.5-0.4
	l5.6-0.5l5.8-0.8l6-0.9l6-1.2l6.2-1.4l6.2-1.6l6.2-1.8l6.3-2l6.3-2.1l6.2-2.4l6.1-2.5l6.1-2.6l5.9-2.8l5.8-2.9 M176.9,173.7
	l-5.8,2.9l-6,2.8l-6.1,2.7l-6.2,2.5l-6.2,2.4l-6.3,2.2l-6.3,2l-6.3,1.8l-6.3,1.7l-6.2,1.4l-6.1,1.2l-6,1.1l-5.9,0.8l-5.7,0.6
	l-5.6,0.4l-5.4,0.2l-5.1-0.1l-4.9-0.3l-4.7-0.5l-4.3-0.7l-4.1-0.9l-3.8-1.1l-3.4-1.4l-3.1-1.5l-2.8-1.7l-2.3-2l-2.1-2.1l-1.6-2.2
	l-1.3-2.5l-0.8-2.6l-0.5-2.7l-0.1-2.9l0.4-3l0.3-1.5 M174.9,170.5l2,3.2 M41.5,179.1l-0.4-1l-0.5-2.6l-0.1-2.4 M225.8,101.4l0.3,0.3
	l1.6,2.2l1.3,2.3l0.1,0.2 M106.4,185.6l5.3-0.9l5.4-1l5.5-1.3l5.5-1.4l5.6-1.6l5.6-1.8l5.6-2l5.6-2.2l5.4-2.3l5.4-2.4l5.2-2.6
	l5.1-2.7l4.9-2.8l4.7-2.8l4.5-3l4.2-3l3.9-3.1l3.7-3.1l3.4-3.1l3-3.1l2.7-3.1l2.4-3.1l2-3l1.6-3l1.3-2.9l0.9-2.8l0.4-2.7l0.1-0.2
	 M59.9,178.7l0.2,0.3l2.2,1.6l2.6,1.5l2.9,1.3l3.2,1.1l3.5,0.9l3.8,0.6l4.1,0.5l4.4,0.3h4.6l4.8-0.2l5-0.4l5.2-0.6 M59,180.7h0.9
	l0.6,0.2l0.2,0.4l-0.1,0.5l-0.6,0.6l-0.8,0.5l-1.1,0.4l-1,0.3 M57.1,183.6h-0.9l-0.6-0.2l-0.2-0.4l0.2-0.5l0.5-0.6l0.9-0.5l1-0.5
	l1-0.2 M41.5,173.6l0.3,1.9l0.7,2.5l1.2,2.4l1.6,2.2l1.9,2.1l2.3,1.9l2.7,1.7l3,1.4l3.4,1.3l3.7,1.1l4,0.9l4.3,0.6l4.6,0.4l4.9,0.2
	h5.1l5.2-0.3l5.5-0.4l5.7-0.7 M101.6,192.8l5.8-0.9l5.9-1.1l6-1.4l6.1-1.5l6.1-1.7l6.1-1.9l6.1-2.1l6.1-2.3l6-2.4l6-2.6l5.8-2.7
	l5.7-2.9l5.5-2.9l5.3-3.1l5.1-3.1l4.9-3.3l4.6-3.3l4.4-3.3l4-3.4l3.8-3.4l3.4-3.4l3.1-3.4l2.8-3.4l2.3-3.3l2-3.3l1.7-3.2l1.2-3.2
	l0.8-3l0.5-3v-2.8l-0.4-2.7l-0.7-2.5l-1.2-2.4l-1-1.5 M121.6,46.5l-0.7-0.1l-1.2,0.1l-1.2,0.4l-1.2,0.5 M117.3,47.4l-1.1,0.6
	l-0.7,0.7l-0.2,0.3 M117.3,47.4l-2.9-4.5 M43.9,57.2l0.4,1.4V60l-0.4,1.3l-0.6,1.2l-0.7,0.9 M43.4,56.2l0.5,1 M47.9,57.7l-4-0.5
	 M58.1,79.5l-0.8-0.1l-1.1,0.1l-1.3,0.4l-1.2,0.5 M53.7,80.4l-1,0.6L52,81.7L51.8,82 M53.7,80.4l-2.8-4.5 M221.6,109.5l-0.3,0.5
	l-2.1,3.4l-2.5,3.4l-2.9,3.5l-3.2,3.5l-3.6,3.4l-3.9,3.5l-4.2,3.5l-4.5,3.4l-4.7,3.3l-5,3.3l-5.3,3.3l-5.4,3.1l-5.6,3 M172.9,78.8
	l0.6-0.7l0.6-1.2l0.4-1.4v-1.4l-0.3-1.3 M174.2,72.8l-0.4-0.7 M174.3,82.1l0.9-0.9l0.9-1.5l0.7-1.7l0.5-1.8l0.1-1.9l-0.2-1.9
	l-0.5-1.7 M167.1,21.5l-0.8-1.5l-1.1-1.4l-1.3-0.9l-1.3-0.5l-1.1,0.2l-0.7,0.7l-0.2,1.2l0.3,1.5 M160.9,20.8l0.8,1.5l1.2,1.3
	l1.3,0.9l1.4,0.4l1-0.1l0.7-0.7l0.1-1.2l-0.3-1.4 M176.7,70.7l-0.7-1.5l-0.1-0.1 M176.7,70.7l7.6,0.9 M183.5,42.7l0.3-0.6l1.3-2.9
	l0.9-2.9l0.5-2.8l0.2-2.7l-0.3-2.6l-0.6-2.4l-1.1-2.3l-1.4-2.1l-1.8-1.9l-2.2-1.8l-2.5-1.5l-2.9-1.4l-3.2-1.2l-3.5-1l-3.8-0.7
	l-4.1-0.6l-4.4-0.3l-4.6-0.2l-4.9,0.1l-5,0.4l-5.2,0.5l-5.4,0.7l-5.5,1l-5.6,1.2L113,16l-5.7,1.6l-5.8,1.7l-5.8,2L90,23.4l-5.6,2.2
	L78.8,28l-5.5,2.6L68,33.2 M168.4,153.6l-5.8,2.9l-6,2.8l-6,2.6l-6.2,2.5l-6.2,2.4l-6.2,2.1l-6.3,2l-6.2,1.8l-6.3,1.6l-6.1,1.4
	l-6.1,1.2l-5.9,1l-5.8,0.7l-5.7,0.6l-5.5,0.3l-5.2,0.1l-5-0.2l-4.8-0.3l-4.5-0.6l-4.3-0.8l-3.9-1l-1.3-0.4 M168.4,153.6l0.1-1.6
	 M116.6,108.3l-0.4,0.3l-1,1l-0.6,1l-0.3,0.9l0.1,0.7 M45.3,91.3l1.5-0.9l1.4-1l1-1l0.6-0.9l0.3-0.9l-0.2-0.8l-0.5-0.6l-1-0.4
	l-1.2-0.2h-1.5L44,84.8l-1.7,0.4l-1.8,0.7l-1.7,0.8 M38.8,86.7l-1.6,0.9l-1.3,1l-1,1l-0.6,0.9L34,91.4l0.1,0.8l0.6,0.6l0.9,0.4
	l1.2,0.2h1.5l1.7-0.2l1.8-0.4l1.8-0.7l1.7-0.8 M171.2,42.5l1.5-0.9l1.3-1l1-1l0.7-0.9l0.2-0.9l-0.1-0.8l-0.6-0.6l-0.9-0.4l-1.2-0.3
	l-1.5,0.1l-1.7,0.2l-1.8,0.4l-1.7,0.7l-1.8,0.8 M164.6,37.9l-1.5,0.9l-1.3,0.9l-1,1l-0.7,1l-0.2,0.9l0.1,0.8l0.6,0.6l0.9,0.4
	l1.2,0.2h1.5l1.7-0.2l1.8-0.5l1.8-0.6l1.7-0.8 M56.9,80.2l1.5-0.9l1.3-1l0.9-1l0.5-0.9l0.1-0.8l-0.3-0.7l-0.7-0.6L59.1,74h-1.4
	l-1.6,0.1l-1.7,0.4l-1.8,0.7l-1.7,0.7 M50.9,75.9l-1.5,0.9l-1.3,1l-0.9,1l-0.5,0.9l-0.2,0.9l0.4,0.7l0.7,0.5l1.1,0.3h1.4l1.6-0.1
	l1.7-0.4l1.8-0.6l1.7-0.8 M120.4,47.2l1.6-0.9l1.2-1l0.9-0.9l0.6-1l0.1-0.8l-0.3-0.7l-0.8-0.6l-1-0.3h-1.4l-1.7,0.2l-1.7,0.4
	l-1.8,0.6l-1.7,0.7 M114.4,42.9l-1.5,0.9l-1.2,1l-1,1l-0.5,0.9l-0.1,0.9l0.3,0.7l0.7,0.5l1.1,0.3l1.4,0.1l1.6-0.2l1.8-0.4l1.7-0.6
	l1.7-0.8 M66.3,73.3l-2.8-1.9 M63.5,71.4L63.2,71l-0.1-0.4v-0.5l0.3-0.6l0.5-0.5l0.6-0.6l0.8-0.6l0.9-0.5 M93.9,52.9l3.9-2
	 M87.7,56.2l3.9-2.1 M81.5,59.4l3.9-2.1 M75.2,62.6l4-2 M69,65.8l4-2 M66.2,67.3l0.6-0.3 M101.5,49.5h0.6l0.9-0.1h0.9l0.7,0.2
	l0.5,0.2 M105.1,49.8l2.7,1.9 M107.8,51.7l0.3,0.4l0.2,0.4l-0.1,0.5l-0.3,0.6l-0.5,0.6l-0.6,0.5l-0.8,0.6l-0.9,0.5 M105.1,55.8
	L73.3,72.3 M73.3,72.3l-1,0.5l-1,0.4l-1.1,0.3l-1,0.2l-0.9,0.1l-0.8-0.1l-0.7-0.1l-0.5-0.3 M185.5,38l-0.3-0.1l-2.9-1.4l-3.2-1.2
	l-3.5-1l-3.8-0.7l-4.1-0.6l-4.4-0.3l-4.6-0.1l-4.9,0.1l-5,0.3l-5.2,0.5l-5.4,0.8l-5.5,0.9l-5.6,1.2l-5.7,1.4l-5.7,1.5l-5.8,1.8
	l-5.7,1.9l-5.8,2.1l-5.6,2.2l-5.6,2.4l-5.5,2.6L76.4,55 M100.4,108.9l-3.7-9.6 M68,33.2l-2-3.1 M173.2,80.4l-0.6-3.1L173,74l1.2-2.9
	l2-2.3l2.3-1.1l2.3,0.1l2,1.4l1.5,2.4 M184.3,71.6l0.7,3.1l-0.3,3.3l-1,3l-1.9,2.3l-2.4,1.1l-2.5-0.1l-2.1-1.4l-1.6-2.5 M168.5,152
	l5.7-3.1l5.5-3.1l5.3-3.3l5-3.3l4.8-3.4l4.6-3.4l4.2-3.5l4-3.4l3.6-3.6l3.4-3.5l2.9-3.4l2.6-3.5l2.3-3.4l1.9-3.3l1.5-3.3l1.1-3.2
	l0.7-3.1l0.3-3l-0.1-2.9l-0.4-2.7l-0.7-2.1 M116.6,107.9l-0.5,1.8l-2,2.6l-2.8,1.6l-3.3,0.4l-3.2-0.9l-2.7-1.9l-1.7-2.6
	 M100.4,108.9l0.3,4.9 M96.7,99.3l0.3,4.8 M94.8,97.8l1.9,1.5 M93.1,97.6l0.9,0.1l0.8,0.1 M184,5.3l0.7,0.2l3.4,1.3l3.2,1.6l2.7,1.7
	l2.4,1.9l2,2.1l1.6,2.3l1.3,2.5l0.9,2.6l0.4,2.7l0.1,2.9l-0.3,2.9l-0.7,3.1l-1.1,3.2l-1.5,3.3l-1.9,3.4l-2.3,3.4l-2.6,3.4l-3,3.5
	l-3.3,3.5l-3.6,3.5l-4,3.5l-4.2,3.5l-4.6,3.4l-4.8,3.4l-5.1,3.3l-5.2,3.2l-5.5,3.2l-5.7,3 M97,104.1l3.7,9.7 M97,104.1l-1.7-0.2
	 M113.6,91.7l0.5-0.6l0.4-0.5 M113.6,91.7l-0.8,2.3 M113.1,98.9l-0.3-4.9 M100.7,113.8l-1.3,1l-1,0.9 M100.7,113.8l0.5,0.8l0.5,0.9
	l0.7,0.9l1,0.9l1.7,0.9l1.2,0.5l1.1,0.2l0.9,0.1l3.3-0.4l1-0.4l0.9-0.5l0.9-0.7l1-0.9l1-1.6l0.6-1.6l0.3-1.4l-0.5-3 M113.1,98.9
	l0.8-1 M116.8,108.5l-3.7-9.6 M116.8,108.5l1.4,0.2l1.1,0.1 M47.9,57.7l0.3,1.7l-0.1,1.7l-0.7,1.6l-1,1.2l-1.3,0.6h-1.2l-1.1-0.8
	L42,62.4 M42,62.4l-0.3-1.6l0.1-1.8l0.6-1.6l1-1.2l1.2-0.6l1.3,0.1l1.2,0.7l0.8,1.3 M76.4,55l-5.2,2.7l-5,2.9l-4.8,3l-4.5,3.1
	l-4.3,3.1l-4,3.1l-3.8,3.2l-3.4,3.2l-3.1,3.2l-2.8,3.2l-2.4,3.1L31,91.9L29.4,95l-1.3,3l-0.5,1.1 M76.4,55L68,33.2 M68,33.2
	l-5.2,2.9L57.7,39l-4.8,3l-4.6,3L44,48.2l-4,3.2l-3.8,3.2l-3.4,3.2L29.7,61l-2.8,3.2l-2.4,3.2l-2.1,3.1l-1.6,3.1l-1.3,3l-0.9,2.9
	l-0.4,2.8L18.1,85l0.3,2.6l0.7,2.4l1.1,2.2l1.5,2.1l1.9,2l2.3,1.7l2.6,1.6l2.9,1.3l0.9,0.3 M141.3,83.6l2,3.2 M114.8,95.4l-0.5,1.4
	l-0.4,1.1 M113.9,97.9l0.9,0.7l0.8,0.6 M94.6,106l0.4-1.1l0.3-1 M95.3,103.9l-1.1-0.8l-0.8-0.7 M93.1,97.6l-5.8,1.5l-5.8,1.3l-5.6,1
	l-5.5,0.9L65,103l-5.3,0.4l-5,0.2h-4.8l-4.6-0.2l-4.4-0.4l-4-0.7l-3.8-0.8l-3.5-1.1l-3.1-1.3l-2.8-1.5L21.2,96l-2.1-1.9l-1.7-2
	l-1.3-2.2l-0.9-2.4L14.6,85l-0.2-2.6l0.3-2.7l0.6-2.9l1-3l1.4-3l1.8-3.1l2.2-3.2l2.5-3.2L27,58l3.2-3.2l3.6-3.3l3.8-3.2l4.1-3.2
	l4.4-3.2l4.6-3.1l4.9-3l5.1-2.9l5.3-2.8 M66,30.1l5.3-2.7l5.6-2.6l5.6-2.5l5.7-2.2l5.8-2.2l5.8-1.9l5.8-1.8l5.8-1.6l5.7-1.5l5.7-1.2
	l5.6-1l5.5-0.8l5.3-0.6l5.1-0.4l5-0.1h4.7l4.5,0.3l4.3,0.4l4,0.7l3.7,0.9l3.3,1.1l3.1,1.3l2.7,1.5l2.4,1.7l2,1.9l1.6,2l1.3,2.2
	l0.9,2.4l0.5,2.5l0.1,2.6l-0.3,2.8l-0.6,2.8l-1.1,3l-1.4,3l-1.8,3.1l-2.2,3.2l-2.5,3.1l-2.9,3.3l-3.2,3.2l-3.5,3.2l-3.8,3.2
	l-4.1,3.2l-4.4,3.1l-4.6,3.1l-4.8,3l-5.1,2.9l-5.2,2.8 M136.9,80.5l-2.7,1.4l-2.7,1.4l-2.8,1.3l-2.8,1.2l-2.8,1.3l-2.9,1.2l-2.8,1.2
	l-2.9,1.1 M114.5,90.6l0.3,4.8 M114.8,95.4l3.4-1.3l3.4-1.3l3.4-1.5l3.3-1.4l3.3-1.5l3.3-1.6l3.2-1.5l3.2-1.7 M141.3,83.6l5.6-3
	l5.4-3.1l5.3-3.2l5-3.3l4.7-3.4l4.5-3.4l4.2-3.5l3.9-3.4l3.6-3.5l3.2-3.5l2.9-3.4l2.5-3.5l2.1-3.3l1.8-3.3l1.4-3.3l1-3.1l0.5-3.1
	l0.2-2.9l-0.2-2.8l-0.6-2.6l-1-2.6l-1.5-2.3l-1.8-2.2l-2.1-2l-2.6-1.8l-2.9-1.6L183.1,5l-3.6-1.2l-3.9-1L171.4,2l-4.5-0.5l-4.8-0.4
	l-5-0.1l-5.3,0.1l-5.5,0.3L140.7,2l-5.8,0.7l-6,1l-6,1.2l-6.2,1.4l-6.2,1.6l-6.3,1.8L98,11.6l-6.3,2.2l-6.2,2.3l-6.1,2.5l-6.1,2.7
	L67.4,24l-5.8,3 M61.6,27l-5.7,3l-5.4,3.1l-5.3,3.3l-5,3.3l-4.8,3.4l-4.5,3.4L26.7,50l-3.9,3.4l-3.5,3.5L16,60.4l-2.8,3.5l-2.6,3.4
	l-2.1,3.4L6.8,74l-1.4,3.3l-0.9,3.1l-0.6,3.1l-0.2,2.9L4,89.2l0.7,2.6l1,2.5l1.5,2.4L9,98.9l2.2,2l2.6,1.8l3,1.6l3.3,1.4l3.7,1.2
	l3.9,1l4.3,0.7l4.6,0.6l4.8,0.3l5.1,0.1l5.3-0.1l5.5-0.4l5.7-0.6l5.9-0.7l5.9-1.1l6.2-1.2l6.1-1.4l6.3-1.7 M93.4,102.4l-0.3-4.8
	 M31.5,121.6l-0.7-2.7l0.3-2.1l1.2-1.3l2-0.3l2.5,0.8l2.5,1.8l2.3,2.4l1.5,2.8 M43.1,123l0.6,2.7l-0.4,2.3l-1.3,1.4l-2.1,0.3
	l-2.4-0.8l-2.4-1.9l-2.1-2.5l-1.5-2.9 M28.4,161.2l0.2,0.5l1.3,2.4l1.6,2.3l2.1,2.1l2.3,1.9l2.8,1.8l3.1,1.5l3.4,1.4l3.8,1.1
	l4.1,0.9l4.3,0.7l4.7,0.5l4.9,0.3h5.1l5.4-0.1l5.6-0.4l5.7-0.6l5.9-0.8l6-1.1l6.1-1.2l6.2-1.5l6.3-1.6l6.3-1.8l6.3-2l6.3-2.2
	l6.2-2.4l6.2-2.5l6.1-2.7l6-2.8l5.8-2.9 M168.5,152l-25.2-65.2 M143.3,86.8l-3.3,1.7l-3.4,1.7l-3.4,1.6l-3.5,1.6l-3.5,1.5l-3.5,1.5
	l-3.6,1.4l-3.5,1.4 M115.6,99.2l3.7,9.6 M119.3,108.8l0.5,1.9l0.1,1.9l-0.4,2l-0.7,1.9l-1.2,1.7l-1.5,1.4l-1.7,1.2l-2,0.9l-2.1,0.5
	l-2.2,0.1L106,122l-2-0.7l-1.9-1l-1.6-1.3l-1.2-1.6l-0.9-1.7 M98.4,115.7l-3.8-9.7 M94.6,106l-6.3,1.7l-6.2,1.4l-6.1,1.3l-6.1,1
	l-5.9,0.9l-5.7,0.6l-5.6,0.4l-5.4,0.2h-5.2l-4.9-0.3l-4.7-0.5l-4.4-0.7l-4.1-0.9l-3.8-1.1l-3.4-1.3l-3.2-1.6l-2.7-1.7l-2.5-1.9
	l-2-2.1l-1.7-2.3l-1.2-2.4l-0.9-2.6l-0.5-2.8L2,88.5l0.3-3L3,82.4l1.1-3.2l1.5-3.3l1.1-2 M97.5,52.6l0.8,1.9 M100.2,49.9l-0.7-1.6
	 M98,51.4l-0.2,0.1L97.5,52v0.4l0.1,0.2 M97.2,49.2l0.9,2.6 M99.5,48.3l-0.1-0.2l-0.2-0.2L99,47.7l-0.2-0.1l-0.3-0.1h-0.2H98
	l-0.2,0.1 M97.8,47.6l-0.2,0.2l-0.2,0.1l-0.1,0.2l-0.1,0.2l-0.1,0.3v0.2V49l0.1,0.2 M91.3,55.8l0.8,1.9 M93.9,53.1l-0.6-1.6
	 M91.8,54.6l-0.2,0.2l-0.3,0.4v0.4v0.2 M91,52.5l0.9,2.5 M93.3,51.5l-0.1-0.2L93,51.1l-0.2-0.2l-0.2-0.1l-0.3-0.1h-0.2l-0.3,0.1
	l-0.2,0.1 M91.6,50.9L91.4,51l-0.2,0.2l-0.1,0.1l-0.2,0.3v0.2V52v0.2l0.1,0.3 M85.1,59l0.8,1.9 M87.7,56.4l-0.6-1.6 M85.6,57.8
	L85.4,58l-0.3,0.4v0.4V59 M64.7,70.8l0.8,2 M84.7,55.7l1,2.5 M87.1,54.8L87,54.5l-0.2-0.2l-0.2-0.1L86.4,54h-0.3h-0.2h-0.3l-0.3,0.1
	 M85.3,54.1l-0.1,0.1L85,54.4l-0.2,0.2l-0.1,0.2V55v0.2v0.3v0.2 M78.9,62.2l0.8,2 M81.5,59.6L80.9,58 M79.4,61l-0.3,0.2l-0.2,0.5V62
	v0.2 M78.5,58.9l1,2.5 M105,54.9l-0.7-1.9 M80.9,58l-0.1-0.2l-0.2-0.3l-0.2-0.1l-0.2-0.1l-0.3-0.1h-0.2h-0.3l-0.3,0.1 M104.3,53
	l-0.1-0.2l-0.3-0.2l-0.3-0.2h-0.5 M79.1,57.3l-0.2,0.1l-0.1,0.2l-0.2,0.2L78.5,58v0.2v0.3v0.2v0.2 M100.3,54.5l0.8,2 M103.3,52.8
	l-1-2.5 M100.7,53.4l-0.2,0.1l-0.2,0.5v0.3v0.2 M72.7,65.5l0.8,1.9 M99.9,51.2l1,2.5 M75.3,62.8l-0.6-1.6 M102.3,50.3l-0.1-0.2
	l-0.2-0.3l-0.2-0.1l-0.2-0.1l-0.3-0.1H101h-0.2l-0.3,0.1 M73.1,64.2l-0.2,0.2l-0.2,0.5v0.4v0.1 M72.3,62.1l1,2.6 M100.5,49.6
	l-0.2,0.1l-0.1,0.2l-0.2,0.2l-0.1,0.2v0.2l-0.1,0.3l0.1,0.2v0.2 M98.8,58.2l-0.7-2 M74.7,61.2L74.6,61l-0.2-0.2l-0.2-0.2L74,60.5
	l-0.3-0.1h-0.3h-0.2l-0.3,0.1 M98,56.2v-0.1l-0.3-0.3l-0.3-0.1l-0.5-0.1 M72.9,60.5l-0.2,0.2l-0.1,0.1L72.4,61l-0.1,0.2v0.2
	l-0.1,0.3l0.1,0.2v0.2 M94.1,57.8l0.7,1.9 M97.1,56l-1-2.5 M94.5,56.6l-0.2,0.1l-0.2,0.5v0.4v0.1 M66.5,68.7l0.7,1.9 M93.7,54.4
	l1,2.6 M69.1,66l-0.6-1.6 M96.1,53.5L96,53.3l-0.2-0.2l-0.2-0.2l-0.2-0.1l-0.3-0.1h-0.3h-0.2l-0.3,0.1 M66.9,67.5l-0.2,0.2l-0.2,0.4
	l-0.1,0.4l0.1,0.2 M66.1,65.4l1,2.5 M94.3,52.8L94.1,53L94,53.1l-0.2,0.2l-0.1,0.2v0.2L93.6,54l0.1,0.2v0.2 M92.6,61.4l-0.7-2
	 M68.5,64.4l-0.1-0.2L68.2,64L68,63.8l-0.2-0.1l-0.3-0.1h-0.3L67,63.7l-0.3,0.1 M91.8,59.5v-0.2L91.5,59l-0.3-0.1l-0.5-0.1
	 M66.7,63.8l-0.2,0.1L66.4,64l-0.2,0.2l-0.1,0.2v0.3L66,64.9l0.1,0.2v0.3 M87.9,61l0.7,1.9 M90.9,59.3l-1-2.6 M88.3,59.8L88.1,60
	l-0.2,0.4l-0.1,0.4l0.1,0.2 M87.5,57.7l1,2.5 M89.9,56.7l-0.1-0.2l-0.2-0.2l-0.2-0.2L89.2,56l-0.3-0.1h-0.3L88.4,56l-0.3,0.1
	 M88.1,56.1l-0.2,0.1l-0.1,0.2l-0.2,0.1l-0.1,0.2V57l-0.1,0.2l0.1,0.2v0.3 M86.4,64.6l-0.8-1.9 M85.6,62.7v-0.2l-0.3-0.2L85,62.1
	h-0.5 M81.7,64.2l0.7,1.9 M84.7,62.5l-1-2.5 M82.1,63l-0.2,0.2l-0.2,0.4L81.6,64l0.1,0.2 M81.3,60.9l1,2.5 M83.7,60l-0.1-0.3
	l-0.2-0.2l-0.2-0.2L83,59.2h-0.3l-0.3-0.1l-0.2,0.1l-0.3,0.1 M81.9,59.3l-0.2,0.1l-0.2,0.2l-0.1,0.2L81.3,60l-0.1,0.2v0.2v0.3
	l0.1,0.2 M80.2,67.8l-0.8-1.9 M79.4,65.9v-0.2l-0.3-0.2l-0.3-0.2h-0.5 M75.5,67.4l0.7,2 M78.5,65.7l-1-2.5 M75.9,66.3l-0.2,0.1
	l-0.2,0.4l-0.1,0.4l0.1,0.2 M75.1,64.1l1,2.5 M77.5,63.2l-0.1-0.3l-0.2-0.2L77,62.6l-0.3-0.1l-0.2-0.1h-0.3H76l-0.3,0.1 M75.7,62.5
	l-0.2,0.1l-0.2,0.2L75.2,63l-0.1,0.2L75,63.4v0.3v0.2l0.1,0.2 M74,71l-0.8-1.9 M73.2,69.1L73.2,69.1l-0.3-0.4l-0.3-0.1l-0.5-0.1
	 M69.3,70.7l0.7,1.9 M72.3,68.9l-1-2.5 M69.7,69.5l-0.2,0.1l-0.2,0.5l-0.1,0.4l0.1,0.1 M68.9,67.3l1,2.6 M71.3,66.4l-0.1-0.2L71,66
	l-0.2-0.2l-0.3-0.1l-0.2-0.1H70h-0.3l-0.2,0.1 M69.5,65.7l-0.2,0.2L69.1,66L69,66.2l-0.1,0.2l-0.1,0.2v0.3v0.2l0.1,0.2 M234,183.5
	l1.6-2.8 M86.7,238.3l3.1,1 M243.7,166.5l1.6-2.9 M248.8,141.4l-13.7-35.2 M68,232.2l3.1,1.1 M36.9,182.9l13.6,35.3 M221.6,109.5
	l1.6-2.8 M45.9,175.3l3.2,1 M226.7,84.5l-25.2-65.2 M184,5.3l-3.1-1 M8.3,71l-1.6,2.9 M3.2,96.1l25.2,65.1"/>
</svg>
