<?xml version="1.0" encoding="utf-8"?>
<!-- Generator: Adobe Illustrator 26.0.1, SVG Export Plug-In . SVG Version: 6.00 Build 0)  -->
<svg version="1.1" id="图层_1" xmlns="http://www.w3.org/2000/svg" xmlns:xlink="http://www.w3.org/1999/xlink" x="0px" y="0px"
	 viewBox="0 0 619.1 351.2" style="enable-background:new 0 0 619.1 351.2;" xml:space="preserve">
<style type="text/css">
	.st0{fill:none;stroke:#000000;stroke-width:0.709;stroke-linecap:round;stroke-linejoin:round;}
	.st1{fill:#FFFFFF;}
	.st2{fill:#9B9B9B;}
	.st3{fill:none;stroke:#D87046;stroke-width:2;stroke-linecap:round;stroke-linejoin:round;}
	.st4{fill:none;stroke:#000000;stroke-width:0.8;stroke-linecap:round;stroke-linejoin:round;stroke-miterlimit:10;}
	.st5{fill:none;stroke:#000000;stroke-width:0.709;stroke-linecap:round;stroke-linejoin:round;stroke-miterlimit:10;}
	.st6{fill:none;stroke:#000000;stroke-width:6;stroke-linecap:square;stroke-miterlimit:10;}
	.st7{font-family:'SourceHanSansCN-Medium-GBpc-EUC-H';}
	.st8{font-size:12px;}
	.st9{letter-spacing:1;}
</style>
<line class="st0" x1="247.7" y1="52.5" x2="247.5" y2="52.2"/>
<polyline class="st0" points="375.8,155.5 373.6,155.8 371.9,156 370.2,156.3 368.4,156.6 366.7,156.9 "/>
<polyline class="st0" points="375.8,145.5 375.8,146.2 375.8,148 375.8,150 375.8,151.9 "/>
<polyline class="st0" points="223.1,153.6 220,154.5 216.8,155 214.2,155.1 "/>
<polyline class="st0" points="222.7,102.6 225.1,103.6 228,105.1 230.6,107 233,109.2 235.2,111.7 237,114.4 238.4,117.4 "/>
<polyline class="st0" points="203.1,47.7 203.6,47.5 204.7,47.2 205.7,46.9 206.7,46.5 207.8,45.9 209,45.3 210.3,44.5 211.3,43.8 
	212.4,42.9 213.4,42.1 "/>
<line class="st0" x1="319.6" y1="61" x2="319.7" y2="61"/>
<polyline class="st0" points="340.3,157 342,157.5 344,157.8 346.1,158 348.1,157.9 350.2,157.5 "/>
<polyline class="st0" points="361.8,122.4 360.5,120.9 359,119.6 357.3,118.5 355.6,117.6 355.5,117.5 "/>
<polyline class="st0" points="204.7,0.6 204.9,0.6 205.6,0.6 206,0.7 206.1,0.7 "/>
<polyline class="st0" points="206.1,0.7 205.9,0.7 205.6,0.7 205.1,0.6 204.3,0.6 "/>
<polyline class="st0" points="203.7,0.9 204.1,0.9 206.1,1.3 208.2,2 210.2,2.8 212.1,3.8 213.9,5 215.5,6.4 217.1,7.9 218.5,9.5 
	219.8,11.3 220.9,13.2 221.8,15.2 222.5,17.3 223.1,19.4 223.5,21.6 223.6,23.8 223.6,26 223.4,28.2 223,30.4 222.3,32.5 
	221.5,34.5 220.6,36.5 219.4,38.3 218.1,40.1 216.7,41.7 215.1,43.2 213.3,44.5 "/>
<line class="st0" x1="279.3" y1="70.6" x2="279.3" y2="70.6"/>
<polyline class="st0" points="293.4,31.7 293.2,31.6 292.8,31.5 292.3,31.4 291.6,31.5 290.8,31.8 289.8,32.2 288.8,32.7 
	287.6,33.3 286.3,34.1 284.9,35 283.4,36 281.9,37.1 280.3,38.2 278.7,39.5 277,40.8 275.4,42.2 273.7,43.7 272.1,45.1 270.4,46.6 
	268.9,48.1 267.4,49.6 265.9,51.1 264.5,52.6 263.3,54 262.1,55.3 261.1,56.6 "/>
<polyline class="st0" points="204.9,0.7 207.4,0.6 211.2,1.1 215,2.2 217.3,3.2 "/>
<polyline class="st0" points="217.3,3.2 220.1,5 222.6,7.2 224.9,9.8 227,13.1 228.7,16.9 229.7,20.9 230,23 230,25.1 229.9,27.2 
	229.6,29.2 229.1,31.2 228.4,33.2 226.9,36.4 224.9,39.4 222.1,42.4 218.7,45 215.2,46.8 211.3,48 207.5,48.5 206.6,48.5 "/>
<line class="st0" x1="238.1" y1="18.4" x2="238" y2="18.6"/>
<line class="st0" x1="247.5" y1="52.2" x2="257.5" y2="63.4"/>
<line class="st0" x1="248.6" y1="8.3" x2="248.4" y2="8.4"/>
<polyline class="st0" points="262.7,54.6 261.4,56.2 260.3,57.6 259.3,59 258.6,60.2 258,61.2 257.6,62.1 257.5,62.9 257.5,63.4 "/>
<polyline class="st0" points="257.5,63.4 257.8,63.8 257.9,63.8 "/>
<polyline class="st0" points="293.4,31.6 293.6,31.9 293.6,32 "/>
<polyline class="st0" points="293.4,31.6 292.9,31.4 292.2,31.4 291.3,31.6 290.2,32 "/>
<polyline class="st0" points="290.2,32 288.6,32.8 286.7,33.8 284.6,35.1 282.4,36.7 "/>
<polyline class="st0" points="282.4,36.7 280.7,37.9 279,39.3 "/>
<polyline class="st0" points="279,39.3 276.3,41.4 273.7,43.7 271.1,46 268.5,48.4 "/>
<polyline class="st0" points="268.5,48.4 266.4,50.6 264.5,52.6 262.7,54.6 "/>
<polyline class="st0" points="405.2,156.6 403.2,156.6 401.2,156.6 399.1,156.6 397,156.6 394.9,156.6 392.9,156.6 390.8,156.6 
	388.9,156.6 387,156.6 385.2,156.6 383.5,156.6 382,156.6 380.6,156.6 379.4,156.6 378.3,156.6 377.4,156.6 376.7,156.6 
	376.2,156.6 375.9,156.6 375.8,156.6 "/>
<polyline class="st0" points="375.8,175.6 375.9,175.6 376.2,175.6 376.7,175.6 377.4,175.6 378.3,175.6 379.4,175.6 380.6,175.6 
	382,175.6 383.5,175.6 385.2,175.6 387,175.6 388.9,175.6 390.8,175.6 392.9,175.6 394.9,175.6 397,175.6 399.1,175.6 401.2,175.6 
	403.2,175.6 405.2,175.6 "/>
<line class="st0" x1="382.2" y1="192.4" x2="375.8" y2="192.4"/>
<polyline class="st0" points="375.8,192.4 375.9,192.4 376,192.4 376.1,192.6 "/>
<path class="st0" d="M375.8,192.4"/>
<polyline class="st0" points="255.5,272.7 255.4,272.7 255.1,272.7 254.7,272.7 254,272.7 253.1,272.7 252.1,272.7 250.9,272.7 
	249.5,272.7 248,272.7 246.3,272.7 244.5,272.7 242.6,272.7 240.6,272.7 238.5,272.7 236.3,272.7 234,272.7 231.7,272.7 
	229.4,272.7 227.1,272.7 224.8,272.7 222.5,272.7 220.3,272.7 218.1,272.7 216,272.7 214,272.7 212.1,272.7 210.3,272.7 
	208.7,272.7 207.2,272.7 205.9,272.7 204.7,272.7 203.7,272.7 202.9,272.7 202.3,272.7 201.9,272.7 201.7,272.7 201.6,272.7 "/>
<polyline class="st0" points="418.3,156.6 418.3,156.6 418.2,156.6 417.9,156.6 417.4,156.6 416.7,156.6 415.8,156.6 414.7,156.6 
	413.5,156.6 412.1,156.6 410.5,156.6 408.8,156.6 407,156.6 405.2,156.6 "/>
<polyline class="st0" points="405.2,175.6 407,175.6 408.8,175.6 410.5,175.6 412.1,175.6 413.5,175.6 414.7,175.6 415.8,175.6 
	416.7,175.6 417.4,175.6 417.9,175.6 418.2,175.6 418.3,175.6 "/>
<polyline class="st0" points="413.9,172.7 413.1,172.6 412.3,172.3 411.8,172 411.3,171.5 411.1,171.3 411.1,171.1 411.1,170.9 
	411.1,170.7 411.2,170.4 411.6,170.1 412.2,169.7 412.8,169.4 413.9,169.3 414.4,169.3 414.9,169.5 415.2,169.8 415.4,170.2 
	415.5,170.6 415.6,171 415.5,171.4 415.4,171.7 415.2,172.1 414.8,172.5 413.9,172.7 "/>
<polyline class="st0" points="418.3,191.2 418.3,191.2 418.2,191.2 417.9,191.2 417.4,191.2 416.7,191.2 415.8,191.2 414.7,191.2 
	413.5,191.2 412.1,191.2 410.6,191.2 408.9,191.2 407.2,191.2 405.3,191.2 403.4,191.2 401.4,191.2 399.4,191.2 397.3,191.2 
	395.3,191.2 "/>
<polyline class="st0" points="395.3,191.2 393.3,191.2 391.3,191.2 389.3,191.2 387.4,191.2 385.6,191.2 384,191.2 382.4,191.2 
	381,191.2 379.7,191.2 378.6,191.2 377.7,191.2 376.9,191.2 376.4,191.2 376,191.2 375.8,191.2 "/>
<polyline class="st0" points="418.3,176.5 418.3,176.5 418.1,176.5 417.8,176.5 417.2,176.5 416.4,176.5 415.5,176.5 414.3,176.5 
	413,176.5 411.6,176.5 410,176.5 408.3,176.5 406.4,176.5 404.5,176.5 402.5,176.5 400.5,176.5 398.4,176.5 396.3,176.5 
	394.2,176.5 392.2,176.5 390.2,176.5 388.2,176.5 386.4,176.5 384.6,176.5 383,176.5 381.5,176.5 380.2,176.5 379,176.5 378,176.5 
	377.1,176.5 376.5,176.5 376.1,176.5 375.8,176.5 "/>
<polyline class="st0" points="219.2,249.2 217,249.2 215,249.2 213,249.2 211.1,249.2 209.4,249.2 207.8,249.2 206.4,249.2 
	205.2,249.2 204.1,249.2 203.2,249.2 202.5,249.2 202,249.2 201.7,249.2 201.6,249.2 "/>
<polyline class="st0" points="201.6,272.7 201.7,272.7 202,272.7 202.5,272.7 203.2,272.7 204.1,272.7 205.2,272.7 206.4,272.7 
	207.8,272.7 209.4,272.7 211.1,272.7 213,272.7 215,272.7 217,272.7 219.2,272.7 "/>
<polyline class="st0" points="418.3,192.4 418.3,192.4 418,192.4 417.6,192.4 417,192.4 416.2,192.4 415.2,192.4 414.1,192.4 
	412.8,192.4 411.3,192.4 409.7,192.4 408,192.4 406.2,192.4 404.3,192.4 402.3,192.4 400.3,192.4 398.3,192.4 396.2,192.4 
	394.2,192.4 392.2,192.4 390.2,192.4 388.3,192.4 386.5,192.4 384.7,192.4 383.1,192.4 382.2,192.4 "/>
<path class="st0" d="M385.1,192.9"/>
<path class="st0" d="M414.6,192.9"/>
<polyline class="st0" points="252.7,207.3 253.5,206.7 255,205.2 "/>
<polyline class="st0" points="255,205.2 256.3,204 256.7,203.6 257.2,203.2 257.4,203 257.6,203 257.6,203.1 257.4,203.4 257,204 
	255.9,205.2 255,206 254,206.8 253.1,207.4 252.8,207.6 "/>
<polyline class="st0" points="252.9,208.6 253.8,208 255.6,206.7 257.4,205.1 258.9,203.5 260.4,201.6 261.7,199.7 262.8,197.7 
	263.7,195.5 264.5,193.3 265.1,191 265.4,188.7 265.6,186.4 265.6,184 265.4,181.7 265,179.4 264.4,177.1 263.6,174.9 262.6,172.8 
	261.5,170.8 260.2,168.9 258.7,167.1 257.1,165.4 255.3,163.9 253.5,162.6 251.5,161.4 249.4,160.5 247.3,159.7 245.1,159.1 
	242.9,158.7 240.6,158.5 239.7,158.5 "/>
<polyline class="st0" points="255.5,249.2 255.5,249.2 255.4,249.2 255,249.2 254.5,249.2 253.8,249.2 252.9,249.2 251.8,249.2 
	250.5,249.2 249.1,249.2 247.5,249.2 245.8,249.2 243.9,249.2 241.9,249.2 239.8,249.2 237.6,249.2 235.4,249.2 233.1,249.2 
	230.8,249.2 228.4,249.2 226.1,249.2 223.7,249.2 221.4,249.2 219.2,249.2 "/>
<polyline class="st0" points="219.2,272.7 221.4,272.7 223.7,272.7 226.1,272.7 228.4,272.7 230.8,272.7 233.1,272.7 235.4,272.7 
	237.6,272.7 239.8,272.7 241.9,272.7 243.9,272.7 245.8,272.7 247.5,272.7 249.1,272.7 250.5,272.7 251.8,272.7 252.9,272.7 
	253.8,272.7 254.5,272.7 255,272.7 255.4,272.7 255.5,272.7 "/>
<polyline class="st0" points="197.8,311.8 197.6,311.8 197.4,311.8 197.3,311.8 197.1,311.8 197,311.8 "/>
<line class="st0" x1="203.3" y1="311.8" x2="197.8" y2="311.8"/>
<line class="st0" x1="197.8" y1="311.8" x2="197.8" y2="331.1"/>
<line class="st0" x1="203.3" y1="331.1" x2="203.3" y2="311.8"/>
<polyline class="st0" points="195.3,325.2 195.2,325.1 195,325 194.8,324.7 194.6,324.2 194.5,323.5 194.4,322.8 194.3,321.9 
	194.3,321.1 194.4,320.2 194.5,319.5 194.6,318.8 194.8,318.3 195,318 195.2,317.8 195.3,317.8 "/>
<polyline class="st0" points="197,319.8 196.9,320.6 196.9,321.5 "/>
<polyline class="st0" points="196.9,321.5 196.9,322.4 197,323.1 "/>
<polyline class="st0" points="252.5,204.1 254.2,202.2 256.7,198.4 258.4,194.2 259.5,189.7 259.8,185.4 "/>
<polyline class="st0" points="259.8,185.4 259.5,180.9 258.4,176.5 256.6,172.3 254.1,168.5 251.1,165.1 247.6,162.4 243.6,160.2 
	239.4,158.8 236.5,158.3 233.5,158.1 "/>
<polyline class="st0" points="273,80.7 272.9,80.5 272.8,80 272.8,79.5 273,78.8 273.4,78 273.9,77 274.6,76 275.4,74.9 276.3,73.6 
	277.4,72.4 278.5,71 279.8,69.6 281.2,68.1 282.6,66.6 284.1,65.1 285.7,63.6 287.3,62.1 289,60.7 290.6,59.2 292.3,57.8 
	293.9,56.5 295.6,55.2 297.2,54.1 298.7,53 300.1,52 301.5,51.1 302.8,50.3 304,49.7 305.1,49.2 306,48.8 306.9,48.5 307.6,48.4 
	308.1,48.5 308.5,48.6 308.6,48.7 "/>
<polyline class="st0" points="261.1,56.6 260.1,57.9 259.3,59 258.7,60 258.2,61 257.8,61.8 257.6,62.5 257.5,63 257.6,63.5 
	257.7,63.7 "/>
<line class="st0" x1="279.3" y1="70.6" x2="279.3" y2="70.6"/>
<polyline class="st0" points="206.6,48.5 207.4,48.5 209.5,48.3 211.6,47.9 213.6,47.3 215.6,46.6 217.6,45.6 219.4,44.5 "/>
<polyline class="st0" points="213.3,44.5 211.5,45.6 209.6,46.6 207.6,47.3 205.5,47.9 203.4,48.3 202.6,48.4 "/>
<line class="st0" x1="354.8" y1="158.1" x2="357.2" y2="158.1"/>
<line class="st0" x1="357.2" y1="115.5" x2="354.8" y2="115.5"/>
<line class="st0" x1="359.3" y1="115.7" x2="359.3" y2="115.7"/>
<polyline class="st0" points="355,115.5 356.1,115.5 357,115.6 358.1,115.6 359.3,115.7 "/>
<line class="st0" x1="357.2" y1="115.5" x2="358.1" y2="115.6"/>
<line class="st0" x1="358.1" y1="115.6" x2="359.3" y2="115.7"/>
<line class="st0" x1="359.3" y1="157.9" x2="358.1" y2="158"/>
<line class="st0" x1="358.1" y1="158" x2="357.2" y2="158.1"/>
<polyline class="st0" points="366.7,156.9 364.8,157.2 363.1,157.5 361.6,157.7 360.2,157.8 "/>
<polyline class="st0" points="359.3,157.9 358.2,158 357.1,158 356.1,158 355,158.1 "/>
<line class="st0" x1="360.2" y1="157.8" x2="359.3" y2="157.9"/>
<polyline class="st0" points="355,115.5 354.9,115.5 354.8,115.5 "/>
<polyline class="st0" points="405.3,156.6 408.5,156.6 411.3,156.6 413.8,156.6 415.7,156.6 417.2,156.6 418,156.6 418.3,156.6 "/>
<polyline class="st0" points="375.8,156.6 375.8,156.6 376.1,156.6 377,156.6 378.5,156.6 380.6,156.6 383,156.6 385.9,156.6 
	389.1,156.6 392.5,156.6 396.1,156.6 399.7,156.6 403.2,156.6 405.3,156.6 "/>
<line class="st0" x1="375.8" y1="128.9" x2="375.8" y2="144.5"/>
<path class="st0" d="M223.1,153.6"/>
<polyline class="st0" points="239.5,158.5 240,158.5 242.2,158.6 244.3,158.9 245.9,159.2 247.3,159.6 248.2,159.9 249.2,160.3 
	250.1,160.7 250.4,160.8 250.6,161 250.9,161.1 251.2,161.2 251.7,161.5 254.7,163.4 255.8,164.3 257,165.3 258.2,166.5 
	259.4,167.9 261.1,170.2 262.7,172.9 264,175.9 "/>
<polyline class="st0" points="238.4,117.4 239.4,120 240.1,122.7 240.5,125.4 240.6,128.2 240.5,131 240.1,133.7 239.4,136.4 
	238.4,139 237.2,141.5 235.8,143.8 234.1,146 232.3,148 230.2,149.7 228,151.3 225.6,152.6 223.1,153.6 "/>
<polyline class="st0" points="264,175.9 265.2,180.2 265.5,183.6 "/>
<polyline class="st0" points="203.7,0.9 202.3,0.7 201.9,0.7 "/>
<polyline class="st0" points="211,3.2 208.2,1.9 205.3,1.1 204,0.9 "/>
<polyline class="st0" points="205.6,47.9 207.8,47.3 209.8,46.5 "/>
<line class="st0" x1="214.8" y1="85.1" x2="214.6" y2="84.5"/>
<polyline class="st0" points="208.2,3 208.1,2.9 207.9,2.8 "/>
<polyline class="st0" points="213.4,42.1 214.8,40.6 216,39.1 "/>
<polyline class="st0" points="216,39.1 217.5,36.9 218.7,34.6 219.7,32.1 220.4,29.6 220.8,27 220.9,24.4 220.8,21.7 220.4,19.1 
	219.7,16.6 218.7,14.1 217.5,11.8 216,9.6 214.4,7.6 212.5,5.9 210.4,4.3 208.2,3 "/>
<polyline class="st0" points="263.7,331.1 263.6,331.1 263.3,331.1 262.9,331.1 262.2,331.1 261.3,331.1 260.3,331.1 259,331.1 
	257.6,331.1 256.1,331.1 254.3,331.1 252.4,331.1 250.4,331.1 248.3,331.1 246,331.1 243.7,331.1 241.2,331.1 238.7,331.1 
	236.1,331.1 233.5,331.1 230.9,331.1 228.2,331.1 225.6,331.1 222.9,331.1 220.3,331.1 217.8,331.1 215.3,331.1 212.8,331.1 
	210.5,331.1 208.3,331.1 206.2,331.1 204.2,331.1 202.3,331.1 200.6,331.1 199.1,331.1 197.7,331.1 196.5,331.1 195.5,331.1 
	194.7,331.1 194.1,331.1 193.7,331.1 193.4,331.1 "/>
<polyline class="st0" points="193.4,336.8 193.4,336.8 193.5,336.8 193.9,336.8 194.4,336.8 195.1,336.8 196,336.8 197.1,336.8 
	198.4,336.8 199.8,336.8 201.5,336.8 203.2,336.8 205.1,336.8 207.2,336.8 209.4,336.8 211.7,336.8 214,336.8 216.5,336.8 
	219,336.8 221.6,336.8 224.2,336.8 226.9,336.8 229.6,336.8 232.2,336.8 234.8,336.8 237.4,336.8 240,336.8 242.5,336.8 
	244.9,336.8 247.2,336.8 249.4,336.8 251.5,336.8 253.4,336.8 "/>
<polyline class="st0" points="253.4,336.8 255.2,336.8 256.9,336.8 258.4,336.8 259.7,336.8 260.8,336.8 261.8,336.8 262.6,336.8 
	263.1,336.8 263.5,336.8 263.7,336.8 "/>
<polyline class="st0" points="192.8,331.7 192.9,331.7 193.1,331.7 193.5,331.7 194.1,331.7 194.8,331.7 195.8,331.7 197,331.7 
	198.3,331.7 199.8,331.7 201.5,331.7 203.3,331.7 205.3,331.7 207.3,331.7 209.6,331.7 211.9,331.7 214.3,331.7 216.8,331.7 
	219.3,331.7 221.9,331.7 224.6,331.7 227.2,331.7 229.9,331.7 232.6,331.7 235.2,331.7 237.8,331.7 240.3,331.7 242.8,331.7 
	245.2,331.7 247.6,331.7 249.8,331.7 251.8,331.7 253.8,331.7 255.6,331.7 257.3,331.7 258.8,331.7 260.1,331.7 261.3,331.7 
	262.3,331.7 263.1,331.7 263.6,331.7 264,331.7 264.2,331.7 264.3,331.7 "/>
<polyline class="st0" points="192.8,336.2 192.9,336.2 193.1,336.2 193.5,336.2 194.1,336.2 194.8,336.2 195.8,336.2 197,336.2 
	198.3,336.2 199.8,336.2 201.5,336.2 203.3,336.2 205.3,336.2 207.3,336.2 209.6,336.2 211.9,336.2 214.3,336.2 216.8,336.2 
	219.3,336.2 221.9,336.2 224.6,336.2 227.2,336.2 229.9,336.2 232.6,336.2 235.2,336.2 237.8,336.2 240.3,336.2 242.8,336.2 
	245.2,336.2 247.6,336.2 249.8,336.2 251.8,336.2 253.8,336.2 "/>
<polyline class="st0" points="253.8,336.2 255.6,336.2 257.3,336.2 258.8,336.2 260.1,336.2 261.3,336.2 262.3,336.2 263.1,336.2 
	263.6,336.2 264,336.2 264.2,336.2 264.3,336.2 "/>
<polyline class="st0" points="308.7,48.8 310.4,50.7 312.3,52.8 314.2,55 316.1,57.1 318,59.1 319.6,61 "/>
<line class="st0" x1="319.7" y1="61" x2="319.7" y2="61"/>
<polyline class="st0" points="350.2,157.5 352,157.1 353.9,156.4 355.7,155.5 357.4,154.5 "/>
<polyline class="st0" points="357.4,154.5 358.7,153.4 360,152.3 "/>
<polyline class="st0" points="360,152.3 361.9,150.3 363.4,148 364.7,145.6 365.7,143 366.4,140.3 366.7,137.5 366.7,134.8 
	366.4,132 365.7,129.4 364.7,126.9 363.4,124.5 361.8,122.4 "/>
<polyline class="st0" points="370,156.5 371.1,153.9 371.9,150.8 372.7,147.6 373.2,144.2 373.6,140.6 373.8,136.9 373.8,133.3 
	373.6,129.5 373.2,126.1 372.7,122.8 371.9,119.6 371.1,117.6 "/>
<polyline class="st0" points="376.1,125.6 375.5,122.8 374.8,119.6 374,117.6 "/>
<polyline class="st0" points="373.2,155.9 374,153.9 374.8,150.8 375.5,147.6 "/>
<polyline class="st0" points="193.8,315.2 193.8,315.2 193.5,315.4 193.2,315.7 193,316.3 192.7,317 192.5,317.8 192.4,318.8 
	192.3,319.8 192.2,320.9 192.2,322 192.3,323.1 192.4,324.2 192.5,325.1 192.7,326 193,326.7 193.2,327.2 193.5,327.5 193.8,327.7 
	"/>
<line class="st0" x1="206.6" y1="0.6" x2="205" y2="0.6"/>
<line class="st0" x1="204.3" y1="0.6" x2="201.8" y2="0.6"/>
<line class="st0" x1="308.6" y1="48.7" x2="293.4" y2="31.7"/>
<polyline class="st0" points="240.5,3.5 235.3,3 230.6,2.6 226.5,2.2 223.1,1.9 220.3,1.6 218.2,1.4 216.5,1.2 215.3,1.1 214.5,1 
	213.8,1 213,0.9 211.9,0.8 211.2,0.8 210.3,0.7 209.4,0.7 208.4,0.6 207.4,0.6 206.9,0.6 "/>
<polyline class="st0" points="206.6,48.5 207.1,48.5 207.7,48.5 208.4,48.5 209,48.6 209.5,48.6 210.3,48.6 210.9,48.7 211.7,48.7 
	213.2,48.8 214.5,48.9 216.3,49 218.4,49.1 221.1,49.3 224.2,49.5 227.9,49.8 232,50.2 236.5,50.6 "/>
<polyline class="st0" points="236.5,50.6 240.8,51 244.7,51.3 246.7,51.5 "/>
<polyline class="st0" points="293.7,32.1 293.8,30.1 293.6,27.3 293.1,24.3 292.1,21.1 "/>
<polyline class="st0" points="263.9,5 263.7,5 262.3,5 260.5,4.9 258.3,4.8 255.6,4.7 252.5,4.5 248.9,4.2 244.9,3.9 240.5,3.5 "/>
<polyline class="st0" points="292.1,21.1 290.6,18.1 289,15.5 287.2,13.4 285.4,11.6 283.1,9.7 281,8.3 279.1,7.4 276.7,6.4 
	274.8,5.8 274,5.6 273.2,5.5 272.4,5.3 271.5,5.3 270.2,5.2 263.9,5 "/>
<line class="st0" x1="247.6" y1="52.5" x2="257.7" y2="63.7"/>
<polyline class="st0" points="236.2,36 237.1,38.1 237.9,39.8 238.6,41.1 239.2,42.1 240,43.2 240.7,44.3 241.5,45.3 242.4,46.5 
	243.3,47.5 244.2,48.6 245.1,49.6 246.5,51.3 247.7,52.5 "/>
<polyline class="st0" points="238,18.5 237,20.4 236.4,22 235.9,23.4 235.5,25 235.3,26.4 235.2,27.2 235.1,28.2 235.1,29.6 
	235.2,31.4 235.5,33.5 236.2,36 "/>
<line class="st0" x1="239.7" y1="16" x2="238" y2="18.4"/>
<line class="st0" x1="241.5" y1="13.7" x2="239.7" y2="16"/>
<line class="st0" x1="243.6" y1="11.7" x2="241.5" y2="13.7"/>
<polyline class="st0" points="248.4,8.4 245.9,9.9 243.6,11.7 "/>
<polyline class="st0" points="261.1,5.1 259.8,5.2 257.4,5.4 255.5,5.7 253.3,6.3 251,7.1 248.6,8.2 "/>
<line class="st0" x1="375.8" y1="156.6" x2="375.8" y2="175.6"/>
<line class="st0" x1="354.8" y1="115.5" x2="353.4" y2="115.5"/>
<line class="st0" x1="352.8" y1="158.1" x2="354.8" y2="158.1"/>
<line class="st0" x1="255.5" y1="331.1" x2="255.5" y2="272.7"/>
<line class="st0" x1="201.6" y1="272.7" x2="201.6" y2="311.8"/>
<line class="st0" x1="418.3" y1="175.6" x2="418.3" y2="156.6"/>
<line class="st0" x1="375.8" y1="176.5" x2="375.8" y2="191.2"/>
<line class="st0" x1="418.3" y1="191.2" x2="418.3" y2="176.5"/>
<line class="st0" x1="417.7" y1="191.8" x2="418.3" y2="191.2"/>
<line class="st0" x1="375.8" y1="191.2" x2="376.4" y2="191.8"/>
<line class="st0" x1="376.4" y1="175.9" x2="375.8" y2="176.5"/>
<line class="st0" x1="418.3" y1="176.5" x2="417.7" y2="175.9"/>
<line class="st0" x1="201.6" y1="249.2" x2="201.6" y2="272.7"/>
<line class="st0" x1="376.4" y1="191.8" x2="375.8" y2="192.4"/>
<line class="st0" x1="418.3" y1="192.4" x2="417.7" y2="191.8"/>
<path class="st0" d="M418.3,192.4"/>
<line class="st0" x1="239.7" y1="158.5" x2="237.4" y2="158.5"/>
<line class="st0" x1="255.5" y1="272.7" x2="255.5" y2="249.2"/>
<line class="st0" x1="197" y1="311.8" x2="197" y2="331.1"/>
<line class="st0" x1="195.3" y1="325.2" x2="197" y2="325.2"/>
<line class="st0" x1="197" y1="317.8" x2="195.3" y2="317.8"/>
<polyline class="st0" points="201.3,237 201.4,240.8 201.4,246.9 201.4,248.9 "/>
<polyline class="st0" points="201.4,237 201.4,236.6 201.3,233 201.3,229.7 201.2,226.8 201.1,224.2 201,221.9 200.7,218.7 
	200.5,216 200.3,213.6 200.1,211.5 199.8,208.7 199.5,206.4 199.3,204.7 199.1,203.4 199,202.4 198.8,200.5 198.6,198.1 
	198.5,195.6 198.4,193.1 198.4,191.1 198.4,189 198.6,186.5 199,184.1 199.3,182.2 199.9,180.1 200.5,178 201.4,175.7 202.7,173 
	203.7,171.4 204.5,170.2 205.3,169.1 206.4,167.9 207.7,166.4 209.3,165 210.9,163.7 212.3,162.7 213.8,161.9 215.5,161 
	217.3,160.2 219.3,159.5 221.5,158.9 222.3,158.7 223.3,158.6 224.4,158.4 226.3,158.2 228.4,158.1 229,158.1 229,158.1 
	233.5,158.1 "/>
<polyline class="st0" points="255.3,248.9 255.3,246.6 255.3,242 255.3,238.7 255.3,237 "/>
<polyline class="st0" points="255.2,237 255.2,234.8 255.1,231.8 254.9,229.2 254.7,226.4 254.5,224 254.4,222.1 254.2,220.7 
	254.1,219.6 253.9,218.3 253.8,217 253.6,215.6 253.3,213.1 253,210.1 252.7,206.5 252.6,205.1 252.5,203.8 252.5,202.7 
	252.5,201.8 252.5,200.9 252.6,200.3 252.6,199.9 252.6,199.7 252.6,199.5 "/>
<line class="st0" x1="257.7" y1="63.7" x2="273" y2="80.7"/>
<line class="st0" x1="202.5" y1="48.5" x2="206.6" y2="48.5"/>
<polyline class="st0" points="380.4,118.2 378.9,118.1 376.4,117.8 374.2,117.5 372.2,117.3 369.6,116.9 367.5,116.5 365.8,116.3 
	364.5,116.1 363.4,115.9 362.2,115.8 361.4,115.7 360.6,115.6 359.8,115.6 358.9,115.6 358.1,115.5 357.3,115.5 "/>
<polyline class="st0" points="357.3,158.1 358.1,158 358.9,158 359.8,158 360.6,157.9 361.4,157.9 362.2,157.8 363.4,157.6 
	364.5,157.5 365.8,157.3 367.5,157 369.6,156.7 372.2,156.3 374.2,156 375.8,155.8 "/>
<line class="st0" x1="397.6" y1="116.7" x2="397.6" y2="116.7"/>
<polyline class="st0" points="418.3,156.6 418.3,152.2 418.3,148.4 418.3,145.2 418.3,142.5 418.3,140.2 418.3,137.9 418.3,136 
	418.3,134.4 418.3,133.2 418.3,131.5 418.3,130.2 418.3,129 418.3,127.6 418.2,126.1 417.9,124.2 417.3,122.2 416.3,120.4 
	415.7,119.7 415.1,119.1 414.2,118.5 412.9,117.9 411.2,117.4 408.9,117 406.2,116.8 403.2,116.8 400.2,116.7 397.1,116.7 "/>
<polyline class="st0" points="397.1,116.7 393.6,116.7 390.2,116.8 386.8,116.9 383.9,117.2 381.5,117.8 380.3,118.3 379.3,118.9 
	378.5,119.6 377.8,120.4 376.9,122.1 376.2,124.1 376,125.6 375.9,126.8 375.8,127.8 375.8,128.7 "/>
<line class="st0" x1="375.8" y1="144.5" x2="375.8" y2="145.5"/>
<polyline class="st0" points="375.8,145.5 375.8,145.6 375.8,148.8 375.8,152.4 375.8,156.6 "/>
<polyline class="st0" points="202.3,154.5 202.6,155.1 203.2,156.7 204.1,158.8 205.1,161.3 206.4,164.6 207.3,166.9 "/>
<polyline class="st0" points="252.9,209.5 253.8,209.1 255.9,207.8 257.9,206.4 260.4,204 262.5,201.6 264,199.2 265.4,196.6 
	266.6,193.5 267.3,190.3 267.6,188 267.8,185.8 267.8,183.6 267.5,181.2 266.9,177.5 266.3,175 265.6,172.9 264.9,170.7 264,168.2 
	262.6,164.6 261,160.4 259.2,155.8 257.1,150.5 254.9,144.9 252.7,139.3 250.4,133.4 249,129.8 247.7,126.6 246.5,123.8 
	245.3,121.4 244.2,119.3 242.9,117.1 242,115.6 240.9,114 239.5,112.2 237.5,110 235.4,108.1 233.7,106.8 232.2,105.8 230.3,104.6 
	228.5,103.8 226.5,103 224.5,102.4 222.8,102 222.2,101.9 "/>
<polyline class="st0" points="213.4,155.1 213.8,155.1 214.2,155.1 "/>
<polyline class="st0" points="222.1,101.6 221.6,100.7 221.1,99.8 220.6,98.7 219.9,97.1 219.1,95.5 218.2,93.5 217.2,90.9 
	215.9,87.9 214.6,84.6 "/>
<path class="st0" d="M223.2,103.5"/>
<path class="st0" d="M223.7,103.8"/>
<polyline class="st0" points="214.6,84.5 213.4,80.9 212.2,77.2 "/>
<polyline class="st0" points="214.8,85.2 214.6,84.7 214.5,84.4 "/>
<polyline class="st0" points="167.6,94.7 168.8,98.3 170,102.1 "/>
<polyline class="st0" points="170,102 171.4,105.7 172.7,109 173.8,111.8 174.7,114.1 175.3,115.9 175.9,117.4 176.6,119.1 
	177.3,121.2 178.1,123.4 179,125.7 179.8,128 180.4,130 181,131.5 181.4,132.8 181.7,133.8 182.1,135 182.6,136.3 183.1,137.7 
	183.7,139.3 184.5,141.1 185.2,142.5 185.9,143.7 187.2,145.5 188.9,147.5 190.8,149.3 192.7,150.7 193.9,151.5 195,152.1 
	196.5,152.8 197.9,153.4 199.5,153.8 200.8,154.2 201.9,154.4 202.9,154.6 203.6,154.7 204.3,154.8 204.8,154.8 205.3,154.9 
	205.9,154.9 206.4,155 207,155 207.8,155 208.6,155 209.6,155.1 210.7,155.1 212,155.1 213.4,155.1 "/>
<polyline class="st0" points="157.6,30.9 156.6,33.7 155.7,37.1 155.1,40.6 154.6,44.9 154.5,48.9 154.6,52.5 154.9,55.6 
	155.3,58.2 155.8,60.4 156.2,62.3 156.6,64 157,65.4 157.2,66 157.5,67 157.9,68.3 158.4,70 159.3,72.7 160.5,76 162,79.9 
	163.7,84.4 165.7,89.5 167.6,94.8 "/>
<polyline class="st0" points="212.2,77.2 211.4,75.2 210,72.1 208.8,69.5 207.7,67.4 206.8,65.9 206.1,64.7 205.5,63.5 205,62.5 
	204.5,61.6 204,60.5 203.4,59.1 202.8,57.4 202.4,55.5 202,53.7 201.9,52.6 201.9,51.4 202,50.1 202.4,48.8 "/>
<polyline class="st0" points="157.6,30.8 158.9,27.7 160.3,24.9 161.5,22.7 162.5,21.2 163.1,20.3 163.7,19.5 164.4,18.4 
	165.4,17.1 166.3,15.9 167,15.1 167.7,14.3 168.7,13.2 169.9,11.9 171.1,10.7 172.1,9.9 172.8,9.2 173.6,8.5 174.5,7.8 175.8,6.9 
	177.5,5.8 179.3,4.7 181,3.8 182.4,3.1 183.3,2.8 184,2.5 184.8,2.2 185.7,1.9 186.7,1.6 187.7,1.4 189.9,0.9 192,0.6 193.4,0.5 
	194,0.5 194.6,0.4 195.3,0.4 196.1,0.4 197,0.4 197.3,0.4 198.8,0.4 199.2,0.4 202.2,0.8 205.1,1.6 207.9,2.8 "/>
<polyline class="st0" points="202.3,49 202.7,48.2 203.2,47.5 203.7,47.1 203.9,46.9 204.1,46.7 204.3,46.6 "/>
<line class="st0" x1="193.4" y1="331.1" x2="192.8" y2="331.7"/>
<line class="st0" x1="264.3" y1="331.7" x2="263.7" y2="331.1"/>
<line class="st0" x1="263.7" y1="336.8" x2="264.3" y2="336.2"/>
<line class="st0" x1="192.8" y1="336.2" x2="193.4" y2="336.8"/>
<line class="st0" x1="264.3" y1="336.2" x2="264.3" y2="331.7"/>
<line class="st0" x1="192.8" y1="331.7" x2="192.8" y2="336.2"/>
<polyline class="st0" points="319.7,61 318.3,59.3 316.5,57.4 314.5,55.3 313.5,54.2 "/>
<polyline class="st0" points="273,80.7 274.6,82.5 276.2,84.2 278.1,86.4 280.3,88.9 282.6,91.6 284.8,94.2 "/>
<polyline class="st0" points="350.1,158.1 351.3,158.1 352.8,158.1 "/>
<polyline class="st0" points="340.2,157 342.9,157.7 344.9,158 346.3,158.1 346.8,158.1 347.1,158.1 347.8,158.1 348.6,158.1 
	349.4,158.1 350.2,158 "/>
<polyline class="st0" points="287.6,98.7 288.3,100 289,101.2 289.6,102.1 290.2,103 "/>
<polyline class="st0" points="284.8,94.2 285.5,95 286.1,95.9 286.7,96.7 287.1,97.4 287.5,98.3 287.6,98.7 "/>
<polyline class="st0" points="290.2,103 291.1,104.3 292,105.3 292.7,106.3 293.3,107.1 293.8,107.7 294.3,108.3 294.6,108.8 
	295,109.4 295.6,110.2 296.2,111.1 296.8,112 297.3,112.8 297.8,113.5 298.4,114.4 299,115.3 299.7,116.2 300.5,117.3 301.6,118.8 
	302.8,120.5 304.3,122.4 306.1,124.6 307.7,126.4 309.3,128.3 311,130.2 312.5,132 "/>
<polyline class="st0" points="312.5,132 313.2,132.7 314,133.7 "/>
<polyline class="st0" points="342.3,103.5 340.4,101.4 338.4,99 336.4,96.7 334.7,94.5 333.3,92.6 331.8,90.6 330.7,89 329.9,87.7 
	329.1,86.6 328.4,85.3 327.8,84.2 327.2,83.1 326.6,81.7 325.9,80.1 325.4,78.7 325.1,77.5 324.8,76.6 324.7,75.8 324.5,75 
	324.4,74 324.2,72.9 324.1,71.8 324,70.9 323.9,70.3 323.8,69.6 323.6,68.9 323.3,68 322.9,66.9 322.2,65.3 321.6,64 320.7,62.5 
	319.7,61 "/>
<polyline class="st0" points="343.8,105.2 343.2,104.5 342.3,103.5 "/>
<polyline class="st0" points="314,133.7 316.8,136.8 319.4,139.6 321.6,142.1 323.5,144.2 325.1,145.8 326.3,147.1 327.2,148 
	327.8,148.6 328.2,149 328.7,149.5 329.5,150.2 330.5,151.1 331.5,151.9 332.3,152.6 333,153.1 333.9,153.7 334.9,154.4 
	336.3,155.2 338.2,156.2 340.3,157 "/>
<polyline class="st0" points="355.4,117.4 354.7,116.8 354,116.1 353.5,115.6 352.7,114.8 351.8,113.9 351.1,113.1 350.1,112.1 
	348.9,110.8 347.4,109.2 345.7,107.2 343.8,105.2 "/>
<line class="st0" x1="193.8" y1="327.7" x2="197" y2="327.7"/>
<line class="st0" x1="197" y1="315.2" x2="193.8" y2="315.2"/>
<path d="M417.2,182.7c0.8,0.4,1.6,0.7,2.3,1.1c0.2,0.1,2.2,1.5,2.3,1.5c1-0.4,0.8-2,0.9-1.9c-0.3-0.2-4.8,0.8-5.2,0.8
	c-5.7,0.4-11.9,0-17.2-2.4c-17.3-7.7-5.7-29.6-0.8-41.8c0.3-0.8,0.6-1.7,0.8-2.5c0.6-2.4-1,3.4,0.3-1c1.1-3.6,0.9-7.5-0.7-11
	c-3.1-6.4-10.1-9.9-17.1-8.5c-4.3,1-8.5,4.6-12.3,6.8l-17.1,9.9c-5,2.9-9.8,6-15.9,5.5c-9.8-0.8-17.4-8.8-17.5-18.6
	c-0.1-8.6-0.4-15.2-6.5-22c-1.8-2-3.8-4-5.6-5.9c-15.8-16.7-31.4-33.6-47.5-50c-9.1-9.3-23.5-5.7-26.4,7.2
	c-1.9,8.5-10.6,11.6-16.9,5.3c-4.1-4-7.8-8.4-11.7-12.6c-9.9-10.7-25.6,1.2-22,14.3c2.3,8.3,5.3,16.5,8,24.7l12.3,38.2
	c2.2,6.8,8.9,19.3,3.2,25.5c-7.4,8.1-22.9,17.7-13.1,30.2c2.8,3.6,7.6,6.2,11.2,8.9c4,2.9,8.5,5.7,12.2,9c4.2,3.7,3.3,9.3,3.3,14.3
	v19.7c0,14.4,0,28.5-3.9,42.5c-10.9,39-49.4,79.8-93.2,72.5c-10.8-1.8-24.1-6.7-31.3-14.9c-4.6-5.1-6,6.4-3.3,8.6
	c16.5,13.4,39.7,15.6,60.5,10.8c19.8-4.5,37.7-18.3,50.5-33.7c13.4-16.1,22-35.6,25-56.3c1.7-12.3,1.1-24.9,1.1-37.2
	c0-10,2.8-24.1-6.2-31c-4.4-3.4-9-6.6-13.5-9.9c-5.1-3.8-13.6-8.6-8.7-16.3c6.1-9.5,20.4-13.8,16.7-27.6c-2.4-8.7-5.5-17.2-8.3-25.7
	l-12.5-38.9c-2.3-7.1-10.7-23.7,1.7-26.2c3.5-0.7,4.4,0.2,6.5,2.4l6.9,7.4c3.8,4.1,7.4,8.9,13.3,10c7.4,1.3,14.6-3,17-10.1
	c1.2-4,1.3-7.7,5.4-9.9c3.7-2,8.4-1.4,11.4,1.6c6.4,5.8,12.1,12.7,18,19l27.6,29.1c2.6,2.8,5.3,5.5,7.9,8.3c1.2,1.2,2.2,2.5,3.1,4
	c3.5,5.8,1.9,11.2,2.5,17.4c1.9,17.4,21.3,26.3,36.2,18.2c9-4.9,17.9-10.1,26.5-15.4c2.2-1.4,4.1-3.2,6.7-3.7
	c4.8-0.7,9.4,1.9,11.2,6.4c2.5,6.5-2,11.2-4.6,17.3c-5.7,13.5-9.3,33,6.8,40.5c5.4,2.5,11.5,3.3,17.4,3.2c3.1-0.1,8.5,0.2,11.1-2.1
	c4.6-4.1-3.1-8.2-6.2-9.6C416.8,176.6,414,181.3,417.2,182.7L417.2,182.7z"/>
<rect x="376.1" y="177.1" class="st1" width="8.7" height="11.6"/>
<rect x="409.9" y="176.9" class="st1" width="8.1" height="7"/>
<polygon class="st2" points="318.6,59.7 318.2,59.6 317.7,59.5 317,59.6 316.1,59.9 315.2,60.3 314.1,60.8 312.9,61.4 311.6,62.2 
	310.2,63.1 308.8,64.1 307.3,65.2 305.7,66.3 304,67.6 302.4,68.9 300.7,70.3 299.1,71.8 297.4,73.2 295.8,74.7 294.2,76.2 
	292.7,77.7 291.3,79.2 289.9,80.7 288.6,82.1 287.5,83.5 286.4,84.7 285.5,86 284.7,87.1 284,88.1 283.5,89.1 283.1,89.9 
	282.9,90.6 282.9,91.1 283,91.6 283.1,91.8 278.6,87.3 278.5,87.1 278.4,86.6 278.4,86.1 278.6,85.4 279,84.6 279.5,83.6 
	280.2,82.6 281,81.5 281.9,80.2 283,79 284.1,77.6 285.4,76.2 286.8,74.7 288.2,73.2 289.7,71.7 291.3,70.2 292.9,68.7 294.6,67.3 
	296.2,65.8 297.9,64.4 299.5,63.1 301.2,61.8 302.8,60.7 304.3,59.6 305.7,58.6 307.1,57.7 308.4,56.9 309.6,56.3 310.7,55.8 
	311.6,55.4 312.5,55.1 313.2,55 313.7,55.1 314.1,55.2 314.2,55.3 "/>
<polygon class="st2" points="213.7,80.4 213.3,80.1 212.9,79.9 212.2,79.7 211.3,79.6 210.3,79.7 209.1,79.7 207.7,79.8 206.2,80.1 
	204.6,80.4 202.9,80.8 201.1,81.3 199.2,81.7 197.2,82.3 195.2,82.9 193.1,83.6 191.1,84.4 189,85 186.9,85.8 184.9,86.6 
	182.9,87.5 181.1,88.4 179.2,89.2 177.5,90 176,90.9 174.5,91.6 173.2,92.5 172,93.2 171,93.9 170.2,94.7 169.5,95.2 169.1,95.8 
	168.9,96.3 168.8,96.8 168.8,97 166.3,91.1 166.2,90.9 166.3,90.4 166.5,89.9 167,89.3 167.6,88.7 168.5,88 169.5,87.3 170.6,86.6 
	172,85.7 173.4,85 175,84.1 176.7,83.3 178.6,82.4 180.4,81.6 182.4,80.7 184.4,79.9 186.4,79.1 188.5,78.5 190.6,77.7 192.7,77 
	194.6,76.4 196.7,75.8 198.6,75.4 200.4,74.9 202.1,74.5 203.7,74.2 205.2,73.9 206.6,73.8 207.8,73.8 208.7,73.7 209.7,73.8 
	210.4,74 210.8,74.2 211.1,74.5 211.2,74.6 "/>
<polygon class="st2" points="254.8,229.5 201.6,229.5 201.3,220.5 254.5,220.5 "/>
<polygon class="st2" points="418,186.1 376,186.1 376.1,180.4 417.9,180.4 "/>
<path class="st2" d="M361.4,115.7c0,0,15.6,16.3,0.6,41.8l5.5-0.5c0,0,11.5-29.7-1.1-40.4"/>
<g>
	<line class="st0" x1="108" y1="335.3" x2="107.9" y2="342.1"/>
	<line class="st0" x1="108.5" y1="310.8" x2="108.5" y2="312.6"/>
	<polyline class="st0" points="107.9,342.1 108.2,342 108.4,341.9 108.4,341.8 	"/>
	<polyline class="st0" points="18.4,342.7 18.4,342.7 18.4,342.8 18.6,342.9 18.9,343.1 19.3,343.2 19.8,343.3 20.3,343.4 	"/>
	<line class="st0" x1="81" y1="350.5" x2="107.9" y2="342.1"/>
	<line class="st0" x1="20.3" y1="343.4" x2="75.5" y2="350.7"/>
	<polyline class="st0" points="75.5,350.7 76.2,350.8 76.8,350.8 77.5,350.8 78.2,350.8 78.9,350.8 79.5,350.8 80.1,350.7 
		80.6,350.6 81,350.5 	"/>
	<line class="st0" x1="81" y1="350.5" x2="81.6" y2="319.2"/>
	<line class="st0" x1="76.2" y1="319.4" x2="75.5" y2="350.7"/>
	<line class="st0" x1="107.1" y1="309.7" x2="51.9" y2="302.4"/>
	<polyline class="st0" points="46.5,302.6 46.8,302.5 47.3,302.4 47.9,302.3 48.5,302.3 49.2,302.3 49.9,302.3 50.6,302.3 
		51.3,302.3 51.9,302.4 	"/>
	<line class="st0" x1="46.5" y1="302.6" x2="19.5" y2="311"/>
	<polyline class="st0" points="21,312 20.4,312 19.9,311.9 19.5,311.7 19.2,311.6 19.1,311.5 19,311.3 19.1,311.2 19.3,311.1 
		19.5,311 	"/>
	<line class="st0" x1="21" y1="312" x2="76.2" y2="319.4"/>
	<polyline class="st0" points="81.6,319.2 81.2,319.3 80.7,319.4 80.2,319.4 79.5,319.5 78.9,319.5 78.2,319.5 77.5,319.5 
		76.8,319.4 76.2,319.4 	"/>
	<line class="st0" x1="81.6" y1="319.2" x2="108.5" y2="310.8"/>
	<polyline class="st0" points="107.1,309.7 107.7,309.8 108.2,309.9 108.6,310 108.9,310.2 109,310.3 109.1,310.4 109,310.6 
		108.8,310.7 108.5,310.8 	"/>
	<polyline class="st0" points="107.2,312.5 107.2,312.4 106.9,312.5 	"/>
	<polyline class="st0" points="96.1,336.1 96.1,336.5 96.1,337 96.2,337.3 96.4,337.7 96.5,337.9 96.7,338 96.9,338.1 	"/>
	<line class="st0" x1="106.9" y1="312.5" x2="97.7" y2="315.4"/>
	<line class="st0" x1="106.9" y1="312.5" x2="108.3" y2="312.7"/>
	<line class="st0" x1="96.1" y1="334.2" x2="96.1" y2="336.1"/>
	<line class="st0" x1="96.4" y1="318.1" x2="96.3" y2="323.7"/>
	<line class="st0" x1="98.6" y1="338.3" x2="107.8" y2="335.4"/>
	<polyline class="st0" points="108.4,335 108.3,335 108.1,335.3 107.8,335.4 	"/>
	<line class="st0" x1="109.4" y1="317.4" x2="109.4" y2="314.6"/>
	<polyline class="st0" points="108.3,312.7 108.5,312.6 108.8,312.7 109,312.9 109.1,313.1 109.3,313.4 109.4,313.8 109.4,314.2 
		109.4,314.6 	"/>
	<line class="st0" x1="108.3" y1="312.7" x2="99.1" y2="315.5"/>
	<line class="st0" x1="97.5" y1="333.5" x2="97.4" y2="336.3"/>
	<line class="st0" x1="97.8" y1="318.3" x2="97.7" y2="324"/>
	<polyline class="st0" points="98.6,338.3 98.4,338.3 98.1,338.2 97.9,338.1 97.7,337.8 97.6,337.5 97.5,337.1 97.4,336.7 
		97.4,336.3 	"/>
	<polyline class="st0" points="97.7,315.4 97.4,315.5 97.2,315.7 97,316 96.8,316.3 96.7,316.7 96.5,317.1 96.5,317.6 96.4,318.1 	
		"/>
	<polyline class="st0" points="97.8,318.3 97.8,317.8 97.9,317.3 98,316.9 98.2,316.5 98.4,316.1 98.6,315.9 98.8,315.7 99.1,315.5 
			"/>
	<polyline class="st0" points="109.5,328.6 109.6,328.3 109.8,327.4 109.9,326.5 110,325.6 110.1,324.7 110.1,324 	"/>
	<polyline class="st0" points="99.1,326.1 99.1,325.3 99.3,324.3 99.4,323.4 99.7,322.4 100,321.5 100.3,320.6 100.7,319.9 
		101.1,319.1 101.5,318.5 102,317.9 102.5,317.5 103,317.1 103.5,316.9 104,316.8 104.5,316.7 104.6,316.8 	"/>
	<polyline class="st0" points="102.3,334.2 102.1,334.1 101.7,334 101.2,333.7 100.8,333.3 100.4,332.9 100.1,332.3 99.8,331.6 
		99.5,330.9 99.3,330.1 99.2,329.3 	"/>
	<polyline class="st0" points="117.5,325.4 117.5,326.3 117.4,327.3 117.2,328.3 117,329.3 116.7,330.2 116.4,331.1 116.1,332 
		115.7,332.7 115.2,333.4 114.8,334 114.3,334.5 113.8,334.9 113.3,335.2 112.8,335.4 112.3,335.5 111.8,335.4 111.3,335.3 
		110.9,335 110.5,334.6 110.1,334.1 109.7,333.6 109.4,332.9 109.2,332.2 109,331.4 108.8,330.5 108.7,329.6 108.7,328.6 
		108.7,327.6 108.8,326.6 108.9,325.6 109.1,324.7 109.4,323.7 109.6,322.8 110,321.9 110.4,321.1 110.8,320.4 111.2,319.8 
		111.7,319.2 112.2,318.8 112.6,318.4 113.2,318.2 113.7,318 114.2,318 114.6,318.1 115.1,318.3 115.5,318.6 115.9,319.1 
		116.3,319.6 116.6,320.2 116.9,320.9 117.1,321.7 117.3,322.5 117.4,323.4 117.5,324.4 117.5,325.4 	"/>
	<polyline class="st0" points="109.5,327.9 109.5,327 109.6,326.1 109.8,325.2 110,324.3 110.3,323.5 110.6,322.7 110.9,322 
		111.3,321.4 111.7,320.8 112.1,320.4 112.6,320 113,319.8 113.5,319.6 113.9,319.6 114.4,319.7 114.8,319.9 115.2,320.2 
		115.5,320.6 115.8,321.1 116.1,321.7 116.3,322.4 116.5,323.1 116.6,323.9 116.7,324.7 116.7,325.6 116.7,326.5 116.6,327.4 
		116.4,328.3 116.2,329.1 115.9,330 115.6,330.7 115.3,331.5 114.9,332.1 114.5,332.6 114.1,333.1 113.6,333.5 113.2,333.7 
		112.7,333.8 112.3,333.9 111.8,333.8 111.4,333.6 111,333.3 110.7,332.9 110.4,332.4 110.1,331.8 109.9,331.1 109.7,330.4 
		109.6,329.6 109.5,328.7 109.5,327.9 	"/>
	<line class="st0" x1="96.1" y1="332.6" x2="96.2" y2="332.7"/>
	<polyline class="st0" points="92.8,322.5 92.6,322.5 92.1,322.5 91.7,322.7 91.3,323 90.9,323.4 90.5,323.9 90.2,324.5 89.9,325.2 
		89.6,325.9 	"/>
	<polyline class="st0" points="90.8,326.1 91,325.3 91.4,324.7 91.7,324.1 92.1,323.6 92.5,323.2 92.9,322.9 93.3,322.7 93.7,322.6 
		94.1,322.7 94.5,322.8 94.9,323.1 95.2,323.4 95.3,323.6 	"/>
	<polyline class="st0" points="94,333.9 93.7,334.1 93.3,334.3 92.9,334.5 92.5,334.5 92.1,334.4 91.7,334.2 91.6,334.1 	"/>
	<polyline class="st0" points="97,332.4 97,332.1 96.9,331.9 96.8,331.8 96.6,331.8 96.5,331.9 96.4,332.1 96.3,332.4 96.2,332.7 	
		"/>
	<polyline class="st0" points="96.2,332.7 95.9,332.6 95.6,332.4 95.4,332.1 95.2,331.7 95,331.3 94.9,330.7 94.8,330.1 94.8,329.5 
		94.9,328.9 95,328.2 95.1,327.6 95.3,327 95.6,326.5 95.9,326.1 96.2,325.8 96.5,325.5 96.8,325.4 97.1,325.4 97.4,325.5 
		97.7,325.7 98,326 98.2,326.4 98.3,326.9 98.4,327.5 98.5,328.1 98.5,328.7 98.4,329.4 98.3,330 98.1,330.6 97.9,331.1 97.6,331.6 
		97.4,332 97,332.4 	"/>
	<polyline class="st0" points="93.9,323.4 93.8,323.4 93.4,323.4 93,323.6 92.6,323.9 92.3,324.2 91.9,324.7 91.6,325.2 91.3,325.9 
		91.1,326.3 	"/>
	<polyline class="st0" points="91.9,333.4 92.2,333.6 92.5,333.7 	"/>
	<polyline class="st0" points="94,330 94.1,330.8 94.2,331.5 94.3,332.1 94.5,332.7 94.7,333.2 95,333.6 95.3,333.9 95.7,334.1 
		96.1,334.2 96.4,334.1 96.8,334 97.2,333.7 97.6,333.4 97.9,332.9 98.3,332.3 98.5,331.7 98.8,331 99,330.3 99.1,329.5 99.2,328.8 
		99.3,328 99.2,327.3 99.1,326.6 99,325.9 98.8,325.3 98.6,324.8 98.3,324.4 98,324.1 97.6,323.9 97.2,323.9 96.8,323.9 96.5,324 
		96.1,324.3 95.7,324.7 95.4,325.1 95,325.7 94.7,326.3 94.5,327 94.3,327.7 94.2,328.5 94.1,329.3 94,330 	"/>
	<polyline class="st0" points="86,324.6 85.8,324.6 85.4,324.6 85,324.8 84.6,325.1 84.2,325.4 83.8,325.9 83.4,326.5 83.1,327.1 
		82.8,327.8 82.6,328.6 82.4,329.4 82.3,330.2 82.2,331.1 82.2,331.9 82.2,332.7 82.3,333.4 82.5,334.1 82.7,334.7 82.9,335.3 
		83.3,335.7 83.6,336.1 84,336.3 84.4,336.5 84.4,336.5 	"/>
	<polyline class="st0" points="86.8,336.3 86.4,336.5 85.9,336.6 85.5,336.6 85.1,336.5 84.8,336.2 84.4,335.9 84.1,335.4 
		83.9,334.9 83.7,334.3 83.5,333.6 83.4,332.8 83.4,332 83.4,331.2 83.4,330.4 83.6,329.6 83.8,328.8 84,328 84.3,327.3 84.6,326.6 
		85,326.1 85.4,325.6 85.8,325.2 86.2,324.9 86.6,324.8 87,324.7 87.4,324.8 87.8,325 88.2,325.3 88.5,325.7 88.5,325.7 	"/>
	<polyline class="st0" points="87.2,332 87.2,332.7 87.3,333.4 87.4,334.1 87.6,334.7 87.8,335.2 88.1,335.6 88.4,336 88.8,336.2 
		89.1,336.3 89.5,336.3 89.9,336.2 90.3,335.9 90.7,335.6 91,335.1 91.4,334.6 91.7,334 91.9,333.3 92.1,332.6 92.3,331.9 
		92.4,331.1 92.4,330.3 92.4,329.6 92.4,328.9 92.2,328.2 92,327.6 91.8,327.1 91.5,326.7 91.2,326.3 90.9,326.1 90.5,326 90.1,326 
		89.7,326.1 89.3,326.4 89,326.7 88.6,327.1 88.3,327.7 88,328.3 87.7,329 87.5,329.7 87.4,330.4 87.3,331.2 87.2,332 	"/>
	<line class="st0" x1="109" y1="312.9" x2="109.1" y2="310.4"/>
	<line class="st0" x1="108.4" y1="341.8" x2="108.6" y2="335"/>
	<line class="st0" x1="19" y1="311.3" x2="18.4" y2="342.7"/>
	<line class="st0" x1="108.6" y1="312.6" x2="107.2" y2="312.5"/>
	<line class="st0" x1="96.9" y1="338.1" x2="98.3" y2="338.3"/>
	<line class="st0" x1="114.3" y1="318" x2="104.6" y2="316.8"/>
	<line class="st0" x1="102.3" y1="334.2" x2="111.9" y2="335.4"/>
	<line class="st0" x1="91.5" y1="334.4" x2="92.4" y2="334.5"/>
	<line class="st0" x1="94" y1="322.6" x2="92.8" y2="322.5"/>
	<line class="st0" x1="97.3" y1="323.9" x2="93.9" y2="323.4"/>
	<line class="st0" x1="92.5" y1="333.7" x2="96" y2="334.2"/>
	<line class="st0" x1="84.4" y1="336.5" x2="85.6" y2="336.6"/>
	<line class="st0" x1="87.2" y1="324.8" x2="86" y2="324.6"/>
	<line class="st0" x1="90.5" y1="326" x2="85.8" y2="325.5"/>
	<line class="st0" x1="84.4" y1="335.8" x2="89.1" y2="336.3"/>
</g>
<polyline class="st3" points="312.5,59 312.5,34.4 376.9,34.4 "/>
<polyline class="st3" points="330.1,140.1 330.1,79.5 376.9,79.5 "/>
<line class="st3" x1="66" y1="310.4" x2="66" y2="249.6"/>
<path class="st4" d="M388.5,211.4v-2.5 M405,211.4v0.1 M382.3,212.9v-1.4 M378.1,195.3h-1.3 M380,211.4L380,211.4L380,211.4h0.2h0.2
	h0.2h0.2h0.3h0.3h0.4h0.4h0.5h0.5h0.5h0.6h0.6h0.7h0.7h0.7h0.7h0.8 M388.5,211.4h0.8h0.8h0.8h0.8h0.9h0.9h0.9h0.9h0.9h0.9h0.9h0.9
	h0.9h0.9h0.9h0.9h0.8h0.8h0.8h0.8h0.8h0.7h0.7h0.7h0.6h0.6h0.6h0.5h0.5h0.4h0.4h0.4h0.3h0.3h0.2h0.2h0.1h0.1l0,0 M382.3,211.5h-0.4
	h-0.4h-0.3h-0.3h-0.3h-0.2h-0.2h-0.1H380l0,0 M414,211.5L414,211.5L414,211.5h-0.1h-0.1h-0.2h-0.2h-0.3h-0.3h-0.4H412h-0.4h-0.5
	h-0.5H410h-0.6h-0.6h-0.7h-0.7h-0.7h-0.8h-0.8h-0.8h-0.8h-0.8h-0.9h-0.9H400h-0.9h-0.9h-0.9h-0.9h-0.9h-0.9h-0.9h-0.9H392h-0.9h-0.8
	h-0.8h-0.8h-0.8h-0.7h-0.7h-0.7h-0.7h-0.6h-0.6h-0.5h-0.5h-0.5 M394.9,225.1h0.1h0.2h0.2h0.3h0.3h0.3h0.3h0.3h0.3h0.3h0.3h0.3h0.3
	h0.2h0.2h0.1 M399.8,225.7h-0.1h-0.2h-0.2H399h-0.3h-0.3h-0.3h-0.3h-0.3H397h-0.4h-0.4H396h-0.3h-0.3h-0.3h-0.2h-0.2h-0.2h-0.1
	 M379.2,222.3v2.8 M394.3,225.1v-2.8 M394.9,222.3v2.8 M379.2,225.1L379.2,225.1L379.2,225.1h0.2h0.2h0.2h0.3h0.3h0.4h0.4h0.4h0.5
	h0.5h0.6h0.6h0.6h0.7h0.7h0.7h0.8h0.8h0.8h0.8h0.9h0.9h0.9h0.9h0.9 M394.3,225.7h-0.9h-0.9h-0.9h-0.8H390h-0.8h-0.8h-0.8h-0.7h-0.7
	h-0.7h-0.6h-0.6h-0.6h-0.5h-0.5h-0.5h-0.4h-0.4h-0.3h-0.3h-0.2h-0.2H380h-0.1h-0.1l0,0 M394.3,225.7l0.6-0.6 M394.9,225.1h-0.7
	 M394.3,225.7v-0.3v-0.2 M399.8,225.7l-0.6-0.6 M399.8,225.1h-0.7 M399.8,222.3v2.8 M399.2,225.1v-2.8 M414.3,225.7L414.3,225.7
	L414.3,225.7h-0.2h-0.2h-0.2h-0.2h-0.3h-0.3h-0.4H412h-0.5H411h-0.6h-0.6h-0.6h-0.7h-0.7h-0.7h-0.7h-0.8h-0.8H404h-0.8h-0.8h-0.9
	h-0.9h-0.9 M414.3,225.7l0.6-0.6 M399.8,225.1h0.9h0.9h0.9h0.9h0.9h0.8h0.8h0.8h0.8h0.7h0.7h0.7h0.6h0.6h0.6h0.5h0.5h0.4h0.4h0.4
	h0.3h0.3h0.2h0.2h0.1h0.1l0,0 M399.8,225.1v0.3v0.2 M376.4,222.3l-0.6-0.6 M417.7,222.3L417.7,222.3L417.7,222.3h-0.2h-0.2h-0.2
	h-0.3h-0.3h-0.3h-0.4h-0.4h-0.5h-0.5h-0.6h-0.6h-0.6h-0.7h-0.7h-0.7h-0.8h-0.8h-0.8h-0.9h-0.9h-0.9h-0.9h-0.9h-1h-1h-1h-1h-1h-1h-1
	h-1h-1h-1h-1h-1h-0.9h-0.9h-0.9H388h-1h-0.9h-0.8h-0.8h-0.8H383h-0.7h-0.7H381h-0.6h-0.6h-0.5h-0.5h-0.4H378h-0.4h-0.3H377h-0.2
	h-0.2h-0.1h-0.1l0,0 M417.7,222.3l0.6-0.6 M418.3,213.5v8.3 M375.8,213.5v8.3 M375.8,221.7L375.8,221.7L375.8,221.7h0.2h0.2h0.2h0.3
	h0.3h0.3h0.4h0.4h0.5h0.5h0.6h0.6h0.6h0.7h0.7h0.7h0.8h0.8h0.8h0.9h0.9h0.9h0.9h0.9h1h1h1h1h1h1h1h1h1h1h1h1h1h1h0.9h0.9h0.9h0.9
	h0.9h0.8h0.8h0.8h0.7h0.7h0.7h0.6h0.6h0.6h0.5h0.5h0.4h0.4h0.3h0.3h0.3h0.2h0.2h0.1h0.1l0,0 M417.7,212.9l0.6,0.6 M376.4,212.9
	L376.4,212.9L376.4,212.9h0.2h0.2h0.2h0.3h0.3h0.4h0.4h0.4h0.5h0.5h0.6h0.6h0.6h0.7h0.7h0.7h0.8h0.8h0.8h0.9h0.9h0.9h0.9h0.9h0.9h1
	h1h1h1h1h1h1h1h1h1h1h1h0.9h0.9h0.9h0.9h0.9h0.8h0.8h0.8h0.7h0.7h0.7h0.6h0.6h0.6h0.5h0.5h0.4h0.4h0.3h0.3h0.3h0.2h0.2h0.1h0.1l0,0
	 M376.4,212.9l-0.6,0.6 M418.3,213.5L418.3,213.5L418.3,213.5h-0.2h-0.2h-0.2h-0.3h-0.3h-0.3h-0.4H416h-0.5H415h-0.6h-0.6h-0.6h-0.7
	h-0.7h-0.7h-0.8h-0.8h-0.8h-0.9h-0.9H406h-0.9H404h-1h-1h-1h-1h-1h-1h-1h-1h-1h-1h-1h-1h-1h-1h-0.9h-0.9h-0.9h-0.9h-0.9h-0.8h-0.8
	h-0.8h-0.7h-0.7H381h-0.6h-0.6h-0.6h-0.5h-0.5h-0.4h-0.4H377h-0.3h-0.3h-0.2H376h-0.1h-0.1l0,0 M376.4,192.5L376.4,192.5
	L376.4,192.5h0.2h0.2h0.2h0.3h0.3h0.4h0.4h0.4h0.5h0.5h0.6h0.6h0.6h0.7h0.7h0.7h0.8h0.8h0.8h0.9h0.9h0.9h0.9h0.9h0.9h1h1h1h1h1h1h1
	h1h1h1h1h1h0.9h0.9h0.9h0.9h0.9h0.8h0.8h0.8h0.7h0.7h0.7h0.6h0.6h0.6h0.5h0.5h0.4h0.4h0.3h0.3h0.3h0.2h0.2h0.1h0.1l0,0 M376.4,192.5
	l-0.6,0.6 M417.7,192.5l0.6,0.6 M417.7,208.9L417.7,208.9L417.7,208.9h-0.2h-0.2h-0.2h-0.3h-0.3h-0.3h-0.4h-0.4h-0.5h-0.5h-0.6h-0.6
	h-0.6h-0.7h-0.7h-0.7h-0.8h-0.8h-0.8h-0.9h-0.9h-0.9h-0.9h-0.9h-1h-1h-1h-1h-1h-1h-1h-1h-1h-1h-1h-1h-0.9h-0.9h-0.9H388h-1h-0.9
	h-0.8h-0.8h-0.8H383h-0.7h-0.7H381h-0.6h-0.6h-0.5h-0.5h-0.4H378h-0.4h-0.3H377h-0.2h-0.2h-0.1h-0.1l0,0 M417.7,208.9l0.6-0.6
	 M376.4,208.9l-0.6-0.6 M376.8,195.3V195v-0.3v-0.3l0.1-0.2l0.1-0.2l0.1-0.1l0.1-0.1h0.1h0.1l0.1,0.1l0.1,0.1l0.1,0.2l0.1,0.2
	l0.1,0.3v0.3v0.3 M378.1,195.3v0.3v0.3l-0.1,0.3l-0.1,0.3l-0.1,0.2l-0.1,0.2l-0.1,0.1h-0.1h-0.1l-0.1-0.1l-0.1-0.2l-0.1-0.2
	l-0.1-0.2V196v-0.3v-0.3 M375.8,208.4L375.8,208.4L375.8,208.4h0.2h0.2h0.2h0.3h0.3h0.3h0.4h0.4h0.5h0.5h0.6h0.6h0.6h0.7h0.7h0.7
	h0.8h0.8h0.8h0.9h0.9h0.9h0.9h0.9h1h1h1h1h1h1h1h1h1h1h1h1h1h1h0.9h0.9h0.9h0.9h0.9h0.8h0.8h0.8h0.7h0.7h0.7h0.6h0.6h0.6h0.5h0.5
	h0.4h0.4h0.3h0.3h0.3h0.2h0.2h0.1h0.1l0,0 M418.3,208.4v-15.3 M418.3,193.1L418.3,193.1L418.3,193.1h-0.2h-0.2h-0.2h-0.3h-0.3h-0.3
	h-0.4H416h-0.5H415h-0.6h-0.6h-0.6h-0.7h-0.7h-0.7h-0.8h-0.8h-0.8h-0.9h-0.9H406h-0.9H404h-1h-1h-1h-1h-1h-1h-1h-1h-1h-1h-1h-1h-1
	h-1h-0.9h-0.9h-0.9h-0.9h-0.9h-0.8h-0.8h-0.8h-0.7h-0.7H381h-0.6h-0.6h-0.6h-0.5h-0.5h-0.4h-0.4H377h-0.3h-0.3h-0.2H376h-0.1h-0.1
	l0,0 M375.8,208.4v-15.3 M380,208.9v2.5 M414,211.4v-2.5 M380,211.5v1.4 M412.9,211.5v-0.1 M381.2,211.4v0.1 M414,212.9v-1.4
	 M414.9,225.1v-2.8 M379.2,225.1l0.6,0.6"/>
<path class="st4" d="M405.8,195.3c0,0.9-0.8,1.7-1.7,1.7s-1.7-0.8-1.7-1.7s0.8-1.7,1.7-1.7c0.1,0,0.2,0,0.3,0
	C405.2,193.8,405.8,194.5,405.8,195.3z"/>
<path class="st4" d="M402.7,196.1c0,0,2-0.2,2.1-2"/>
<path class="st5" d="M375.8,195.8c0,0-3,0.7-3,0.8c-0.1,0.1,0,0.2,0,0.2s-0.1,0.2-0.2,0.2s-0.5,0.1-0.5,0.2c-0.1,0-0.2-0.3-0.2-0.3
	s-0.1,0-0.2,0s-0.2-0.1-0.2-0.1l0.2,0.5c0,0.1-1.4,0.6-1.5,0.6s-0.3-0.5-0.3-0.5s0,0.1-0.1,0.2c-0.1,0.1-0.2,0-0.2,0l0.2,0.7
	c0,0-1.6,0.6-1.7,0.7c-0.1,0.1-0.2,0.2-0.3,0.4c-0.1,0.2-0.3,0.9-0.4,1s-1.6,0.7-1.6,0.7h-0.2l-0.1,0.2l-0.4,0.2h-0.2l-0.2,0.2
	l-0.4,0.2H364l-0.1,0.2l-0.4,0.2l-0.2-0.1l-0.1,0.3c0,0-2.3,1-2.6,1.1c-0.2,0.1-0.4-0.2-0.6-0.4c-0.2-0.3-2-3.8-2.1-4.1s0-0.6,0-0.7
	c0-0.1,2.8-1.1,2.8-1.1h0.2l0.2-0.1v-0.1l0.4-0.2l0.3,0.1l0.2-0.1v-0.2l0.4-0.1l0.3,0.1l0.1-0.1v-0.3h0.3h0.3l0.1-0.1
	c0,0,1.4-0.7,1.6-0.7s1.4,0.4,1.4,0.4l1.7-0.7l0.5,0.4h0.1l-0.1-0.2h0.1l0.1,0.1l-0.1-0.2l0.3,0.2l0.1-0.1l-0.3-0.4l1.6-0.4l0.2,0.3
	l0.5-0.1l-0.1-0.4c0,0,0,0,0.1,0s0.6-0.1,0.6,0s0.2,0.2,0.2,0.2s3-0.6,3.4-0.7"/>
<path class="st5" d="M360.7,203.4c-0.5,0.3-0.7,0.5-0.9,0.4c-0.1-0.1-0.7-1-0.8-1.3c-0.1-0.3-1.5-2.5-1.6-2.9
	c-0.1-0.3-0.3-0.9-0.2-1c0.1-0.1,0.7-0.4,0.7-0.4"/>
<path class="st5" d="M358.6,203.9c0,0.1-0.2,0.2-0.3,0.2s-0.1,0-0.1,0c-0.1,0-0.2-0.2-0.3-0.4c-0.1-0.2-0.9-1.9-1-2.2
	s-0.5-1.2-0.6-1.5c-0.2-0.5,0.2-0.4,0.2-0.4"/>
<path class="st5" d="M358.9,203.7c0,0.2-0.1,0.3-0.2,0.2c-0.1,0-0.5-0.2-0.7-0.6c-0.2-0.4-1.4-3-1.5-3.2s-0.2-0.5-0.1-0.6
	s0.3-0.1,0.3-0.1"/>
<path class="st5" d="M359.3,203.4c0,0.2-0.1,0.4-0.2,0.3c-0.1-0.1-0.2-0.1-0.3-0.3c-0.1-0.1-1.3-2.2-1.3-2.3
	c-0.1-0.1-0.6-1.3-0.7-1.5c0-0.2,0.1-0.4,0.3-0.4"/>
<path class="st5" d="M359.5,203.4c-0.1,0.1-0.1,0.1-0.3,0c-0.2-0.1-1.4-2.1-1.5-2.4s-0.7-1.5-0.7-1.7s0-0.3,0.1-0.4
	c0.1,0,0.1,0,0.1,0"/>
<line class="st5" x1="363.3" y1="196.1" x2="365.7" y2="201"/>
<line class="st5" x1="365" y1="201.4" x2="362.6" y2="196.5"/>
<line class="st5" x1="364.4" y1="201.7" x2="361.9" y2="196.7"/>
<line class="st5" x1="363.8" y1="202.1" x2="361.2" y2="196.8"/>
<line class="st5" x1="363.2" y1="202.1" x2="360.7" y2="197.1"/>
<path class="st5" d="M358,204c-0.2,0.2-0.4,0.1-0.7-0.2c-0.2-0.3-1.4-3.1-1.4-3.4c-0.1-0.2-0.2-0.5-0.1-0.6s0.2-0.1,0.2-0.1h0.2"/>
<path class="st6" d="M355.8,201.8"/>
<path class="st6" d="M372.8,179.6"/>
<path class="st6" d="M372.8,179.6c-5.7,0.7-51.4,21.9-18,21.8"/>
<text transform="matrix(1 0 0 1 385.4258 31.392)" class="st7 st8">V</text>
<text transform="matrix(1 0 0 1 393.5381 31.392)" class="st7 st8 st9">elc</text>
<text transform="matrix(1 0 0 1 413.6973 31.392)" class="st7 st8 st9">r</text>
<text transform="matrix(1 0 0 1 419.6739 31.392)" class="st7 st8 st9">o</text>
<text transform="matrix(1 0 0 1 389.3245 76.5522)" class="st7 st8">P</text>
<text transform="matrix(1 0 0 1 397.9769 76.5522)" class="st7 st8 st9">ow</text>
<text transform="matrix(1 0 0 1 417.5374 76.5522)" class="st7 st8 st9">e</text>
<text transform="matrix(1 0 0 1 425.5169 76.5522)" class="st7 st8">r</text>
<text transform="matrix(1 0 0 1 431.2044 76.5522)" class="st7 st8 st9">/</text>
<text transform="matrix(1 0 0 1 436.9534 76.5522)" class="st7 st8 st9">Communi</text>
<text transform="matrix(1 0 0 1 501.4525 76.5522)" class="st7 st8 st9">c</text>
<text transform="matrix(1 0 0 1 508.7249 76.5522)" class="st7 st8">a</text>
<text transform="matrix(1 0 0 1 516.6204 76.5522)" class="st7 st8 st9">tion </text>
<text transform="matrix(1 0 0 1 548.3724 76.5522)" class="st7 st8 st9">c</text>
<text transform="matrix(1 0 0 1 555.6439 76.5522)" class="st7 st8 st9">able </text>
<text transform="matrix(1 0 0 1 589.1478 76.5522)" class="st7 st8 st9">f</text>
<text transform="matrix(1 0 0 1 594.3558 76.5522)" class="st7 st8 st9">or </text>
<text transform="matrix(1 0 0 1 389.4251 90.9526)" class="st7 st8 st9">6 </text>
<text transform="matrix(1 0 0 1 401.3646 90.9526)" class="st7 st8 st9">A</text>
<text transform="matrix(1 0 0 1 409.9573 90.9526)" class="st7 st8 st9">xis </text>
<text transform="matrix(1 0 0 1 432.972 90.9526)" class="st7 st8">F</text>
<text transform="matrix(1 0 0 1 440.7601 90.9526)" class="st7 st8 st9">o</text>
<text transform="matrix(1 0 0 1 449.3284 90.9526)" class="st7 st8 st9">r</text>
<text transform="matrix(1 0 0 1 455.304 90.9526)" class="st7 st8">c</text>
<text transform="matrix(1 0 0 1 462.3968 90.9526)" class="st7 st8 st9">e </text>
<text transform="matrix(1 0 0 1 474.2767 90.9526)" class="st7 st8">T</text>
<text transform="matrix(1 0 0 1 481.8607 90.9526)" class="st7 st8 st9">o</text>
<text transform="matrix(1 0 0 1 490.428 90.9526)" class="st7 st8 st9">r</text>
<text transform="matrix(1 0 0 1 496.4046 90.9526)" class="st7 st8 st9">que Sensor</text>
<text transform="matrix(1 0 0 1 26.6596 232.6084)" class="st7 st8 st9">Sin</text>
<text transform="matrix(1 0 0 1 48.4868 232.6084)" class="st7 st8">g</text>
<text transform="matrix(1 0 0 1 56.3949 232.6084)" class="st7 st8 st9">al Hub</text>
</svg>
