<?xml version="1.0" encoding="utf-8"?>
<!-- Generator: Adobe Illustrator 24.0.1, SVG Export Plug-In . SVG Version: 6.00 Build 0)  -->
<svg version="1.1" id="图层_1" xmlns="http://www.w3.org/2000/svg" xmlns:xlink="http://www.w3.org/1999/xlink" x="0px" y="0px"
	 viewBox="0 0 177.1 116.6" style="enable-background:new 0 0 177.1 116.6;" xml:space="preserve">
<style type="text/css">
	.st0{fill:none;stroke:#000000;stroke-width:0.709;stroke-linecap:round;stroke-linejoin:round;stroke-miterlimit:10;}
	.st1{fill:none;stroke:#D87046;stroke-linecap:round;stroke-linejoin:round;}
	.st2{font-family:'MicrosoftYaHei';}
	.st3{font-size:5.27px;}
</style>
<line class="st0" x1="10.9" y1="96" x2="8.2" y2="96.4"/>
<line class="st0" x1="35.8" y1="56.4" x2="35.8" y2="56.2"/>
<line class="st0" x1="37.9" y1="56.9" x2="37.9" y2="56.8"/>
<line class="st0" x1="8.1" y1="77.3" x2="9.2" y2="77.2"/>
<line class="st0" x1="13.8" y1="78" x2="13.9" y2="78"/>
<line class="st0" x1="14.5" y1="78.3" x2="14.6" y2="78.3"/>
<line class="st0" x1="14.5" y1="78" x2="14.6" y2="78"/>
<line class="st0" x1="14.5" y1="78.4" x2="14.5" y2="78.4"/>
<line class="st0" x1="17" y1="94.2" x2="18.1" y2="94"/>
<line class="st0" x1="17.2" y1="79.7" x2="18.2" y2="79.6"/>
<line class="st0" x1="7.7" y1="97.3" x2="8.5" y2="97.5"/>
<line class="st0" x1="6.3" y1="87.1" x2="6.1" y2="87.1"/>
<polyline class="st0" points="5.9,87.5 5.8,88.1 5.6,88.6 5.3,88.9 5,89.1 4.9,89.1 "/>
<polyline class="st0" points="4.3,85.1 4.7,85.1 5,85.3 5.4,85.7 5.7,86.2 5.8,86.8 5.9,87.5 "/>
<polyline class="st0" points="3.2,86.9 3.2,86.9 3.3,86.9 "/>
<polyline class="st0" points="6.5,78.6 6.7,78.5 7.2,78.5 7.8,78.6 8.3,78.8 8.9,79.1 9.4,79.5 9.5,79.6 "/>
<polyline class="st0" points="12.7,88.9 12.6,89.6 12.5,90.4 12.3,91.2 12,91.9 11.7,92.5 11.3,93.1 10.9,93.6 10.5,94.1 "/>
<polyline class="st0" points="9,80.2 8.8,80.1 8.3,79.7 7.8,79.4 7.3,79.3 6.8,79.2 6.3,79.2 5.8,79.2 5.3,79.4 "/>
<polyline class="st0" points="4.3,80.1 4.2,80.3 3.8,80.8 3.5,81.3 3.2,81.9 3,82.6 2.8,83.3 2.6,84.1 2.5,84.9 "/>
<polyline class="st0" points="2.5,86.2 2.6,87 2.7,87.8 2.9,88.6 3.1,89.4 3.4,90.2 3.7,90.9 4.1,91.6 4.3,91.9 "/>
<polyline class="st0" points="7.2,94.3 7.6,94.3 8.2,94.3 8.7,94.3 8.8,94.2 "/>
<polyline class="st0" points="9.9,93.6 10.3,93.2 10.6,92.7 11,92.2 11.3,91.6 11.5,90.9 11.7,90.2 11.8,89.4 11.9,88.8 "/>
<line class="st0" x1="69.8" y1="62.7" x2="175.7" y2="47.5"/>
<path class="st0" d="M74.4,77.1"/>
<line class="st0" x1="73.4" y1="111" x2="175.7" y2="96.3"/>
<path class="st0" d="M157.1,92.8"/>
<line class="st0" x1="74" y1="104.7" x2="137" y2="95.6"/>
<line class="st0" x1="137" y1="95.7" x2="74" y2="104.8"/>
<path class="st0" d="M157.1,92.8"/>
<path class="st0" d="M157.1,93.2"/>
<line class="st0" x1="74.2" y1="105.1" x2="137" y2="96.1"/>
<line class="st0" x1="137" y1="93" x2="74.2" y2="102"/>
<path class="st0" d="M157.1,90.1"/>
<path class="st0" d="M74.3,79.3"/>
<path class="st0" d="M74.3,79.5"/>
<line class="st0" x1="74.3" y1="80.9" x2="175.7" y2="66.4"/>
<line class="st0" x1="32.1" y1="51.5" x2="32.1" y2="51.5"/>
<line class="st0" x1="60" y1="59" x2="60" y2="58.9"/>
<path class="st0" d="M39.4,51.7"/>
<line class="st0" x1="31.2" y1="51.7" x2="31.3" y2="51.6"/>
<line class="st0" x1="67.8" y1="111.6" x2="68" y2="111.8"/>
<line class="st0" x1="68.8" y1="110.4" x2="69" y2="110.4"/>
<line class="st0" x1="59.1" y1="59" x2="59.1" y2="59.1"/>
<line class="st0" x1="69.2" y1="78.4" x2="69.4" y2="78.5"/>
<line class="st0" x1="152.6" y1="95.6" x2="152.9" y2="95.7"/>
<line class="st0" x1="153.3" y1="96.8" x2="154.3" y2="97"/>
<line class="st0" x1="146.8" y1="96.4" x2="147.1" y2="96.5"/>
<line class="st0" x1="147.5" y1="97.6" x2="148.5" y2="97.9"/>
<line class="st0" x1="150.7" y1="85.4" x2="150.5" y2="85.7"/>
<polyline class="st0" points="28.4,51.5 28.7,51.4 29.9,51.4 31,51.6 "/>
<line class="st0" x1="31" y1="51.6" x2="58.9" y2="59"/>
<polyline class="st0" points="35.8,56.2 35.6,56.2 35.4,56.2 35.1,56.2 34.9,56.2 34.8,56.2 34.7,56.3 34.8,56.4 "/>
<polyline class="st0" points="34.8,56.4 35,56.4 35.2,56.4 35.5,56.4 35.7,56.4 35.9,56.4 35.9,56.3 35.8,56.2 "/>
<polyline class="st0" points="37.9,56.8 37.7,56.7 37.5,56.7 37.2,56.7 37,56.7 36.9,56.8 36.8,56.8 36.8,56.9 36.9,56.9 "/>
<polyline class="st0" points="36.9,56.9 37.1,56.9 37.3,57 37.6,57 37.8,56.9 37.9,56.9 38,56.9 38,56.8 37.9,56.8 "/>
<line class="st0" x1="31" y1="51.6" x2="18.5" y2="53.4"/>
<polyline class="st0" points="68.8,110.2 68.8,110.5 68.7,110.8 68.6,111 68.5,111.3 68.3,111.4 68.1,111.5 68,111.6 "/>
<line class="st0" x1="56.3" y1="112" x2="68.8" y2="110.2"/>
<line class="st0" x1="69.2" y1="78.5" x2="68.8" y2="110.2"/>
<polyline class="st0" points="58.9,59 60.1,59.5 61.2,60.1 62.3,60.9 63.4,61.9 64.4,63.1 65.4,64.4 66.2,65.9 67,67.5 67.7,69.2 
	68.2,71 68.6,72.8 68.9,74.7 69.1,76.6 69.2,78.5 "/>
<line class="st0" x1="46.4" y1="60.8" x2="58.9" y2="59"/>
<line class="st0" x1="69.2" y1="78.5" x2="56.6" y2="80.3"/>
<polyline class="st0" points="8.8,94.8 8.5,95.2 8.3,95.7 8.2,96.4 "/>
<polyline class="st0" points="10.9,96.3 10.8,95.8 10.5,95.2 10.3,95 "/>
<polyline class="st0" points="8.6,98.1 8.8,98.3 9.2,98.8 9.6,99 10,99 10.4,98.8 10.7,98.4 10.9,97.8 10.9,97.7 "/>
<line class="st0" x1="8.2" y1="96.4" x2="8.2" y2="96.7"/>
<line class="st0" x1="7.8" y1="76.1" x2="7.9" y2="67.3"/>
<line class="st0" x1="7.5" y1="96.8" x2="7.5" y2="94.7"/>
<line class="st0" x1="7.5" y1="99" x2="7.5" y2="98.1"/>
<polyline class="st0" points="7.5,99 7.5,99.3 7.6,99.6 7.7,100 7.8,100.2 7.9,100.5 8.1,100.7 8.3,100.8 8.5,100.9 "/>
<line class="st0" x1="55.2" y1="113.3" x2="8.5" y2="100.9"/>
<polyline class="st0" points="55.2,113.3 55.4,113.4 55.6,113.3 55.8,113.2 56,113 56.1,112.8 56.2,112.6 56.3,112.3 56.3,112 "/>
<line class="st0" x1="56.6" y1="80.3" x2="56.3" y2="112"/>
<polyline class="st0" points="56.6,80.3 56.6,78.4 56.4,76.5 56.1,74.6 55.7,72.8 55.1,71 54.5,69.3 53.7,67.7 52.9,66.2 51.9,64.9 
	50.9,63.7 49.8,62.7 48.7,61.9 47.5,61.3 46.4,60.8 "/>
<line class="st0" x1="18.5" y1="53.4" x2="46.4" y2="60.8"/>
<polyline class="st0" points="18.5,53.4 17.3,53.2 16.2,53.2 15,53.4 14,53.9 12.9,54.5 11.9,55.3 11.1,56.3 10.3,57.5 9.6,58.9 
	9,60.4 8.5,62 8.2,63.7 7.9,65.5 7.9,67.3 "/>
<polyline class="st0" points="9.3,75.5 9.4,75.5 9.5,75.6 "/>
<line class="st0" x1="11.8" y1="77.1" x2="12" y2="77.1"/>
<line class="st0" x1="11.8" y1="77.2" x2="11.9" y2="77.2"/>
<line class="st0" x1="11.8" y1="77.3" x2="11.9" y2="77.3"/>
<line class="st0" x1="11.9" y1="77.2" x2="12.1" y2="77.2"/>
<line class="st0" x1="11.9" y1="77.2" x2="12.1" y2="77.2"/>
<line class="st0" x1="12" y1="77.4" x2="12.2" y2="77.3"/>
<line class="st0" x1="12" y1="77.2" x2="12.2" y2="77.2"/>
<line class="st0" x1="12" y1="77.3" x2="12.3" y2="77.3"/>
<line class="st0" x1="11.8" y1="77.6" x2="11.9" y2="77.2"/>
<line class="st0" x1="11.8" y1="77.3" x2="11.8" y2="77.6"/>
<line class="st0" x1="11.8" y1="77.2" x2="11.8" y2="77.3"/>
<line class="st0" x1="11.8" y1="77.1" x2="11.8" y2="77.2"/>
<line class="st0" x1="11.7" y1="77.2" x2="11.8" y2="77.1"/>
<line class="st0" x1="11.7" y1="77.2" x2="11.7" y2="77.2"/>
<polyline class="st0" points="11.8,77.3 11.8,77.2 11.7,77.2 "/>
<line class="st0" x1="11.8" y1="77.6" x2="11.8" y2="77.3"/>
<line class="st0" x1="11.9" y1="77.4" x2="11.9" y2="77.6"/>
<line class="st0" x1="11.9" y1="77.6" x2="11.9" y2="77.4"/>
<line class="st0" x1="12" y1="77.4" x2="12" y2="77.7"/>
<polyline class="st0" points="12,77.3 12,77.3 12,77.4 "/>
<line class="st0" x1="12" y1="77.2" x2="12" y2="77.3"/>
<line class="st0" x1="12" y1="77.2" x2="12" y2="77.2"/>
<line class="st0" x1="12" y1="77.2" x2="12" y2="77.2"/>
<line class="st0" x1="12" y1="77.3" x2="12" y2="77.2"/>
<line class="st0" x1="12" y1="77.3" x2="12" y2="77.3"/>
<line class="st0" x1="11.9" y1="77.7" x2="12" y2="77.3"/>
<line class="st0" x1="11.9" y1="77.2" x2="11.9" y2="77.7"/>
<line class="st0" x1="11.9" y1="77.2" x2="11.9" y2="77.2"/>
<line class="st0" x1="12.6" y1="77.6" x2="12.6" y2="77.6"/>
<line class="st0" x1="12.9" y1="77.6" x2="12.9" y2="77.6"/>
<line class="st0" x1="12.5" y1="77.6" x2="12.6" y2="77.6"/>
<line class="st0" x1="12.7" y1="77.7" x2="12.9" y2="77.7"/>
<line class="st0" x1="12.7" y1="77.8" x2="12.9" y2="77.7"/>
<line class="st0" x1="12.5" y1="77.6" x2="12.6" y2="77.6"/>
<line class="st0" x1="12.6" y1="77.6" x2="12.5" y2="77.6"/>
<polyline class="st0" points="12.6,77.5 12.6,77.5 12.6,77.6 "/>
<line class="st0" x1="12.6" y1="77.6" x2="12.6" y2="77.5"/>
<line class="st0" x1="12.7" y1="77.7" x2="12.5" y2="77.7"/>
<polyline class="st0" points="12.5,77.6 12.5,77.5 12.5,77.4 12.6,77.4 "/>
<polyline class="st0" points="12.6,78 12.6,78 12.5,77.9 12.5,77.8 12.5,77.6 "/>
<polyline class="st0" points="12.7,77.8 12.7,77.9 12.6,78 "/>
<line class="st0" x1="12.7" y1="77.7" x2="12.7" y2="77.8"/>
<line class="st0" x1="12.6" y1="77.8" x2="12.7" y2="77.7"/>
<polyline class="st0" points="12.6,77.9 12.6,77.9 12.6,77.8 "/>
<polyline class="st0" points="12.5,77.7 12.6,77.8 12.6,77.9 "/>
<line class="st0" x1="12.6" y1="77.4" x2="12.8" y2="77.4"/>
<polyline class="st0" points="12.6,77.4 12.6,77.4 12.7,77.4 12.7,77.5 12.7,77.6 12.7,77.7 "/>
<line class="st0" x1="13.2" y1="78.1" x2="13.5" y2="78.1"/>
<line class="st0" x1="13.2" y1="78.1" x2="13.5" y2="78"/>
<line class="st0" x1="13.2" y1="77.7" x2="13.5" y2="77.7"/>
<line class="st0" x1="13.2" y1="77.6" x2="13.2" y2="77.6"/>
<line class="st0" x1="13.2" y1="77.6" x2="13.2" y2="77.6"/>
<polyline class="st0" points="13.2,77.7 13.2,77.7 13.2,77.6 "/>
<line class="st0" x1="13.2" y1="77.9" x2="13.2" y2="77.7"/>
<polyline class="st0" points="13.2,78 13.2,78 13.2,77.9 "/>
<polyline class="st0" points="13.2,78.1 13.2,78.1 13.2,78 "/>
<line class="st0" x1="13.2" y1="78.1" x2="13.2" y2="78.1"/>
<polyline class="st0" points="13.2,78.2 13.2,78.2 13.2,78.1 "/>
<polyline class="st0" points="13.2,78.1 13.2,78.1 13.2,78.2 "/>
<line class="st0" x1="13.2" y1="78.1" x2="13.2" y2="78.1"/>
<line class="st0" x1="13.2" y1="77.7" x2="13.2" y2="78.1"/>
<line class="st0" x1="13.3" y1="77.6" x2="13.2" y2="77.7"/>
<line class="st0" x1="13.2" y1="77.6" x2="13.2" y2="77.5"/>
<line class="st0" x1="13.2" y1="77.5" x2="13.4" y2="77.5"/>
<line class="st0" x1="13.2" y1="77.5" x2="13.3" y2="77.6"/>
<line class="st0" x1="13.3" y1="77.6" x2="13.5" y2="77.6"/>
<line class="st0" x1="13.3" y1="77.4" x2="13.5" y2="77.4"/>
<polyline class="st0" points="13.2,77.5 13.2,77.5 13.2,77.4 "/>
<polyline class="st0" points="13.3,77.4 13.3,77.4 13.2,77.5 "/>
<polyline class="st0" points="13.2,77.4 13.2,77.4 13.3,77.4 "/>
<line class="st0" x1="13.8" y1="78.4" x2="14" y2="78.4"/>
<line class="st0" x1="13.8" y1="78.4" x2="14" y2="78.3"/>
<line class="st0" x1="13.8" y1="77.7" x2="14" y2="77.7"/>
<line class="st0" x1="13.9" y1="77.7" x2="14.1" y2="77.7"/>
<polyline class="st0" points="13.8,78 13.8,78.1 13.8,78.2 13.9,78.2 "/>
<polyline class="st0" points="13.9,77.8 13.9,77.8 13.8,77.9 13.8,78 "/>
<line class="st0" x1="13.9" y1="77.9" x2="13.9" y2="77.8"/>
<polyline class="st0" points="13.9,78.2 13.9,78.2 13.9,78.1 13.9,77.9 "/>
<line class="st0" x1="13.9" y1="78.3" x2="13.8" y2="78.3"/>
<polyline class="st0" points="13.9,78 13.9,78.2 13.9,78.3 "/>
<polyline class="st0" points="13.9,77.7 13.9,77.8 13.9,77.9 13.9,78 "/>
<polyline class="st0" points="13.8,77.8 13.8,77.8 13.8,77.7 13.9,77.7 "/>
<line class="st0" x1="13.8" y1="77.7" x2="13.8" y2="77.8"/>
<line class="st0" x1="13.8" y1="77.7" x2="13.8" y2="77.7"/>
<line class="st0" x1="13.8" y1="77.7" x2="13.8" y2="77.7"/>
<polyline class="st0" points="13.8,77.8 13.8,77.8 13.8,77.7 "/>
<line class="st0" x1="13.8" y1="78.3" x2="13.8" y2="77.8"/>
<polyline class="st0" points="13.8,78.4 13.8,78.4 13.8,78.3 "/>
<line class="st0" x1="13.8" y1="78.5" x2="13.8" y2="78.4"/>
<line class="st0" x1="13.8" y1="78.4" x2="13.8" y2="78.5"/>
<line class="st0" x1="13.8" y1="78.4" x2="13.8" y2="78.4"/>
<line class="st0" x1="13.8" y1="78.3" x2="13.8" y2="78.4"/>
<line class="st0" x1="14.5" y1="77.9" x2="14.7" y2="77.8"/>
<line class="st0" x1="14.5" y1="78" x2="14.6" y2="77.9"/>
<line class="st0" x1="14.6" y1="78.5" x2="14.8" y2="78.5"/>
<line class="st0" x1="14.6" y1="78.4" x2="14.8" y2="78.4"/>
<line class="st0" x1="14.6" y1="78.1" x2="14.8" y2="78"/>
<line class="st0" x1="14.6" y1="77.9" x2="14.6" y2="77.9"/>
<line class="st0" x1="14.6" y1="77.9" x2="14.6" y2="77.9"/>
<polyline class="st0" points="14.6,78.1 14.6,78 14.6,77.9 "/>
<line class="st0" x1="14.6" y1="78.3" x2="14.6" y2="78.1"/>
<polyline class="st0" points="14.5,78.4 14.5,78.4 14.6,78.4 14.6,78.3 "/>
<line class="st0" x1="14.5" y1="78" x2="14.5" y2="78"/>
<line class="st0" x1="14.5" y1="77.9" x2="14.5" y2="78"/>
<line class="st0" x1="14.4" y1="77.9" x2="14.5" y2="77.9"/>
<line class="st0" x1="14.4" y1="77.9" x2="14.4" y2="77.9"/>
<line class="st0" x1="14.6" y1="78.5" x2="14.5" y2="78.5"/>
<line class="st0" x1="14.6" y1="78.5" x2="14.6" y2="78.5"/>
<line class="st0" x1="14.6" y1="78.5" x2="14.6" y2="78.5"/>
<line class="st0" x1="14.6" y1="78.5" x2="14.6" y2="78.5"/>
<line class="st0" x1="14.6" y1="78.4" x2="14.6" y2="78.5"/>
<line class="st0" x1="14.6" y1="77.9" x2="14.6" y2="77.9"/>
<line class="st0" x1="14.6" y1="77.9" x2="14.8" y2="77.9"/>
<line class="st0" x1="14.6" y1="77.9" x2="14.6" y2="78"/>
<line class="st0" x1="12.1" y1="77.2" x2="12.1" y2="77.2"/>
<line class="st0" x1="12.1" y1="77.2" x2="12.1" y2="77.2"/>
<line class="st0" x1="12.2" y1="77.2" x2="12.3" y2="77.3"/>
<polyline class="st0" points="12.3,77.3 12.3,77.3 12.2,77.3 "/>
<line class="st0" x1="12.2" y1="77.3" x2="12.2" y2="77.7"/>
<line class="st0" x1="12" y1="77.1" x2="12" y2="77.2"/>
<line class="st0" x1="12.8" y1="77.6" x2="12.8" y2="77.7"/>
<line class="st0" x1="12.9" y1="77.7" x2="12.9" y2="77.7"/>
<line class="st0" x1="12.9" y1="77.7" x2="12.9" y2="77.9"/>
<line class="st0" x1="13.4" y1="77.5" x2="13.5" y2="77.6"/>
<polyline class="st0" points="13.5,77.6 13.5,77.6 13.5,77.7 "/>
<line class="st0" x1="13.5" y1="77.7" x2="13.5" y2="78"/>
<line class="st0" x1="13.5" y1="78" x2="13.5" y2="78.1"/>
<line class="st0" x1="13.5" y1="78.1" x2="13.5" y2="78.1"/>
<line class="st0" x1="13.5" y1="77.4" x2="13.5" y2="77.4"/>
<line class="st0" x1="13.5" y1="77.4" x2="13.5" y2="77.4"/>
<line class="st0" x1="14" y1="78.2" x2="14" y2="78.3"/>
<line class="st0" x1="14" y1="78.3" x2="14" y2="78.4"/>
<line class="st0" x1="14" y1="78.4" x2="14" y2="78.5"/>
<line class="st0" x1="14" y1="77.7" x2="14" y2="77.7"/>
<line class="st0" x1="14.1" y1="77.7" x2="14.1" y2="77.7"/>
<line class="st0" x1="14.8" y1="77.9" x2="14.8" y2="78"/>
<line class="st0" x1="14.8" y1="78" x2="14.8" y2="78"/>
<line class="st0" x1="14.8" y1="78" x2="14.8" y2="78.4"/>
<line class="st0" x1="14.8" y1="78.5" x2="14.8" y2="78.5"/>
<line class="st0" x1="14.7" y1="77.8" x2="14.7" y2="77.9"/>
<line class="st0" x1="11.4" y1="76.8" x2="11.4" y2="77.5"/>
<line class="st0" x1="13.1" y1="78.3" x2="13.8" y2="78.5"/>
<polyline class="st0" points="19.8,95 19.8,95.2 19.7,95.4 19.6,95.6 19.6,95.7 19.5,95.8 19.3,95.9 19.2,95.9 "/>
<line class="st0" x1="19.3" y1="78.1" x2="9.5" y2="75.6"/>
<line class="st0" x1="9.5" y1="75.6" x2="8.4" y2="75.7"/>
<line class="st0" x1="19.8" y1="95" x2="20" y2="79.4"/>
<line class="st0" x1="18.6" y1="95.2" x2="19.8" y2="95"/>
<line class="st0" x1="20" y1="79.4" x2="18.8" y2="79.6"/>
<polyline class="st0" points="19.3,78.1 19.4,78.2 19.5,78.3 19.7,78.4 19.8,78.6 19.8,78.8 19.9,79 19.9,79.2 20,79.4 "/>
<line class="st0" x1="18.1" y1="78.3" x2="19.3" y2="78.1"/>
<polyline class="st0" points="17,94.2 17.1,94.5 17.2,94.9 17.4,95.1 17.6,95.2 17.8,95.2 18,95.1 18.1,94.8 18.1,94.5 "/>
<polyline class="st0" points="18.1,94.5 18.1,94.1 18,93.8 17.8,93.6 17.6,93.4 17.4,93.5 17.2,93.6 17.1,93.9 17,94.2 "/>
<polyline class="st0" points="8.1,77.3 8.2,77.7 8.2,77.9 "/>
<polyline class="st0" points="9.2,77.6 9.2,77.3 9.1,77 8.9,76.7 8.7,76.6 8.5,76.6 8.3,76.7 8.2,77 8.1,77.3 "/>
<polyline class="st0" points="17.2,79.7 17.2,80.1 17.3,80.4 17.5,80.7 17.7,80.8 17.9,80.8 18.1,80.6 18.3,80.4 18.3,80 "/>
<polyline class="st0" points="18.3,80 18.3,79.7 18.1,79.4 18,79.1 17.7,79 17.5,79 17.4,79.2 17.2,79.4 17.2,79.7 "/>
<line class="st0" x1="11.1" y1="76.7" x2="11.1" y2="77.4"/>
<line class="st0" x1="15.3" y1="77.8" x2="11.1" y2="76.7"/>
<line class="st0" x1="18.6" y1="95.2" x2="18.8" y2="79.6"/>
<polyline class="st0" points="18.8,79.6 18.8,79.4 18.7,79.2 18.7,79 18.6,78.8 18.5,78.6 18.4,78.5 18.2,78.4 18.1,78.3 "/>
<line class="st0" x1="18.1" y1="78.3" x2="8.4" y2="75.7"/>
<polyline class="st0" points="8.4,75.7 8.2,75.7 8.1,75.7 8,75.8 7.9,75.9 7.8,76.1 7.7,76.2 7.7,76.4 7.6,76.6 "/>
<line class="st0" x1="7.6" y1="76.6" x2="7.6" y2="78"/>
<line class="st0" x1="13" y1="94.8" x2="17.9" y2="96.1"/>
<polyline class="st0" points="17.9,96.1 18,96.1 18.2,96.1 18.3,96 18.4,95.9 18.5,95.8 18.6,95.6 18.6,95.4 18.6,95.2 "/>
<polyline class="st0" points="1.8,86.2 1.8,86.2 1.7,86.1 "/>
<polyline class="st0" points="11.8,96.2 12,96.1 12.3,96 12.5,95.8 12.7,95.6 12.9,95.3 13,95 13.1,94.8 "/>
<line class="st0" x1="3.3" y1="86.4" x2="1.8" y2="86.2"/>
<polyline class="st0" points="1.8,84.8 1.8,84.9 1.8,85.1 1.8,85.3 1.8,85.5 1.8,85.6 1.8,85.8 1.8,86 1.8,86.2 "/>
<polyline class="st0" points="3.9,92.9 3.9,92.8 3.8,92.8 3.9,92.7 3.9,92.6 "/>
<polyline class="st0" points="3.3,86.1 3.3,86 3.3,85.9 3.3,85.7 3.3,85.6 3.3,85.5 3.3,85.4 "/>
<line class="st0" x1="3.3" y1="85.4" x2="1.8" y2="84.8"/>
<line class="st0" x1="3.3" y1="85.4" x2="3.7" y2="85.4"/>
<polyline class="st0" points="1.9,84.6 1.9,84.6 1.8,84.6 1.7,84.6 1.7,84.7 1.8,84.7 1.8,84.8 "/>
<line class="st0" x1="4.7" y1="91.1" x2="3.9" y2="92.6"/>
<line class="st0" x1="4.6" y1="93.7" x2="4.6" y2="93.7"/>
<polyline class="st0" points="2.5,84.9 2.5,84.8 2.4,84.8 "/>
<line class="st0" x1="11.8" y1="96.2" x2="7.3" y2="96.9"/>
<line class="st0" x1="13.9" y1="96.8" x2="11.8" y2="96.2"/>
<polyline class="st0" points="4,79.4 4,79.3 4,79.2 4,79.1 4.1,79 4.1,78.9 "/>
<line class="st0" x1="5.4" y1="82" x2="4.9" y2="81.6"/>
<line class="st0" x1="4.9" y1="81.6" x2="4" y2="79.4"/>
<polyline class="st0" points="4.9,81.6 4.9,81.5 5,81.5 5.1,81.4 5.2,81.4 5.3,81.3 5.4,81.2 "/>
<polyline class="st0" points="4.8,78.9 4.7,79 4.6,79 4.5,79.1 4.4,79.2 4.3,79.2 4.2,79.3 4.1,79.4 4,79.4 "/>
<line class="st0" x1="5.4" y1="81.2" x2="4.8" y2="78.9"/>
<line class="st0" x1="5.4" y1="81.2" x2="5.9" y2="81.7"/>
<polyline class="st0" points="5.1,78.3 5,78.4 4.9,78.5 4.8,78.5 4.8,78.6 4.8,78.7 4.8,78.8 4.8,78.9 "/>
<polyline class="st0" points="5.5,97.6 5.4,97.6 5.2,97.4 5,97.3 4.8,97 4.7,96.8 4.6,96.5 4.6,96.1 "/>
<line class="st0" x1="9" y1="94.8" x2="8.8" y2="94.8"/>
<line class="st0" x1="8.3" y1="92.4" x2="8.5" y2="91.8"/>
<line class="st0" x1="8.3" y1="78.3" x2="8.2" y2="77.9"/>
<line class="st0" x1="8" y1="98.2" x2="14.3" y2="97.3"/>
<polyline class="st0" points="14.3,97.3 14.6,97.2 14.8,97.1 15.1,96.9 15.2,96.7 "/>
<polyline class="st0" points="15.2,95.4 15.1,95.6 15,95.9 14.8,96.1 14.6,96.4 14.4,96.6 14.1,96.7 13.9,96.8 "/>
<line class="st0" x1="13.9" y1="96.8" x2="8.5" y2="97.5"/>
<polyline class="st0" points="8.5,97.5 8.2,97.5 7.9,97.5 7.7,97.4 7.5,97.2 7.4,97 7.2,96.7 7.2,96.4 7.1,96.1 "/>
<line class="st0" x1="7.2" y1="88.3" x2="7.1" y2="96.1"/>
<line class="st0" x1="7.4" y1="87.2" x2="8.5" y2="87.1"/>
<line class="st0" x1="7.2" y1="87.2" x2="7.2" y2="88.3"/>
<polyline class="st0" points="7.2,88.3 7.3,88.2 7.3,88.1 7.4,87.9 7.4,87.8 7.4,87.7 7.4,87.5 7.4,87.4 7.4,87.2 "/>
<polyline class="st0" points="7.4,87.2 7.4,86.6 7.2,86 7,85.5 6.6,85.1 6.2,84.9 5.8,84.9 5.5,85.1 5.3,85.3 "/>
<polyline class="st0" points="7.2,87.2 7.2,86.6 7,86 6.7,85.6 6.4,85.3 6,85.2 "/>
<polyline class="st0" points="6.3,87.1 6.2,87.4 6.1,87.7 "/>
<polyline class="st0" points="5.9,86.2 6,86.2 6.1,86.5 6.2,86.8 6.3,87.1 "/>
<line class="st0" x1="4.7" y1="89.2" x2="4.6" y2="96.1"/>
<polyline class="st0" points="9.5,95.2 9.4,95.2 9.3,95.1 9.2,95.1 9.1,95 9,94.9 9,94.8 8.9,94.7 "/>
<polyline class="st0" points="8.9,92 8.8,92.1 8.7,92.1 8.7,92.2 8.6,92.2 8.5,92.3 8.4,92.3 8.3,92.4 "/>
<line class="st0" x1="8.3" y1="92.4" x2="8.9" y2="94.7"/>
<polyline class="st0" points="8.9,94.7 9,94.6 9.1,94.6 9.2,94.5 9.3,94.5 9.4,94.4 9.5,94.3 9.6,94.2 9.7,94.2 "/>
<line class="st0" x1="9" y1="91.5" x2="8.9" y2="92"/>
<line class="st0" x1="8.9" y1="92" x2="9.7" y2="94.2"/>
<polyline class="st0" points="9.7,94.2 9.7,94.3 9.8,94.4 9.9,94.4 10,94.5 10,94.6 10.1,94.6 10.2,94.6 10.3,94.6 "/>
<polyline class="st0" points="19.2,95.9 19.3,95.9 19.5,95.8 19.6,95.7 19.6,95.6 19.7,95.4 19.8,95.2 19.8,95 "/>
<line class="st0" x1="20" y1="79.4" x2="19.8" y2="95"/>
<line class="st0" x1="19.3" y1="78.1" x2="9.5" y2="75.6"/>
<polyline class="st0" points="9.5,75.6 9.4,75.5 9.3,75.5 "/>
<polyline class="st0" points="20,79.4 19.9,79.2 19.9,79 19.8,78.8 19.8,78.6 19.7,78.4 19.5,78.3 19.4,78.2 19.3,78.1 "/>
<polyline class="st0" points="5.1,89.1 5.2,89.1 5.6,88.9 5.9,88.5 6,88 6.1,87.4 "/>
<line class="st0" x1="8.6" y1="82.4" x2="8.4" y2="82"/>
<line class="st0" x1="5.9" y1="87.5" x2="6.1" y2="87.4"/>
<polyline class="st0" points="6.1,87.4 6.1,86.8 5.9,86.2 5.6,85.7 5.3,85.3 4.9,85.1 4.6,85.1 "/>
<polyline class="st0" points="12.2,79.2 12.1,79.1 11.5,78.7 11,78.4 10.4,78.2 9.9,78.1 9.4,78.1 9.2,78.2 "/>
<line class="st0" x1="13.2" y1="93.7" x2="13.4" y2="94.2"/>
<line class="st0" x1="6.3" y1="78.6" x2="6.5" y2="78.6"/>
<polyline class="st0" points="5.3,79.4 5.3,79.3 5.3,79.2 5.3,79.1 5.3,79 5.4,78.9 5.5,78.9 "/>
<line class="st0" x1="8.4" y1="82" x2="9.1" y2="80.1"/>
<polyline class="st0" points="8.4,82 8.5,82.1 8.6,82.2 8.6,82.3 8.7,82.3 8.8,82.4 8.8,82.5 8.9,82.6 9,82.7 "/>
<line class="st0" x1="9" y1="82.7" x2="9.8" y2="81"/>
<line class="st0" x1="9" y1="82.7" x2="9.1" y2="83"/>
<polyline class="st0" points="10.5,80.5 10.4,80.5 10.3,80.6 10.2,80.6 10.1,80.7 10,80.7 10,80.8 9.9,80.9 9.8,81 "/>
<polyline class="st0" points="9.1,80.1 9.1,80 9.2,79.9 9.2,79.8 9.3,79.7 9.4,79.7 9.5,79.6 9.6,79.6 9.7,79.5 "/>
<polyline class="st0" points="9.8,81 9.7,80.9 9.7,80.7 9.6,80.6 9.5,80.5 9.4,80.4 9.3,80.3 9.2,80.2 9.1,80.1 "/>
<line class="st0" x1="13.3" y1="80.5" x2="13.5" y2="80.1"/>
<line class="st0" x1="13.2" y1="93.7" x2="10.5" y2="94.1"/>
<polyline class="st0" points="13.2,93.7 13.6,93.2 14,92.7 14.4,92.2 14.7,91.5 14.9,90.8 15.1,90 15.3,89.2 15.4,88.5 "/>
<polyline class="st0" points="10.5,94.1 10.4,94.1 10.3,94 10.2,94 10.1,94 10,93.9 10,93.8 9.9,93.7 9.9,93.6 "/>
<line class="st0" x1="15.7" y1="88.5" x2="12.7" y2="88.9"/>
<polyline class="st0" points="13.4,94.2 13.8,93.7 14.3,93.2 14.7,92.6 15,91.9 15.3,91.1 15.5,90.3 15.6,89.4 15.7,88.5 "/>
<line class="st0" x1="13.4" y1="94.2" x2="10.3" y2="94.6"/>
<polyline class="st0" points="10.3,94.6 10.2,94.7 10.1,94.8 10,94.8 9.9,94.9 9.8,95 9.7,95 9.6,95.1 9.5,95.2 "/>
<line class="st0" x1="12.5" y1="94.7" x2="9.5" y2="95.2"/>
<polyline class="st0" points="10.6,95 10.8,95 11.4,95 12,94.9 12.5,94.7 "/>
<polyline class="st0" points="12.7,94.8 13,94.8 13.8,94.5 14.6,94 15.2,93.2 15.8,92.4 16.2,91.3 16.6,90.2 16.8,88.9 16.9,87.6 
	"/>
<line class="st0" x1="10.4" y1="88.2" x2="11.9" y2="88.8"/>
<polyline class="st0" points="10.4,87.3 10.4,87.3 10.4,87.4 10.4,87.5 10.4,87.6 10.4,87.7 10.4,87.8 "/>
<polyline class="st0" points="10.4,87.8 10.4,87.8 10.4,87.9 10.4,88 10.4,88.1 10.4,88.2 "/>
<polyline class="st0" points="12.7,88.2 12.7,88.3 12.7,88.4 12.7,88.5 12.7,88.6 12.7,88.7 12.7,88.8 12.7,88.9 "/>
<polyline class="st0" points="11.9,88.8 11.9,88.8 11.9,88.7 11.9,88.6 11.9,88.5 11.9,88.4 11.9,88.3 11.9,88.2 11.9,88.1 "/>
<polyline class="st0" points="12.7,88.9 12.6,88.9 12.5,88.9 12.4,88.9 12.3,88.9 12.2,88.9 12.1,88.9 12,88.9 11.9,88.8 "/>
<line class="st0" x1="10.5" y1="87.2" x2="10.4" y2="87.3"/>
<line class="st0" x1="10.4" y1="87.3" x2="11.9" y2="87.4"/>
<line class="st0" x1="15.4" y1="86.9" x2="15.7" y2="87"/>
<polyline class="st0" points="12.7,88.2 12.6,88.2 12.5,88.2 12.4,88.2 12.3,88.2 12.2,88.2 12.1,88.2 12,88.2 11.9,88.1 "/>
<polyline class="st0" points="11.9,87.4 12,87.4 12.1,87.5 12.2,87.5 12.3,87.5 12.4,87.4 12.5,87.4 12.6,87.4 12.7,87.4 "/>
<polyline class="st0" points="11.9,88.1 11.9,88.1 11.9,88 11.9,87.9 11.9,87.8 11.9,87.7 11.9,87.6 11.9,87.5 11.9,87.4 "/>
<line class="st0" x1="13.3" y1="80.5" x2="10.6" y2="80.9"/>
<line class="st0" x1="15.4" y1="86.9" x2="12.7" y2="87.3"/>
<polyline class="st0" points="15.4,86.9 15.3,86 15.2,85.2 15,84.3 14.8,83.4 14.5,82.6 14.1,81.9 13.8,81.1 13.3,80.5 "/>
<polyline class="st0" points="7.5,88.8 7.6,88.8 7.9,88.6 8.2,88.2 8.4,87.7 8.5,87.1 "/>
<polyline class="st0" points="8.5,87.1 8.4,86.5 8.3,85.8 8,85.3 7.6,85 7.2,84.8 6.9,84.7 "/>
<line class="st0" x1="9.1" y1="83" x2="10" y2="81.3"/>
<polyline class="st0" points="9.1,83 9.1,82.9 9,82.9 9,82.8 8.9,82.7 8.8,82.6 8.7,82.5 8.6,82.4 "/>
<line class="st0" x1="5.9" y1="81.7" x2="5.3" y2="79.4"/>
<polyline class="st0" points="5.9,81.7 5.8,81.7 5.8,81.8 5.7,81.8 5.6,81.9 5.5,81.9 5.5,82 5.4,82 "/>
<line class="st0" x1="3.8" y1="85.4" x2="2.5" y2="84.9"/>
<polyline class="st0" points="8.5,91.8 8.6,91.8 8.7,91.7 8.8,91.7 8.9,91.6 9,91.5 "/>
<line class="st0" x1="9" y1="91.5" x2="9.9" y2="93.6"/>
<line class="st0" x1="10.5" y1="87.2" x2="11.9" y2="87.3"/>
<polyline class="st0" points="12.7,87.3 12.6,87.3 12.5,87.3 12.4,87.4 12.3,87.4 12.2,87.4 12.1,87.4 12,87.4 11.9,87.3 "/>
<polyline class="st0" points="10.6,80.9 11.1,81.5 11.5,82.2 11.8,83 12.1,83.8 12.3,84.7 12.5,85.5 12.6,86.4 12.7,87.3 "/>
<polyline class="st0" points="10,81.3 10,81.2 10.1,81.2 10.2,81.1 10.3,81 10.4,81 10.5,80.9 10.6,80.9 "/>
<polyline class="st0" points="11.9,87.3 11.9,86.5 11.7,85.7 11.6,84.9 11.3,84.1 11.1,83.3 10.8,82.6 10.4,81.9 10,81.3 "/>
<polyline class="st0" points="12.7,87.4 12.7,87.5 12.7,87.6 12.7,87.7 12.7,87.8 12.7,87.9 12.7,88 12.7,88.1 12.7,88.2 "/>
<line class="st0" x1="12.7" y1="88.2" x2="16.9" y2="87.6"/>
<polyline class="st0" points="16.9,87.6 16.8,86.2 16.6,84.8 16.3,83.5 15.9,82.2 15.4,81.1 14.7,80 14,79.1 13.2,78.4 12.4,77.9 
	11.6,77.5 10.7,77.4 10.2,77.4 "/>
<line class="st0" x1="2.4" y1="84.5" x2="1.9" y2="84.6"/>
<line class="st0" x1="8.2" y1="77.9" x2="5.1" y2="78.3"/>
<polyline class="st0" points="12.7,79.1 12.2,78.6 11.6,78.2 11,77.9 10.5,77.7 9.9,77.6 9.3,77.6 8.7,77.7 8.2,77.9 "/>
<line class="st0" x1="12.7" y1="79.1" x2="9.7" y2="79.5"/>
<polyline class="st0" points="9.7,79.5 9.8,79.7 9.9,79.8 10,79.9 10.1,80 10.2,80.1 10.3,80.2 10.4,80.4 10.5,80.5 "/>
<line class="st0" x1="13.5" y1="80.1" x2="10.5" y2="80.5"/>
<polyline class="st0" points="15.7,87 15.7,86 15.5,85.1 15.3,84.2 15.1,83.2 14.8,82.4 14.4,81.5 14,80.8 13.5,80.1 "/>
<line class="st0" x1="15.7" y1="87" x2="12.7" y2="87.4"/>
<path class="st0" d="M74.3,76.8"/>
<path class="st0" d="M156.1,85.5"/>
<line class="st0" x1="74.3" y1="97.3" x2="143.8" y2="87.3"/>
<line class="st0" x1="147.1" y1="86.1" x2="74.1" y2="96.6"/>
<line class="st0" x1="175.7" y1="82.1" x2="153.5" y2="85.2"/>
<path class="st0" d="M74.2,90.7"/>
<line class="st0" x1="74.2" y1="90.6" x2="175.7" y2="76"/>
<line class="st0" x1="74.8" y1="82.9" x2="74.3" y2="83"/>
<path class="st0" d="M79.9,82.2"/>
<path class="st0" d="M74.3,82.9"/>
<polyline class="st0" points="74.2,102 74.2,102.1 74.2,102.2 74.1,102.2 74.1,102.3 "/>
<line class="st0" x1="74.3" y1="97.3" x2="74.2" y2="102"/>
<line class="st0" x1="74.3" y1="97.3" x2="74.1" y2="97"/>
<polyline class="st0" points="74.2,109.1 74.1,109.3 74.1,109.5 74,109.7 74,109.8 "/>
<line class="st0" x1="74.2" y1="105.1" x2="74.2" y2="109.1"/>
<polyline class="st0" points="74,104.8 74.1,104.8 74.2,104.9 74.2,105 74.2,105.1 "/>
<path class="st0" d="M72.7,68.1"/>
<line class="st0" x1="72.7" y1="68.1" x2="175.7" y2="53.3"/>
<path class="st0" d="M74.3,76.7"/>
<line class="st0" x1="73" y1="68.9" x2="73.2" y2="69"/>
<path class="st0" d="M72.8,68.4"/>
<line class="st0" x1="74.3" y1="76.4" x2="175.7" y2="61.9"/>
<line class="st0" x1="74.2" y1="74.2" x2="175.7" y2="59.7"/>
<path class="st0" d="M73.2,69.7"/>
<path class="st0" d="M73.3,69.9"/>
<line class="st0" x1="73.3" y1="70" x2="175.7" y2="55.3"/>
<path class="st0" d="M73.4,70.3"/>
<path class="st0" d="M80.5,88.1"/>
<path class="st0" d="M80.6,82.6"/>
<line class="st0" x1="175.7" y1="68.9" x2="80.6" y2="82.6"/>
<line class="st0" x1="175.7" y1="74.1" x2="80.5" y2="87.8"/>
<path class="st0" d="M80.6,83.3"/>
<path class="st0" d="M80.6,83.1"/>
<polyline class="st0" points="36.2,50.9 35.6,50.8 35,50.7 34.5,50.7 33.9,50.7 33.6,50.7 "/>
<polyline class="st0" points="29.4,51.3 29.9,51.3 30.5,51.2 31,51.3 31.6,51.3 32.1,51.5 "/>
<line class="st0" x1="64" y1="58.3" x2="36.2" y2="50.9"/>
<line class="st0" x1="36.2" y1="50.9" x2="32.1" y2="51.5"/>
<line class="st0" x1="32.1" y1="51.5" x2="60" y2="58.9"/>
<polyline class="st0" points="68.4,61 67.9,60.5 67.4,60 66.8,59.6 66.3,59.3 65.7,59 65.2,58.7 64.6,58.5 64,58.3 "/>
<line class="st0" x1="60" y1="58.9" x2="64" y2="58.3"/>
<polyline class="st0" points="68.4,61 68.6,61.2 68.7,61.3 "/>
<polyline class="st0" points="79.5,82.1 79.6,82.1 79.7,82.2 "/>
<polyline class="st0" points="80.4,89.1 80.3,89.1 80.2,89.1 80.1,89.2 80,89.2 79.9,89.2 79.8,89.2 "/>
<polyline class="st0" points="80.4,89.1 80.4,89 80.5,88.8 80.5,88.6 80.5,88.5 "/>
<line class="st0" x1="80.5" y1="88.4" x2="80.6" y2="82.8"/>
<polyline class="st0" points="80.6,82.7 80.6,82.6 80.6,82.4 80.5,82.4 "/>
<polyline class="st0" points="74.8,89.5 74.8,89.4 74.7,89.4 74.7,89.3 74.6,89.3 74.6,89.2 74.6,89.1 74.5,89 "/>
<polyline class="st0" points="80.5,82.4 80.4,82.4 80.3,82.4 80.3,82.5 80.2,82.5 80.1,82.5 80,82.5 79.9,82.6 "/>
<line class="st0" x1="80.5" y1="82.4" x2="79.5" y2="82.1"/>
<line class="st0" x1="75.1" y1="82.8" x2="79.5" y2="82.1"/>
<line class="st0" x1="74.5" y1="89" x2="74.6" y2="83.4"/>
<line class="st0" x1="74.5" y1="89" x2="75.7" y2="89.3"/>
<line class="st0" x1="76.2" y1="83.1" x2="79.9" y2="82.6"/>
<line class="st0" x1="75.7" y1="89.3" x2="75.7" y2="83.7"/>
<polyline class="st0" points="75.7,89.3 75.7,89.4 75.7,89.5 75.7,89.6 75.8,89.6 75.9,89.7 76,89.8 76.1,89.8 "/>
<line class="st0" x1="76.1" y1="89.8" x2="79.8" y2="89.2"/>
<line class="st0" x1="79.8" y1="89.2" x2="79.9" y2="82.6"/>
<polyline class="st0" points="76.2,83.1 76.1,83.1 76,83.2 75.9,83.2 75.9,83.3 75.8,83.4 75.8,83.5 75.7,83.6 75.7,83.7 "/>
<line class="st0" x1="75.1" y1="82.8" x2="76.2" y2="83.1"/>
<polyline class="st0" points="74.6,83.4 74.6,83.3 74.6,83.2 74.7,83.1 74.7,83 74.8,82.9 74.9,82.9 75,82.8 75.1,82.8 "/>
<line class="st0" x1="75.7" y1="83.7" x2="74.6" y2="83.4"/>
<polyline class="st0" points="31.9,51.5 31.3,51.4 30.7,51.3 30.1,51.3 29.5,51.3 29.3,51.3 "/>
<polyline class="st0" points="31.3,51.6 30.1,51.4 28.9,51.4 28.5,51.4 "/>
<polyline class="st0" points="73.9,110.2 73.9,110.1 74,109.9 74,109.6 "/>
<line class="st0" x1="31.9" y1="51.5" x2="31.3" y2="51.6"/>
<line class="st0" x1="67.4" y1="111.6" x2="68" y2="111.8"/>
<polyline class="st0" points="73.1,111.1 73.3,111.1 73.5,111 73.6,110.8 73.7,110.6 73.8,110.3 73.9,110 73.9,109.7 "/>
<polyline class="st0" points="68,111.8 68.2,111.8 68.4,111.8 68.5,111.7 68.7,111.5 68.8,111.3 68.9,111 69,110.7 69,110.4 "/>
<line class="st0" x1="74.4" y1="77.7" x2="74" y2="109.6"/>
<line class="st0" x1="74" y1="109.6" x2="73.9" y2="109.7"/>
<line class="st0" x1="74.3" y1="77.7" x2="74.4" y2="77.7"/>
<polyline class="st0" points="74.4,77.7 74.3,75.9 74.1,74 73.9,72.2 73.5,70.5 72.9,68.7 72.3,67.1 71.6,65.5 70.8,64.1 70.1,63 
	"/>
<line class="st0" x1="73.9" y1="109.7" x2="69" y2="110.4"/>
<line class="st0" x1="74.3" y1="77.7" x2="73.9" y2="109.7"/>
<line class="st0" x1="69" y1="110.4" x2="69.4" y2="78.5"/>
<line class="st0" x1="59.1" y1="59" x2="59.8" y2="58.9"/>
<line class="st0" x1="69.4" y1="78.5" x2="74.3" y2="77.7"/>
<polyline class="st0" points="74.3,77.7 74.3,75.9 74.1,74 73.8,72.2 73.4,70.4 72.9,68.6 72.2,66.9 71.5,65.3 70.6,63.8 69.7,62.5 
	68.7,61.3 "/>
<polyline class="st0" points="69.4,78.5 69.3,76.6 69.2,74.7 68.9,72.8 68.4,70.9 67.9,69.2 67.2,67.5 66.5,65.9 65.6,64.4 64.7,63 
	63.6,61.9 62.6,60.9 61.4,60 60.3,59.4 59.1,59 "/>
<line class="st0" x1="157" y1="97.5" x2="156.1" y2="98.7"/>
<line class="st0" x1="157" y1="97.5" x2="157" y2="97.5"/>
<line class="st0" x1="157.1" y1="87.8" x2="157" y2="97.5"/>
<polyline class="st0" points="152.9,95.7 153.3,95.5 153.6,95.2 153.9,94.8 153.9,94.3 153.9,93.8 153.7,93.5 153.3,93.2 "/>
<line class="st0" x1="152.6" y1="95.7" x2="152.9" y2="95.7"/>
<polyline class="st0" points="153.1,96.6 153.5,96.5 154,96.1 154.4,95.5 154.6,94.9 154.7,94.2 154.6,93.5 154.4,92.9 154.2,92.6 
	"/>
<polyline class="st0" points="154.3,97 154.9,96.9 155.4,96.5 155.8,95.9 156.1,95.3 156.2,94.6 156.1,93.9 155.8,93.3 155.4,92.9 
	154.9,92.6 154.4,92.6 "/>
<polyline class="st0" points="154.9,85.2 154.7,85.1 154.2,85.1 "/>
<line class="st0" x1="157.1" y1="87.8" x2="157.1" y2="87.8"/>
<polyline class="st0" points="154.9,85.3 155.4,85.3 155.8,85.4 156.2,85.6 156.5,85.9 156.8,86.3 157,86.7 157.1,87.2 157.1,87.8 
	"/>
<polyline class="st0" points="154.4,92.6 153.8,92.8 153.3,93.2 152.9,93.7 152.7,94.4 152.6,95.1 152.7,95.8 152.9,96.3 
	153.3,96.8 153.8,97 154.3,97 "/>
<line class="st0" x1="154.4" y1="92.6" x2="154.6" y2="92.4"/>
<line class="st0" x1="154.3" y1="97" x2="154.5" y2="97.4"/>
<polyline class="st0" points="147.1,96.5 147.5,96.4 147.8,96.1 148,95.6 148.1,95.1 148.1,94.7 147.8,94.3 147.5,94.1 "/>
<line class="st0" x1="146.8" y1="96.5" x2="147.1" y2="96.5"/>
<polyline class="st0" points="147.3,97.5 147.6,97.3 148.2,96.9 148.6,96.4 148.8,95.7 148.9,95 148.8,94.3 148.6,93.8 148.4,93.5 
	"/>
<polyline class="st0" points="148.5,97.9 149.1,97.7 149.6,97.3 150,96.8 150.2,96.1 150.3,95.4 150.3,94.7 150,94.1 149.6,93.7 
	149.1,93.5 148.6,93.4 "/>
<polyline class="st0" points="148.6,93.4 148,93.6 147.5,94 147.1,94.6 146.9,95.2 146.8,95.9 146.8,96.6 147.1,97.2 147.5,97.6 
	148,97.8 148.5,97.9 "/>
<line class="st0" x1="148.6" y1="93.4" x2="148.8" y2="93.2"/>
<line class="st0" x1="148.5" y1="97.9" x2="148.7" y2="98.2"/>
<line class="st0" x1="156.1" y1="98.7" x2="156.2" y2="98.5"/>
<line class="st0" x1="156.1" y1="98.7" x2="144.5" y2="100.4"/>
<line class="st0" x1="144.5" y1="100.4" x2="137.9" y2="98.6"/>
<line class="st0" x1="137" y1="97.7" x2="137.9" y2="98.6"/>
<line class="st0" x1="144.5" y1="100.4" x2="144.7" y2="100.2"/>
<line class="st0" x1="144.5" y1="100.4" x2="143.6" y2="99.4"/>
<line class="st0" x1="143" y1="90" x2="138" y2="88.6"/>
<line class="st0" x1="138" y1="88.6" x2="137.3" y2="88.7"/>
<line class="st0" x1="154.9" y1="85.3" x2="154.2" y2="85.1"/>
<line class="st0" x1="154.2" y1="85.1" x2="145.3" y2="86.4"/>
<line class="st0" x1="137.1" y1="89" x2="137.1" y2="88.9"/>
<line class="st0" x1="137.3" y1="88.7" x2="143" y2="90.3"/>
<line class="st0" x1="137.1" y1="88.9" x2="137.3" y2="88.7"/>
<line class="st0" x1="155.1" y1="85.6" x2="154.9" y2="85.3"/>
<line class="st0" x1="146" y1="86.6" x2="154.9" y2="85.3"/>
<line class="st0" x1="143" y1="89.5" x2="143" y2="90.6"/>
<line class="st0" x1="143" y1="90.6" x2="137.1" y2="89"/>
<line class="st0" x1="137.1" y1="89" x2="137" y2="97.7"/>
<line class="st0" x1="137" y1="97.7" x2="143.6" y2="99.4"/>
<line class="st0" x1="143.6" y1="99.4" x2="144" y2="99.3"/>
<line class="st0" x1="143.6" y1="99.4" x2="143.7" y2="89.7"/>
<polyline class="st0" points="154.5,97.4 153.9,97.3 153.4,97.1 153,96.7 152.7,96.2 152.5,95.5 152.5,94.8 152.7,94.1 153,93.4 
	153.5,92.9 154,92.5 154.6,92.4 "/>
<polyline class="st0" points="154.6,92.4 155.1,92.4 155.6,92.6 156.1,93 156.4,93.6 156.5,94.2 156.5,94.9 156.4,95.6 156,96.3 
	155.6,96.8 155.1,97.2 154.5,97.4 "/>
<polyline class="st0" points="148.7,98.2 148.1,98.2 147.6,98 147.2,97.6 146.9,97 146.7,96.3 146.7,95.6 146.9,94.9 147.2,94.3 
	147.7,93.8 148.2,93.4 148.8,93.2 "/>
<polyline class="st0" points="148.8,93.2 149.3,93.2 149.8,93.4 150.3,93.8 150.6,94.4 150.7,95.1 150.7,95.8 150.5,96.5 
	150.2,97.1 149.8,97.6 149.3,98 148.7,98.2 "/>
<line class="st0" x1="155.1" y1="85.6" x2="146.1" y2="86.9"/>
<line class="st0" x1="144.1" y1="89.7" x2="144" y2="99.3"/>
<line class="st0" x1="144" y1="99.3" x2="144.7" y2="100.2"/>
<line class="st0" x1="144.7" y1="100.2" x2="156.2" y2="98.5"/>
<line class="st0" x1="156.2" y1="98.5" x2="157" y2="97.5"/>
<line class="st0" x1="157" y1="97.5" x2="157.1" y2="87.8"/>
<polyline class="st0" points="157.1,87.8 157,87.4 156.9,86.9 156.7,86.5 156.5,86.2 156.2,85.9 155.9,85.7 155.5,85.6 155.1,85.6 
	"/>
<line class="st0" x1="145.3" y1="86.4" x2="146" y2="86.6"/>
<polyline class="st0" points="145.3,86.4 144.8,86.5 144.4,86.7 144,87.1 143.7,87.5 143.4,87.9 143.2,88.4 143.1,89 143,89.5 "/>
<line class="st0" x1="143.7" y1="89.7" x2="143" y2="89.5"/>
<line class="st0" x1="146.1" y1="86.9" x2="146" y2="86.6"/>
<polyline class="st0" points="143.7,89.7 143.8,89.1 143.9,88.6 144.1,88.1 144.4,87.6 144.7,87.2 145.1,86.9 145.5,86.7 146,86.6 
	"/>
<line class="st0" x1="143.7" y1="89.7" x2="144.1" y2="89.7"/>
<polyline class="st0" points="146.1,86.9 145.8,87 145.4,87.2 145,87.5 144.7,87.9 144.5,88.3 144.3,88.7 144.1,89.2 144.1,89.7 "/>
<line class="st0" x1="150.7" y1="84.7" x2="150.7" y2="85.4"/>
<line class="st0" x1="150.7" y1="84.7" x2="150.7" y2="84.7"/>
<line class="st0" x1="149.5" y1="84.2" x2="149.5" y2="84.2"/>
<polyline class="st0" points="147.2,84.6 147.2,84.6 147.2,84.5 147.3,84.5 "/>
<line class="st0" x1="149.5" y1="84.2" x2="147.3" y2="84.5"/>
<line class="st0" x1="150.5" y1="84.4" x2="149.5" y2="84.2"/>
<line class="st0" x1="150.7" y1="85.4" x2="150.7" y2="84.7"/>
<line class="st0" x1="147.3" y1="84.5" x2="148.3" y2="84.7"/>
<line class="st0" x1="147.1" y1="84.8" x2="147.3" y2="84.5"/>
<line class="st0" x1="148.3" y1="84.7" x2="150.5" y2="84.4"/>
<line class="st0" x1="150.7" y1="84.7" x2="148.4" y2="85.1"/>
<polyline class="st0" points="150.7,84.7 150.7,84.7 150.6,84.6 150.6,84.5 150.6,84.4 150.5,84.4 "/>
<line class="st0" x1="148.4" y1="85.1" x2="148.4" y2="86"/>
<line class="st0" x1="148" y1="85" x2="148.4" y2="85.1"/>
<polyline class="st0" points="148.3,84.7 148.3,84.7 148.3,84.8 148.4,84.8 148.4,84.9 148.4,85 148.4,85.1 "/>
<line class="st0" x1="148" y1="85" x2="148.3" y2="84.7"/>
<line class="st0" x1="152.9" y1="85.1" x2="152.9" y2="85.1"/>
<polyline class="st0" points="150.5,85.5 150.5,85.5 150.6,85.4 150.7,85.4 "/>
<line class="st0" x1="152.9" y1="85.1" x2="150.7" y2="85.4"/>
<line class="st0" x1="153.5" y1="85.2" x2="152.9" y2="85.1"/>
<line class="st0" x1="147.1" y1="84.8" x2="147.1" y2="86.2"/>
<line class="st0" x1="148" y1="86" x2="148" y2="85"/>
<line class="st0" x1="148" y1="85" x2="147.1" y2="84.8"/>
<line class="st0" x1="150.7" y1="85.4" x2="151.3" y2="85.5"/>
<line class="st0" x1="28.4" y1="51.5" x2="15.9" y2="53.3"/>
<line class="st0" x1="55.5" y1="113.4" x2="68" y2="111.6"/>
<line class="st0" x1="9.3" y1="75.5" x2="8.2" y2="75.7"/>
<line class="st0" x1="12.6" y1="78" x2="12.9" y2="77.9"/>
<polyline class="st0" points="12.7,77.6 12.8,77.6 12.9,77.6 "/>
<line class="st0" x1="13.2" y1="78.2" x2="13.5" y2="78.1"/>
<line class="st0" x1="13.2" y1="77.5" x2="13.5" y2="77.4"/>
<line class="st0" x1="13.4" y1="77.3" x2="13.2" y2="77.4"/>
<line class="st0" x1="13.8" y1="78.5" x2="14" y2="78.5"/>
<line class="st0" x1="18.1" y1="96.1" x2="19.2" y2="95.9"/>
<polyline class="st0" points="1.7,84.7 1.7,85.3 1.7,86.1 "/>
<polyline class="st0" points="3.9,92.9 4.2,93.4 4.6,93.8 "/>
<polyline class="st0" points="2.4,86.2 2.5,86.8 2.6,88 2.9,89.1 3.3,90.3 3.7,91.3 4.2,92.1 "/>
<polyline class="st0" points="4.2,79.9 3.8,80.4 3.3,81.3 2.9,82.2 2.6,83.3 2.5,84.4 2.4,84.8 "/>
<polyline class="st0" points="5,78.4 4.6,78.6 4.1,78.9 "/>
<line class="st0" x1="5.5" y1="97.6" x2="7.6" y2="98.1"/>
<line class="st0" x1="8.8" y1="94.8" x2="9" y2="94.8"/>
<polyline class="st0" points="7.2,94.6 7.9,94.8 8.7,94.8 8.9,94.8 "/>
<line class="st0" x1="7.2" y1="88.8" x2="7.5" y2="88.8"/>
<line class="st0" x1="6.9" y1="84.7" x2="5.9" y2="84.9"/>
<line class="st0" x1="6" y1="85.2" x2="5.5" y2="85.3"/>
<line class="st0" x1="4.9" y1="89.1" x2="5.1" y2="89.1"/>
<polyline class="st0" points="3.2,86.9 3.2,87.2 3.3,87.8 3.5,88.3 3.9,88.8 4.3,89 4.7,89.2 4.9,89.1 "/>
<line class="st0" x1="4.6" y1="85.1" x2="4.3" y2="85.1"/>
<line class="st0" x1="9.2" y1="78.2" x2="6.5" y2="78.6"/>
<polyline class="st0" points="4.3,85.1 4.1,85.2 3.7,85.4 3.5,85.7 3.3,86.2 3.2,86.7 3.2,86.9 "/>
<polyline class="st0" points="6.3,78.6 5.9,78.7 5.5,78.9 "/>
<line class="st0" x1="11.6" y1="95" x2="12.7" y2="94.8"/>
<line class="st0" x1="10.2" y1="77.4" x2="9.1" y2="77.6"/>
<line class="st0" x1="156.5" y1="98.1" x2="175.7" y2="95.4"/>
<line class="st0" x1="73.9" y1="110" x2="143.2" y2="100.1"/>
<line class="st0" x1="137" y1="95.6" x2="74" y2="104.7"/>
<line class="st0" x1="175.7" y1="90" x2="157.1" y2="92.7"/>
<line class="st0" x1="157.1" y1="90.3" x2="175.7" y2="87.7"/>
<line class="st0" x1="74.1" y1="102.3" x2="137" y2="93.2"/>
<path class="st0" d="M74.3,79.3"/>
<line class="st0" x1="33.6" y1="50.7" x2="29.5" y2="51.3"/>
<line class="st0" x1="175.7" y1="32.1" x2="39.3" y2="51.7"/>
<line class="st0" x1="80.5" y1="82.4" x2="79.7" y2="82.2"/>
<line class="st0" x1="80.5" y1="88.5" x2="80.5" y2="88.4"/>
<line class="st0" x1="80.6" y1="82.8" x2="80.6" y2="82.7"/>
<line class="st0" x1="74.8" y1="89.5" x2="76" y2="89.7"/>
<line class="st0" x1="29.3" y1="51.3" x2="28.6" y2="51.4"/>
<line class="st0" x1="73.8" y1="110.4" x2="73.9" y2="110.2"/>
<line class="st0" x1="68.2" y1="111.8" x2="73.1" y2="111.1"/>
<line class="st0" x1="70.1" y1="63" x2="70" y2="62.9"/>
<line class="st0" x1="155.6" y1="85.3" x2="154.9" y2="85.2"/>
<line class="st0" x1="150.7" y1="84.7" x2="150.6" y2="84.5"/>
<line class="st0" x1="149.5" y1="84.2" x2="147.3" y2="84.5"/>
<line class="st0" x1="147.2" y1="84.6" x2="147.1" y2="84.8"/>
<line class="st0" x1="152.9" y1="85.1" x2="150.6" y2="85.4"/>
<line class="st0" x1="150.5" y1="85.5" x2="150.5" y2="85.7"/>
<path class="st0" d="M175.3,64.6"/>
<line class="st0" x1="175.7" y1="32.1" x2="175.7" y2="96.3"/>
<line class="st1" x1="35.3" y1="24" x2="35.3" y2="53.4"/>
<line class="st1" x1="44.3" y1="24" x2="35.3" y2="24"/>
<line class="st1" x1="47.1" y1="34.6" x2="38" y2="34.6"/>
<line class="st1" x1="38" y1="34.6" x2="38" y2="54.6"/>
<text transform="matrix(1 0 0 1 45.7717 26.2502)" class="st2 st3">电源指示灯</text>
<text transform="matrix(1 0 0 1 49.8804 36.7333)" class="st2 st3">状态指示灯</text>
</svg>
