<svg xmlns="http://www.w3.org/2000/svg" xmlns:xlink="http://www.w3.org/1999/xlink" fill="none" version="1.1" width="508" height="286" viewBox="0 0 508 286"><defs><clipPath id="master_svg0_247_05715"><rect x="0" y="0" width="508" height="286" rx="0"/></clipPath></defs><g clip-path="url(#master_svg0_247_05715)"><rect x="0" y="0" width="508" height="286" rx="0" fill="#27343E" fill-opacity="1"/><g><g><path d="M138.7363,129.7297L103.94030000000001,93.612379C103.1537,92.795874,101.8463,92.795874,101.05969999999999,93.612379L66.2637,129.7298C65.0399,131,65.9401,133.1174,67.70400000000001,133.1174L91.0001,133.1174L91.0001,179.1174C91.0001,180.2219,91.8955,181.1174,93.0001,181.1174L112.9999,181.1174C114.1045,181.1174,114.9999,180.2219,114.9999,179.1174L114.9999,133.1174L137.296,133.1174C139.0599,133.1174,139.9601,131,138.7363,129.7297ZM153.147,201.11700000000002L52.852940000000004,201.11700000000002C50.17274,201.11700000000002,48,198.87900000000002,48,196.11700000000002C48,193.356,50.17274,191.1174,52.852940000000004,191.1174L153.147,191.1174C155.827,191.1174,158,193.356,158,196.11700000000002C158,198.87900000000002,155.827,201.11700000000002,153.147,201.11700000000002Z" fill-rule="evenodd" fill="#55A4F1" fill-opacity="1"/></g></g></g></svg>