<?xml version="1.0" encoding="utf-8"?>
<!-- Generator: Adobe Illustrator 26.0.1, SVG Export Plug-In . SVG Version: 6.00 Build 0)  -->
<svg version="1.1" id="图层_1" xmlns="http://www.w3.org/2000/svg" xmlns:xlink="http://www.w3.org/1999/xlink" x="0px" y="0px"
	 viewBox="0 0 304.6 287" style="enable-background:new 0 0 304.6 287;" xml:space="preserve">
<style type="text/css">
	.st0{fill:#231815;}
	.st1{fill:none;stroke:#040000;stroke-width:0.5;stroke-linecap:round;stroke-linejoin:round;stroke-miterlimit:10;}
</style>
<g>
	<g>
		<path class="st0" d="M23.4,118.3h-2.1v-1h5.5v1h-2.2v6.4h-1.2V118.3z"/>
		<path class="st0" d="M28,116.7h1.1v2.1l-0.1,1.1c0.5-0.5,1-0.9,1.8-0.9c1.2,0,1.7,0.8,1.7,2.2v3.4h-1.1v-3.3
			c0-0.9-0.3-1.3-0.9-1.3c-0.5,0-0.8,0.3-1.3,0.7v3.9H28V116.7z"/>
		<path class="st0" d="M33.8,121.9c0-1.8,1.2-2.9,2.5-2.9c1.5,0,2.2,1,2.2,2.6c0,0.2,0,0.4-0.1,0.6h-3.6c0.1,1,0.7,1.7,1.7,1.7
			c0.5,0,0.9-0.1,1.3-0.4l0.4,0.7c-0.5,0.3-1.1,0.6-1.8,0.6C34.9,124.8,33.8,123.7,33.8,121.9z M37.5,121.4c0-0.9-0.4-1.5-1.2-1.5
			c-0.7,0-1.3,0.5-1.4,1.5H37.5z"/>
		<path class="st0" d="M41.7,123.2c0-1.2,1-1.8,3.3-2c0-0.6-0.2-1.2-1-1.2c-0.6,0-1.1,0.3-1.6,0.6l-0.4-0.8c0.6-0.4,1.3-0.7,2.2-0.7
			c1.4,0,2,0.9,2,2.3v3.3h-0.9l-0.1-0.6h0c-0.5,0.4-1.1,0.8-1.7,0.8C42.4,124.8,41.7,124.1,41.7,123.2z M45,123.2v-1.3
			c-1.6,0.2-2.2,0.6-2.2,1.2c0,0.5,0.4,0.8,0.9,0.8C44.2,123.8,44.5,123.6,45,123.2z"/>
		<path class="st0" d="M47.6,117.4c0-0.4,0.3-0.7,0.7-0.7c0.4,0,0.7,0.3,0.7,0.7c0,0.4-0.3,0.7-0.7,0.7
			C47.9,118.1,47.6,117.8,47.6,117.4z M47.8,119.1h1.1v5.5h-1.1V119.1z"/>
		<path class="st0" d="M50.6,119.1h0.9l0.1,1h0c0.4-0.7,1-1.1,1.6-1.1c0.3,0,0.4,0,0.6,0.1l-0.2,1c-0.2-0.1-0.3-0.1-0.6-0.1
			c-0.4,0-1,0.3-1.3,1.2v3.4h-1.1V119.1z"/>
		<path class="st0" d="M57,119.1h0.9l0.1,0.6h0c0.5-0.4,1.1-0.7,1.7-0.7c1.4,0,2.2,1.1,2.2,2.8c0,1.9-1.1,3-2.4,3
			c-0.5,0-1-0.2-1.4-0.6l0,0.9v1.8H57V119.1z M60.7,121.8c0-1.1-0.4-1.9-1.3-1.9c-0.4,0-0.8,0.2-1.3,0.7v2.7
			c0.4,0.4,0.9,0.5,1.2,0.5C60.1,123.8,60.7,123.1,60.7,121.8z"/>
		<path class="st0" d="M63.2,122.6v-3.5h1.2v3.3c0,0.9,0.3,1.3,0.9,1.3c0.5,0,0.9-0.2,1.3-0.8v-3.8h1.2v5.5h-0.9l-0.1-0.8h0
			c-0.5,0.6-1,1-1.8,1C63.7,124.8,63.2,124,63.2,122.6z"/>
		<path class="st0" d="M69.4,119.1h0.9l0.1,0.8h0c0.5-0.5,1-0.9,1.7-0.9c0.8,0,1.3,0.4,1.5,1c0.5-0.6,1.1-1,1.8-1
			c1.1,0,1.7,0.8,1.7,2.2v3.4H76v-3.3c0-0.9-0.3-1.3-0.9-1.3c-0.4,0-0.8,0.2-1.2,0.7v3.9h-1.1v-3.3c0-0.9-0.3-1.3-0.9-1.3
			c-0.4,0-0.8,0.2-1.2,0.7v3.9h-1.1V119.1z"/>
		<path class="st0" d="M78.8,119.1h0.9l0.1,0.6h0c0.5-0.4,1.1-0.7,1.7-0.7c1.4,0,2.2,1.1,2.2,2.8c0,1.9-1.1,3-2.4,3
			c-0.5,0-1-0.2-1.4-0.6l0,0.9v1.8h-1.1V119.1z M82.6,121.8c0-1.1-0.4-1.9-1.3-1.9c-0.4,0-0.8,0.2-1.3,0.7v2.7
			c0.4,0.4,0.9,0.5,1.2,0.5C82,123.8,82.6,123.1,82.6,121.8z"/>
		<path class="st0" d="M86.8,124l0.5-0.7c0.5,0.4,1,0.6,1.5,0.6c0.6,0,1-0.3,1-0.7c0-0.5-0.6-0.7-1.2-0.9c-0.7-0.3-1.5-0.7-1.5-1.6
			c0-0.9,0.7-1.6,2-1.6c0.7,0,1.3,0.3,1.8,0.6l-0.5,0.7c-0.4-0.3-0.8-0.5-1.2-0.5c-0.6,0-0.9,0.3-0.9,0.7c0,0.5,0.5,0.6,1.1,0.9
			c0.8,0.3,1.6,0.6,1.6,1.7c0,0.9-0.7,1.7-2.1,1.7C88.1,124.8,87.3,124.4,86.8,124z"/>
		<path class="st0" d="M92.1,122.8v-2.8h-0.8v-0.9l0.9-0.1l0.1-1.5h1v1.5h1.4v0.9h-1.4v2.8c0,0.7,0.2,1,0.8,1c0.2,0,0.4-0.1,0.6-0.1
			l0.2,0.8c-0.3,0.1-0.7,0.2-1.1,0.2C92.6,124.8,92.1,124,92.1,122.8z"/>
		<path class="st0" d="M95.3,123.2c0-1.2,1-1.8,3.3-2c0-0.6-0.2-1.2-1-1.2c-0.6,0-1.1,0.3-1.6,0.6l-0.4-0.8c0.6-0.4,1.3-0.7,2.2-0.7
			c1.4,0,2,0.9,2,2.3v3.3h-0.9l-0.1-0.6h0c-0.5,0.4-1.1,0.8-1.7,0.8C96,124.8,95.3,124.1,95.3,123.2z M98.6,123.2v-1.3
			c-1.6,0.2-2.2,0.6-2.2,1.2c0,0.5,0.4,0.8,0.9,0.8C97.8,123.8,98.2,123.6,98.6,123.2z"/>
		<path class="st0" d="M101.4,122.8v-2.8h-0.8v-0.9l0.9-0.1l0.1-1.5h1v1.5h1.4v0.9h-1.4v2.8c0,0.7,0.2,1,0.8,1
			c0.2,0,0.4-0.1,0.6-0.1l0.2,0.8c-0.3,0.1-0.7,0.2-1.1,0.2C101.8,124.8,101.4,124,101.4,122.8z"/>
		<path class="st0" d="M104.6,121.9c0-1.8,1.2-2.9,2.5-2.9c1.5,0,2.2,1,2.2,2.6c0,0.2,0,0.4-0.1,0.6h-3.6c0.1,1,0.7,1.7,1.7,1.7
			c0.5,0,0.9-0.1,1.3-0.4l0.4,0.7c-0.5,0.3-1.1,0.6-1.8,0.6C105.8,124.8,104.6,123.7,104.6,121.9z M108.4,121.4
			c0-0.9-0.4-1.5-1.2-1.5c-0.7,0-1.3,0.5-1.4,1.5H108.4z"/>
		<path class="st0" d="M110.1,124l0.5-0.7c0.5,0.4,1,0.6,1.5,0.6c0.6,0,1-0.3,1-0.7c0-0.5-0.6-0.7-1.2-0.9c-0.7-0.3-1.5-0.7-1.5-1.6
			c0-0.9,0.7-1.6,2-1.6c0.7,0,1.3,0.3,1.8,0.6l-0.5,0.7c-0.4-0.3-0.8-0.5-1.2-0.5c-0.6,0-0.9,0.3-0.9,0.7c0,0.5,0.5,0.6,1.1,0.9
			c0.8,0.3,1.6,0.6,1.6,1.7c0,0.9-0.7,1.7-2.1,1.7C111.4,124.8,110.6,124.4,110.1,124z"/>
		<path class="st0" d="M117.5,117.4c0-0.4,0.3-0.7,0.7-0.7c0.4,0,0.7,0.3,0.7,0.7c0,0.4-0.3,0.7-0.7,0.7
			C117.8,118.1,117.5,117.8,117.5,117.4z M117.7,119.1h1.1v5.5h-1.1V119.1z"/>
		<path class="st0" d="M120.5,119.1h0.9l0.1,0.8h0c0.5-0.5,1.1-0.9,1.8-0.9c1.2,0,1.7,0.8,1.7,2.2v3.4H124v-3.3
			c0-0.9-0.3-1.3-0.9-1.3c-0.5,0-0.8,0.3-1.3,0.7v3.9h-1.1V119.1z"/>
		<path class="st0" d="M126.4,121.9c0-1.8,1.1-2.9,2.3-2.9c0.6,0,1,0.2,1.5,0.6l0-0.9v-2h1.1v7.9h-0.9l-0.1-0.6h0
			c-0.4,0.4-1,0.8-1.6,0.8C127.3,124.8,126.4,123.7,126.4,121.9z M130.2,123.1v-2.7c-0.4-0.4-0.8-0.5-1.2-0.5
			c-0.8,0-1.4,0.7-1.4,1.9c0,1.2,0.5,1.9,1.3,1.9C129.4,123.8,129.8,123.6,130.2,123.1z"/>
		<path class="st0" d="M132.9,117.4c0-0.4,0.3-0.7,0.7-0.7c0.4,0,0.7,0.3,0.7,0.7c0,0.4-0.3,0.7-0.7,0.7
			C133.2,118.1,132.9,117.8,132.9,117.4z M133,119.1h1.1v5.5H133V119.1z"/>
		<path class="st0" d="M135.5,121.9c0-1.8,1.3-2.9,2.7-2.9c0.7,0,1.2,0.3,1.6,0.6l-0.6,0.7c-0.3-0.3-0.6-0.4-1-0.4
			c-0.9,0-1.6,0.8-1.6,1.9c0,1.2,0.6,1.9,1.5,1.9c0.5,0,0.9-0.2,1.2-0.5l0.5,0.8c-0.5,0.4-1.2,0.7-1.8,0.7
			C136.7,124.8,135.5,123.7,135.5,121.9z"/>
		<path class="st0" d="M140.7,123.2c0-1.2,1-1.8,3.3-2c0-0.6-0.2-1.2-1-1.2c-0.6,0-1.1,0.3-1.6,0.6l-0.4-0.8
			c0.6-0.4,1.3-0.7,2.2-0.7c1.4,0,2,0.9,2,2.3v3.3h-0.9l-0.1-0.6h0c-0.5,0.4-1.1,0.8-1.7,0.8C141.3,124.8,140.7,124.1,140.7,123.2z
			 M143.9,123.2v-1.3c-1.6,0.2-2.2,0.6-2.2,1.2c0,0.5,0.4,0.8,0.9,0.8C143.1,123.8,143.5,123.6,143.9,123.2z"/>
		<path class="st0" d="M146.7,122.8v-2.8h-0.8v-0.9l0.9-0.1l0.1-1.5h1v1.5h1.4v0.9h-1.4v2.8c0,0.7,0.2,1,0.8,1
			c0.2,0,0.4-0.1,0.6-0.1l0.2,0.8c-0.3,0.1-0.7,0.2-1.1,0.2C147.2,124.8,146.7,124,146.7,122.8z"/>
		<path class="st0" d="M149.9,121.9c0-1.8,1.2-2.9,2.6-2.9c1.4,0,2.6,1.1,2.6,2.9c0,1.8-1.2,2.9-2.6,2.9
			C151.2,124.8,149.9,123.7,149.9,121.9z M153.9,121.9c0-1.2-0.5-1.9-1.4-1.9c-0.9,0-1.4,0.8-1.4,1.9c0,1.2,0.5,1.9,1.4,1.9
			C153.4,123.8,153.9,123,153.9,121.9z"/>
		<path class="st0" d="M156.5,119.1h0.9l0.1,1h0c0.4-0.7,1-1.1,1.6-1.1c0.3,0,0.4,0,0.6,0.1l-0.2,1c-0.2-0.1-0.3-0.1-0.6-0.1
			c-0.4,0-1,0.3-1.3,1.2v3.4h-1.1V119.1z"/>
	</g>
	<g>
		<path class="st0" d="M26.6,172.4h-2.1v-1h5.5v1h-2.2v6.4h-1.2V172.4z"/>
		<path class="st0" d="M31.1,170.9h1.1v2.1l-0.1,1.1c0.5-0.5,1-0.9,1.8-0.9c1.2,0,1.7,0.8,1.7,2.2v3.4h-1.1v-3.3
			c0-0.9-0.3-1.3-0.9-1.3c-0.5,0-0.8,0.3-1.3,0.7v3.9h-1.1V170.9z"/>
		<path class="st0" d="M36.9,176.1c0-1.8,1.2-2.9,2.5-2.9c1.5,0,2.2,1,2.2,2.6c0,0.2,0,0.4-0.1,0.6H38c0.1,1,0.7,1.7,1.7,1.7
			c0.5,0,0.9-0.1,1.3-0.4l0.4,0.7c-0.5,0.3-1.1,0.6-1.8,0.6C38,179,36.9,177.9,36.9,176.1z M40.6,175.6c0-0.9-0.4-1.5-1.2-1.5
			c-0.7,0-1.3,0.5-1.4,1.5H40.6z"/>
		<path class="st0" d="M45.1,173.3h0.9l0.1,0.6h0c0.5-0.4,1.1-0.7,1.7-0.7c1.4,0,2.2,1.1,2.2,2.8c0,1.9-1.1,3-2.4,3
			c-0.5,0-1-0.2-1.4-0.6l0,0.9v1.8h-1.1V173.3z M48.9,176c0-1.1-0.4-1.9-1.3-1.9c-0.4,0-0.8,0.2-1.3,0.7v2.7
			c0.4,0.4,0.9,0.5,1.2,0.5C48.3,178,48.9,177.3,48.9,176z"/>
		<path class="st0" d="M51,176.1c0-1.8,1.2-2.9,2.6-2.9c1.4,0,2.6,1.1,2.6,2.9c0,1.8-1.2,2.9-2.6,2.9C52.3,179,51,177.9,51,176.1z
			 M55,176.1c0-1.2-0.5-1.9-1.4-1.9c-0.9,0-1.4,0.8-1.4,1.9c0,1.2,0.5,1.9,1.4,1.9C54.5,178,55,177.2,55,176.1z"/>
		<path class="st0" d="M56.9,173.3h1.2l0.7,3c0.1,0.5,0.2,1,0.3,1.6h0.1c0.1-0.5,0.2-1,0.3-1.6l0.8-3h1.1l0.8,3
			c0.1,0.5,0.2,1,0.4,1.6h0.1c0.1-0.5,0.2-1,0.3-1.6l0.7-3h1.1l-1.4,5.5h-1.4l-0.7-2.7c-0.1-0.5-0.2-1-0.3-1.6h0
			c-0.1,0.6-0.2,1.1-0.3,1.6l-0.7,2.7h-1.3L56.9,173.3z"/>
		<path class="st0" d="M65.3,176.1c0-1.8,1.2-2.9,2.5-2.9c1.5,0,2.2,1,2.2,2.6c0,0.2,0,0.4-0.1,0.6h-3.6c0.1,1,0.7,1.7,1.7,1.7
			c0.5,0,0.9-0.1,1.3-0.4l0.4,0.7c-0.5,0.3-1.1,0.6-1.8,0.6C66.5,179,65.3,177.9,65.3,176.1z M69.1,175.6c0-0.9-0.4-1.5-1.2-1.5
			c-0.7,0-1.3,0.5-1.4,1.5H69.1z"/>
		<path class="st0" d="M71.4,173.3h0.9l0.1,1h0c0.4-0.7,1-1.1,1.6-1.1c0.3,0,0.4,0,0.6,0.1l-0.2,1c-0.2-0.1-0.3-0.1-0.6-0.1
			c-0.4,0-1,0.3-1.3,1.2v3.4h-1.1V173.3z"/>
		<path class="st0" d="M77.1,178.2l0.5-0.7c0.5,0.4,1,0.6,1.5,0.6c0.6,0,1-0.3,1-0.7c0-0.5-0.6-0.7-1.2-0.9
			c-0.7-0.3-1.5-0.7-1.5-1.6c0-0.9,0.7-1.6,2-1.6c0.7,0,1.3,0.3,1.8,0.6l-0.5,0.7c-0.4-0.3-0.8-0.5-1.2-0.5c-0.6,0-0.9,0.3-0.9,0.7
			c0,0.5,0.5,0.6,1.1,0.9c0.8,0.3,1.6,0.6,1.6,1.7c0,0.9-0.7,1.7-2.1,1.7C78.4,179,77.6,178.6,77.1,178.2z"/>
		<path class="st0" d="M82.4,176.8v-3.5h1.2v3.3c0,0.9,0.3,1.3,0.9,1.3c0.5,0,0.9-0.2,1.3-0.8v-3.8h1.2v5.5H86l-0.1-0.8h0
			c-0.5,0.6-1,1-1.8,1C82.9,179,82.4,178.2,82.4,176.8z"/>
		<path class="st0" d="M88.7,173.3h0.9l0.1,0.6h0c0.5-0.4,1.1-0.7,1.7-0.7c1.4,0,2.2,1.1,2.2,2.8c0,1.9-1.1,3-2.4,3
			c-0.5,0-1-0.2-1.4-0.6l0,0.9v1.8h-1.1V173.3z M92.4,176c0-1.1-0.4-1.9-1.3-1.9c-0.4,0-0.8,0.2-1.3,0.7v2.7
			c0.4,0.4,0.9,0.5,1.2,0.5C91.8,178,92.4,177.3,92.4,176z"/>
		<path class="st0" d="M94.9,173.3h0.9l0.1,0.6h0c0.5-0.4,1.1-0.7,1.7-0.7c1.4,0,2.2,1.1,2.2,2.8c0,1.9-1.1,3-2.4,3
			c-0.5,0-1-0.2-1.4-0.6l0,0.9v1.8h-1.1V173.3z M98.7,176c0-1.1-0.4-1.9-1.3-1.9c-0.4,0-0.8,0.2-1.3,0.7v2.7
			c0.4,0.4,0.9,0.5,1.2,0.5C98.1,178,98.7,177.3,98.7,176z"/>
		<path class="st0" d="M101.2,177.5v-6.6h1.1v6.7c0,0.3,0.1,0.4,0.3,0.4c0.1,0,0.1,0,0.2,0l0.1,0.9c-0.1,0.1-0.3,0.1-0.6,0.1
			C101.5,179,101.2,178.4,101.2,177.5z"/>
		<path class="st0" d="M103.8,181l0.2-0.9c0.1,0,0.3,0.1,0.4,0.1c0.6,0,0.9-0.4,1.1-1l0.1-0.4l-2.2-5.5h1.2l1,2.8
			c0.2,0.5,0.3,1,0.5,1.5h0.1c0.1-0.5,0.3-1,0.4-1.5l0.9-2.8h1.1l-2,5.8c-0.4,1.2-1,2-2.2,2C104.2,181.1,103.9,181.1,103.8,181z"/>
		<path class="st0" d="M111.7,171.6c0-0.4,0.3-0.7,0.7-0.7c0.4,0,0.7,0.3,0.7,0.7c0,0.4-0.3,0.7-0.7,0.7
			C112,172.3,111.7,172,111.7,171.6z M111.9,173.3h1.1v5.5h-1.1V173.3z"/>
		<path class="st0" d="M114.7,173.3h0.9l0.1,0.8h0c0.5-0.5,1.1-0.9,1.8-0.9c1.2,0,1.7,0.8,1.7,2.2v3.4h-1.1v-3.3
			c0-0.9-0.3-1.3-0.9-1.3c-0.5,0-0.8,0.3-1.3,0.7v3.9h-1.1V173.3z"/>
		<path class="st0" d="M120.6,176.1c0-1.8,1.1-2.9,2.3-2.9c0.6,0,1,0.2,1.5,0.6l0-0.9v-2h1.1v7.9h-0.9l-0.1-0.6h0
			c-0.4,0.4-1,0.8-1.6,0.8C121.5,179,120.6,177.9,120.6,176.1z M124.4,177.3v-2.7c-0.4-0.4-0.8-0.5-1.2-0.5c-0.8,0-1.4,0.7-1.4,1.9
			c0,1.2,0.5,1.9,1.3,1.9C123.6,178,124,177.8,124.4,177.3z"/>
		<path class="st0" d="M127.1,171.6c0-0.4,0.3-0.7,0.7-0.7c0.4,0,0.7,0.3,0.7,0.7c0,0.4-0.3,0.7-0.7,0.7
			C127.4,172.3,127.1,172,127.1,171.6z M127.2,173.3h1.1v5.5h-1.1V173.3z"/>
		<path class="st0" d="M129.7,176.1c0-1.8,1.3-2.9,2.7-2.9c0.7,0,1.2,0.3,1.6,0.6l-0.6,0.7c-0.3-0.3-0.6-0.4-1-0.4
			c-0.9,0-1.6,0.8-1.6,1.9c0,1.2,0.6,1.9,1.5,1.9c0.5,0,0.9-0.2,1.2-0.5l0.5,0.8c-0.5,0.4-1.2,0.7-1.8,0.7
			C130.9,179,129.7,177.9,129.7,176.1z"/>
		<path class="st0" d="M134.8,177.4c0-1.2,1-1.8,3.3-2c0-0.6-0.2-1.2-1-1.2c-0.6,0-1.1,0.3-1.6,0.6l-0.4-0.8
			c0.6-0.4,1.3-0.7,2.2-0.7c1.4,0,2,0.9,2,2.3v3.3h-0.9l-0.1-0.6h0c-0.5,0.4-1.1,0.8-1.7,0.8C135.5,179,134.8,178.3,134.8,177.4z
			 M138.1,177.4v-1.3c-1.6,0.2-2.2,0.6-2.2,1.2c0,0.5,0.4,0.8,0.9,0.8C137.3,178,137.7,177.8,138.1,177.4z"/>
		<path class="st0" d="M140.9,177v-2.8h-0.8v-0.9l0.9-0.1l0.1-1.5h1v1.5h1.4v0.9h-1.4v2.8c0,0.7,0.2,1,0.8,1c0.2,0,0.4-0.1,0.6-0.1
			l0.2,0.8c-0.3,0.1-0.7,0.2-1.1,0.2C141.4,179,140.9,178.2,140.9,177z"/>
		<path class="st0" d="M144.1,176.1c0-1.8,1.2-2.9,2.6-2.9c1.4,0,2.6,1.1,2.6,2.9c0,1.8-1.2,2.9-2.6,2.9
			C145.3,179,144.1,177.9,144.1,176.1z M148.1,176.1c0-1.2-0.5-1.9-1.4-1.9c-0.9,0-1.4,0.8-1.4,1.9c0,1.2,0.5,1.9,1.4,1.9
			C147.6,178,148.1,177.2,148.1,176.1z"/>
		<path class="st0" d="M150.6,173.3h0.9l0.1,1h0c0.4-0.7,1-1.1,1.6-1.1c0.3,0,0.4,0,0.6,0.1l-0.2,1c-0.2-0.1-0.3-0.1-0.6-0.1
			c-0.4,0-1,0.3-1.3,1.2v3.4h-1.1V173.3z"/>
	</g>
	<line class="st1" x1="180.3" y1="51.2" x2="180.5" y2="51.4"/>
	<line class="st1" x1="214" y1="51.3" x2="214.1" y2="51.1"/>
	<line class="st1" x1="177.3" y1="63" x2="177.3" y2="63"/>
	<line class="st1" x1="214.2" y1="62.9" x2="214.2" y2="62.9"/>
	<polyline class="st1" points="266.2,161.5 266.7,161.4 266.9,161.4 	"/>
	<polyline class="st1" points="273.4,168.6 273.4,168.6 273.3,168.6 273.1,168.6 272.6,168.5 271.9,168.6 	"/>
	<polyline class="st1" points="279.9,175.7 279.9,175.6 279.6,175.6 279.1,175.6 278.4,175.6 277.4,175.6 	"/>
	<polyline class="st1" points="171.5,161.4 171.5,161.4 171.7,161.4 172.2,161.4 	"/>
	<polyline class="st1" points="166.3,168.5 165.3,168.5 165.2,168.5 165.1,168.5 165.1,168.5 	"/>
	<polyline class="st1" points="158.5,175.7 158.5,175.6 158.7,175.6 159.1,175.6 159.7,175.6 160.6,175.6 	"/>
	<polyline class="st1" points="277.4,200.6 278.4,200.7 279.1,200.7 279.6,200.7 279.9,200.7 280,200.7 	"/>
	<polyline class="st1" points="158.6,200.7 158.6,200.7 158.8,200.7 159.2,200.7 159.8,200.6 160.6,200.6 	"/>
	<polyline class="st1" points="196.5,48.7 196.5,48.7 196.5,48.7 196.3,48.7 196.1,48.7 195.8,48.7 195.6,48.7 	"/>
	<polyline class="st1" points="195.6,48.7 195.4,48.7 195.3,48.7 195.3,48.7 	"/>
	<polyline class="st1" points="199.7,48.7 199.7,48.7 199.7,48.7 199.5,48.7 199.2,48.7 199,48.7 198.8,48.7 	"/>
	<polyline class="st1" points="198.8,48.7 198.6,48.7 198.5,48.7 198.4,48.7 	"/>
	<polyline class="st1" points="194.8,48.7 194.8,48.7 194.7,48.7 194.5,48.7 194.3,48.7 194.1,48.7 193.8,48.7 	"/>
	<polyline class="st1" points="193.8,48.7 193.6,48.7 193.5,48.7 193.5,48.7 	"/>
	<polyline class="st1" points="202.9,48.7 202.9,48.7 202.8,48.6 202.7,48.6 202.4,48.6 202.2,48.6 201.9,48.6 	"/>
	<polyline class="st1" points="201.9,48.6 201.7,48.7 201.6,48.7 201.6,48.7 	"/>
	<polyline class="st1" points="197.9,48.7 197.9,48.7 197.9,48.7 197.7,48.6 197.5,48.6 197.2,48.7 197,48.7 	"/>
	<polyline class="st1" points="197,48.7 196.8,48.7 196.7,48.7 196.7,48.7 	"/>
	<polyline class="st1" points="206.1,48.6 206.1,48.6 206,48.6 205.8,48.6 205.6,48.6 205.3,48.6 205.1,48.6 	"/>
	<polyline class="st1" points="205.1,48.6 204.9,48.6 204.8,48.6 204.8,48.6 	"/>
	<polyline class="st1" points="201.1,48.6 201.1,48.6 201,48.6 200.9,48.6 200.6,48.6 200.4,48.6 200.2,48.6 	"/>
	<polyline class="st1" points="200.2,48.6 200,48.6 199.9,48.6 199.8,48.6 	"/>
	<polyline class="st1" points="209.2,48.6 209.2,48.6 209.1,48.6 209,48.6 208.8,48.6 208.5,48.6 208.3,48.6 	"/>
	<polyline class="st1" points="208.3,48.6 208.1,48.6 208,48.6 208,48.6 	"/>
	<polyline class="st1" points="204.3,48.6 204.3,48.6 204.2,48.6 204,48.6 203.8,48.6 203.6,48.6 203.3,48.6 	"/>
	<polyline class="st1" points="203.3,48.6 203.1,48.6 203,48.6 	"/>
	<polyline class="st1" points="212.4,48.6 212.4,48.6 212.3,48.6 212.1,48.6 211.9,48.6 211.7,48.6 211.4,48.6 	"/>
	<polyline class="st1" points="211.4,48.6 211.3,48.6 211.1,48.6 211.1,48.6 	"/>
	<polyline class="st1" points="207.4,48.6 207.4,48.6 207.4,48.6 207.2,48.6 207,48.6 206.7,48.6 206.5,48.6 	"/>
	<polyline class="st1" points="206.5,48.6 206.3,48.6 206.2,48.6 206.2,48.6 	"/>
	<polyline class="st1" points="210.6,48.6 210.6,48.6 210.5,48.6 210.4,48.6 210.1,48.6 209.9,48.6 209.7,48.6 	"/>
	<polyline class="st1" points="209.7,48.6 209.5,48.6 209.4,48.6 209.3,48.6 	"/>
	<line class="st1" x1="211.3" y1="227" x2="211.3" y2="227"/>
	<line class="st1" x1="235.2" y1="226.9" x2="235.2" y2="226.9"/>
	<line class="st1" x1="201.3" y1="223.3" x2="201.3" y2="223.3"/>
	<line class="st1" x1="245.2" y1="223.2" x2="245.2" y2="223.2"/>
	<line class="st1" x1="248.3" y1="227.2" x2="248.3" y2="227.2"/>
	<line class="st1" x1="282.2" y1="223.4" x2="282.2" y2="223.4"/>
	<line class="st1" x1="207.3" y1="227.2" x2="207.3" y2="227.2"/>
	<line class="st1" x1="166.4" y1="227.2" x2="166.4" y2="227.2"/>
	<line class="st1" x1="156.4" y1="223.5" x2="156.4" y2="223.4"/>
	<line class="st1" x1="200.3" y1="223.4" x2="200.3" y2="223.4"/>
	<line class="st1" x1="203.4" y1="227.4" x2="203.4" y2="227.4"/>
	<line class="st1" x1="201.6" y1="51.2" x2="201.1" y2="51.2"/>
	<line class="st1" x1="203" y1="51.2" x2="202.9" y2="51.2"/>
	<line class="st1" x1="204.8" y1="51.2" x2="204.3" y2="51.2"/>
	<line class="st1" x1="206.2" y1="51.2" x2="206.1" y2="51.2"/>
	<line class="st1" x1="208" y1="51.1" x2="207.4" y2="51.1"/>
	<line class="st1" x1="209.3" y1="51.1" x2="209.2" y2="51.1"/>
	<line class="st1" x1="211.1" y1="51.1" x2="210.6" y2="51.1"/>
	<line class="st1" x1="214.1" y1="51.1" x2="212.4" y2="51.1"/>
	<polyline class="st1" points="193.5,51.2 191.8,51.2 190.1,51.2 188.4,51.2 186.7,51.2 185.2,51.2 183.7,51.2 182.4,51.2 
		181.3,51.2 180.3,51.2 	"/>
	<line class="st1" x1="195.3" y1="51.2" x2="194.8" y2="51.2"/>
	<line class="st1" x1="196.7" y1="51.2" x2="196.5" y2="51.2"/>
	<line class="st1" x1="198.4" y1="51.2" x2="198" y2="51.2"/>
	<line class="st1" x1="199.8" y1="51.2" x2="199.7" y2="51.2"/>
	<line class="st1" x1="180.3" y1="51.2" x2="175.8" y2="51.1"/>
	<line class="st1" x1="175.8" y1="51.5" x2="175.8" y2="51.4"/>
	<line class="st1" x1="175.6" y1="62.6" x2="175.8" y2="62.8"/>
	<line class="st1" x1="266.7" y1="62.5" x2="267.5" y2="62.9"/>
	<line class="st1" x1="215" y1="51.1" x2="214.1" y2="51.1"/>
	<line class="st1" x1="214.6" y1="51.4" x2="214.7" y2="51.3"/>
	<line class="st1" x1="214.7" y1="62.8" x2="214.6" y2="51.4"/>
	<line class="st1" x1="175.8" y1="51.4" x2="175.8" y2="51.1"/>
	<polyline class="st1" points="272.3,51.1 272.2,51.1 272,51.1 271.6,51.1 271,51.1 270.2,51.1 269.2,51.1 268,51.1 266.7,51 
		265.1,51 263.3,51 261.4,51 259.3,51 257.1,51 254.7,51 252.2,51 249.5,51 246.8,51 243.9,51 240.9,51 237.9,51 234.8,51 231.6,51 
		228.4,51 225.1,51 221.8,51 218.5,51 215.2,51 	"/>
	<polyline class="st1" points="175.8,51.1 173.9,51.2 172.3,51.2 170.8,51.2 169.5,51.2 168.4,51.3 167.5,51.3 166.8,51.3 
		166.3,51.3 166,51.3 165.8,51.3 	"/>
	<line class="st1" x1="215.2" y1="51" x2="214.7" y2="51.3"/>
	<line class="st1" x1="214.7" y1="51.3" x2="214.9" y2="51.4"/>
	<line class="st1" x1="175.6" y1="51.6" x2="175.8" y2="51.4"/>
	<polyline class="st1" points="265,62.5 265.8,62.3 266.7,62.5 	"/>
	<polyline class="st1" points="272.7,62.6 272.7,62.6 272.4,62.6 272,62.6 271.3,62.6 270.4,62.5 269.4,62.5 268.1,62.5 266.7,62.5 
			"/>
	<polyline class="st1" points="175.6,62.6 173.6,62.6 171.9,62.6 170.3,62.7 169,62.7 167.8,62.7 166.9,62.7 166.2,62.7 165.7,62.7 
		165.5,62.8 165.4,62.8 	"/>
	<line class="st1" x1="175.6" y1="62.6" x2="175.6" y2="51.6"/>
	<polyline class="st1" points="272.7,51.6 272.7,51.6 272.5,51.6 272.1,51.6 271.4,51.5 270.6,51.5 269.6,51.5 268.4,51.5 267,51.5 
		265.4,51.5 263.6,51.5 261.7,51.5 259.6,51.5 257.3,51.5 254.9,51.4 252.3,51.4 249.7,51.4 246.9,51.4 243.9,51.4 240.9,51.4 
		237.8,51.4 234.7,51.4 231.5,51.4 228.2,51.4 224.9,51.4 221.6,51.4 218.2,51.4 214.9,51.4 	"/>
	<polyline class="st1" points="175.6,51.6 173.7,51.6 172,51.6 170.5,51.6 169.2,51.7 168,51.7 167.1,51.7 166.4,51.7 165.8,51.7 
		165.5,51.7 165.4,51.8 	"/>
	<line class="st1" x1="214.9" y1="51.4" x2="214.9" y2="62.5"/>
	<line class="st1" x1="214.7" y1="62.9" x2="214.7" y2="62.9"/>
	<line class="st1" x1="263.1" y1="62.9" x2="265" y2="62.5"/>
	<polyline class="st1" points="265,62.5 263.1,62.5 261,62.5 258.7,62.5 256.3,62.5 253.7,62.5 251,62.5 248.1,62.4 245.1,62.4 
		242,62.4 238.8,62.4 235.5,62.4 232.2,62.4 228.8,62.4 225.4,62.4 221.9,62.4 218.4,62.5 214.9,62.5 	"/>
	<line class="st1" x1="214.9" y1="62.5" x2="214.7" y2="62.8"/>
	<line class="st1" x1="214.7" y1="62.8" x2="214.7" y2="62.9"/>
	<polyline class="st1" points="266.8,63.1 267.2,63.1 268.5,63.1 269.6,63.1 270.6,63.1 271.3,63.1 271.8,63.1 272.2,63 272.3,63 
		272.2,63 271.9,63 271.4,63 270.7,63 269.9,63 268.8,63 267.5,62.9 	"/>
	<polyline class="st1" points="267.5,62.9 267.4,63 267.1,63 266.6,63 265.9,63 265,63 264,63 262.9,63 261.6,63 260.3,63 259,63 
		257.6,63 256.2,63 254.9,63 253.7,63 252.6,63 251.6,63 250.7,63 250.1,63 249.6,63 249.3,63 249.2,63 249.3,63 249.7,63 250.2,63 
		250.9,62.9 251.7,62.9 252.8,62.9 253.9,62.9 255.1,62.9 256.5,62.9 257.8,62.9 259.2,62.9 260.5,62.9 261.9,62.9 263.1,62.9 	"/>
	<polyline class="st1" points="263.1,62.9 261.1,62.9 259,62.9 256.8,62.9 254.4,62.9 251.8,62.9 249.2,62.9 246.4,62.9 243.5,62.9 
		240.5,62.9 237.5,62.9 234.3,62.9 231.1,62.9 227.9,62.9 224.6,62.9 221.3,62.9 218,62.9 214.7,62.9 	"/>
	<polyline class="st1" points="214.7,62.9 214.8,62.9 214.8,62.9 214.8,62.9 214.7,62.9 214.6,62.9 214.5,62.9 214.3,62.9 
		214.2,62.9 	"/>
	<polyline class="st1" points="214.2,62.9 210.8,62.9 207.5,62.9 204.3,62.9 201.1,62.9 198,62.9 195,62.9 192.1,63 189.3,63 
		186.6,63 184,63 181.6,63 179.3,63 177.3,63 	"/>
	<polyline class="st1" points="177.3,63 177.1,63 177,63 176.8,63 176.6,63 176.5,63 176.3,63 176.2,63 176.1,63 	"/>
	<polyline class="st1" points="176.1,63 174.2,63.1 172.5,63.1 171,63.1 169.7,63.1 168.5,63.1 167.6,63.1 166.9,63.1 166.3,63.2 
		166,63.2 165.9,63.2 166,63.2 166.2,63.2 166.7,63.2 167.4,63.2 168.3,63.3 169.4,63.3 170.6,63.3 	"/>
	<polyline class="st1" points="170.6,63.3 170.7,63.3 171,63.3 171.4,63.3 	"/>
	<line class="st1" x1="265.4" y1="63.1" x2="265.8" y2="63.1"/>
	<polyline class="st1" points="265.8,63.1 266.2,63.1 266.5,63.1 266.7,63.1 266.8,63.1 	"/>
	<line class="st1" x1="266" y1="161.5" x2="266.2" y2="161.5"/>
	<line class="st1" x1="229.6" y1="62.9" x2="265.4" y2="63.1"/>
	<polyline class="st1" points="231.2,161.2 230.9,161.2 230.7,161 230.4,160.8 230.2,160.4 230,159.9 229.9,159.5 229.8,158.9 
		229.8,158.4 	"/>
	<line class="st1" x1="266" y1="161.5" x2="264.6" y2="161.5"/>
	<line class="st1" x1="264.6" y1="161.5" x2="231.2" y2="161.2"/>
	<line class="st1" x1="231.2" y1="161.2" x2="229.8" y2="161.2"/>
	<polyline class="st1" points="235.3,168.3 234.2,168 233.2,167.5 232.2,166.9 231.4,166 230.7,164.9 230.2,163.8 229.9,162.5 
		229.8,161.2 	"/>
	<polyline class="st1" points="224.1,62.9 225,62.9 225.8,62.9 226.6,62.9 227.3,62.9 228,62.9 228.6,62.9 229.2,62.9 229.6,62.9 	
		"/>
	<line class="st1" x1="229.6" y1="161.2" x2="229.8" y2="161.2"/>
	<line class="st1" x1="229.8" y1="161.2" x2="229.8" y2="158.4"/>
	<line class="st1" x1="229.8" y1="158.4" x2="229.6" y2="62.9"/>
	<line class="st1" x1="271.5" y1="168.5" x2="235.3" y2="168.3"/>
	<line class="st1" x1="235.3" y1="168.3" x2="234.9" y2="168.3"/>
	<polyline class="st1" points="271.9,168.6 273,168.8 274,169.3 275,170 275.8,170.9 276.5,171.9 277,173.1 277.3,174.3 
		277.4,175.6 	"/>
	<line class="st1" x1="271.9" y1="168.6" x2="271.5" y2="168.5"/>
	<line class="st1" x1="277.4" y1="175.6" x2="277.4" y2="179.9"/>
	<line class="st1" x1="240.4" y1="175.4" x2="277.4" y2="175.6"/>
	<polyline class="st1" points="193.5,62.9 196.7,62.9 199.9,62.9 203.2,62.9 206.6,62.9 210,62.9 213.6,62.9 217.1,62.9 220.6,62.9 
		224.1,62.9 	"/>
	<line class="st1" x1="223.7" y1="161.2" x2="224.2" y2="161.2"/>
	<line class="st1" x1="224.2" y1="161.2" x2="224.1" y2="62.9"/>
	<line class="st1" x1="193.6" y1="161.2" x2="193.5" y2="62.9"/>
	<polyline class="st1" points="229.6,161.2 229.7,162.5 229.9,163.8 230.4,164.9 231.1,166 231.9,166.9 232.8,167.5 233.8,168 
		234.9,168.3 	"/>
	<polyline class="st1" points="224.2,161.2 225.8,161.2 227.2,161.2 228.5,161.2 229.6,161.2 	"/>
	<polyline class="st1" points="224.2,161.2 224.3,162.5 224.3,163.8 224.3,165 224.4,166 224.5,166.9 224.6,167.6 224.8,168 
		224.9,168.2 	"/>
	<polyline class="st1" points="193.6,161.2 196.7,161.2 199.9,161.2 203.2,161.2 206.5,161.2 209.9,161.2 213.3,161.2 216.8,161.2 
		220.2,161.2 223.7,161.2 	"/>
	<polyline class="st1" points="190.4,168.3 191.1,168.1 191.7,167.7 192.2,167 192.7,166.1 193.1,165 193.4,163.8 193.6,162.5 
		193.6,161.2 	"/>
	<polyline class="st1" points="223.7,161.2 223.7,162.5 223.7,163.8 223.8,165 223.9,166 223.9,166.9 224,167.6 224.1,168 
		224.3,168.2 	"/>
	<polyline class="st1" points="234.9,168.3 233.8,168.3 232.7,168.3 232.2,168.3 231.6,168.3 231.1,168.3 230.6,168.3 229.2,168.3 
		227.8,168.2 224.9,168.2 	"/>
	<line class="st1" x1="224.9" y1="168.2" x2="224.3" y2="168.2"/>
	<polyline class="st1" points="234.9,168.3 236,168.6 237,169.1 238,169.8 238.8,170.6 239.5,171.7 240,172.8 240.3,174.1 
		240.4,175.4 	"/>
	<line class="st1" x1="240.4" y1="179.7" x2="240.4" y2="175.4"/>
	<polyline class="st1" points="240.4,175.4 239.2,175.4 237.9,175.4 236.4,175.4 234.7,175.4 233,175.4 231,175.4 229,175.4 
		227,175.4 224.9,175.4 	"/>
	<polyline class="st1" points="224.9,175.4 224.8,174 224.8,172.7 224.8,171.6 224.7,170.5 224.6,169.6 224.5,168.9 224.4,168.5 
		224.3,168.2 	"/>
	<polyline class="st1" points="224.3,168.2 220.8,168.2 217.2,168.3 213.7,168.3 210.2,168.3 206.8,168.3 203.4,168.3 200,168.3 
		196.7,168.3 193.5,168.3 190.4,168.3 	"/>
	<polyline class="st1" points="187.2,175.4 187.2,174.1 187.4,172.8 187.7,171.6 188.1,170.6 188.6,169.7 189.2,169 189.8,168.6 
		190.4,168.3 	"/>
	<line class="st1" x1="224.9" y1="175.4" x2="224.9" y2="179.7"/>
	<polyline class="st1" points="224.9,175.4 220.9,175.4 217,175.4 213.1,175.4 209.2,175.4 205.4,175.4 201.6,175.4 197.9,175.4 
		194.2,175.4 190.6,175.4 187.2,175.4 	"/>
	<line class="st1" x1="187.2" y1="179.8" x2="187.2" y2="175.4"/>
	<polyline class="st1" points="277.4,179.9 278.4,179.9 279.1,179.9 279.6,179.9 279.9,179.9 279.9,180 	"/>
	<line class="st1" x1="240.4" y1="179.7" x2="277.4" y2="179.9"/>
	<polyline class="st1" points="224.9,179.7 227,179.7 229,179.7 231,179.7 233,179.7 234.7,179.7 236.4,179.7 237.9,179.7 
		239.2,179.7 240.4,179.7 	"/>
	<polyline class="st1" points="187.2,179.8 190.6,179.7 194.2,179.7 197.9,179.7 201.6,179.7 205.4,179.7 209.3,179.7 213.1,179.7 
		217,179.7 220.9,179.7 224.9,179.7 	"/>
	<polyline class="st1" points="171.4,63.1 171.4,63.1 171.5,63.1 171.8,63.1 172.1,63.1 	"/>
	<line class="st1" x1="166.5" y1="168.5" x2="166.3" y2="168.5"/>
	<polyline class="st1" points="183,141.2 182.9,140.7 182.7,140.2 182.2,139.8 181.8,139.7 181.3,139.7 180.8,140 180.5,140.4 
		180.3,141 180.3,141.5 180.5,142.1 180.8,142.5 181.3,142.7 181.8,142.8 182.2,142.6 182.7,142.3 182.9,141.8 183,141.2 	"/>
	<polyline class="st1" points="183,152.7 182.9,152.1 182.7,151.6 182.3,151.3 181.8,151.1 181.3,151.2 180.8,151.4 180.5,151.9 
		180.3,152.4 180.3,153 180.5,153.5 180.8,153.9 181.3,154.2 181.8,154.2 182.3,154.1 182.7,153.7 182.9,153.2 183,152.7 	"/>
	<line class="st1" x1="179.7" y1="137.6" x2="183.1" y2="137.6"/>
	<line class="st1" x1="178.1" y1="136.9" x2="179.7" y2="137.6"/>
	<polyline class="st1" points="179.7,137.6 180.1,137.6 180.5,137.6 180.9,137.6 181.3,137.6 181.7,137.6 182.2,137.6 182.6,137.6 
		183,137.6 	"/>
	<polyline class="st1" points="183.1,156.2 182.6,156.2 182.2,156.2 181.8,156.2 181.4,156.2 181,156.2 180.6,156.2 180.2,156.2 
		179.8,156.2 	"/>
	<line class="st1" x1="179.8" y1="156.2" x2="178.1" y2="156.9"/>
	<line class="st1" x1="183.8" y1="137.6" x2="183" y2="137.6"/>
	<line class="st1" x1="184" y1="154.8" x2="184" y2="139"/>
	<line class="st1" x1="182.5" y1="136.9" x2="183" y2="137.6"/>
	<polyline class="st1" points="183,137.6 183.4,137.7 183.7,137.9 183.9,138.3 184,138.8 184,139 	"/>
	<line class="st1" x1="184" y1="139" x2="184.1" y2="139"/>
	<line class="st1" x1="184.2" y1="154.8" x2="184" y2="154.8"/>
	<polyline class="st1" points="184,154.8 184,155.3 183.8,155.7 183.6,156 183.3,156.1 183.1,156.2 	"/>
	<line class="st1" x1="182.5" y1="156.9" x2="183.1" y2="156.2"/>
	<polyline class="st1" points="178.1,136.9 178.6,136.9 179.1,136.9 179.6,136.9 180.2,136.9 180.8,136.9 181.3,136.9 181.9,136.9 
		182.5,136.9 	"/>
	<polyline class="st1" points="182.5,136.9 183.1,137 183.6,137.4 183.9,138 184.1,138.7 184.1,139 	"/>
	<line class="st1" x1="184.1" y1="139" x2="184.2" y2="154.8"/>
	<polyline class="st1" points="184.2,154.8 184.1,155.4 183.8,156 183.5,156.5 183,156.8 182.5,156.9 	"/>
	<polyline class="st1" points="182.5,156.9 181.9,156.9 181.4,156.9 180.8,156.9 180.2,156.9 179.7,156.9 179.1,156.9 178.6,156.9 
		178.1,156.9 	"/>
	<line class="st1" x1="178.1" y1="156.9" x2="178.1" y2="136.9"/>
	<line class="st1" x1="172.2" y1="161.4" x2="172.5" y2="161.4"/>
	<polyline class="st1" points="172.1,63.1 173.7,63.1 175.6,63 177.6,63 179.9,63 182.3,63 184.9,63 187.6,63 190.5,63 193.5,62.9 	
		"/>
	<polyline class="st1" points="172.5,161.4 174.1,161.3 176,161.3 178,161.3 180.2,161.3 182.6,161.3 185.1,161.3 187.8,161.3 
		190.7,161.2 193.6,161.2 	"/>
	<polyline class="st1" points="190.4,168.3 187.4,168.3 184.5,168.4 181.7,168.4 179.1,168.4 176.6,168.4 174.3,168.4 172.1,168.4 
		170,168.5 168.2,168.5 166.5,168.5 	"/>
	<polyline class="st1" points="166.5,168.5 165.3,168.7 164.2,169.2 163.2,169.8 162.3,170.7 161.6,171.8 161,173 160.7,174.3 
		160.6,175.6 	"/>
	<polyline class="st1" points="187.2,175.4 183.8,175.5 180.6,175.5 177.5,175.5 174.6,175.5 171.8,175.5 169.2,175.5 166.7,175.6 
		164.5,175.6 162.4,175.6 160.6,175.6 	"/>
	<line class="st1" x1="160.6" y1="175.6" x2="160.6" y2="179.9"/>
	<polyline class="st1" points="160.6,179.9 162.4,179.9 164.5,179.9 166.7,179.9 169.2,179.8 171.8,179.8 174.6,179.8 177.5,179.8 
		180.6,179.8 183.8,179.8 187.2,179.8 	"/>
	<polyline class="st1" points="158.5,180 158.5,180 158.7,179.9 159.1,179.9 159.7,179.9 160.6,179.9 	"/>
	<polyline class="st1" points="190.4,168.3 189.8,168.6 189.2,169 188.6,169.7 188.1,170.6 187.7,171.6 187.4,172.8 187.2,174.1 
		187.2,175.4 	"/>
	<line class="st1" x1="187.2" y1="175.4" x2="187.2" y2="179.8"/>
	<line class="st1" x1="193.5" y1="62.9" x2="193.6" y2="161.2"/>
	<polyline class="st1" points="193.6,161.2 193.6,162.5 193.4,163.8 193.1,165 192.7,166.1 192.2,167 191.7,167.7 191.1,168.1 
		190.4,168.3 	"/>
	<polyline class="st1" points="203.1,204.4 203.1,204.4 203.2,204.4 203.5,204.4 204,204.4 204.8,204.4 205.7,204.4 206.8,204.4 
		207.1,204.4 	"/>
	<polyline class="st1" points="277.4,197.1 278.4,197.1 279.1,197.1 279.6,197.1 279.9,197.1 280,197.1 	"/>
	<polyline class="st1" points="247.9,204.3 247.9,204.3 248.1,204.3 248.4,204.3 248.9,204.2 249.7,204.2 250.6,204.2 251.6,204.2 
		252.9,204.2 254.2,204.2 255.7,204.2 257.2,204.2 258.8,204.2 260.4,204.2 262,204.2 263.6,204.2 265.1,204.2 266.5,204.2 
		267.8,204.2 269,204.2 270.1,204.2 271,204.2 271.6,204.2 272.2,204.2 272.5,204.2 272.5,204.2 	"/>
	<polyline class="st1" points="207,204.2 207,204.2 207.1,204.2 207.4,204.2 208,204.2 208.7,204.2 209.6,204.2 210.7,204.2 
		211,204.2 	"/>
	<polyline class="st1" points="158.6,197.1 158.6,197.1 158.7,197.1 159.1,197.1 159.8,197.1 160.6,197.1 	"/>
	<polyline class="st1" points="166,204.2 166,204.2 166.1,204.2 166.5,204.2 167,204.2 167.7,204.2 168.6,204.2 169.7,204.2 
		170.9,204.2 172.3,204.2 173.7,204.1 175.3,204.1 176.8,204.1 178.5,204.1 180.1,204.1 181.6,204.1 183.2,204.1 184.6,204.1 
		185.9,204.1 187.1,204.1 188.1,204.1 189,204.1 189.7,204.2 190.2,204.2 190.5,204.2 190.6,204.2 	"/>
	<line class="st1" x1="240.4" y1="196.8" x2="277.4" y2="197.1"/>
	<line class="st1" x1="277.4" y1="197.1" x2="277.4" y2="200.6"/>
	<polyline class="st1" points="277.4,200.6 277.4,201.1 277.3,201.5 277.1,201.8 276.9,202.2 276.6,202.4 276.3,202.6 275.9,202.8 
		275.6,202.8 	"/>
	<line class="st1" x1="240.4" y1="200.4" x2="277.4" y2="200.6"/>
	<polyline class="st1" points="210.9,204 210.9,204 211,204 211.4,204 211.9,204 212.6,204 213.5,204 214.6,204 215.8,204 
		217.2,204 218.6,204 220.2,204 221.8,204 223.3,204 225,204 226.5,204 228,204 229.5,204 230.8,204 232,204 233.1,204 233.9,204 
		234.6,204 235.1,204 235.4,204 235.5,204 	"/>
	<polyline class="st1" points="224.9,196.8 227,196.8 229.1,196.8 231.1,196.8 233,196.8 234.8,196.8 236.4,196.8 237.9,196.8 
		239.3,196.8 240.4,196.8 	"/>
	<line class="st1" x1="240.4" y1="200.4" x2="240.4" y2="196.8"/>
	<polyline class="st1" points="238.5,202.6 238.9,202.5 239.3,202.4 239.6,202.2 239.9,201.9 240.1,201.6 240.3,201.2 240.4,200.8 
		240.4,200.4 	"/>
	<polyline class="st1" points="224.9,200.4 227,200.4 229.1,200.4 231.1,200.4 233,200.4 234.8,200.4 236.4,200.4 237.9,200.4 
		239.3,200.4 240.4,200.4 	"/>
	<polyline class="st1" points="160.6,197.1 162.4,197.1 164.3,197 166.4,197 168.7,197 171.2,197 173.8,197 176.5,197 179.4,196.9 
		182.4,196.9 185.6,196.9 188.8,196.9 192.2,196.9 195.6,196.9 199.1,196.9 202.7,196.9 206.3,196.8 210,196.8 213.7,196.8 
		217.4,196.8 221.2,196.8 224.9,196.8 	"/>
	<line class="st1" x1="224.9" y1="196.8" x2="224.9" y2="200.4"/>
	<line class="st1" x1="160.6" y1="197.1" x2="160.6" y2="200.6"/>
	<polyline class="st1" points="187.4,202.6 188.2,202.6 189.1,202.6 	"/>
	<polyline class="st1" points="224.9,200.4 224.9,200.8 224.9,201.2 224.9,201.6 224.8,201.9 224.8,202.2 224.8,202.4 224.8,202.5 
		224.7,202.5 	"/>
	<polyline class="st1" points="160.6,200.6 162.4,200.6 164.3,200.6 166.4,200.6 168.7,200.6 171.2,200.6 173.8,200.5 176.5,200.5 
		179.4,200.5 182.4,200.5 185.6,200.5 188.9,200.5 192.2,200.5 195.6,200.4 199.1,200.4 202.7,200.4 206.3,200.4 210,200.4 
		213.7,200.4 217.4,200.4 221.2,200.4 224.9,200.4 	"/>
	<polyline class="st1" points="160.6,200.6 160.7,201.1 160.8,201.5 161,201.8 161.2,202.2 161.5,202.4 161.8,202.6 162.2,202.7 
		162.5,202.8 	"/>
	<polyline class="st1" points="166,202.8 166,202.8 166.1,202.8 166.5,202.8 167,202.8 167.7,202.8 168.6,202.8 169.7,202.8 
		170.9,202.8 172.3,202.8 173.7,202.8 175.3,202.8 176.8,202.8 178.5,202.7 180.1,202.7 181.6,202.7 183.2,202.7 184.6,202.7 
		185.9,202.7 187.1,202.8 188.1,202.8 189,202.8 189.7,202.8 190.2,202.8 190.5,202.8 190.6,202.8 	"/>
	<polyline class="st1" points="203,203.1 203,203.1 203.2,203 203.5,203 204,203 204.8,203 205.7,203 206.7,203 207,203 	"/>
	<polyline class="st1" points="247.9,202.9 247.9,202.9 248.1,202.9 248.4,202.9 248.9,202.9 249.7,202.8 250.6,202.8 251.6,202.8 
		252.9,202.8 254.2,202.8 255.7,202.8 257.2,202.8 258.8,202.8 260.4,202.8 262,202.8 263.6,202.8 265.1,202.8 266.5,202.8 
		267.8,202.8 269,202.8 270.1,202.8 271,202.8 271.6,202.8 272.2,202.8 272.5,202.8 272.5,202.8 	"/>
	<polyline class="st1" points="210.9,202.6 210.9,202.6 211,202.6 211.4,202.6 211.9,202.6 212.6,202.6 213.5,202.6 214.6,202.6 
		215.8,202.6 217.2,202.6 218.6,202.6 220.2,202.6 221.8,202.6 223.3,202.6 225,202.6 226.5,202.6 228,202.6 229.5,202.6 
		230.8,202.6 232,202.6 233.1,202.6 233.9,202.6 234.6,202.6 235.1,202.6 235.4,202.6 235.5,202.6 	"/>
	<polyline class="st1" points="207,202.8 207,202.8 207.1,202.8 207.4,202.8 208,202.8 208.7,202.8 209.6,202.8 210.7,202.8 
		210.9,202.8 	"/>
	<polyline class="st1" points="247.9,203 245.3,203 241.1,203.1 	"/>
	<polyline class="st1" points="247.9,203 247.5,203 246.5,203 245.6,203 244.7,203 244.1,203 243.6,203 243.3,203 243.2,203 
		243.3,203 243.6,203 244.1,203 244.8,203 245.6,203 246.5,203 247.5,203 247.9,203 	"/>
	<polyline class="st1" points="276,202.9 272.6,202.9 272.5,202.9 	"/>
	<polyline class="st1" points="275.6,202.8 276.5,202.8 277.2,202.8 277.6,202.8 277.8,202.8 	"/>
	<line class="st1" x1="258.8" y1="202.7" x2="275.6" y2="202.8"/>
	<polyline class="st1" points="258.8,202.7 258.4,202.7 257.8,202.7 257,202.7 256.2,202.7 255.2,202.7 254.2,202.7 253.2,202.7 
		252.2,202.7 251.3,202.7 250.6,202.7 250,202.7 249.6,202.7 249.4,202.7 249.4,202.7 249.7,202.7 250.1,202.7 250.7,202.7 
		251.5,202.7 252.3,202.7 253.3,202.7 254.3,202.7 255.4,202.7 	"/>
	<line class="st1" x1="238.5" y1="202.6" x2="255.4" y2="202.7"/>
	<polyline class="st1" points="224.7,202.5 226.8,202.5 228.8,202.5 230.8,202.5 232.7,202.5 234.5,202.6 236.1,202.6 237.4,202.6 
		238.5,202.6 	"/>
	<polyline class="st1" points="204.3,202.6 211,202.6 217.8,202.6 224.7,202.5 	"/>
	<polyline class="st1" points="204.3,202.6 205.1,202.6 205.7,202.6 206.2,202.6 206.5,202.6 206.6,202.6 206.5,202.6 206.2,202.6 
		205.6,202.6 205,202.6 204.1,202.6 203.2,202.6 202.2,202.6 201.2,202.6 200.2,202.6 199.3,202.6 198.5,202.6 197.9,202.6 
		197.4,202.6 197.1,202.6 197,202.6 197.1,202.6 197.5,202.6 	"/>
	<polyline class="st1" points="189.1,202.6 193.2,202.6 197.5,202.6 	"/>
	<polyline class="st1" points="189.1,202.6 190.1,202.6 191.1,202.6 192.1,202.6 193,202.6 193.8,202.6 194.5,202.6 195,202.6 
		195.3,202.6 195.4,202.6 195.3,202.6 194.9,202.7 194.4,202.7 193.7,202.7 192.9,202.7 192,202.7 191,202.7 190,202.7 189,202.7 
		188.1,202.7 187.3,202.7 186.6,202.7 186.1,202.7 185.9,202.7 185.8,202.7 185.9,202.7 186.2,202.6 186.8,202.6 187.4,202.6 	"/>
	<polyline class="st1" points="179.9,202.7 183.6,202.7 187.4,202.6 	"/>
	<polyline class="st1" points="179.9,202.7 180.9,202.7 181.8,202.7 182.6,202.7 183.3,202.7 183.7,202.7 184.1,202.7 184.2,202.7 
		184,202.7 183.7,202.7 183.2,202.7 182.5,202.7 181.7,202.7 180.8,202.7 179.8,202.7 178.8,202.7 177.8,202.7 176.9,202.7 
		176.1,202.7 175.4,202.7 174.9,202.7 174.6,202.7 174.6,202.7 	"/>
	<polyline class="st1" points="162.5,202.8 166,202.8 170,202.7 174.6,202.7 	"/>
	<polyline class="st1" points="163,202.9 162,202.9 161.4,202.8 160.9,202.8 160.7,202.8 160.8,202.8 161.1,202.8 161.7,202.8 
		162.5,202.8 	"/>
	<line class="st1" x1="166" y1="202.9" x2="163" y2="202.9"/>
	<line class="st1" x1="200" y1="203.1" x2="190.6" y2="203"/>
	<polyline class="st1" points="203,203.1 202.5,203.1 201.1,203.1 200,203.1 	"/>
	<polyline class="st1" points="235.5,203 236.3,203 237.3,203 238.3,203 239.2,203 240,203 240.7,203 241.2,203 241.5,203 
		241.6,203.1 241.4,203.1 241.1,203.1 	"/>
	<line class="st1" x1="214.7" y1="51.3" x2="214.5" y2="51.3"/>
	<line class="st1" x1="215.1" y1="62.9" x2="214.5" y2="62.9"/>
	<line class="st1" x1="175.8" y1="63" x2="176.4" y2="63"/>
	<polyline class="st1" points="176.4,63 178.4,63 180.6,63 182.9,63 185.3,63 187.9,63 190.6,63 193.4,62.9 196.3,62.9 199.2,62.9 
		202.3,62.9 205.5,62.9 208.6,62.9 211.9,62.9 215.1,62.9 	"/>
	<line class="st1" x1="214.5" y1="62.9" x2="214.5" y2="51.3"/>
	<polyline class="st1" points="214.5,51.3 211,51.3 207.5,51.3 204.1,51.3 200.8,51.3 197.5,51.3 194.4,51.4 191.3,51.4 188.3,51.4 
		185.5,51.4 182.9,51.4 180.3,51.4 178,51.4 175.8,51.5 	"/>
	<line class="st1" x1="175.8" y1="51.5" x2="175.8" y2="63"/>
	<polyline class="st1" points="175.8,63 178,63 180.4,63 182.9,63 185.5,63 188.4,63 191.3,63 194.4,62.9 197.5,62.9 200.8,62.9 
		204.1,62.9 207.5,62.9 211,62.9 214.5,62.9 	"/>
	<line class="st1" x1="177.2" y1="155.7" x2="176.9" y2="155.7"/>
	<line class="st1" x1="178.1" y1="155.7" x2="176.9" y2="155.7"/>
	<line class="st1" x1="181.7" y1="151.1" x2="181.7" y2="154.2"/>
	<line class="st1" x1="176.9" y1="148.3" x2="178.1" y2="148.3"/>
	<line class="st1" x1="176.9" y1="155.7" x2="176.9" y2="148.3"/>
	<line class="st1" x1="247.5" y1="203" x2="247.5" y2="203"/>
	<polyline class="st1" points="247.9,203 247.3,203 246.4,203 245.6,203 244.9,203 244.4,203 244.1,203 244,203 244.1,203 
		244.4,203 244.9,203 245.6,203 246.4,203 247.3,203 247.9,203 	"/>
	<line class="st1" x1="246.4" y1="203" x2="247.5" y2="203"/>
	<line class="st1" x1="246.8" y1="203" x2="246.4" y2="203"/>
	<line class="st1" x1="247.9" y1="203" x2="246.8" y2="203"/>
	<line class="st1" x1="247.5" y1="203" x2="247.9" y2="203"/>
	<polyline class="st1" points="277.4,179.9 278.4,179.9 279.1,179.9 279.6,179.9 279.9,179.9 279.9,180 	"/>
	<polyline class="st1" points="158.5,180 158.5,180 158.7,179.9 159.1,179.9 159.7,179.9 160.6,179.9 	"/>
	<line class="st1" x1="240.4" y1="179.7" x2="277.4" y2="179.9"/>
	<line class="st1" x1="277.4" y1="179.9" x2="277.4" y2="197.1"/>
	<polyline class="st1" points="224.9,179.7 227,179.7 229,179.7 231,179.7 233,179.7 234.7,179.7 236.4,179.7 237.9,179.7 
		239.2,179.7 240.4,179.7 	"/>
	<line class="st1" x1="240.4" y1="179.7" x2="240.4" y2="196.8"/>
	<polyline class="st1" points="160.6,179.9 162.3,179.9 164.3,179.9 166.4,179.9 168.7,179.8 171.1,179.8 173.7,179.8 176.5,179.8 
		179.4,179.8 182.4,179.8 185.6,179.8 188.8,179.7 192.2,179.7 195.6,179.7 199.1,179.7 202.7,179.7 206.3,179.7 210,179.7 
		213.7,179.7 217.4,179.7 221.1,179.7 224.9,179.7 	"/>
	<line class="st1" x1="224.9" y1="196.8" x2="224.9" y2="179.7"/>
	<line class="st1" x1="160.6" y1="179.9" x2="160.6" y2="197.1"/>
	<polyline class="st1" points="160.6,197.1 162.4,197.1 164.3,197 166.4,197 168.7,197 171.2,197 173.8,197 176.5,197 179.4,196.9 
		182.4,196.9 185.6,196.9 188.8,196.9 192.2,196.9 195.6,196.9 199.1,196.9 202.7,196.9 206.3,196.8 210,196.8 213.7,196.8 
		217.4,196.8 221.2,196.8 224.9,196.8 	"/>
	<polyline class="st1" points="158.6,197.1 158.6,197.1 158.7,197.1 159.1,197.1 159.8,197.1 160.6,197.1 	"/>
	<polyline class="st1" points="277.4,197.1 278.4,197.1 279.1,197.1 279.6,197.1 279.9,197.1 280,197.1 	"/>
	<line class="st1" x1="240.4" y1="196.8" x2="277.4" y2="197.1"/>
	<polyline class="st1" points="224.9,196.8 227,196.8 229.1,196.8 231.1,196.8 233,196.8 234.8,196.8 236.4,196.8 237.9,196.8 
		239.3,196.8 240.4,196.8 	"/>
	<polyline class="st1" points="197.2,44.1 197.3,44.1 197.6,44.1 198.1,44.1 198.8,44.1 199.7,44.1 200.7,44.1 202,44.1 203.4,44 
		204.9,44 206.6,44 208.4,44 	"/>
	<polyline class="st1" points="208.4,44 210.2,44 212.2,44 214.3,44 216.3,44 218.4,44 220.5,44 222.6,44 224.7,44 226.7,44 
		228.6,44 230.5,44 232.2,44 233.8,44 235.3,44 236.6,44 237.8,44 238.8,44 239.6,44 240.2,44 240.6,44 240.8,44 240.8,44.1 	"/>
	<polyline class="st1" points="241.6,44.8 241.6,44.8 241.4,44.7 241,44.7 240.4,44.7 239.6,44.7 238.7,44.7 	"/>
	<polyline class="st1" points="238.7,44.7 237.5,44.7 236.2,44.7 234.8,44.7 233.2,44.7 231.4,44.7 229.6,44.7 227.7,44.7 
		225.6,44.7 223.6,44.7 221.4,44.7 219.3,44.7 217.2,44.7 215,44.7 212.9,44.7 210.9,44.7 209,44.7 207.1,44.7 205.3,44.7 
		203.7,44.7 202.2,44.8 200.8,44.8 199.7,44.8 198.7,44.8 197.8,44.8 197.2,44.8 196.8,44.8 196.5,44.8 196.5,44.8 	"/>
	<polyline class="st1" points="233.5,51.1 234.6,51.1 235.9,51.1 236.9,51.1 237.5,51.1 237.9,51.1 238.1,51.1 237.9,51.1 237.3,51 
		236.5,51 235.4,51 234.1,51 232.7,51 	"/>
	<polyline class="st1" points="232.7,51 231.3,51 229.6,51 228,51 226.3,51 224.9,51.1 223.6,51.1 222.7,51.1 222,51.1 221.6,51.1 	
		"/>
	<polyline class="st1" points="237.4,204.8 237.3,204.8 237.1,204.7 236.7,204.7 236.1,204.7 235.3,204.7 234.3,204.7 233.2,204.7 
		231.9,204.7 230.5,204.7 229,204.7 227.4,204.7 225.7,204.7 224,204.7 222.3,204.7 220.6,204.7 218.9,204.7 217.3,204.7 
		215.8,204.7 	"/>
	<polyline class="st1" points="215.8,204.7 214.4,204.7 213.1,204.7 212,204.8 211.1,204.8 210.3,204.8 209.7,204.8 209.3,204.8 
		209.1,204.8 209,204.8 	"/>
	<polyline class="st1" points="209.1,220.2 209.1,220.2 209.3,220.2 209.7,220.2 210.3,220.2 211.1,220.2 212,220.2 213.2,220.2 
		214.4,220.2 215.8,220.2 	"/>
	<polyline class="st1" points="215.8,220.2 217.4,220.2 219,220.2 220.6,220.2 222.3,220.1 224,220.1 225.7,220.1 227.4,220.1 
		229,220.1 230.5,220.1 231.9,220.1 233.2,220.2 234.3,220.2 235.3,220.2 236.1,220.2 236.7,220.2 237.1,220.2 237.4,220.2 
		237.4,220.2 	"/>
	<polyline class="st1" points="211.3,227 211.6,226.9 212.1,226.9 212.7,226.9 213.6,226.9 214.6,226.9 215.7,226.9 217,226.9 	"/>
	<line class="st1" x1="211.3" y1="227" x2="211.3" y2="227"/>
	<line class="st1" x1="235.2" y1="226.9" x2="235.2" y2="226.9"/>
	<polyline class="st1" points="217,226.9 218.4,226.9 219.9,226.9 221.4,226.9 222.9,226.9 224.5,226.9 226.1,226.9 227.6,226.9 
		229,226.9 230.3,226.9 231.5,226.9 232.6,226.9 233.5,226.9 234.2,226.9 234.7,226.9 235.1,226.9 235.2,226.9 	"/>
	<polyline class="st1" points="234.3,232 236.1,232 237.7,232 239.1,232 240.5,232 241.6,232 242.6,231.9 243.4,231.9 243.9,231.9 
		244.4,231.9 244.5,231.9 244.5,231.9 244.3,231.9 243.9,231.9 243.2,231.9 242.4,231.9 241.4,231.9 240.3,231.8 238.9,231.8 
		237.4,231.8 235.8,231.8 234.1,231.8 232.2,231.8 230.3,231.8 228.3,231.8 226.2,231.8 224.1,231.8 222,231.8 220,231.8 
		217.9,231.8 215.9,231.9 214,231.9 212.1,231.9 210.4,231.9 208.8,231.9 207.3,231.9 206,231.9 204.9,231.9 203.9,231.9 
		203.1,231.9 202.5,231.9 202.1,231.9 201.9,232 202,232 202.2,232 202.6,232 203.2,232 204,232 205.1,232 206.2,232 207.5,232 
		209,232 210.7,232 212.4,232 214.3,232 216.2,232 218.2,232 220.3,232 222.4,232 224.4,232 226.5,232 228.6,232 230.6,232 
		232.5,232 234.3,232 	"/>
	<polyline class="st1" points="235.2,227.5 235.2,227.5 235.1,227.5 234.7,227.5 234.2,227.5 233.5,227.5 232.5,227.4 231.5,227.4 
		230.3,227.4 229,227.4 227.6,227.4 226.1,227.4 224.5,227.4 222.9,227.4 221.4,227.4 219.9,227.4 218.4,227.5 217,227.5 	"/>
	<polyline class="st1" points="217,227.5 215.7,227.5 214.6,227.5 213.6,227.5 212.7,227.5 212.1,227.5 211.6,227.5 211.3,227.5 
		211.3,227.5 	"/>
	<polyline class="st1" points="201.3,223.3 201.3,223.3 201.5,223.3 201.9,223.2 202.6,223.2 203.4,223.2 204.4,223.2 205.6,223.2 
		206.9,223.2 208.4,223.2 210,223.2 211.8,223.2 	"/>
	<line class="st1" x1="201.3" y1="223.3" x2="201.3" y2="223.3"/>
	<line class="st1" x1="245.2" y1="223.2" x2="245.2" y2="223.2"/>
	<polyline class="st1" points="211.8,223.2 213.7,223.2 215.6,223.2 217.6,223.2 219.7,223.2 221.8,223.1 223.9,223.1 226.1,223.1 
		228.1,223.1 230.2,223.1 232.2,223.1 234.1,223.1 235.9,223.1 237.5,223.1 239.1,223.2 240.5,223.2 241.7,223.2 242.8,223.2 
		243.6,223.2 244.3,223.2 244.8,223.2 245.1,223.2 245.2,223.2 	"/>
	<polyline class="st1" points="242,222.6 243,222.6 243.8,222.6 244.5,222.7 244.9,222.7 245.1,222.7 245.2,222.7 	"/>
	<polyline class="st1" points="211.8,231.9 213.7,231.9 215.6,231.9 217.6,231.8 219.7,231.8 221.8,231.8 223.9,231.8 226.1,231.8 
		228.2,231.8 230.2,231.8 232.2,231.8 234.1,231.8 235.9,231.8 237.6,231.8 239.1,231.8 240.5,231.8 241.8,231.9 242.8,231.9 
		243.7,231.9 244.4,231.9 244.9,231.9 245.2,231.9 245.3,231.9 245.1,231.9 244.8,231.9 244.3,231.9 243.6,231.9 242.7,231.9 
		241.6,232 240.3,232 238.9,232 237.3,232 235.6,232 233.8,232 231.9,232 229.9,232 227.8,232 225.7,232 223.6,232 221.5,232 
		219.4,232 217.3,232 215.3,232 213.3,232 211.5,232 209.7,232 208.1,232 206.6,232 205.3,232 204.2,232 203.2,232 202.4,232 
		201.8,232 201.4,232 201.2,232 201.5,231.9 201.9,231.9 202.5,231.9 203.3,231.9 204.3,231.9 205.5,231.9 206.9,231.9 208.4,231.9 
		210,231.9 211.8,231.9 	"/>
	<polyline class="st1" points="201.2,231.7 201.3,231.7 201.6,231.7 202.1,231.7 202.9,231.7 203.8,231.6 204.9,231.6 206.1,231.6 
		207.6,231.6 209.1,231.6 210.9,231.6 212.7,231.6 214.6,231.6 216.6,231.6 218.6,231.6 220.8,231.6 222.9,231.6 225,231.6 
		227.1,231.6 229.2,231.6 231.2,231.6 233.2,231.6 235,231.6 236.8,231.6 238.4,231.6 239.9,231.6 241.2,231.6 242.4,231.6 
		243.3,231.6 244.1,231.6 244.7,231.6 245.1,231.6 245.3,231.6 245.3,231.6 	"/>
	<polyline class="st1" points="274.4,205 274.4,205 274.2,205 273.9,205 273.3,205 272.6,205 271.7,205 270.6,205 269.3,205 
		268,204.9 266.5,204.9 264.9,204.9 263.2,204.9 261.6,204.9 259.8,205 258.2,205 256.5,205 254.8,205 253.3,205 	"/>
	<polyline class="st1" points="253.3,205 251.9,205 250.6,205 249.4,205 248.4,205 247.5,205 246.9,205 246.4,205 246.1,205 
		246.1,205 	"/>
	<polyline class="st1" points="246.1,220.5 246.2,220.5 246.4,220.5 246.9,220.4 247.5,220.4 248.4,220.4 249.4,220.4 250.6,220.4 
		251.9,220.4 253.3,220.4 	"/>
	<polyline class="st1" points="253.3,220.4 254.9,220.4 256.5,220.4 258.2,220.4 259.9,220.4 261.6,220.4 263.3,220.4 264.9,220.4 
		266.5,220.4 268,220.4 269.4,220.4 270.6,220.4 271.7,220.4 272.6,220.4 273.4,220.4 273.9,220.4 274.3,220.4 274.4,220.4 	"/>
	<polyline class="st1" points="248.3,227.2 248.4,227.2 248.7,227.2 249.2,227.2 250,227.2 250.9,227.2 251.9,227.2 253.1,227.2 
		254.4,227.2 	"/>
	<line class="st1" x1="248.3" y1="227.2" x2="248.3" y2="227.2"/>
	<polyline class="st1" points="254.4,227.2 255.8,227.2 257.3,227.2 258.9,227.2 260.4,227.1 262,227.1 263.5,227.1 265,227.1 
		266.4,227.1 267.7,227.1 268.8,227.2 269.9,227.2 270.7,227.2 271.4,227.2 271.9,227.2 272.2,227.2 272.3,227.2 	"/>
	<polyline class="st1" points="270.7,232.2 272.5,232.2 274.1,232.2 275.7,232.2 277,232.2 278.2,232.2 279.3,232.2 280.1,232.2 
		280.8,232.2 281.3,232.2 281.5,232.1 281.6,232.1 281.4,232.1 281.1,232.1 280.6,232.1 279.8,232.1 278.9,232.1 277.8,232.1 
		276.5,232.1 275,232.1 273.5,232.1 271.7,232.1 269.9,232.1 268,232.1 266,232.1 264,232.1 261.9,232.1 259.8,232.1 257.7,232.1 
		255.7,232.1 253.7,232.1 251.7,232.1 249.9,232.1 248.1,232.1 246.4,232.1 244.9,232.1 243.5,232.1 242.3,232.1 241.3,232.2 
		240.4,232.2 239.8,232.2 239.3,232.2 239,232.2 239,232.2 239.1,232.2 239.5,232.2 240,232.2 240.8,232.2 241.7,232.2 242.8,232.2 
		244.1,232.3 245.5,232.3 247.1,232.3 248.8,232.3 250.6,232.3 252.5,232.3 254.5,232.3 256.6,232.3 258.6,232.3 260.7,232.3 
		262.8,232.3 264.9,232.3 266.9,232.2 268.8,232.2 270.7,232.2 	"/>
	<polyline class="st1" points="272.3,227.7 272.2,227.7 271.9,227.7 271.4,227.7 270.7,227.7 269.9,227.7 268.8,227.7 267.7,227.7 
		266.4,227.7 265,227.7 263.5,227.7 262,227.7 260.4,227.7 258.9,227.7 257.3,227.7 255.8,227.7 254.4,227.7 	"/>
	<polyline class="st1" points="254.4,227.7 253.1,227.7 251.9,227.7 250.9,227.7 250,227.7 249.3,227.7 248.7,227.7 248.4,227.7 
		248.3,227.7 	"/>
	<polyline class="st1" points="244.6,223.4 246,223.4 247.7,223.4 249.5,223.4 	"/>
	<line class="st1" x1="282.2" y1="223.4" x2="282.2" y2="223.4"/>
	<polyline class="st1" points="249.5,223.4 251.4,223.4 253.4,223.4 255.5,223.4 257.5,223.4 259.6,223.4 261.8,223.4 263.9,223.4 
		265.9,223.4 268,223.4 269.9,223.4 271.8,223.4 273.5,223.4 275.2,223.4 276.6,223.4 278,223.4 279.2,223.4 280.1,223.4 281,223.4 
		281.6,223.4 282,223.4 282.2,223.4 282.2,223.4 	"/>
	<polyline class="st1" points="279.4,222.9 280.4,222.9 281.1,222.9 281.7,222.9 282,222.9 282.2,222.9 	"/>
	<polyline class="st1" points="249.5,232.1 251.4,232.1 253.4,232.1 255.5,232.1 257.5,232.1 259.7,232.1 261.8,232.1 263.9,232.1 
		266,232.1 268,232.1 270,232.1 271.8,232.1 273.6,232.1 275.2,232.1 276.7,232.1 278.1,232.1 279.2,232.1 280.2,232.1 281,232.1 
		281.6,232.1 282.1,232.1 282.3,232.1 282.3,232.1 282.1,232.1 281.7,232.2 281.1,232.2 280.3,232.2 279.3,232.2 278.2,232.2 
		276.8,232.2 275.4,232.2 273.7,232.2 272,232.2 270.1,232.2 268.2,232.2 266.1,232.3 264.1,232.3 262,232.3 259.8,232.3 
		257.7,232.3 255.6,232.3 253.6,232.3 251.6,232.3 249.7,232.3 247.8,232.3 246.1,232.3 244.6,232.3 243.2,232.3 241.9,232.2 
		240.8,232.2 239.9,232.2 239.2,232.2 238.7,232.2 238.4,232.2 238.2,232.2 238.3,232.2 238.7,232.2 239.2,232.2 239.9,232.2 
		240.7,232.2 241.8,232.1 243.1,232.1 244.5,232.1 246,232.1 247.7,232.1 249.5,232.1 	"/>
	<polyline class="st1" points="245.4,231.8 246.8,231.8 248.6,231.8 250.4,231.8 252.4,231.8 254.4,231.8 256.5,231.8 258.6,231.8 
		260.7,231.8 262.8,231.8 265,231.8 267,231.8 269,231.8 270.9,231.8 272.8,231.8 274.4,231.8 276,231.8 277.4,231.8 278.7,231.8 
		279.8,231.8 280.7,231.8 281.4,231.8 281.9,231.8 282.2,231.9 282.4,231.9 	"/>
	<polyline class="st1" points="209,205 208.4,205 207.4,205 206.6,205 205.9,205 205.4,205 205.2,205 205.1,205 	"/>
	<polyline class="st1" points="205.1,220.4 205.2,220.4 205.5,220.4 205.9,220.4 206.6,220.4 207.4,220.4 208.4,220.4 208.6,220.4 	
		"/>
	<polyline class="st1" points="207.3,227.2 207.4,227.2 207.8,227.2 208.3,227.2 209,227.2 209.9,227.2 210.9,227.1 211.3,227.1 	
		"/>
	<line class="st1" x1="207.3" y1="227.2" x2="207.3" y2="227.2"/>
	<polyline class="st1" points="229.7,232.2 231.5,232.2 233.2,232.2 234.7,232.2 236.1,232.2 237.3,232.2 238.3,232.2 239.2,232.1 
		239.8,232.1 240.3,232.1 240.6,232.1 240.6,232.1 240.5,232.1 240.1,232.1 239.6,232.1 238.8,232.1 237.9,232.1 236.8,232.1 
		235.5,232.1 234.1,232 232.5,232 230.8,232 229,232 227.1,232 225.1,232 223,232 221,232 218.9,232 216.8,232 214.7,232.1 
		212.7,232.1 210.8,232.1 208.9,232.1 207.1,232.1 205.5,232.1 203.9,232.1 202.6,232.1 201.3,232.1 200.3,232.1 199.5,232.1 
		198.8,232.1 198.3,232.2 198.1,232.2 198,232.2 198.1,232.2 198.5,232.2 199,232.2 199.8,232.2 200.7,232.2 201.8,232.2 
		203.1,232.2 204.5,232.2 206.1,232.2 207.9,232.2 209.7,232.2 211.6,232.2 213.6,232.2 215.6,232.2 217.7,232.2 219.8,232.2 
		221.9,232.2 223.9,232.2 225.9,232.2 227.9,232.2 229.7,232.2 	"/>
	<polyline class="st1" points="210.9,227.7 209.9,227.7 209,227.7 208.3,227.7 207.8,227.7 207.4,227.7 207.3,227.7 	"/>
	<polyline class="st1" points="200.2,223.4 200.9,223.4 201.6,223.4 	"/>
	<line class="st1" x1="200.4" y1="222.9" x2="201.1" y2="222.9"/>
	<polyline class="st1" points="208.5,232.1 210.4,232.1 212.4,232.1 214.5,232 216.6,232 218.7,232 220.8,232 222.9,232 225,232 
		227,232 229,232 230.9,232 232.6,232 234.2,232 235.8,232 237.1,232.1 238.2,232.1 239.3,232.1 240.1,232.1 240.7,232.1 
		241.1,232.1 241.3,232.1 241.3,232.1 241.1,232.1 240.7,232.1 240.1,232.1 239.3,232.1 238.3,232.2 237.2,232.2 235.9,232.2 
		234.4,232.2 232.7,232.2 231,232.2 229.1,232.2 227.2,232.2 225.2,232.2 223.1,232.2 221,232.2 218.9,232.2 216.8,232.2 
		214.6,232.2 212.6,232.2 210.6,232.2 208.7,232.2 206.9,232.2 205.2,232.2 203.6,232.2 202.2,232.2 200.9,232.2 199.9,232.2 
		198.9,232.2 198.2,232.2 197.7,232.2 197.4,232.2 197.3,232.2 197.4,232.2 197.7,232.2 198.2,232.1 198.9,232.1 199.8,232.1 
		200.8,232.1 202.1,232.1 203.5,232.1 205.1,232.1 206.7,232.1 208.5,232.1 	"/>
	<line class="st1" x1="200.4" y1="231.8" x2="201.1" y2="231.8"/>
	<line class="st1" x1="177.2" y1="144.2" x2="176.9" y2="144.2"/>
	<line class="st1" x1="178.1" y1="144.2" x2="176.9" y2="144.2"/>
	<line class="st1" x1="181.6" y1="139.7" x2="181.6" y2="142.8"/>
	<line class="st1" x1="176.9" y1="136.9" x2="178" y2="136.8"/>
	<line class="st1" x1="176.9" y1="144.2" x2="176.9" y2="136.9"/>
	<polyline class="st1" points="192.5,204.9 192.5,204.9 192.3,204.9 192,204.9 191.4,204.9 190.6,204.9 189.7,204.9 188.6,204.9 
		187.4,204.9 186,204.9 184.5,204.9 183,204.9 181.3,204.9 179.6,204.9 177.9,204.9 176.2,204.9 174.5,204.9 172.9,204.9 
		171.4,204.9 	"/>
	<polyline class="st1" points="171.4,204.9 169.9,204.9 168.6,204.9 167.4,204.9 166.4,204.9 165.6,204.9 164.9,205 164.5,205 
		164.2,205 164.1,205 	"/>
	<polyline class="st1" points="164.2,220.4 164.2,220.4 164.5,220.4 164.9,220.4 165.6,220.4 166.5,220.4 167.5,220.4 168.6,220.4 
		170,220.3 171.4,220.3 	"/>
	<polyline class="st1" points="171.4,220.3 172.9,220.3 174.6,220.3 176.2,220.3 177.9,220.3 179.6,220.3 181.3,220.3 183,220.3 
		184.5,220.3 186,220.3 187.4,220.3 188.7,220.3 189.8,220.3 190.7,220.3 191.4,220.3 192,220.3 192.3,220.4 192.5,220.4 	"/>
	<polyline class="st1" points="166.4,227.2 166.5,227.2 166.8,227.1 167.3,227.1 168,227.1 168.9,227.1 170,227.1 171.1,227.1 
		172.5,227.1 	"/>
	<line class="st1" x1="166.4" y1="227.2" x2="166.4" y2="227.2"/>
	<polyline class="st1" points="172.5,227.1 173.9,227.1 175.4,227.1 176.9,227.1 178.5,227.1 180.1,227.1 181.6,227.1 183.1,227.1 
		184.5,227.1 185.8,227.1 186.9,227.1 187.9,227.1 188.8,227.1 189.5,227.1 190,227.1 190.2,227.1 190.3,227.1 	"/>
	<polyline class="st1" points="188.8,232.2 190.5,232.2 192.2,232.2 193.7,232.1 195.1,232.1 196.3,232.1 197.4,232.1 198.2,232.1 
		198.9,232.1 199.3,232.1 199.6,232.1 199.7,232.1 199.5,232.1 199.1,232.1 198.6,232 197.9,232 196.9,232 195.8,232 194.5,232 
		193.1,232 191.5,232 189.8,232 188,232 186.1,232 184.1,232 182.1,232 180,232 177.9,232 175.8,232 173.7,232 171.7,232 169.8,232 
		167.9,232 166.2,232 164.5,232.1 163,232.1 161.6,232.1 160.4,232.1 159.3,232.1 158.5,232.1 157.8,232.1 157.3,232.1 157.1,232.1 
		157,232.1 157.2,232.1 157.5,232.2 158.1,232.2 158.8,232.2 159.8,232.2 160.9,232.2 162.1,232.2 163.6,232.2 165.2,232.2 
		166.9,232.2 168.7,232.2 170.6,232.2 172.6,232.2 174.6,232.2 176.7,232.2 178.8,232.2 180.9,232.2 182.9,232.2 184.9,232.2 
		186.9,232.2 188.8,232.2 	"/>
	<polyline class="st1" points="190.3,227.7 190.2,227.6 189.9,227.6 189.5,227.6 188.8,227.6 187.9,227.6 186.9,227.6 185.8,227.6 
		184.4,227.6 183.1,227.6 181.6,227.6 180.1,227.6 178.5,227.6 176.9,227.6 175.4,227.6 173.9,227.6 172.5,227.6 	"/>
	<polyline class="st1" points="172.5,227.6 171.2,227.6 170,227.6 168.9,227.7 168,227.7 167.3,227.7 166.8,227.7 166.5,227.7 
		166.4,227.7 	"/>
	<polyline class="st1" points="156.4,223.4 156.5,223.4 156.8,223.4 157.2,223.4 158,223.4 158.8,223.4 159.9,223.4 161.2,223.4 
		162.5,223.4 164.1,223.4 165.8,223.4 167.6,223.3 	"/>
	<line class="st1" x1="156.4" y1="223.5" x2="156.4" y2="223.5"/>
	<line class="st1" x1="200.3" y1="223.4" x2="200.3" y2="223.4"/>
	<polyline class="st1" points="167.6,223.3 169.5,223.3 171.4,223.3 173.5,223.3 175.6,223.3 177.7,223.3 179.8,223.3 181.9,223.3 
		184,223.3 186,223.3 188,223.3 189.8,223.3 191.6,223.3 193.2,223.3 194.7,223.3 196,223.3 197.2,223.3 198.2,223.3 199,223.4 
		199.7,223.4 200.1,223.4 200.3,223.4 200.3,223.4 	"/>
	<polyline class="st1" points="197.5,222.8 198.4,222.8 199.2,222.8 199.8,222.8 200.1,222.8 200.3,222.8 200.3,222.9 	"/>
	<polyline class="st1" points="167.6,232 169.5,232 171.4,232 173.5,232 175.6,232 177.7,232 179.9,232 182,232 184,232 186.1,232 
		188,232 189.9,232 191.7,232 193.3,232 194.8,232 196.1,232 197.3,232 198.3,232 199.1,232 199.7,232.1 200.1,232.1 200.3,232.1 
		200.4,232.1 200.2,232.1 199.8,232.1 199.1,232.1 198.4,232.1 197.4,232.1 196.2,232.1 194.9,232.1 193.4,232.2 191.8,232.2 
		190,232.2 188.2,232.2 186.2,232.2 184.2,232.2 182.1,232.2 180,232.2 177.9,232.2 175.8,232.2 173.7,232.2 171.6,232.2 
		169.6,232.2 167.7,232.2 165.9,232.2 164.2,232.2 162.6,232.2 161.2,232.2 160,232.2 158.9,232.2 158,232.2 157.3,232.2 
		156.7,232.2 156.4,232.1 156.3,232.1 156.4,232.1 156.7,232.1 157.2,232.1 157.9,232.1 158.8,232.1 159.9,232.1 161.1,232.1 
		162.5,232.1 164.1,232.1 165.8,232 167.6,232 	"/>
	<polyline class="st1" points="156.3,231.9 156.3,231.9 156.5,231.9 156.9,231.8 157.5,231.8 158.3,231.8 159.3,231.8 160.4,231.8 
		161.8,231.8 163.3,231.8 164.9,231.8 166.6,231.8 168.5,231.8 170.4,231.8 172.5,231.7 174.6,231.7 176.6,231.7 178.8,231.7 
		180.9,231.7 183,231.7 185.1,231.7 187.1,231.7 189,231.7 190.8,231.7 192.5,231.7 194.1,231.7 195.5,231.7 196.8,231.8 
		197.9,231.8 198.8,231.8 199.5,231.8 200,231.8 200.3,231.8 200.4,231.8 	"/>
	<polyline class="st1" points="205.1,205.2 204.5,205.2 203.5,205.2 202.6,205.2 202,205.2 201.5,205.2 201.2,205.2 201.2,205.2 	
		"/>
	<polyline class="st1" points="201.2,220.6 201.3,220.6 201.5,220.6 202,220.6 202.7,220.6 203.5,220.6 204.5,220.6 204.6,220.6 	
		"/>
	<polyline class="st1" points="203.4,227.4 203.5,227.4 203.8,227.4 204.4,227.4 205.1,227.4 206,227.4 207,227.4 207.4,227.3 	"/>
	<line class="st1" x1="203.4" y1="227.4" x2="203.4" y2="227.4"/>
	<polyline class="st1" points="206.9,227.9 206,227.9 205.1,227.9 204.4,227.9 203.8,227.9 203.5,227.9 203.4,227.9 	"/>
	<line class="st1" x1="272.3" y1="63" x2="272.7" y2="62.6"/>
	<line class="st1" x1="165.4" y1="62.8" x2="165.9" y2="63.2"/>
	<line class="st1" x1="165.8" y1="51.3" x2="165.4" y2="51.7"/>
	<line class="st1" x1="272.7" y1="51.6" x2="272.3" y2="51.1"/>
	<line class="st1" x1="272.7" y1="62.6" x2="272.7" y2="51.6"/>
	<line class="st1" x1="165.4" y1="51.8" x2="165.4" y2="62.8"/>
	<line class="st1" x1="266.9" y1="161.5" x2="266.8" y2="63.1"/>
	<polyline class="st1" points="273.4,168.6 272.3,168.3 271.2,168 270.1,167.4 269,166.5 268.1,165.4 267.5,164.2 267,162.8 
		266.9,161.4 	"/>
	<polyline class="st1" points="279.9,175.7 279.9,175.5 279.8,174.3 279.5,173.3 279.1,172.3 278.6,171.5 278,170.8 277.3,170.2 
		276.6,169.7 276,169.3 275.3,169 274.6,168.8 274.1,168.6 273.7,168.6 273.4,168.6 	"/>
	<line class="st1" x1="279.9" y1="180" x2="279.9" y2="175.7"/>
	<line class="st1" x1="171.4" y1="63.1" x2="171.5" y2="161.4"/>
	<polyline class="st1" points="171.5,161.4 171.4,162.4 171.2,163.4 170.8,164.5 170.1,165.7 169.1,166.7 167.9,167.6 166.5,168.2 
		165.1,168.5 	"/>
	<line class="st1" x1="158.5" y1="175.7" x2="158.5" y2="180"/>
	<polyline class="st1" points="165.1,168.5 165,168.5 164.6,168.6 164.2,168.7 163.6,168.8 162.7,169.2 161.8,169.6 161.1,170.2 
		160.4,170.9 159.7,171.7 159.2,172.6 158.8,173.6 158.6,174.7 158.5,175.6 	"/>
	<line class="st1" x1="203" y1="203.1" x2="203.1" y2="204.4"/>
	<line class="st1" x1="203.1" y1="204.4" x2="203.5" y2="205.2"/>
	<line class="st1" x1="280" y1="200.7" x2="280" y2="197.1"/>
	<polyline class="st1" points="276.1,202.9 276.3,202.9 276.8,202.9 277.2,202.9 277.5,202.9 277.7,202.8 277.8,202.8 278,202.8 
		278.1,202.8 278.2,202.8 278.4,202.8 278.6,202.7 278.9,202.6 279.3,202.2 279.7,201.7 279.9,201.2 279.9,200.7 	"/>
	<line class="st1" x1="247.9" y1="202.9" x2="247.9" y2="204.3"/>
	<line class="st1" x1="272.5" y1="204.2" x2="272.5" y2="202.8"/>
	<line class="st1" x1="272.1" y1="205" x2="272.5" y2="204.2"/>
	<line class="st1" x1="247.9" y1="204.3" x2="248.4" y2="205"/>
	<line class="st1" x1="207" y1="202.8" x2="207" y2="204.2"/>
	<line class="st1" x1="207" y1="204.2" x2="207.4" y2="205"/>
	<line class="st1" x1="158.6" y1="197.1" x2="158.6" y2="200.7"/>
	<polyline class="st1" points="158.6,200.7 158.6,200.8 158.7,201.4 159,202 159.5,202.4 159.9,202.7 160.2,202.8 160.4,202.8 
		160.5,202.8 160.6,202.8 160.8,202.8 161.2,202.8 161.6,202.9 162.1,202.9 162.7,202.9 162.9,202.9 	"/>
	<line class="st1" x1="166" y1="202.8" x2="166" y2="204.2"/>
	<line class="st1" x1="190.6" y1="204.2" x2="190.6" y2="202.8"/>
	<line class="st1" x1="190.2" y1="204.9" x2="190.6" y2="204.2"/>
	<line class="st1" x1="166" y1="204.2" x2="166.4" y2="204.9"/>
	<line class="st1" x1="210.9" y1="202.6" x2="210.9" y2="204"/>
	<line class="st1" x1="235.5" y1="204" x2="235.5" y2="202.6"/>
	<line class="st1" x1="235.1" y1="204.7" x2="235.5" y2="204"/>
	<line class="st1" x1="210.9" y1="204" x2="211.3" y2="204.8"/>
	<line class="st1" x1="244" y1="203" x2="244" y2="203"/>
	<line class="st1" x1="280" y1="197.1" x2="279.9" y2="180"/>
	<line class="st1" x1="158.5" y1="180" x2="158.6" y2="197.1"/>
	<line class="st1" x1="197.2" y1="44.1" x2="196.5" y2="44.8"/>
	<line class="st1" x1="241.6" y1="44.8" x2="240.8" y2="44.1"/>
	<line class="st1" x1="196.5" y1="44.8" x2="196.5" y2="48.5"/>
	<line class="st1" x1="241.6" y1="51" x2="241.6" y2="44.8"/>
	<polyline class="st1" points="196.5,48.7 196.5,48.4 196.4,48.2 196.2,48.1 195.9,48 195.7,48.1 195.5,48.2 195.3,48.4 195.3,48.7 
			"/>
	<line class="st1" x1="196.5" y1="51.3" x2="196.5" y2="48.7"/>
	<line class="st1" x1="195.3" y1="48.7" x2="195.3" y2="51.4"/>
	<polyline class="st1" points="199.7,48.7 199.7,48.4 199.5,48.2 199.3,48 199.1,48 198.8,48.1 198.6,48.2 198.5,48.4 198.4,48.7 	
		"/>
	<line class="st1" x1="199.7" y1="51.3" x2="199.7" y2="48.7"/>
	<line class="st1" x1="198.4" y1="48.7" x2="198.4" y2="51.3"/>
	<polyline class="st1" points="194.8,48.7 194.7,48.4 194.6,48.2 194.4,48.1 194.1,48 193.9,48.1 193.7,48.2 193.5,48.4 193.5,48.7 
			"/>
	<line class="st1" x1="194.8" y1="51.4" x2="194.8" y2="48.7"/>
	<line class="st1" x1="193.5" y1="48.7" x2="193.5" y2="51.4"/>
	<polyline class="st1" points="202.9,48.7 202.8,48.4 202.7,48.2 202.5,48 202.3,48 202,48 201.8,48.2 201.6,48.4 201.6,48.7 	"/>
	<line class="st1" x1="202.9" y1="51.3" x2="202.9" y2="48.7"/>
	<line class="st1" x1="201.6" y1="48.7" x2="201.6" y2="51.3"/>
	<polyline class="st1" points="197.9,48.7 197.9,48.4 197.8,48.2 197.6,48 197.3,48 197.1,48 196.9,48.2 196.7,48.4 196.7,48.7 	"/>
	<line class="st1" x1="198" y1="51.3" x2="197.9" y2="48.7"/>
	<line class="st1" x1="196.7" y1="48.7" x2="196.7" y2="51.3"/>
	<polyline class="st1" points="206.1,48.6 206,48.4 205.9,48.2 205.7,48 205.4,48 205.2,48 205,48.2 204.8,48.4 204.8,48.6 	"/>
	<line class="st1" x1="206.1" y1="51.3" x2="206.1" y2="48.6"/>
	<line class="st1" x1="204.8" y1="48.6" x2="204.8" y2="51.3"/>
	<polyline class="st1" points="201.1,48.6 201.1,48.4 200.9,48.2 200.7,48 200.5,48 200.2,48 200,48.2 199.9,48.4 199.8,48.6 	"/>
	<line class="st1" x1="201.1" y1="51.3" x2="201.1" y2="48.6"/>
	<line class="st1" x1="199.8" y1="48.6" x2="199.8" y2="51.3"/>
	<polyline class="st1" points="209.2,48.6 209.2,48.4 209,48.2 208.8,48 208.6,48 208.3,48 208.1,48.2 208,48.4 208,48.6 	"/>
	<line class="st1" x1="209.2" y1="51.3" x2="209.2" y2="48.6"/>
	<line class="st1" x1="208" y1="48.6" x2="208" y2="51.3"/>
	<polyline class="st1" points="204.3,48.6 204.2,48.4 204.1,48.2 203.9,48 203.6,48 203.4,48 203.2,48.2 203,48.4 203,48.6 	"/>
	<line class="st1" x1="204.3" y1="51.3" x2="204.3" y2="48.6"/>
	<line class="st1" x1="203" y1="48.6" x2="203" y2="51.3"/>
	<polyline class="st1" points="212.4,48.6 212.3,48.3 212.2,48.1 212,48 211.8,48 211.5,48 211.3,48.1 211.2,48.3 211.1,48.6 	"/>
	<line class="st1" x1="212.4" y1="51.3" x2="212.4" y2="48.6"/>
	<line class="st1" x1="211.1" y1="48.6" x2="211.1" y2="51.3"/>
	<polyline class="st1" points="207.4,48.6 207.4,48.3 207.3,48.1 207,48 206.8,48 206.6,48 206.4,48.1 206.2,48.3 206.2,48.6 	"/>
	<line class="st1" x1="207.4" y1="51.3" x2="207.4" y2="48.6"/>
	<line class="st1" x1="206.2" y1="48.6" x2="206.2" y2="51.3"/>
	<polyline class="st1" points="210.6,48.6 210.6,48.3 210.4,48.1 210.2,48 210,47.9 209.7,48 209.5,48.1 209.4,48.3 209.3,48.6 	"/>
	<line class="st1" x1="210.6" y1="51.3" x2="210.6" y2="48.6"/>
	<line class="st1" x1="209.3" y1="48.6" x2="209.3" y2="51.3"/>
	<polyline class="st1" points="235.1,227.3 235,227.3 235,227.2 235,227.1 	"/>
	<polyline class="st1" points="211.4,227.2 211.4,227.2 211.4,227.3 211.4,227.4 	"/>
	<line class="st1" x1="237.4" y1="220.2" x2="237.4" y2="204.8"/>
	<line class="st1" x1="209" y1="204.8" x2="209.1" y2="220.2"/>
	<line class="st1" x1="209.1" y1="220.2" x2="201.3" y2="222.7"/>
	<line class="st1" x1="245.2" y1="222.7" x2="237.4" y2="220.2"/>
	<line class="st1" x1="235.2" y1="226.9" x2="245.2" y2="223.2"/>
	<line class="st1" x1="201.3" y1="223.3" x2="211.3" y2="227"/>
	<line class="st1" x1="211.3" y1="227.5" x2="201.2" y2="231.7"/>
	<line class="st1" x1="245.3" y1="231.6" x2="235.2" y2="227.5"/>
	<polyline class="st1" points="245.3,223.1 245.4,223 245.4,222.9 245.3,222.8 245.3,222.8 	"/>
	<polyline class="st1" points="201.1,222.8 201.1,222.9 201.1,223 201.1,223.1 201.1,223.2 201.2,223.2 	"/>
	<polyline class="st1" points="245.4,231.7 245.4,231.7 245.4,231.7 	"/>
	<line class="st1" x1="201.1" y1="231.9" x2="201.1" y2="231.9"/>
	<polyline class="st1" points="272.1,227.5 272.1,227.5 272.1,227.4 272.1,227.3 	"/>
	<polyline class="st1" points="248.4,227.4 248.4,227.4 248.5,227.5 248.5,227.6 248.4,227.6 	"/>
	<line class="st1" x1="274.4" y1="220.4" x2="274.4" y2="205"/>
	<line class="st1" x1="246.1" y1="205" x2="246.1" y2="220.5"/>
	<line class="st1" x1="246.1" y1="220.5" x2="242.2" y2="221.7"/>
	<line class="st1" x1="282.2" y1="222.9" x2="274.4" y2="220.4"/>
	<line class="st1" x1="272.3" y1="227.2" x2="282.2" y2="223.4"/>
	<line class="st1" x1="241.4" y1="224.7" x2="248.3" y2="227.2"/>
	<line class="st1" x1="248.3" y1="227.7" x2="242.1" y2="230.3"/>
	<line class="st1" x1="282.4" y1="231.9" x2="272.3" y2="227.7"/>
	<polyline class="st1" points="282.4,223.4 282.4,223.3 282.4,223.2 282.4,223.1 282.4,223 282.3,223 	"/>
	<line class="st1" x1="282.4" y1="232" x2="282.4" y2="232"/>
	<polyline class="st1" points="207.5,227.3 207.5,227.3 207.5,227.4 207.5,227.6 207.5,227.6 	"/>
	<line class="st1" x1="205.1" y1="205" x2="205.1" y2="220.4"/>
	<line class="st1" x1="205.1" y1="220.4" x2="198.9" y2="222.4"/>
	<line class="st1" x1="198.7" y1="224" x2="207.3" y2="227.2"/>
	<line class="st1" x1="207.3" y1="227.7" x2="198.9" y2="231.2"/>
	<line class="st1" x1="241.5" y1="232" x2="241.5" y2="232"/>
	<polyline class="st1" points="190.2,227.5 190.1,227.4 190.2,227.3 190.2,227.3 	"/>
	<polyline class="st1" points="166.5,227.3 166.5,227.3 166.5,227.4 166.5,227.5 166.5,227.5 	"/>
	<line class="st1" x1="192.5" y1="220.4" x2="192.5" y2="204.9"/>
	<line class="st1" x1="164.1" y1="205" x2="164.2" y2="220.4"/>
	<line class="st1" x1="164.2" y1="220.4" x2="156.4" y2="222.9"/>
	<line class="st1" x1="200.3" y1="222.8" x2="192.5" y2="220.4"/>
	<line class="st1" x1="190.3" y1="227.1" x2="200.3" y2="223.4"/>
	<line class="st1" x1="156.4" y1="223.5" x2="166.4" y2="227.2"/>
	<line class="st1" x1="166.4" y1="227.7" x2="156.3" y2="231.9"/>
	<line class="st1" x1="200.4" y1="231.8" x2="190.3" y2="227.7"/>
	<polyline class="st1" points="200.4,223.3 200.5,223.2 200.5,223.1 200.5,223 200.4,222.9 200.4,222.9 	"/>
	<polyline class="st1" points="156.2,223.1 156.2,223.1 156.2,223.2 156.2,223.3 156.2,223.3 	"/>
	<line class="st1" x1="200.5" y1="232" x2="200.5" y2="231.9"/>
	<polyline class="st1" points="156.2,232 156.2,232 156.2,232.1 	"/>
	<polyline class="st1" points="203.5,227.5 203.6,227.5 203.6,227.6 203.6,227.8 	"/>
	<line class="st1" x1="201.2" y1="205.2" x2="201.2" y2="220.6"/>
	<line class="st1" x1="201.2" y1="220.6" x2="197.3" y2="221.9"/>
	<line class="st1" x1="196.4" y1="224.8" x2="203.4" y2="227.4"/>
	<line class="st1" x1="203.4" y1="227.9" x2="197.2" y2="230.5"/>
	<polyline class="st1" points="237.5,232.2 237.5,232.2 237.5,232.2 	"/>
	<line class="st1" x1="193.2" y1="232.2" x2="193.2" y2="232.3"/>
	<polyline class="st1" points="179.4,141.2 89.6,141.2 89.6,129.6 	"/>
	<polyline class="st1" points="178.9,152.7 89.6,152.7 89.6,164.7 	"/>
</g>
</svg>
