<?xml version="1.0" encoding="utf-8"?>
<!-- Generator: Adobe Illustrator 26.0.1, SVG Export Plug-In . SVG Version: 6.00 Build 0)  -->
<svg version="1.1" id="图层_1" xmlns="http://www.w3.org/2000/svg" xmlns:xlink="http://www.w3.org/1999/xlink" x="0px" y="0px"
	 viewBox="0 0 1366.4 379.2" style="enable-background:new 0 0 1366.4 379.2;" xml:space="preserve">
<style type="text/css">
	.st0{fill:none;stroke:#000000;stroke-linecap:round;stroke-linejoin:round;stroke-miterlimit:10;}
	.st1{fill:none;stroke:#000000;stroke-width:2;stroke-linecap:round;stroke-linejoin:round;stroke-miterlimit:10;}
	.st2{font-family:'SourceHanSansCN-Medium-GBpc-EUC-H';}
	.st3{font-size:48px;}
	.st4{font-size:31.1984px;}
</style>
<g>
	<line class="st0" x1="895.4" y1="202.2" x2="895.1" y2="201.1"/>
	<line class="st0" x1="895.7" y1="200.9" x2="896" y2="201.9"/>
	<line class="st0" x1="896.8" y1="201.2" x2="897" y2="201.9"/>
	<line class="st0" x1="894.9" y1="202.8" x2="894.6" y2="202"/>
	<line class="st0" x1="883.4" y1="167.7" x2="883" y2="166.4"/>
	<line class="st0" x1="883.5" y1="166.3" x2="884.1" y2="168"/>
	<line class="st0" x1="882" y1="167.8" x2="881.9" y2="167.2"/>
	<line class="st0" x1="884" y1="167" x2="884.3" y2="167.9"/>
	<line class="st0" x1="895.2" y1="139.9" x2="895" y2="138.9"/>
	<line class="st0" x1="922.2" y1="213.3" x2="922.5" y2="214.1"/>
	<line class="st0" x1="1026.2" y1="127.1" x2="1026.6" y2="128.2"/>
	<line class="st0" x1="1012.3" y1="131.3" x2="1012.7" y2="132.4"/>
	<line class="st0" x1="1198.9" y1="83.7" x2="1199.2" y2="83.5"/>
	<line class="st0" x1="990.8" y1="100.5" x2="994.5" y2="110.8"/>
	<line class="st0" x1="1020.4" y1="102.1" x2="1020.6" y2="102.6"/>
	<line class="st0" x1="1000.6" y1="108.4" x2="1000.8" y2="108.8"/>
	<line class="st0" x1="1115.5" y1="123.7" x2="1117.1" y2="128"/>
	<line class="st0" x1="1198.5" y1="87.6" x2="1198.6" y2="88"/>
	<line class="st0" x1="1169.1" y1="270" x2="1168.7" y2="269.9"/>
	<line class="st0" x1="1248.2" y1="218" x2="1248.5" y2="217.7"/>
	<line class="st0" x1="1168.1" y1="267" x2="1169.4" y2="270.5"/>
	<line class="st0" x1="1193.8" y1="86.3" x2="1193.5" y2="85.6"/>
	<line class="st0" x1="1118.3" y1="110.1" x2="1118.1" y2="109.5"/>
	<line class="st0" x1="1035.6" y1="230.8" x2="1034.8" y2="228.5"/>
	<line class="st0" x1="896" y1="309" x2="896" y2="309.3"/>
	<line class="st0" x1="1042.2" y1="263" x2="1043.6" y2="262.5"/>
	<polyline class="st0" points="908.1,320.8 908.1,321.4 908.1,321.9 908.3,322.3 908.5,322.7 908.9,323 	"/>
	<polyline class="st0" points="1038.4,279.5 1039.6,277.6 1040.6,275.8 1041.5,274.2 1042.2,272.8 1043.3,270.5 1044.1,268.3 
		1044.7,266.4 1045.3,264.2 1045.5,262.3 1045.7,260.6 1045.6,259 	"/>
	<polyline class="st0" points="943.2,89.5 943,89.1 943,88.9 	"/>
	<polyline class="st0" points="950.2,87.6 950.3,87.2 950.4,86.9 950.5,86.9 	"/>
	<polyline class="st0" points="871.1,112.3 871,111.9 870.9,111.8 870.9,111.7 	"/>
	<polyline class="st0" points="845.4,125.6 845.6,125.5 846.3,125.1 847.2,124.8 848.1,124.8 	"/>
	<polyline class="st0" points="842.3,130.6 842.3,130.5 842.5,130.1 842.9,129.8 843.3,129.5 	"/>
	<line class="st0" x1="841.2" y1="151.5" x2="841.2" y2="151.5"/>
	<polyline class="st0" points="971.9,89.1 971.7,89 971.3,89.1 970.8,89.2 	"/>
	<line class="st0" x1="932" y1="100.1" x2="932.1" y2="100.5"/>
	<line class="st0" x1="903.5" y1="109.5" x2="903.4" y2="109.1"/>
	<line class="st0" x1="887.5" y1="281.4" x2="887.5" y2="281.4"/>
	<polyline class="st0" points="989.1,103.1 989.7,103.3 990.4,103.6 991,104 991.4,104.4 991.9,104.9 992.3,105.4 992.5,106 	"/>
	<line class="st0" x1="974.5" y1="215.8" x2="974.6" y2="216.1"/>
	<line class="st0" x1="946" y1="225.2" x2="946" y2="224.9"/>
	<polyline class="st0" points="1032.4,214.3 1032.3,214 1032,213.4 1031.5,212.8 1031.1,212.4 1030.6,211.9 1030.1,211.6 
		1029.4,211.3 1028.7,211.1 	"/>
	<polyline class="st0" points="1032.8,216.6 1032.9,216.9 1032.8,218.1 1032.5,218.8 1032.1,219.6 1031.6,220.3 1030.9,221 
		1030.2,221.6 1029.4,222.2 1028.4,222.8 1027.2,223.4 1025,224.3 1021.9,225.4 	"/>
	<line class="st0" x1="896.8" y1="200.8" x2="896.6" y2="199.9"/>
	<line class="st0" x1="893.5" y1="201.1" x2="893.7" y2="201.7"/>
	<polyline class="st0" points="900.9,200.8 901.1,200.3 901,200 	"/>
	<polyline class="st0" points="890.4,203.2 890.4,203.5 890.9,203.9 	"/>
	<polyline class="st0" points="895.7,202 895.7,201.9 895.8,201.9 895.8,201.9 895.9,201.9 896,201.9 896.1,201.8 896.2,201.8 
		896.2,201.8 	"/>
	<line class="st0" x1="894.7" y1="203" x2="895.7" y2="202"/>
	<line class="st0" x1="893.7" y1="203" x2="894.7" y2="203"/>
	<line class="st0" x1="894.6" y1="202" x2="893.7" y2="203"/>
	<polyline class="st0" points="894.5,201.7 894.6,201.8 894.6,201.8 894.7,201.8 894.7,201.9 894.7,201.9 894.6,202 	"/>
	<line class="st0" x1="892.9" y1="201.7" x2="894.5" y2="201.7"/>
	<line class="st0" x1="893.5" y1="201.1" x2="892.9" y2="201.7"/>
	<line class="st0" x1="895.1" y1="201.1" x2="893.5" y2="201.1"/>
	<polyline class="st0" points="895.7,200.9 895.6,201 895.5,201 895.5,201.1 895.4,201.1 895.3,201.1 895.2,201.1 895.1,201.1 
		895.1,201.1 	"/>
	<line class="st0" x1="896.6" y1="199.9" x2="895.7" y2="200.9"/>
	<line class="st0" x1="897.6" y1="200" x2="896.6" y2="199.9"/>
	<line class="st0" x1="896.7" y1="201" x2="897.6" y2="200"/>
	<polyline class="st0" points="896.8,201.2 896.8,201.2 896.7,201.2 896.6,201.1 896.6,201.1 896.6,201 896.7,201 	"/>
	<line class="st0" x1="898.4" y1="201.3" x2="896.8" y2="201.2"/>
	<line class="st0" x1="897.9" y1="201.9" x2="898.4" y2="201.3"/>
	<line class="st0" x1="896.2" y1="201.8" x2="897.9" y2="201.9"/>
	<polyline class="st0" points="891,203.9 891,203.9 890.4,203.4 890.3,202.8 890.4,202.1 891,201.3 891.8,200.5 892.9,199.9 
		894.3,199.4 895.7,198.9 897.1,198.7 898.4,198.6 	"/>
	<polyline class="st0" points="898.4,198.6 899.5,198.8 900.4,199.1 900.9,199.6 901,200.2 900.9,200.9 	"/>
	<line class="st0" x1="882" y1="165.8" x2="882.7" y2="167.5"/>
	<line class="st0" x1="885.2" y1="166.1" x2="885.2" y2="165.4"/>
	<polyline class="st0" points="888.2,166.3 888.4,165.7 888.3,165.4 	"/>
	<polyline class="st0" points="877.7,168.7 877.8,169 878.2,169.3 	"/>
	<polyline class="st0" points="882.4,167.6 882.5,167.5 882.6,167.5 882.7,167.5 882.7,167.4 882.8,167.4 882.9,167.4 883,167.4 
		883,167.5 	"/>
	<line class="st0" x1="880.7" y1="168.4" x2="882.4" y2="167.6"/>
	<line class="st0" x1="880.2" y1="168.1" x2="880.7" y2="168.4"/>
	<line class="st0" x1="881.9" y1="167.2" x2="880.2" y2="168.1"/>
	<polyline class="st0" points="882,166.9 882,166.9 882,167 882,167.1 881.9,167.1 881.9,167.2 881.9,167.2 	"/>
	<line class="st0" x1="881" y1="166.4" x2="882" y2="166.9"/>
	<line class="st0" x1="882" y1="165.8" x2="881" y2="166.4"/>
	<line class="st0" x1="883" y1="166.4" x2="882" y2="165.8"/>
	<polyline class="st0" points="883.5,166.3 883.5,166.4 883.4,166.4 883.3,166.4 883.2,166.4 883.2,166.4 883.1,166.4 883,166.4 
		883,166.4 	"/>
	<line class="st0" x1="885.2" y1="165.4" x2="883.5" y2="166.3"/>
	<line class="st0" x1="885.7" y1="165.8" x2="885.2" y2="165.4"/>
	<line class="st0" x1="884.1" y1="166.7" x2="885.7" y2="165.8"/>
	<polyline class="st0" points="884,167 883.9,166.9 883.9,166.8 884,166.8 884.1,166.7 884.1,166.7 	"/>
	<line class="st0" x1="884.9" y1="167.5" x2="884" y2="167"/>
	<line class="st0" x1="883.9" y1="168" x2="884.9" y2="167.5"/>
	<line class="st0" x1="883" y1="167.5" x2="883.9" y2="168"/>
	<polyline class="st0" points="878.3,169.3 878.3,169.3 877.8,168.9 877.6,168.2 877.7,167.6 878.3,166.8 879.1,166 880.2,165.4 
		881.6,164.9 883,164.4 884.3,164.1 885.7,164.1 886.8,164.2 887.7,164.6 	"/>
	<polyline class="st0" points="887.7,164.6 888.2,165 888.4,165.7 888.2,166.3 	"/>
	<polyline class="st0" points="912.1,135.4 912.2,134.9 912,134.3 911.4,133.9 910.5,133.6 909.4,133.5 908.1,133.6 906.7,133.9 
		905.4,134.4 904.2,135 903.2,135.6 902.5,136.4 902.2,137.1 902.2,137.7 	"/>
	<polyline class="st0" points="902.2,137.7 902.6,138.2 902.7,138.3 	"/>
	<polyline class="st0" points="939.4,209.7 939.4,209.1 939.2,208.6 938.7,208.1 937.7,207.8 936.6,207.7 935.3,207.8 934,208.1 
		932.7,208.6 931.4,209.2 930.5,209.9 929.8,210.6 929.4,211.3 929.4,211.9 	"/>
	<polyline class="st0" points="929.4,211.9 929.9,212.5 930,212.5 	"/>
	<polyline class="st0" points="900.9,137.1 900.8,136.4 901.1,135.7 901.8,134.9 902.6,134.2 903.8,133.4 905.2,132.8 906.7,132.4 
		908.1,132.1 909.5,132 910.7,132 911.7,132.3 912.5,132.8 912.8,133.3 912.9,134 912.6,134.7 912,135.5 911.1,136.3 909.9,137 
		908.5,137.5 907.1,138.1 905.6,138.3 904.3,138.4 903,138.3 902,138.1 901.2,137.7 900.9,137.1 	"/>
	<polyline class="st0" points="928.1,211.3 928.1,210.7 928.4,210 929,209.1 930,208.4 931.1,207.7 932.5,207.1 933.9,206.6 
		935.4,206.4 936.8,206.2 938,206.3 939,206.6 939.7,207 940.2,207.5 940.2,208.3 939.9,209 939.3,209.8 938.3,210.5 937.2,211.2 
		935.8,211.9 934.4,212.3 932.9,212.6 931.5,212.7 930.2,212.6 929.3,212.4 928.6,211.9 928.1,211.3 	"/>
	<polyline class="st0" points="922.2,213.3 922.8,214.1 923.6,214.8 924.8,215.3 926.2,215.7 928,215.8 929.8,215.8 931.9,215.6 
		933.9,215.2 936,214.7 938.1,213.9 940,213 941.7,212.1 943.2,211 944.5,209.9 945.4,208.8 946,207.7 946.2,206.6 946,205.7 	"/>
	<line class="st0" x1="946" y1="205.7" x2="918.8" y2="131.4"/>
	<polyline class="st0" points="895,138.9 894.8,138 895,137 895.6,135.8 896.5,134.7 897.8,133.6 899.3,132.6 901,131.6 
		902.9,130.8 905,130 907,129.5 909.2,129 911.2,128.8 913.1,128.8 914.8,129 916.2,129.3 917.4,129.9 918.3,130.6 918.8,131.4 	"/>
	<line class="st0" x1="895" y1="138.9" x2="922.2" y2="213.3"/>
	<line class="st0" x1="1025.9" y1="129.2" x2="1026.6" y2="128.8"/>
	<line class="st0" x1="1025.9" y1="129.2" x2="1026.7" y2="130.9"/>
	<line class="st0" x1="1025.9" y1="129.2" x2="1025.1" y2="128.2"/>
	<polyline class="st0" points="1024.5,128.2 1024.6,128.1 1024.7,128.1 1024.8,128.1 1024.8,128.1 1024.9,128.1 1025,128.1 
		1025.1,128.2 1025.1,128.2 	"/>
	<line class="st0" x1="1025.1" y1="128.2" x2="1025.6" y2="129.5"/>
	<line class="st0" x1="1025" y1="129.4" x2="1024.5" y2="128.2"/>
	<line class="st0" x1="1024.5" y1="128.2" x2="1024.5" y2="128.2"/>
	<polyline class="st0" points="1026,127.4 1026,127.4 1026,127.3 	"/>
	<line class="st0" x1="1023.4" y1="129.2" x2="1023.4" y2="130.6"/>
	<polyline class="st0" points="1024,126.8 1024,126.9 1024,126.9 	"/>
	<line class="st0" x1="1027.5" y1="126.2" x2="1028.2" y2="127"/>
	<line class="st0" x1="1024.4" y1="128" x2="1024" y2="126.8"/>
	<line class="st0" x1="1024" y1="126.8" x2="1023.6" y2="126.4"/>
	<line class="st0" x1="1028.2" y1="127" x2="1026.6" y2="128.2"/>
	<polyline class="st0" points="1026.6,128.2 1026.6,128.3 1026.5,128.4 1026.5,128.4 1026.5,128.4 1026.5,128.5 1026.5,128.6 
		1026.5,128.7 1026.5,128.7 	"/>
	<line class="st0" x1="1026.5" y1="128.7" x2="1027.7" y2="130.1"/>
	<line class="st0" x1="1027.7" y1="130.1" x2="1026.7" y2="130.9"/>
	<line class="st0" x1="1026.7" y1="130.9" x2="1025.6" y2="129.5"/>
	<polyline class="st0" points="1025.6,129.5 1025.5,129.4 1025.4,129.3 1025.4,129.3 1025.3,129.3 1025.2,129.3 1025.1,129.3 
		1025.1,129.3 1025,129.4 	"/>
	<line class="st0" x1="1025" y1="129.4" x2="1023.4" y2="130.6"/>
	<line class="st0" x1="1023.4" y1="130.6" x2="1022.7" y2="129.7"/>
	<line class="st0" x1="1022.7" y1="129.7" x2="1024.3" y2="128.5"/>
	<polyline class="st0" points="1024.3,128.5 1024.3,128.5 1024.4,128.4 1024.5,128.4 1024.5,128.3 1024.5,128.2 1024.5,128.1 
		1024.5,128.1 1024.4,128 	"/>
	<line class="st0" x1="1024.4" y1="128" x2="1023.2" y2="126.6"/>
	<line class="st0" x1="1023.2" y1="126.6" x2="1024.3" y2="125.9"/>
	<line class="st0" x1="1024.3" y1="125.9" x2="1025.4" y2="127.3"/>
	<polyline class="st0" points="1025.4,127.3 1025.4,127.3 1025.5,127.4 1025.6,127.4 1025.6,127.5 1025.7,127.5 1025.8,127.4 
		1025.9,127.4 1025.9,127.3 	"/>
	<line class="st0" x1="1025.9" y1="127.3" x2="1027.6" y2="126.2"/>
	<line class="st0" x1="1027.6" y1="126.2" x2="1028.2" y2="127"/>
	<polyline class="st0" points="1020.9,131.6 1022,132.5 1023.1,133.1 1024.5,133.4 1026,133.4 1027.4,133 1028.7,132.3 
		1029.7,131.3 1030.5,130.2 1030.9,128.9 1030.9,127.6 1030.6,126.3 1030,125.1 1029,124.2 1027.8,123.7 1026.4,123.3 1025,123.4 
		1023.5,123.7 1022.3,124.5 1021.2,125.4 1020.4,126.6 1020.1,127.8 1020,129.2 1020.3,130.5 1020.9,131.6 	"/>
	<polyline class="st0" points="1020.2,130.3 1020,129.2 1020,127.8 1020.4,126.5 1021.2,125.3 1022.3,124.4 1023.5,123.7 
		1024.9,123.3 1026.4,123.3 1027.8,123.6 1029,124.2 1030,125.1 	"/>
	<polyline class="st0" points="1030,125.1 1030.6,126.2 1030.7,126.4 	"/>
	<line class="st0" x1="1012.5" y1="133.4" x2="1012.9" y2="133.1"/>
	<line class="st0" x1="1012.5" y1="133.4" x2="1013.3" y2="135"/>
	<line class="st0" x1="1012.5" y1="133.4" x2="1011.4" y2="132.5"/>
	<polyline class="st0" points="1010.9,132.6 1010.9,132.5 1011,132.5 1011,132.5 1011.1,132.5 1011.3,132.5 1011.3,132.5 
		1011.4,132.5 	"/>
	<line class="st0" x1="1011.4" y1="132.5" x2="1011.8" y2="133.8"/>
	<line class="st0" x1="1011.3" y1="133.9" x2="1010.9" y2="132.6"/>
	<line class="st0" x1="1010.9" y1="132.6" x2="1010.6" y2="132.9"/>
	<line class="st0" x1="1009.9" y1="133.7" x2="1009.9" y2="135.2"/>
	<polyline class="st0" points="1012.1,131.6 1012.1,131.6 1012.1,131.5 1012.1,131.4 	"/>
	<polyline class="st0" points="1010,131.4 1010.1,131.4 1010.1,131.5 	"/>
	<line class="st0" x1="1010.4" y1="132.5" x2="1010" y2="131.4"/>
	<line class="st0" x1="1010" y1="131.4" x2="1009.5" y2="130.9"/>
	<line class="st0" x1="1014.1" y1="131.1" x2="1012.7" y2="132.4"/>
	<polyline class="st0" points="1012.7,132.4 1012.6,132.5 1012.6,132.5 1012.6,132.6 1012.6,132.7 1012.6,132.8 1012.6,132.8 
		1012.6,132.9 1012.7,133 	"/>
	<line class="st0" x1="1012.7" y1="133" x2="1014.1" y2="134.2"/>
	<line class="st0" x1="1014.1" y1="134.2" x2="1013.3" y2="135"/>
	<line class="st0" x1="1013.3" y1="135" x2="1011.8" y2="133.8"/>
	<polyline class="st0" points="1011.8,133.8 1011.8,133.7 1011.8,133.7 1011.7,133.7 1011.6,133.7 1011.5,133.7 1011.4,133.7 
		1011.3,133.8 1011.3,133.9 	"/>
	<line class="st0" x1="1011.3" y1="133.9" x2="1009.9" y2="135.2"/>
	<line class="st0" x1="1009.9" y1="135.2" x2="1009" y2="134.5"/>
	<line class="st0" x1="1009" y1="134.5" x2="1010.4" y2="133.1"/>
	<polyline class="st0" points="1010.4,133.1 1010.5,133.1 1010.5,133 1010.6,132.9 1010.6,132.8 1010.6,132.8 1010.5,132.7 
		1010.5,132.6 1010.4,132.5 	"/>
	<line class="st0" x1="1010.4" y1="132.5" x2="1009" y2="131.4"/>
	<line class="st0" x1="1009" y1="131.4" x2="1009.9" y2="130.6"/>
	<line class="st0" x1="1009.9" y1="130.6" x2="1011.3" y2="131.7"/>
	<polyline class="st0" points="1011.3,131.7 1011.3,131.8 1011.4,131.8 1011.5,131.8 1011.5,131.8 1011.6,131.8 1011.7,131.8 
		1011.8,131.7 1011.8,131.7 	"/>
	<line class="st0" x1="1011.8" y1="131.7" x2="1013.2" y2="130.3"/>
	<line class="st0" x1="1013.2" y1="130.3" x2="1014.1" y2="131.1"/>
	<polyline class="st0" points="1007.7,136.6 1008.8,137.3 1010.2,137.8 1011.6,137.8 1013,137.5 1014.3,137 1015.5,136.1 
		1016.4,135 1016.9,133.7 1017.1,132.4 1016.9,131.1 1016.3,129.9 1015.4,128.9 1014.3,128.2 1012.9,127.8 1011.5,127.7 1010.2,128 
		1008.8,128.6 1007.7,129.5 1006.8,130.6 1006.3,131.8 1006,133.1 1006.3,134.5 1006.8,135.6 1007.7,136.6 	"/>
	<polyline class="st0" points="1006.3,134.7 1006.3,134.4 1006,133.1 1006.3,131.8 1006.8,130.6 1007.7,129.5 1008.8,128.5 
		1010.1,127.9 1011.5,127.7 1012.9,127.8 1014.3,128.1 1015.4,128.9 	"/>
	<polyline class="st0" points="1015.4,128.9 1016.3,129.9 1016.8,130.8 	"/>
	<line class="st0" x1="1009" y1="120.6" x2="1009.2" y2="120.4"/>
	<line class="st0" x1="1009" y1="120.6" x2="1009.9" y2="122.1"/>
	<line class="st0" x1="1009" y1="120.6" x2="1007.8" y2="120"/>
	<line class="st0" x1="1007.2" y1="120.1" x2="1006.4" y2="121.3"/>
	<line class="st0" x1="1006.3" y1="121.2" x2="1006.4" y2="121.3"/>
	<line class="st0" x1="1006.4" y1="121.3" x2="1006.6" y2="122.9"/>
	<polyline class="st0" points="1007.2,120.1 1007.3,120.1 1007.4,120 1007.4,120 1007.5,120 1007.6,119.9 1007.7,119.9 1007.7,120 
		1007.8,120 	"/>
	<line class="st0" x1="1007.7" y1="121.3" x2="1007.2" y2="120.1"/>
	<line class="st0" x1="1007.8" y1="120" x2="1008.2" y2="121.2"/>
	<polyline class="st0" points="1008.3,118.9 1008.3,118.8 1008.3,118.7 1008.3,118.7 1008.3,118.6 1008.4,118.5 	"/>
	<polyline class="st0" points="1006.2,119 1006.2,119.1 1006.3,119.2 1006.3,119.2 1006.3,119.3 	"/>
	<line class="st0" x1="1009" y1="117.6" x2="1008.4" y2="118.5"/>
	<line class="st0" x1="1008.4" y1="118.5" x2="1008.8" y2="119.8"/>
	<line class="st0" x1="1006.6" y1="120.3" x2="1006.2" y2="119"/>
	<line class="st0" x1="1006.2" y1="119" x2="1005.5" y2="118.7"/>
	<line class="st0" x1="1009.9" y1="118.2" x2="1008.8" y2="119.8"/>
	<polyline class="st0" points="1008.8,119.8 1008.8,119.8 1008.8,119.9 1008.8,120 1008.8,120.1 1008.8,120.1 1008.9,120.2 
		1008.9,120.3 	"/>
	<line class="st0" x1="1008.9" y1="120.3" x2="1010.6" y2="121.2"/>
	<line class="st0" x1="1010.6" y1="121.2" x2="1009.9" y2="122.1"/>
	<line class="st0" x1="1009.9" y1="122.1" x2="1008.2" y2="121.2"/>
	<polyline class="st0" points="1008.2,121.2 1008.2,121.2 1008.1,121.2 1008,121.2 1007.9,121.2 1007.9,121.2 1007.8,121.2 
		1007.7,121.3 1007.7,121.3 	"/>
	<line class="st0" x1="1007.7" y1="121.3" x2="1006.6" y2="122.9"/>
	<line class="st0" x1="1006.6" y1="122.9" x2="1005.6" y2="122.3"/>
	<line class="st0" x1="1005.6" y1="122.3" x2="1006.7" y2="120.8"/>
	<polyline class="st0" points="1006.7,120.8 1006.8,120.7 1006.8,120.6 1006.8,120.6 1006.8,120.5 1006.8,120.4 1006.7,120.4 
		1006.7,120.3 1006.6,120.3 	"/>
	<line class="st0" x1="1006.6" y1="120.3" x2="1005" y2="119.3"/>
	<line class="st0" x1="1005" y1="119.3" x2="1005.7" y2="118.4"/>
	<line class="st0" x1="1005.7" y1="118.4" x2="1007.3" y2="119.3"/>
	<polyline class="st0" points="1007.3,119.3 1007.4,119.3 1007.4,119.3 1007.5,119.4 1007.6,119.3 1007.7,119.3 1007.7,119.3 
		1007.8,119.3 1007.9,119.2 	"/>
	<line class="st0" x1="1007.9" y1="119.2" x2="1009" y2="117.6"/>
	<line class="st0" x1="1009" y1="117.6" x2="1009.9" y2="118.2"/>
	<polyline class="st0" points="1004.6,124.6 1005.9,125.1 1007.3,125.3 1008.8,125.2 1010.2,124.7 1011.3,123.9 1012.3,122.9 
		1012.9,121.6 1013.2,120.3 1013.2,119 1012.7,117.8 1012,116.7 1010.9,115.9 1009.6,115.4 1008.2,115.2 1006.8,115.4 1005.4,115.8 
		1004.2,116.6 1003.2,117.6 1002.6,118.9 1002.3,120.2 1002.4,121.5 1002.8,122.8 1003.5,123.8 1004.6,124.6 	"/>
	<polyline class="st0" points="1002.5,122.1 1002.4,121.5 1002.3,120.1 1002.6,118.9 1003.2,117.6 1004.2,116.6 1005.4,115.8 
		1006.8,115.3 1008.2,115.1 1009.6,115.4 1010.9,115.9 	"/>
	<polyline class="st0" points="1010.9,115.9 1012,116.7 1012.7,117.7 1013,118.3 	"/>
	<line class="st0" x1="1032.3" y1="149.9" x2="1115.8" y2="123.5"/>
	<line class="st0" x1="1199.5" y1="84.6" x2="1199.2" y2="83.5"/>
	<polyline class="st0" points="1189,73.1 1190.2,72.8 1191.4,72.8 1192.6,72.9 1193.8,73.3 1194.7,73.9 1195.5,74.6 1196.2,75.6 
		1196.5,76.3 	"/>
	<polyline class="st0" points="1199.2,83.5 1198.7,82.5 1198.1,81.6 1197.2,80.8 1196.2,80.2 1195.1,79.8 1194,79.7 1192.7,79.7 
		1191.5,80 	"/>
	<line class="st0" x1="1189" y1="73.1" x2="1191.5" y2="80"/>
	<line class="st0" x1="1044.2" y1="118.9" x2="1189" y2="73.1"/>
	<line class="st0" x1="1192" y1="81.3" x2="1191.5" y2="80"/>
	<line class="st0" x1="1191.5" y1="80" x2="1046.7" y2="125.8"/>
	<polyline class="st0" points="1006.6,144 1007.7,145.2 1009.9,146.9 1012.3,148.4 1014.9,149.6 1017.6,150.5 1020.5,151 
		1023.4,151.2 1026.5,151.1 1029.4,150.7 1032.3,149.9 	"/>
	<line class="st0" x1="1032.3" y1="149.9" x2="1032.2" y2="149.5"/>
	<line class="st0" x1="1046.7" y1="125.8" x2="1044.2" y2="118.9"/>
	<polyline class="st0" points="1031.5,116.2 1032.3,116.8 1033.9,117.9 1035.8,118.8 1037.8,119.3 1039.9,119.5 1042,119.4 
		1044.2,118.9 	"/>
	<line class="st0" x1="1047.2" y1="127.1" x2="1046.7" y2="125.8"/>
	<polyline class="st0" points="1046.7,125.8 1044.6,126.3 1042.5,126.4 1040.3,126.2 1038.3,125.7 1036.4,124.8 1034.8,123.7 
		1033.4,122.3 	"/>
	<polyline class="st0" points="1032.2,149.5 1029.2,150.2 1026.1,150.7 1023,150.7 1019.9,150.3 1017,149.7 1014.3,148.6 
		1011.6,147.2 1009.3,145.5 1007.3,143.5 1006.9,143 	"/>
	<line class="st0" x1="1115.6" y1="123.1" x2="1032.2" y2="149.5"/>
	<polyline class="st0" points="1192,81.3 1193,81.1 1194,81.1 1195,81.2 1195.9,81.5 1196.7,81.9 1197.3,82.5 	"/>
	<line class="st0" x1="1047.2" y1="127.1" x2="1192" y2="81.3"/>
	<polyline class="st0" points="1034.2,124.8 1034.2,124.8 1036,126.1 1038.1,127 1040.2,127.6 1042.5,127.8 1044.8,127.7 
		1047.2,127.1 	"/>
	<line class="st0" x1="992.1" y1="105" x2="990.8" y2="100.5"/>
	<polyline class="st0" points="1014.9,87 1016.1,86.7 1017.3,86.7 1018.4,86.9 1019.6,87.2 1020.6,87.8 1021.4,88.6 1022,89.5 
		1022.4,90.2 	"/>
	<line class="st0" x1="1014.9" y1="87" x2="1020.4" y2="102.1"/>
	<line class="st0" x1="995" y1="93.3" x2="1014.9" y2="87"/>
	<line class="st0" x1="1000.6" y1="108.4" x2="995" y2="93.3"/>
	<polyline class="st0" points="990.8,100.5 990.5,99.5 990.5,98.3 990.8,97.2 991.3,96.2 992,95.2 992.9,94.4 993.9,93.8 995,93.3 	
		"/>
	<polyline class="st0" points="1028,105.6 1027.6,104.6 1027,103.7 1026.1,102.9 1025.1,102.4 1024,102 1022.9,101.8 1021.6,101.8 
		1020.4,102.1 	"/>
	<line class="st0" x1="1020.4" y1="102.1" x2="1000.6" y2="108.4"/>
	<polyline class="st0" points="1000.6,108.4 999.5,108.9 998.5,109.6 998.4,109.6 	"/>
	<line class="st0" x1="1203.2" y1="117.4" x2="1127.7" y2="141.2"/>
	<line class="st0" x1="1203.1" y1="116.9" x2="1203.2" y2="117.4"/>
	<polyline class="st0" points="1207.5,110.1 1207.7,111.2 1207.6,112.3 1207.4,113.5 1206.9,114.5 1206.2,115.4 1205.4,116.2 
		1204.3,116.9 1203.2,117.4 	"/>
	<line class="st0" x1="1119.2" y1="135.2" x2="1119.3" y2="135.4"/>
	<line class="st0" x1="1127.7" y1="141.2" x2="1127.7" y2="140.8"/>
	<polyline class="st0" points="1127.7,141.2 1126.6,141.5 1125.4,141.6 1124.2,141.4 1123.1,141 1122.1,140.4 1121.3,139.7 
		1120.6,138.8 1120.2,137.8 	"/>
	<line class="st0" x1="1206.7" y1="110.9" x2="1207.5" y2="110.1"/>
	<line class="st0" x1="1200.4" y1="86.9" x2="1207.5" y2="110.1"/>
	<line class="st0" x1="1205.5" y1="110.7" x2="1205.6" y2="111.2"/>
	<line class="st0" x1="1117.1" y1="128" x2="1119.2" y2="135.2"/>
	<line class="st0" x1="1119.2" y1="135.2" x2="1120.2" y2="137.8"/>
	<line class="st0" x1="1112.6" y1="113.2" x2="1116.7" y2="126.7"/>
	<line class="st0" x1="1116.7" y1="126.7" x2="1115.6" y2="123.6"/>
	<polyline class="st0" points="1199.8,85.3 1199.5,84.6 1198.9,83.7 1198,83 1197.1,82.4 1196,82 1194.8,81.8 1193.5,81.9 
		1192.4,82.2 	"/>
	<line class="st0" x1="1120.2" y1="137.8" x2="1121.3" y2="137.9"/>
	<line class="st0" x1="1120.2" y1="137.8" x2="1113.1" y2="114.6"/>
	<line class="st0" x1="1199.6" y1="87.7" x2="1200.4" y2="86.9"/>
	<polyline class="st0" points="1192.9,83.4 1194,83.2 1195.2,83.1 1196.4,83.3 1197.5,83.6 1198.5,84.2 1199.3,85 1200,85.9 
		1200.4,86.9 	"/>
	<polyline class="st0" points="1205.5,110.7 1205.6,111.5 1205.6,111.8 	"/>
	<line class="st0" x1="1198.5" y1="87.6" x2="1205.5" y2="110.7"/>
	<polyline class="st0" points="1122.9,138.3 1122.4,137.8 1122.3,137.5 	"/>
	<line class="st0" x1="1192.9" y1="83.4" x2="1192.4" y2="82.2"/>
	<line class="st0" x1="1192.4" y1="82.2" x2="1116.9" y2="106"/>
	<line class="st0" x1="1116.9" y1="106" x2="1117.4" y2="107.3"/>
	<polyline class="st0" points="1116.9,106 1115.8,106.5 1114.8,107.1 1113.9,107.9 1113.2,108.9 1112.7,109.9 1112.5,111 
		1112.5,112.1 1112.6,113.2 	"/>
	<line class="st0" x1="1113.1" y1="114.6" x2="1112.6" y2="113.2"/>
	<polyline class="st0" points="1199.6,87.7 1199.3,86.8 1198.7,86.1 1198,85.4 1197.2,85 1196.2,84.7 1195.3,84.5 1194.3,84.5 
		1193.2,84.7 	"/>
	<line class="st0" x1="1114.3" y1="114.6" x2="1121.3" y2="137.9"/>
	<polyline class="st0" points="1121.3,137.9 1121.7,138.7 1122.2,139.4 1123,140.1 1123.8,140.5 1124.6,140.9 1125.7,141.1 
		1126.6,141 1127.7,140.8 	"/>
	<line class="st0" x1="1127.7" y1="140.8" x2="1203.1" y2="116.9"/>
	<polyline class="st0" points="1203.1,116.9 1204,116.5 1204.8,115.9 1205.6,115.3 1206.2,114.5 1206.6,113.6 1206.8,112.7 
		1206.8,111.8 1206.7,110.9 	"/>
	<line class="st0" x1="1206.7" y1="110.9" x2="1199.6" y2="87.7"/>
	<polyline class="st0" points="1205.7,112.8 1205.8,112.6 1205.8,111.9 1205.6,111.2 	"/>
	<polyline class="st0" points="1122.3,137.5 1122.6,138.3 1123,138.9 1123.4,139.2 	"/>
	<line class="st0" x1="1115.2" y1="114.3" x2="1122.3" y2="137.5"/>
	<polyline class="st0" points="1118.1,109.5 1117.4,109.9 1116.7,110.3 1116.1,110.8 1115.6,111.5 1115.3,112.1 1115.2,112.9 
		1115.1,113.6 1115.2,114.3 	"/>
	<line class="st0" x1="1193.5" y1="85.6" x2="1118.1" y2="109.5"/>
	<polyline class="st0" points="1198.6,88 1198.3,87.3 1197.9,86.7 1197.3,86.2 1196.7,85.8 1196,85.5 1195.1,85.5 1194.3,85.5 
		1193.5,85.6 	"/>
	<line class="st0" x1="1205.6" y1="111.2" x2="1198.6" y2="88"/>
	<line class="st0" x1="1193.2" y1="84.7" x2="1192.9" y2="83.4"/>
	<line class="st0" x1="1117.4" y1="107.3" x2="1192.9" y2="83.4"/>
	<line class="st0" x1="1193.2" y1="84.7" x2="1117.9" y2="108.6"/>
	<line class="st0" x1="1113.1" y1="114.6" x2="1114.3" y2="114.6"/>
	<polyline class="st0" points="1117.9,108.6 1116.9,109 1116.1,109.6 1115.3,110.2 1114.7,111 1114.4,111.9 1114.1,112.8 
		1114.1,113.7 1114.3,114.6 	"/>
	<line class="st0" x1="1117.4" y1="107.3" x2="1117.9" y2="108.6"/>
	<polyline class="st0" points="1113.1,114.6 1112.9,113.5 1113,112.3 1113.2,111.2 1113.7,110.2 1114.4,109.3 1115.2,108.4 
		1116.3,107.7 1117.4,107.3 	"/>
	<line class="st0" x1="1167.8" y1="267.3" x2="1167.8" y2="267.5"/>
	<polyline class="st0" points="1170.5,272.4 1169.8,271.8 1169.1,270.9 1168.7,269.9 	"/>
	<line class="st0" x1="1248.5" y1="217.7" x2="1248.8" y2="218.8"/>
	<polyline class="st0" points="1247.9,216.2 1247.6,215.4 1246.9,214.5 1246.1,213.8 1245.1,213.2 1244,212.8 1242.8,212.7 
		1241.6,212.7 1240.4,213 	"/>
	<polyline class="st0" points="1240.9,214.2 1242.1,214 1243.2,213.9 1244.5,214.1 1245.6,214.5 1246.6,215.1 1247.4,215.8 
		1248,216.7 1248.5,217.7 	"/>
	<line class="st0" x1="1240.9" y1="214.2" x2="1240.4" y2="213"/>
	<line class="st0" x1="1240.4" y1="213" x2="1165" y2="236.8"/>
	<line class="st0" x1="1165" y1="236.8" x2="1165.5" y2="238.1"/>
	<polyline class="st0" points="1165,236.8 1163.9,237.3 1162.8,237.9 1162,238.7 1161.3,239.7 1160.8,240.7 1160.5,241.8 
		1160.5,242.1 	"/>
	<polyline class="st0" points="1246.6,216.8 1246,216.3 1245.2,215.8 1244.3,215.5 1243.3,215.3 1242.3,215.4 1241.3,215.6 	"/>
	<line class="st0" x1="1241.3" y1="215.6" x2="1240.9" y2="214.2"/>
	<line class="st0" x1="1165.5" y1="238.1" x2="1240.9" y2="214.2"/>
	<line class="st0" x1="1241.3" y1="215.6" x2="1165.9" y2="239.4"/>
	<line class="st0" x1="1165.9" y1="239.4" x2="1165.5" y2="238.1"/>
	<polyline class="st0" points="1161.4,241.8 1161.7,241 1162.5,240.1 1163.3,239.3 1164.4,238.6 1165.5,238.1 	"/>
	<polyline class="st0" points="1165.9,239.4 1165,239.8 1164.1,240.4 1163.3,241.1 1163.3,241.2 	"/>
	<line class="st0" x1="1252.4" y1="250.1" x2="1176.9" y2="274"/>
	<line class="st0" x1="1252.4" y1="250.1" x2="1252.3" y2="249.7"/>
	<polyline class="st0" points="1256.7,242.9 1256.9,244 1256.8,245.1 1256.6,246.2 1256.1,247.2 1255.4,248.1 1254.5,249 
		1253.5,249.7 1252.4,250.1 	"/>
	<line class="st0" x1="1255.3" y1="238.5" x2="1255.9" y2="240.2"/>
	<line class="st0" x1="1255.9" y1="240.2" x2="1256.7" y2="242.9"/>
	<line class="st0" x1="1255.9" y1="243.6" x2="1256.7" y2="242.9"/>
	<line class="st0" x1="1255.1" y1="240.9" x2="1255.9" y2="240.2"/>
	<line class="st0" x1="1255.9" y1="240.2" x2="1254.6" y2="239.6"/>
	<line class="st0" x1="1176.9" y1="274" x2="1176.9" y2="273.5"/>
	<polyline class="st0" points="1176.9,274 1175.8,274.2 1174.6,274.3 1173.4,274.1 1172.3,273.8 1171.3,273.2 1170.5,272.4 
		1169.8,271.5 1169.4,270.5 	"/>
	<line class="st0" x1="1255.9" y1="243.6" x2="1255.1" y2="240.9"/>
	<polyline class="st0" points="1170.5,270.6 1170.9,271.5 1171.4,272.2 1172.1,272.8 1173,273.3 1173.8,273.6 1174.9,273.8 
		1175.8,273.8 1176.9,273.5 	"/>
	<line class="st0" x1="1176.9" y1="273.5" x2="1252.3" y2="249.7"/>
	<polyline class="st0" points="1252.3,249.7 1253.2,249.2 1254,248.7 1254.8,248.1 1255.4,247.3 1255.8,246.4 1256,245.4 
		1256,244.5 1255.9,243.6 	"/>
	<line class="st0" x1="1169.4" y1="270.5" x2="1170.5" y2="270.6"/>
	<line class="st0" x1="1169.7" y1="268" x2="1170.5" y2="270.6"/>
	<line class="st0" x1="1255.1" y1="240.9" x2="1254.6" y2="239.6"/>
	<line class="st0" x1="1169.3" y1="266.6" x2="1254.6" y2="239.6"/>
	<line class="st0" x1="1255.1" y1="240.9" x2="1169.7" y2="268"/>
	<line class="st0" x1="1168.6" y1="267.8" x2="1169.7" y2="268"/>
	<line class="st0" x1="1169.7" y1="268" x2="1169.3" y2="266.6"/>
	<line class="st0" x1="1168.6" y1="267.8" x2="1169.3" y2="266.6"/>
	<line class="st0" x1="1168.6" y1="267.8" x2="1168.3" y2="266.9"/>
	<line class="st0" x1="1167.7" y1="267.1" x2="1167.8" y2="267.3"/>
	<line class="st0" x1="1167.8" y1="267.3" x2="1168.7" y2="269.9"/>
	<line class="st0" x1="1168.7" y1="269.9" x2="1167.8" y2="267.1"/>
	<line class="st0" x1="1169.4" y1="270.5" x2="1168.6" y2="267.8"/>
	<polyline class="st0" points="985.9,218.1 986,218.9 985.8,219.9 985.7,220 	"/>
	<polyline class="st0" points="939.6,234.4 938.8,233.8 938.3,233.1 938.3,232.9 	"/>
	<line class="st0" x1="974.2" y1="216.3" x2="946.5" y2="225.1"/>
	<polyline class="st0" points="949.3,233.8 947.7,234.2 945.7,234.6 943.8,234.7 942.1,234.6 940.7,234.4 939.5,233.9 938.6,233.3 
		938.1,232.5 938,231.6 938.3,230.6 938.9,229.6 939.9,228.5 941.2,227.5 942.7,226.6 944.6,225.7 946.5,225.1 	"/>
	<polyline class="st0" points="974.2,216.3 976.2,215.8 978.1,215.4 980,215.2 981.7,215.3 983.2,215.6 984.4,216 985.3,216.6 
		985.8,217.4 985.8,218.3 985.5,219.4 985,220.4 983.9,221.4 982.6,222.4 981.1,223.4 979.3,224.2 977.8,224.8 	"/>
	<polyline class="st0" points="943.2,104.3 943.2,104.2 943.5,103.2 943.5,102.4 	"/>
	<polyline class="st0" points="895.7,117.2 895.8,117.3 896.2,118.2 897.1,118.7 	"/>
	<polyline class="st0" points="904,109.3 902,110.1 900.3,110.9 898.7,111.8 897.4,112.9 896.4,113.9 895.7,114.9 895.5,115.9 
		895.6,116.8 896.1,117.6 897,118.2 898.2,118.7 899.6,119 901.3,119 903.2,118.9 905.1,118.5 906.7,118.1 	"/>
	<polyline class="st0" points="935.2,109 936.8,108.5 938.5,107.6 940.2,106.7 941.5,105.7 942.4,104.6 943.1,103.6 943.3,102.7 
		943.2,101.7 942.7,101 941.9,100.3 940.7,99.9 939.2,99.6 937.5,99.6 935.7,99.7 933.7,100 931.7,100.5 	"/>
	<line class="st0" x1="931.7" y1="100.5" x2="904" y2="109.3"/>
	<line class="st0" x1="1122.4" y1="137.1" x2="1122.4" y2="137.2"/>
	<polyline class="st0" points="1198.2,87.5 1197.9,86.9 1197.6,86.4 1197.5,86.4 	"/>
	<line class="st0" x1="1115.3" y1="113.8" x2="1122.4" y2="137.1"/>
	<line class="st0" x1="1122.7" y1="137.9" x2="1122.4" y2="137.1"/>
	<polyline class="st0" points="1115.2,112.7 1115.2,113.2 1115.3,113.8 	"/>
	<line class="st0" x1="1115.6" y1="114.7" x2="1115.3" y2="113.8"/>
	<polyline class="st0" points="1118.3,110.1 1117.6,110.4 1117,110.8 1116.4,111.3 1116,112 1115.7,112.6 1115.5,113.3 1115.5,114 
		1115.6,114.7 	"/>
	<line class="st0" x1="1115.6" y1="114.7" x2="1122.7" y2="137.9"/>
	<polyline class="st0" points="1122.7,137.9 1123,138.6 1123.4,139.2 1123.9,139.6 1124.5,140 1125.2,140.3 1126,140.3 
		1126.7,140.3 1127.5,140.1 	"/>
	<line class="st0" x1="1127.5" y1="140.1" x2="1202.9" y2="116.3"/>
	<polyline class="st0" points="1202.9,116.3 1203.6,115.9 1204.3,115.6 1204.8,115.1 1205.3,114.5 1205.6,113.7 1205.7,113.1 
		1205.7,112.3 1205.6,111.7 	"/>
	<line class="st0" x1="1205.6" y1="111.7" x2="1198.5" y2="88.5"/>
	<polyline class="st0" points="1198.5,88.5 1198.3,87.8 1197.9,87.2 1197.3,86.8 1196.7,86.4 1196,86.1 1195.3,86.1 1194.5,86.1 
		1193.8,86.3 	"/>
	<line class="st0" x1="1193.8" y1="86.3" x2="1118.3" y2="110.1"/>
	<polyline class="st0" points="1020.6,102.6 1021.8,102.3 1023,102.2 1024.2,102.4 1025.3,102.8 1026.3,103.4 1027.1,104.1 
		1027.8,105 1028.1,105.7 	"/>
	<line class="st0" x1="1020.6" y1="102.6" x2="1022.2" y2="106.9"/>
	<line class="st0" x1="994.4" y1="110.9" x2="1020.6" y2="102.6"/>
	<polyline class="st0" points="1009.6,126.1 1011,125.4 1012.3,124.5 1013.2,123.4 1014,122.1 1014.4,120.7 1014.4,119.3 
		1014.1,117.9 1013.5,116.6 1012.5,115.6 1011.3,114.8 1009.9,114.3 1008.3,114.1 1006.8,114.3 1005.2,114.7 1003.9,115.5 
		1002.7,116.5 1001.9,117.8 1001.3,119.1 1001.1,120.6 1001.3,122 1001.7,123.3 1002.5,124.5 1003.7,125.3 1005,126 1006.5,126.4 
		1008,126.4 1009.6,126.1 	"/>
	<polyline class="st0" points="1013.3,138.6 1014.8,138 1016,137 1017.1,135.9 1017.8,134.6 1018.2,133.2 1018.2,131.7 
		1017.9,130.4 1017.3,129.2 1016.2,128.1 1015.1,127.3 1013.7,126.8 1012.1,126.6 1010.6,126.7 1009,127.3 1007.7,128 1006.6,129 
		1005.7,130.3 1005.1,131.7 1004.9,133.1 1005,134.5 1005.5,135.8 1006.3,137 1007.4,137.9 1008.8,138.5 1010.3,138.9 1011.8,138.9 
		1013.3,138.6 	"/>
	<polyline class="st0" points="1027.3,134.2 1028.7,133.6 1029.9,132.6 1030.9,131.5 1031.7,130.2 1032.1,128.8 1032.1,127.4 
		1031.8,126 1031.2,124.8 1030.2,123.7 1029,122.9 1027.6,122.4 1026,122.2 1024.5,122.3 1022.9,122.9 1021.6,123.6 1020.4,124.6 
		1019.6,125.9 1019,127.3 1018.8,128.7 1018.9,130 1019.4,131.4 1020.2,132.5 1021.3,133.5 1022.7,134.2 1024.2,134.5 1025.7,134.5 
		1027.3,134.2 	"/>
	<polyline class="st0" points="1023.4,121.7 1024.8,121 1026.2,120.1 1027.2,119 1027.9,117.7 1028.3,116.3 1028.3,114.8 
		1028,113.5 1027.3,112.3 1026.4,111.2 1025.1,110.4 1023.7,109.9 1022.2,109.7 1020.7,109.9 1019.2,110.4 1017.8,111.1 
		1016.6,112.1 1015.7,113.4 1015.2,114.7 1015,116.2 1015.1,117.6 1015.6,118.9 1016.5,120.1 1017.6,120.9 1018.9,121.6 1020.4,122 
		1021.9,122 1023.4,121.7 	"/>
	<line class="st0" x1="1006.3" y1="143.3" x2="1030.9" y2="135.5"/>
	<polyline class="st0" points="1030.9,135.5 1032,135 1033.1,134.4 1033.9,133.5 1034.6,132.5 1035.1,131.5 1035.4,130.4 
		1035.4,129.3 1035.2,128.2 	"/>
	<line class="st0" x1="1035.2" y1="128.2" x2="1029.8" y2="110.4"/>
	<polyline class="st0" points="1029.8,110.4 1029.3,109.3 1028.7,108.5 1027.8,107.7 1026.9,107.1 1025.8,106.8 1024.6,106.5 
		1023.4,106.6 1022.2,106.9 	"/>
	<line class="st0" x1="1022.2" y1="106.9" x2="996" y2="115.1"/>
	<polyline class="st0" points="1062.8,217.4 1064,217.1 1065.2,217.1 1066.3,217.3 1067.4,217.7 1068.5,218.2 1069.3,219 
		1069.9,219.9 1070.3,220.6 	"/>
	<line class="st0" x1="1062.8" y1="217.4" x2="1064.3" y2="221.7"/>
	<line class="st0" x1="1035.3" y1="226.1" x2="1062.8" y2="217.4"/>
	<polyline class="st0" points="1041.5,261.1 1041.8,260.8 1042.6,260.3 1043.4,259.7 1044.3,259.4 	"/>
	<line class="st0" x1="1044.3" y1="259.4" x2="1047.6" y2="258.4"/>
	<polyline class="st0" points="1072,225.2 1071.5,224.2 1070.9,223.3 1070.1,222.5 1069,222 1067.9,221.6 1066.8,221.4 
		1065.5,221.5 1064.3,221.7 	"/>
	<line class="st0" x1="1064.3" y1="221.7" x2="1035.6" y2="230.8"/>
	<polyline class="st0" points="1035.6,230.8 1034.7,231 1033.9,231.2 	"/>
	<line class="st0" x1="1020.5" y1="116.9" x2="1020.7" y2="117"/>
	<line class="st0" x1="1023.2" y1="115.9" x2="1023.3" y2="115.9"/>
	<line class="st0" x1="1023.2" y1="115.9" x2="1024.1" y2="117.3"/>
	<line class="st0" x1="1023.2" y1="115.9" x2="1021.9" y2="115.5"/>
	<line class="st0" x1="1021.3" y1="115.7" x2="1020.7" y2="117"/>
	<line class="st0" x1="1020.7" y1="117" x2="1020.9" y2="118.6"/>
	<polyline class="st0" points="1021.3,115.7 1021.4,115.7 1021.5,115.6 1021.5,115.5 1021.5,115.5 1021.7,115.5 1021.8,115.5 
		1021.8,115.5 1021.9,115.5 	"/>
	<line class="st0" x1="1021.8" y1="116.9" x2="1021.3" y2="115.7"/>
	<line class="st0" x1="1021.9" y1="115.5" x2="1022.3" y2="116.7"/>
	<polyline class="st0" points="1020.1,114.8 1020.1,114.8 1020.2,114.9 1020.2,115 1020.3,115.1 	"/>
	<polyline class="st0" points="1022.2,114.3 1022.1,114.2 1022.1,114.1 1022.1,114 1022.2,114 	"/>
	<line class="st0" x1="1020.5" y1="116" x2="1020.1" y2="114.8"/>
	<line class="st0" x1="1020.1" y1="114.8" x2="1019.1" y2="114.5"/>
	<line class="st0" x1="1022.6" y1="113.2" x2="1022.2" y2="114"/>
	<line class="st0" x1="1022.2" y1="114" x2="1022.6" y2="115.2"/>
	<line class="st0" x1="1023.4" y1="113.5" x2="1022.6" y2="115.2"/>
	<polyline class="st0" points="1022.6,115.2 1022.6,115.3 1022.6,115.4 1022.6,115.4 1022.6,115.5 1022.7,115.6 1022.8,115.7 
		1022.9,115.7 	"/>
	<line class="st0" x1="1022.9" y1="115.7" x2="1024.6" y2="116.3"/>
	<line class="st0" x1="1024.6" y1="116.3" x2="1024.1" y2="117.3"/>
	<line class="st0" x1="1024.1" y1="117.3" x2="1022.3" y2="116.7"/>
	<polyline class="st0" points="1022.3,116.7 1022.3,116.7 1022.2,116.7 1022.1,116.7 1022,116.7 1022,116.8 1021.9,116.8 
		1021.8,116.8 1021.8,116.9 	"/>
	<line class="st0" x1="1021.8" y1="116.9" x2="1020.9" y2="118.6"/>
	<line class="st0" x1="1020.9" y1="118.6" x2="1019.8" y2="118.2"/>
	<line class="st0" x1="1019.8" y1="118.2" x2="1020.7" y2="116.5"/>
	<polyline class="st0" points="1020.7,116.5 1020.7,116.5 1020.7,116.4 1020.7,116.3 1020.7,116.2 1020.7,116.2 1020.7,116.1 
		1020.6,116.1 1020.5,116 	"/>
	<line class="st0" x1="1020.5" y1="116" x2="1018.7" y2="115.4"/>
	<line class="st0" x1="1018.7" y1="115.4" x2="1019.2" y2="114.4"/>
	<line class="st0" x1="1019.2" y1="114.4" x2="1021" y2="115"/>
	<polyline class="st0" points="1021,115 1021.1,115.1 1021.2,115.1 1021.2,115.1 1021.3,115 1021.4,115 1021.5,114.9 1021.5,114.8 
		1021.5,114.8 	"/>
	<line class="st0" x1="1021.5" y1="114.8" x2="1022.3" y2="113.1"/>
	<line class="st0" x1="1022.3" y1="113.1" x2="1023.4" y2="113.5"/>
	<polyline class="st0" points="1019.3,120.6 1020.7,120.9 1022.2,120.9 1023.6,120.5 1024.8,119.8 1025.9,118.8 1026.7,117.6 
		1027.1,116.4 1027.1,115.1 1026.8,113.7 1026.2,112.6 1025.2,111.8 1024,111.1 1022.6,110.8 1021.2,110.9 1019.8,111.2 
		1018.4,111.9 1017.4,112.9 1016.6,114 1016.2,115.4 1016.2,116.7 1016.5,117.9 1017.1,119.1 1018.2,120 1019.3,120.6 	"/>
	<polyline class="st0" points="1016.4,117.8 1016.2,116.7 1016.2,115.4 1016.6,114 1017.4,112.9 1018.4,111.9 1019.7,111.2 
		1021.2,110.8 1022.6,110.8 1024,111.1 	"/>
	<polyline class="st0" points="1024,111.1 1025.1,111.7 1026.2,112.6 1026.8,113.7 1026.9,113.9 	"/>
	<line class="st0" x1="861.3" y1="214.4" x2="861.3" y2="214.4"/>
	<line class="st0" x1="858.5" y1="205.2" x2="857.8" y2="203.3"/>
	<line class="st0" x1="857.8" y1="203.3" x2="860.6" y2="212.5"/>
	<line class="st0" x1="860.6" y1="212.5" x2="861.3" y2="214.4"/>
	<line class="st0" x1="861.3" y1="214.4" x2="858.5" y2="205.2"/>
	<line class="st0" x1="862.9" y1="218.7" x2="862.9" y2="218.8"/>
	<line class="st0" x1="859.4" y1="207.7" x2="862.2" y2="216.9"/>
	<line class="st0" x1="862.2" y1="216.9" x2="862.9" y2="218.8"/>
	<line class="st0" x1="862.9" y1="218.8" x2="860.1" y2="209.5"/>
	<line class="st0" x1="860.1" y1="209.5" x2="859.4" y2="207.7"/>
	<line class="st0" x1="860.7" y1="212.8" x2="860.8" y2="212.8"/>
	<line class="st0" x1="862.3" y1="217.1" x2="862.3" y2="217.1"/>
	<line class="st0" x1="855.8" y1="199.8" x2="855.9" y2="200"/>
	<line class="st0" x1="1041.5" y1="261.1" x2="1041.4" y2="261.3"/>
	<polyline class="st0" points="1044.6,259.3 1044.5,259.7 1044.3,260.6 1044,261.6 1043.6,262.5 	"/>
	<line class="st0" x1="848.1" y1="174.5" x2="855.8" y2="199.8"/>
	<line class="st0" x1="855.8" y1="199.8" x2="896" y2="309"/>
	<line class="st0" x1="859.4" y1="207.7" x2="860.1" y2="209.7"/>
	<line class="st0" x1="860.1" y1="209.7" x2="863.1" y2="219.2"/>
	<line class="st0" x1="863.1" y1="219.2" x2="862.3" y2="217.1"/>
	<line class="st0" x1="862.3" y1="217.1" x2="859.4" y2="207.7"/>
	<line class="st0" x1="860.7" y1="212.8" x2="857.8" y2="203.3"/>
	<line class="st0" x1="857.8" y1="203.3" x2="858.6" y2="205.3"/>
	<line class="st0" x1="858.6" y1="205.3" x2="861.4" y2="214.9"/>
	<line class="st0" x1="861.4" y1="214.9" x2="860.7" y2="212.8"/>
	<polyline class="st0" points="896,309.3 896.1,309.5 896.2,309.7 	"/>
	<line class="st0" x1="1043.6" y1="262.5" x2="1044.4" y2="263"/>
	<polyline class="st0" points="1043.6,262.5 1043.1,263.2 1042.9,263.2 	"/>
	<polyline class="st0" points="901.7,316.4 901.9,317.2 902.3,318 902.6,318.2 	"/>
	<polyline class="st0" points="896,309 896.8,310.7 898,312.5 899.6,314.4 901.7,316.4 	"/>
	<line class="st0" x1="901.7" y1="316.4" x2="901.6" y2="316.3"/>
	<line class="st0" x1="888.2" y1="283.7" x2="896" y2="309"/>
	<polyline class="st0" points="1045.4,259.1 1045.4,259.1 1045.3,260 1045,261 1044.7,262 1044.4,263 	"/>
	<polyline class="st0" points="1044.4,263 1043.8,263.7 1043.1,263.8 1042.3,263.1 1041.7,262 1041.6,261.7 	"/>
	<line class="st0" x1="1041.6" y1="261.7" x2="1036.7" y2="245.6"/>
	<polyline class="st0" points="1014.7,295.5 1015.7,295.2 1016.8,294.8 1017.7,294.5 1018.7,294.1 1019.8,293.7 1020.7,293.4 
		1021.8,292.9 1022.7,292.6 	"/>
	<polyline class="st0" points="1022.7,292.6 1025.8,291.1 1028.8,289.2 1031.7,287.1 1035.3,283.5 1038.4,279.5 	"/>
	<line class="st0" x1="1014.7" y1="295.5" x2="942.7" y2="318.3"/>
	<polyline class="st0" points="908.1,320.8 909.8,321.6 911.5,322 	"/>
	<polyline class="st0" points="911.5,322 914.9,322.3 918.5,322.4 922.3,322.2 926.2,321.9 930.2,321.3 934.4,320.6 938.5,319.5 
		942.7,318.3 	"/>
	<line class="st0" x1="893.4" y1="289.2" x2="901.6" y2="316.3"/>
	<polyline class="st0" points="901.6,316.3 904.6,318.6 908.1,320.8 	"/>
	<line class="st0" x1="847.9" y1="174" x2="848.1" y2="174.5"/>
	<line class="st0" x1="848.1" y1="174.5" x2="888.2" y2="283.7"/>
	<line class="st0" x1="845.1" y1="126.1" x2="845.4" y2="125.6"/>
	<line class="st0" x1="847.7" y1="172.9" x2="848.1" y2="172.9"/>
	<line class="st0" x1="848.1" y1="174.5" x2="847.9" y2="174"/>
	<polyline class="st0" points="840.1,138.1 840.4,137.2 841.2,136.3 	"/>
	<line class="st0" x1="840.3" y1="148.6" x2="840.1" y2="147.9"/>
	<polyline class="st0" points="944.1,101.8 944,101.6 943.3,100.9 942.4,100.4 941.1,100 940.9,99.9 	"/>
	<polyline class="st0" points="896.4,113.9 896.1,114.3 895.4,115.2 894.9,116.2 894.8,117.1 	"/>
	<line class="st0" x1="848.2" y1="173.4" x2="847.8" y2="173.5"/>
	<polyline class="st0" points="992.5,106 992.6,106 992.7,106.4 	"/>
	<line class="st0" x1="843.6" y1="158.1" x2="848.1" y2="172.9"/>
	<polyline class="st0" points="848.1,172.9 848.1,172.9 848.1,173 848.1,173.1 848.1,173.2 848.2,173.2 848.2,173.3 848.2,173.4 	
		"/>
	<line class="st0" x1="848.2" y1="173.4" x2="885.4" y2="274.6"/>
	<line class="st0" x1="888.2" y1="283.7" x2="848.1" y2="174.5"/>
	<line class="st0" x1="848.1" y1="174.5" x2="840.4" y2="149.1"/>
	<line class="st0" x1="887.5" y1="281.4" x2="847.8" y2="173.5"/>
	<polyline class="st0" points="847.8,173.5 847.8,173.5 847.8,173.4 847.8,173.4 847.8,173.3 847.8,173.2 847.7,173.1 847.7,173 
		847.7,172.9 	"/>
	<line class="st0" x1="847.7" y1="172.9" x2="841.2" y2="151.5"/>
	<polyline class="st0" points="841.2,151.5 841.2,151.4 841.1,151.4 841.1,151.3 841.1,151.3 841.1,151.3 	"/>
	<line class="st0" x1="841.1" y1="151.3" x2="880.7" y2="259.3"/>
	<polyline class="st0" points="880.7,259.3 880.7,259.3 880.7,259.4 880.8,259.4 880.8,259.5 880.8,259.6 880.9,259.7 880.9,259.7 
		880.9,259.8 	"/>
	<line class="st0" x1="880.9" y1="259.8" x2="887.4" y2="281.3"/>
	<polyline class="st0" points="887.4,281.3 887.4,281.3 887.5,281.4 887.5,281.5 887.5,281.4 	"/>
	<polyline class="st0" points="840.4,149.1 840.2,148.6 840.2,148 840.1,147.3 840.2,146.7 840.4,146.1 840.6,145.5 840.8,145 
		841.2,144.4 	"/>
	<line class="st0" x1="880.5" y1="258.3" x2="840.4" y2="149.1"/>
	<line class="st0" x1="888.2" y1="283.7" x2="880.5" y2="258.3"/>
	<polyline class="st0" points="880.5,258.3 880.4,257.8 880.3,257.2 880.3,256.6 880.4,256 880.5,255.4 880.7,254.8 881,254.2 
		881.3,253.7 	"/>
	<polyline class="st0" points="885.1,262 883.5,261.6 882.3,260.9 881.3,259.7 880.5,258.3 	"/>
	<polyline class="st0" points="986.6,217.5 986.5,217.3 985.8,216.6 984.9,216 983.6,215.7 983.4,215.7 	"/>
	<polyline class="st0" points="938.9,229.6 938.5,229.9 937.8,231 937.4,232 937.4,232.8 	"/>
	<polyline class="st0" points="841.2,136.3 840.8,138.8 840.7,141 840.8,142.9 841.2,144.4 	"/>
	<line class="st0" x1="841.2" y1="144.4" x2="881.3" y2="253.7"/>
	<polyline class="st0" points="881.3,253.7 881.9,254.9 882.8,255.7 883.9,256.2 885.2,256.3 	"/>
	<polyline class="st0" points="843.3,129.5 842,133 841.2,136.3 	"/>
	<line class="st0" x1="1028.7" y1="211.1" x2="989.1" y2="103.1"/>
	<polyline class="st0" points="970.8,89.2 974.2,90.7 977.3,92.3 980.3,94.1 982.8,95.9 985.1,97.7 986.9,99.6 988.3,101.4 
		989.1,103.1 	"/>
	<polyline class="st0" points="848.1,124.8 845.4,126.8 844.7,127.6 844.2,128.1 843.3,129.5 	"/>
	<line class="st0" x1="885.1" y1="262" x2="885.2" y2="262.1"/>
	<polyline class="st0" points="885.2,256.3 887.1,255.8 889.3,255 	"/>
	<polyline class="st0" points="885.1,262 884.7,260.8 884.6,259.4 884.7,257.8 885.2,256.3 	"/>
	<line class="st0" x1="1032.5" y1="214.6" x2="1032.4" y2="214.3"/>
	<polyline class="st0" points="1018.5,219.1 1021.2,218.5 1023.4,217.8 1025.4,217 1027,216.1 1028.1,215.1 1028.9,213.9 
		1029.1,212.6 1028.7,211.1 	"/>
	<polyline class="st0" points="889.3,255 892,253.5 895.1,252.8 	"/>
	<polyline class="st0" points="970.8,89.2 965.9,87.7 960.7,86.9 955.4,86.9 950.2,87.6 	"/>
	<line class="st0" x1="943.2" y1="89.5" x2="871.1" y2="112.3"/>
	<polyline class="st0" points="871.1,112.3 867.8,113.5 864.4,114.8 861.1,116.2 858.1,117.8 855.2,119.5 852.5,121.2 850.2,123 
		848.1,124.8 	"/>
	<polyline class="st0" points="950.2,87.6 946.7,88.5 943.2,89.5 	"/>
	<polyline class="st0" points="946.3,206.7 946.5,207.5 946.3,208.6 945.7,209.7 944.8,210.8 943.5,211.9 942,213 940.2,213.9 
		938.3,214.8 936.3,215.5 934.2,216.1 932.2,216.5 930.1,216.7 928.2,216.8 926.5,216.6 925,216.2 923.9,215.7 923.1,214.9 
		922.5,214.1 	"/>
	<line class="st0" x1="922.5" y1="214.1" x2="895.2" y2="139.9"/>
	<line class="st0" x1="895.2" y1="139.9" x2="895.2" y2="139.7"/>
	<polyline class="st0" points="888.9,202.6 888.8,201.9 889.1,201.1 889.8,200.3 890.7,199.5 891.8,198.8 893.2,198.1 894.7,197.6 
		896.2,197.2 897.7,197.1 899,197.1 900.2,197.3 901.1,197.7 901.7,198.2 901.9,198.9 901.8,199.6 901.3,200.4 900.6,201.2 
		899.5,201.9 898.2,202.6 896.8,203.2 895.3,203.6 893.7,203.9 892.4,204 891.1,203.9 890.1,203.6 889.3,203.2 888.9,202.6 	"/>
	<polyline class="st0" points="876.3,168 876.2,167.4 876.5,166.5 877.1,165.7 878,164.9 879.2,164.2 880.5,163.6 882,163.1 
		883.5,162.7 885,162.6 886.3,162.6 887.5,162.7 888.4,163.1 889,163.7 889.2,164.3 889.1,165.1 888.6,165.8 887.9,166.6 
		886.8,167.4 885.5,168.1 884.1,168.7 882.6,169.1 881,169.4 879.6,169.5 878.4,169.3 877.4,169.1 876.6,168.6 876.3,168 	"/>
	<polyline class="st0" points="949.2,233.8 947.3,234.3 945.4,234.7 943.5,234.8 941.9,234.8 940.3,234.6 939.1,234.3 938.1,233.7 
		937.4,233 937.2,232.1 937.2,231.2 937.6,230.2 938.3,229.2 939.4,228.2 940.7,227.2 942.3,226.3 944.1,225.5 946,224.9 	"/>
	<line class="st0" x1="946" y1="224.9" x2="974.5" y2="215.8"/>
	<polyline class="st0" points="974.5,215.8 976.4,215.2 978.4,214.9 980.2,214.7 981.9,214.8 983.4,214.9 984.7,215.4 985.6,215.9 
		986.3,216.6 986.6,217.4 986.5,218.4 986.1,219.4 985.4,220.4 984.3,221.4 983,222.4 981.4,223.3 979.7,224.1 977.8,224.8 	"/>
	<line class="st0" x1="977.8" y1="224.8" x2="949.2" y2="233.8"/>
	<polyline class="st0" points="906.7,118.1 904.8,118.6 902.9,119 901,119.2 899.3,119.1 897.9,119 896.6,118.5 895.6,118 
		895,117.3 894.6,116.5 894.7,115.5 895.1,114.6 895.9,113.5 896.9,112.5 898.2,111.5 899.8,110.6 901.5,109.8 903.4,109.1 	"/>
	<line class="st0" x1="903.4" y1="109.1" x2="932" y2="100.1"/>
	<polyline class="st0" points="932,100.1 933.9,99.6 935.8,99.2 937.7,99.1 939.4,99.1 940.9,99.3 942.1,99.6 943.1,100.2 
		943.8,100.9 944.1,101.7 944.1,102.7 943.6,103.7 942.9,104.6 941.9,105.7 940.5,106.7 938.9,107.6 937.2,108.4 935.3,109 	"/>
	<line class="st0" x1="935.3" y1="109" x2="906.7" y2="118.1"/>
	<line class="st0" x1="1036.7" y1="245.6" x2="1033.9" y2="236.6"/>
	<polyline class="st0" points="1033.9,236.6 1033.7,235.4 1033.6,234 1033.7,232.5 1033.9,231 1034.2,229.8 	"/>
	<polyline class="st0" points="1034.2,229.8 1034.6,228.8 1035,227.8 1035.2,226.8 1035.3,225.9 1035.3,224.9 1035.3,224 
		1035,223.1 1035,222.7 	"/>
	<polyline class="st0" points="1032.6,215 1032.8,215.8 1032.8,216.6 	"/>
	<polyline class="st0" points="1021.9,225.4 1019.3,226.3 1016.6,227.1 1013.7,228.2 1009,229.9 1004.2,231.8 	"/>
	<polyline class="st0" points="1000.5,224.3 1005.3,222.5 1010,221 1014.4,219.9 1018.5,219.1 	"/>
	<polyline class="st0" points="893,261.2 891.4,261.1 890,261.4 	"/>
	<polyline class="st0" points="890,261.4 888.2,261.8 886.6,262 885.2,262.1 	"/>
	<line class="st0" x1="893.4" y1="289.2" x2="885.2" y2="262.1"/>
	<polyline class="st0" points="996.2,234.8 997.2,234.4 998.3,234.1 999.3,233.7 1000.2,233.4 1001.3,233 1002.3,232.6 
		1003.2,232.2 1004.2,231.8 	"/>
	<polyline class="st0" points="993.6,226.8 997.1,225.6 1000.5,224.3 	"/>
	<line class="st0" x1="924.2" y1="257.5" x2="996.2" y2="234.8"/>
	<line class="st0" x1="921.6" y1="249.6" x2="993.6" y2="226.8"/>
	<polyline class="st0" points="893,261.2 896.4,261.6 900,261.7 903.8,261.5 907.7,261.1 911.8,260.6 915.9,259.7 920,258.8 
		924.2,257.5 	"/>
	<polyline class="st0" points="895.1,252.8 897.9,253 900.9,253.1 904.3,253 907.6,252.6 911.1,252.2 914.6,251.4 918.1,250.6 
		921.6,249.6 	"/>
	<line class="st0" x1="1254.6" y1="239.6" x2="1255.3" y2="238.4"/>
	<line class="st0" x1="1254.6" y1="239.6" x2="1085" y2="293.3"/>
	<line class="st0" x1="1254.5" y1="239.2" x2="1254.6" y2="239.6"/>
	<line class="st0" x1="1045.8" y1="253.6" x2="1045.9" y2="253.8"/>
	<line class="st0" x1="1254.5" y1="239.2" x2="1255.3" y2="238.4"/>
	<line class="st0" x1="1251.8" y1="226.8" x2="1255.3" y2="238.4"/>
	<polyline class="st0" points="1249.2,219.6 1248.8,218.8 1248.2,218 1247.4,217.2 1246.3,216.6 1245.2,216.3 1244.1,216.1 
		1242.9,216.1 1241.7,216.4 	"/>
	<line class="st0" x1="1251.8" y1="226.8" x2="1251" y2="227.5"/>
	<polyline class="st0" points="1244.2,223.3 1245.4,223 1246.6,223 1247.8,223.2 1248.9,223.5 1249.9,224.1 1250.7,224.9 
		1251.3,225.8 1251.8,226.8 	"/>
	<line class="st0" x1="1244.2" y1="223.3" x2="1241.7" y2="216.4"/>
	<line class="st0" x1="1241.7" y1="216.4" x2="1096.8" y2="262.2"/>
	<line class="st0" x1="1244.2" y1="223.3" x2="1244.6" y2="224.6"/>
	<line class="st0" x1="1099.4" y1="269.1" x2="1244.2" y2="223.3"/>
	<line class="st0" x1="1052.1" y1="272.4" x2="1052.5" y2="273.5"/>
	<polyline class="st0" points="1085,293.3 1082,294 1079,294.5 1076.1,294.6 1073.2,294.3 1070.3,293.7 1067.5,292.9 1064.9,291.7 
		1062.5,290.2 1060.4,288.5 1058.5,286.5 1056.9,284.3 1055.6,281.9 1054.6,279.4 	"/>
	<line class="st0" x1="1084.8" y1="292.9" x2="1085" y2="293.3"/>
	<line class="st0" x1="1096.8" y1="262.2" x2="1099.4" y2="269.1"/>
	<polyline class="st0" points="1096.8,262.2 1094.7,262.8 1092.5,262.9 1090.4,262.7 1088.4,262.2 1086.5,261.3 1084.9,260.1 
		1083.5,258.7 1082.9,257.9 	"/>
	<line class="st0" x1="1099.4" y1="269.1" x2="1099.8" y2="270.5"/>
	<polyline class="st0" points="1084.2,262.2 1084.9,264 1086,265.6 1087.4,267 1089.1,268.2 1090.9,269.1 1093,269.6 1095.1,269.8 
		1097.3,269.7 1099.4,269.1 	"/>
	<line class="st0" x1="1040.3" y1="235.7" x2="1045.8" y2="253.6"/>
	<line class="st0" x1="1045.8" y1="253.6" x2="1048.8" y2="261.7"/>
	<line class="st0" x1="1048.8" y1="261.7" x2="1052.1" y2="272.4"/>
	<line class="st0" x1="1052.1" y1="272.4" x2="1054.6" y2="279.4"/>
	<line class="st0" x1="1084.2" y1="262.2" x2="1083.4" y2="262.9"/>
	<line class="st0" x1="1077.6" y1="240.7" x2="1084.2" y2="262.2"/>
	<line class="st0" x1="1054.6" y1="279.4" x2="1045.9" y2="250.8"/>
	<line class="st0" x1="1055.8" y1="279.5" x2="1054.6" y2="279.4"/>
	<polyline class="st0" points="1072,225.4 1071.7,224.6 1071,223.8 1070.2,222.9 1069.2,222.4 1068.1,222 1066.9,221.8 
		1065.7,221.9 1064.5,222.1 	"/>
	<line class="st0" x1="1070.1" y1="237.3" x2="1064.5" y2="222.1"/>
	<line class="st0" x1="1064.5" y1="222.1" x2="1044.7" y2="228.5"/>
	<line class="st0" x1="1044.7" y1="228.5" x2="1050.2" y2="243.5"/>
	<polyline class="st0" points="1044.7,228.5 1043.6,228.9 1042.5,229.6 1041.7,230.4 1040.9,231.3 1040.5,232.3 1040.2,233.5 
		1040.2,234.6 1040.3,235.7 	"/>
	<line class="st0" x1="1045.9" y1="250.8" x2="1040.3" y2="235.7"/>
	<line class="st0" x1="1077.6" y1="240.7" x2="1076.8" y2="241.5"/>
	<polyline class="st0" points="1070.1,237.3 1071.3,237 1072.5,237 1073.7,237.1 1074.8,237.5 1075.7,238.1 1076.6,238.8 
		1077.2,239.8 1077.6,240.7 	"/>
	<line class="st0" x1="1084.8" y1="292.9" x2="1254.5" y2="239.2"/>
	<line class="st0" x1="1254.5" y1="239.2" x2="1251" y2="227.5"/>
	<polyline class="st0" points="1251,227.5 1250.6,226.7 1250.1,226 1249.3,225.3 1248.5,224.9 1247.7,224.5 1246.6,224.3 
		1245.6,224.4 1244.6,224.6 	"/>
	<line class="st0" x1="1244.6" y1="224.6" x2="1099.8" y2="270.5"/>
	<polyline class="st0" points="1099.8,270.5 1097.5,271 1095.2,271.2 1092.8,271 1090.6,270.4 1088.7,269.4 1086.8,268.2 
		1085.4,266.6 1084.2,264.9 1083.4,262.9 	"/>
	<line class="st0" x1="1083.4" y1="262.9" x2="1076.8" y2="241.5"/>
	<polyline class="st0" points="1076.8,241.5 1076.5,240.6 1076,239.9 1075.2,239.3 1074.4,238.8 1073.5,238.4 1072.5,238.3 
		1071.5,238.4 1070.5,238.6 	"/>
	<line class="st0" x1="1047.1" y1="250.9" x2="1055.8" y2="279.5"/>
	<polyline class="st0" points="1055.8,279.5 1056.8,282.1 1058.2,284.6 1059.9,286.8 1061.9,288.8 1064.3,290.5 1066.8,291.9 
		1069.6,293 1072.6,293.7 1075.7,294 1078.7,294 1081.8,293.6 1084.8,292.9 	"/>
	<line class="st0" x1="1070.5" y1="238.6" x2="1050.7" y2="244.8"/>
	<line class="st0" x1="1070.1" y1="237.3" x2="1070.5" y2="238.6"/>
	<line class="st0" x1="1050.2" y1="243.5" x2="1070.1" y2="237.3"/>
	<line class="st0" x1="1050.7" y1="244.8" x2="1050.2" y2="243.5"/>
	<polyline class="st0" points="1045.9,250.8 1045.7,249.7 1045.8,248.6 1046,247.5 1046.5,246.4 1047.2,245.5 1048,244.7 
		1049.1,244 1050.2,243.5 	"/>
	<line class="st0" x1="1047.1" y1="250.9" x2="1045.9" y2="250.8"/>
	<polyline class="st0" points="1050.7,244.8 1049.7,245.3 1048.9,245.8 1048.1,246.5 1047.5,247.3 1047.2,248.1 1046.9,249.1 
		1046.9,250 1047.1,250.9 	"/>
	<line class="st0" x1="896.6" y1="201.1" x2="896.8" y2="201.9"/>
	<line class="st0" x1="895" y1="202.8" x2="894.7" y2="201.9"/>
	<line class="st0" x1="890.3" y1="203.1" x2="890.4" y2="203.2"/>
	<line class="st0" x1="901" y1="200" x2="901" y2="199.9"/>
	<line class="st0" x1="882.2" y1="167.6" x2="882" y2="167"/>
	<line class="st0" x1="883.9" y1="166.9" x2="884.2" y2="167.9"/>
	<line class="st0" x1="877.7" y1="168.5" x2="877.7" y2="168.7"/>
	<line class="st0" x1="888.3" y1="165.4" x2="888.3" y2="165.3"/>
	<line class="st0" x1="894.9" y1="138.9" x2="895.2" y2="139.7"/>
	<line class="st0" x1="946.3" y1="206.7" x2="946.1" y2="205.8"/>
	<line class="st0" x1="1026" y1="127.4" x2="1026.5" y2="128.7"/>
	<line class="st0" x1="1024.5" y1="128.1" x2="1024" y2="126.9"/>
	<line class="st0" x1="1030.7" y1="126.4" x2="1030.7" y2="126.4"/>
	<line class="st0" x1="1020.2" y1="130.3" x2="1020.2" y2="130.3"/>
	<line class="st0" x1="1012.1" y1="131.6" x2="1012.6" y2="132.8"/>
	<line class="st0" x1="1010.5" y1="132.7" x2="1010.1" y2="131.5"/>
	<line class="st0" x1="1016.8" y1="130.9" x2="1016.8" y2="130.8"/>
	<line class="st0" x1="1006.3" y1="134.7" x2="1006.3" y2="134.7"/>
	<line class="st0" x1="1008.3" y1="118.9" x2="1008.8" y2="120.1"/>
	<line class="st0" x1="1006.8" y1="120.4" x2="1006.3" y2="119.3"/>
	<line class="st0" x1="1013" y1="118.4" x2="1013" y2="118.3"/>
	<line class="st0" x1="1002.5" y1="122.1" x2="1002.5" y2="122.2"/>
	<line class="st0" x1="1199" y1="83.2" x2="1196.5" y2="76.3"/>
	<line class="st0" x1="1027.9" y1="105.4" x2="1022.4" y2="90.2"/>
	<line class="st0" x1="1115.5" y1="123.7" x2="1117.1" y2="128.1"/>
	<line class="st0" x1="1119.3" y1="135.4" x2="1120.2" y2="138.1"/>
	<line class="st0" x1="1200.4" y1="86.6" x2="1199.8" y2="85.3"/>
	<line class="st0" x1="1167.8" y1="267.5" x2="1168.8" y2="270.2"/>
	<line class="st0" x1="1248.4" y1="217.4" x2="1247.9" y2="216.2"/>
	<line class="st0" x1="1168" y1="267" x2="1169.4" y2="270.8"/>
	<line class="st0" x1="985.9" y1="218.1" x2="985.8" y2="217.6"/>
	<line class="st0" x1="938.1" y1="232.4" x2="938.3" y2="232.9"/>
	<line class="st0" x1="943.5" y1="102.4" x2="943.2" y2="101.8"/>
	<line class="st0" x1="895.6" y1="116.7" x2="895.7" y2="117.2"/>
	<line class="st0" x1="1122.4" y1="137.2" x2="1122.7" y2="138.1"/>
	<line class="st0" x1="1198.5" y1="88.3" x2="1198.2" y2="87.5"/>
	<line class="st0" x1="1029.7" y1="110.1" x2="1028.1" y2="105.7"/>
	<line class="st0" x1="1071.8" y1="224.9" x2="1070.3" y2="220.6"/>
	<line class="st0" x1="1020.7" y1="116.2" x2="1020.3" y2="115.1"/>
	<line class="st0" x1="1022.2" y1="114.3" x2="1022.6" y2="115.4"/>
	<line class="st0" x1="1026.9" y1="114" x2="1026.9" y2="113.9"/>
	<line class="st0" x1="1016.4" y1="117.8" x2="1016.4" y2="117.8"/>
	<line class="st0" x1="847.9" y1="174" x2="855.7" y2="199.4"/>
	<line class="st0" x1="855.9" y1="200" x2="896" y2="309.3"/>
	<polyline class="st0" points="896.2,309.7 897.2,311.8 898.7,314 900.5,316.1 902.6,318.3 	"/>
	<polyline class="st0" points="902.5,318.1 904.8,320 907,321.7 908.9,323 	"/>
	<polyline class="st0" points="908.9,323 911.2,324.1 913.8,324.9 	"/>
	<polyline class="st0" points="1039,282.1 1041.2,278.2 1042.8,274.8 1043.9,271.9 1044.7,269.5 1045.3,267.2 1045.8,264.3 
		1045.9,262 1045.8,259.7 1045.7,259 	"/>
	<polyline class="st0" points="1015.6,298.9 1018.2,298 1019.6,297.5 1021.9,296.6 1023,296.2 	"/>
	<polyline class="st0" points="1022.9,296.2 1026.7,294.3 1030,292.1 1032.8,289.8 1036.3,286 1039,282.1 	"/>
	<line class="st0" x1="943.5" y1="321.7" x2="1015.6" y2="298.9"/>
	<polyline class="st0" points="914.5,325 914.8,325.1 917.6,325.3 920.6,325.5 923.6,325.4 926.6,325.2 929.7,324.8 932.6,324.4 
		935.5,323.8 937.6,323.3 939.6,322.8 942.7,321.9 	"/>
	<line class="st0" x1="942.7" y1="321.9" x2="943.5" y2="321.7"/>
	<polyline class="st0" points="950.5,86.9 948.9,87.2 946.8,87.8 943.8,88.6 	"/>
	<line class="st0" x1="943.8" y1="88.6" x2="943" y2="88.9"/>
	<line class="st0" x1="943" y1="88.9" x2="870.9" y2="111.7"/>
	<polyline class="st0" points="971.9,89.1 969.7,88.2 967,87.4 963.7,86.6 959.8,86.2 955.4,86.2 950.5,86.9 	"/>
	<polyline class="st0" points="870.9,111.8 868.3,112.6 866.9,113.1 864.6,114 862.2,115 859.8,116.1 857.5,117.3 855,118.7 
		852.7,120.1 850.5,121.5 848.4,123.1 846.4,124.8 845.5,125.6 	"/>
	<polyline class="st0" points="845.5,125.6 843.6,127.9 842.3,130.6 	"/>
	<polyline class="st0" points="842.3,130.6 840.9,134.5 840,138.1 	"/>
	<line class="st0" x1="840.2" y1="148.6" x2="847.9" y2="174"/>
	<polyline class="st0" points="992.5,106 991.4,103.6 990.1,101.8 989,100.5 988.3,99.6 987.2,98.6 986,97.5 984.4,96.1 982.2,94.6 
		979.4,92.8 976,90.9 971.9,89.1 	"/>
	<polyline class="st0" points="840.1,138 839.7,140.5 839.5,143 839.6,145.5 840.1,148 	"/>
	<line class="st0" x1="1032.4" y1="214.3" x2="992.7" y2="106.4"/>
	<line class="st0" x1="1032.9" y1="216.6" x2="1032.2" y2="213.8"/>
	<line class="st0" x1="1035" y1="222.7" x2="1032.6" y2="215"/>
	<line class="st0" x1="1045.9" y1="253.8" x2="1048.9" y2="261.9"/>
	<line class="st0" x1="1251.7" y1="226.5" x2="1249.2" y2="219.6"/>
	<line class="st0" x1="1052.5" y1="273.5" x2="1054.9" y2="280.5"/>
	<line class="st0" x1="1077.6" y1="240.5" x2="1072" y2="225.4"/>
</g>
<rect x="99.4" y="144.4" class="st1" width="390.6" height="119.8"/>
<text transform="matrix(1 0 0 1 156.4401 222.7286)" class="st2 st3">Robotic Arm</text>
<text transform="matrix(1 0 0 1 589.7966 252.178)" class="st2 st4">Modbus RTU</text>
<text transform="matrix(1 0 0 1 628.1683 174.4789)" class="st2 st4">RS485</text>
<line class="st1" x1="566.7" y1="205.3" x2="793.3" y2="205.3"/>
</svg>
