<?xml version="1.0" encoding="utf-8"?>
<!-- Generator: Adobe Illustrator 26.0.1, SVG Export Plug-In . SVG Version: 6.00 Build 0)  -->
<svg version="1.1" id="图层_1" xmlns="http://www.w3.org/2000/svg" xmlns:xlink="http://www.w3.org/1999/xlink" x="0px" y="0px"
	 viewBox="0 0 304.6 172" style="enable-background:new 0 0 304.6 172;" xml:space="preserve">
<style type="text/css">
	.st0{fill:#231815;}
	.st1{fill:none;stroke:#040000;stroke-width:0.5;stroke-linecap:round;stroke-linejoin:round;stroke-miterlimit:10;}
	.st2{fill:none;stroke:#040000;stroke-width:0.25;stroke-linecap:round;stroke-linejoin:round;stroke-miterlimit:10;}
	.st3{fill:none;stroke:#040000;stroke-width:0.5;stroke-miterlimit:10;}
	.st4{fill:none;}
	.st5{fill:none;stroke:#040000;stroke-width:0.5;stroke-miterlimit:10;stroke-dasharray:0.9912,0.9912;}
	.st6{fill:none;stroke:#060001;stroke-width:0.5;stroke-miterlimit:10;}
	.st7{fill:none;stroke:#060001;stroke-width:0.5;stroke-miterlimit:10;stroke-dasharray:1.045,1.045;}
	.st8{fill:none;stroke:#060001;stroke-width:0.5;stroke-miterlimit:10;stroke-dasharray:1.0423,1.0423;}
	.st9{fill:none;stroke:#060001;stroke-width:0.5;stroke-miterlimit:10;stroke-dasharray:1.0831,1.0831;}
	.st10{fill:none;stroke:#060001;stroke-width:0.5;stroke-miterlimit:10;stroke-dasharray:0.9601,0.9601;}
	.st11{fill:none;stroke:#060001;stroke-width:0.5;stroke-miterlimit:10;stroke-dasharray:1.1325,1.1325;}
	.st12{fill:#040000;}
	.st13{fill:none;stroke:#040000;stroke-width:0.5;stroke-miterlimit:10;stroke-dasharray:0.9923,0.9923;}
	.st14{fill:none;stroke:#09070A;stroke-width:0.5;stroke-miterlimit:10;}
	.st15{fill:#0A080A;}
	.st16{fill:#0A070A;}
	.st17{fill:none;stroke:#040000;stroke-width:0.5;stroke-linecap:round;stroke-linejoin:round;}
	.st18{fill:none;stroke:#040000;stroke-width:0.5;stroke-linecap:round;stroke-linejoin:round;stroke-dasharray:0.9429,0.9429;}
	.st19{fill:none;stroke:#040000;stroke-width:0.5;stroke-miterlimit:10;stroke-dasharray:1.0015,1.0015;}
	.st20{fill:none;stroke:#060001;stroke-width:0.5;stroke-miterlimit:10;stroke-dasharray:1.0245,1.0245;}
	.st21{fill:none;stroke:#060001;stroke-width:0.5;stroke-miterlimit:10;stroke-dasharray:1.0221,1.0221;}
	.st22{fill:none;stroke:#060001;stroke-width:0.5;stroke-miterlimit:10;stroke-dasharray:1.0612,1.0612;}
	.st23{fill:none;stroke:#060001;stroke-width:0.5;stroke-miterlimit:10;stroke-dasharray:0.9412,0.9412;}
	.st24{fill:none;stroke:#060001;stroke-width:0.5;stroke-miterlimit:10;stroke-dasharray:1.1091,1.1091;}
	.st25{fill:none;stroke:#040000;stroke-width:0.5;stroke-miterlimit:10;stroke-dasharray:0.977,0.977;}
	.st26{fill:none;stroke:#040000;stroke-width:0.5;stroke-linecap:round;stroke-linejoin:round;stroke-dasharray:0.9641,0.9641;}
	.st27{font-family:'SourceHanSansCN-Medium-GBpc-EUC-H';}
	.st28{font-size:8.2607px;}
	.st29{fill:none;stroke:#960000;stroke-width:0.5;stroke-linecap:round;stroke-linejoin:round;stroke-miterlimit:10;}
	.st30{fill:none;stroke:#338900;stroke-width:0.5;stroke-linecap:round;stroke-linejoin:round;stroke-miterlimit:10;}
	.st31{fill:#338900;}
	.st32{fill:#960000;}
</style>
<polyline class="st1" points="178.9,147.9 180.3,148.3 181.4,148.5 "/>
<polyline class="st1" points="175.6,146.4 177.3,147.2 178.9,147.9 "/>
<polyline class="st1" points="181.4,148.5 181.5,148.5 182.2,148.5 "/>
<text transform="matrix(1 0 0 1 21.2603 83.004)" class="st0 st27 st28">状态指示灯</text>
<text transform="matrix(1 0 0 1 22.7866 124.3781)" class="st0 st27 st28">电源指示灯</text>
<line class="st1" x1="121.5" y1="70" x2="121.5" y2="69.6"/>
<line class="st1" x1="173.7" y1="101.9" x2="173.7" y2="102.2"/>
<line class="st1" x1="258.1" y1="96.5" x2="258.1" y2="96.5"/>
<line class="st1" x1="241" y1="111.8" x2="244.7" y2="114.1"/>
<line class="st1" x1="221.1" y1="111" x2="226.4" y2="114.3"/>
<line class="st1" x1="144.1" y1="44.8" x2="144.3" y2="45.1"/>
<line class="st1" x1="128.9" y1="43" x2="127.4" y2="42.1"/>
<line class="st1" x1="162.5" y1="46.8" x2="164.2" y2="47.8"/>
<line class="st2" x1="129.3" y1="82.5" x2="129.3" y2="83.2"/>
<line class="st2" x1="129.9" y1="82.8" x2="129.9" y2="83.1"/>
<line class="st2" x1="129" y1="83.5" x2="129" y2="83"/>
<line class="st2" x1="154" y1="97.6" x2="154" y2="98"/>
<line class="st2" x1="153.2" y1="98" x2="153.2" y2="97.7"/>
<line class="st2" x1="153.9" y1="98.1" x2="153.9" y2="98.6"/>
<polyline class="st1" points="119.9,43.4 119.6,43.2 119.4,43.1 119.1,43 118.9,43.1 "/>
<polyline class="st1" points="127.7,42.7 127.7,42.7 127.8,42.7 127.8,42.9 "/>
<line class="st1" x1="117.9" y1="50" x2="117.9" y2="50.2"/>
<line class="st1" x1="109.1" y1="55.8" x2="109.1" y2="55.6"/>
<line class="st1" x1="88.7" y1="67.3" x2="88.7" y2="67.6"/>
<polyline class="st1" points="139.3,47.8 139.5,47.8 139.7,47.9 "/>
<polyline class="st1" points="215.5,94.8 215.3,94.8 215.2,94.7 "/>
<line class="st1" x1="220.9" y1="101.3" x2="220.9" y2="101.7"/>
<line class="st1" x1="199.1" y1="100.3" x2="199.1" y2="100.6"/>
<line class="st1" x1="190.4" y1="106.1" x2="190.4" y2="105.9"/>
<line class="st1" x1="123.9" y1="54" x2="123.9" y2="54.1"/>
<line class="st1" x1="115.4" y1="59.5" x2="115.4" y2="59.4"/>
<line class="st1" x1="205.2" y1="104.3" x2="205.2" y2="104.4"/>
<line class="st1" x1="196.7" y1="109.8" x2="196.7" y2="109.7"/>
<polyline class="st1" points="126.5,68.7 126.8,68.5 127.1,68.2 127.2,67.9 127.3,67.5 127.1,67.1 126.8,66.8 126.4,66.6 
	125.9,66.4 125.4,66.3 124.8,66.3 124.2,66.4 123.7,66.7 123.3,66.9 123.1,67.3 123,67.6 123.1,68 123.3,68.3 123.6,68.6 "/>
<line class="st1" x1="123.6" y1="68.6" x2="123.8" y2="68.7"/>
<polyline class="st1" points="178.7,100.9 178.9,100.8 179.3,100.5 179.4,100.1 179.4,99.8 179.3,99.4 179,99.1 178.6,98.9 
	178.1,98.7 177.5,98.6 177,98.6 176.4,98.7 175.9,98.9 175.5,99.2 175.3,99.5 175.2,99.9 175.2,100.3 175.4,100.6 175.8,100.9 "/>
<line class="st1" x1="175.8" y1="100.9" x2="175.9" y2="101"/>
<polyline class="st1" points="123.3,68.5 122.9,68.2 122.7,67.8 122.5,67.4 122.6,67 122.8,66.7 123.1,66.3 123.5,66 124.1,65.8 
	124.7,65.7 125.3,65.7 125.9,65.7 126.5,65.9 127,66.1 127.4,66.4 127.6,66.8 127.7,67.2 127.7,67.6 127.5,68 127.2,68.3 
	126.7,68.6 126.2,68.8 125.6,68.9 125,68.9 124.4,68.9 123.8,68.7 123.3,68.5 "/>
<polyline class="st1" points="175.5,100.7 175.1,100.4 174.8,100.1 174.7,99.7 174.7,99.3 174.9,98.9 175.3,98.6 175.7,98.3 
	176.2,98.1 176.8,98 177.5,98 178.1,98 178.6,98.2 179.1,98.4 179.5,98.7 179.8,99.1 179.9,99.5 179.9,99.9 179.7,100.2 
	179.3,100.6 178.9,100.9 178.4,101.1 177.8,101.2 177.1,101.2 176.5,101.1 176,101 175.5,100.7 "/>
<polyline class="st1" points="173.7,101.9 174.3,102.3 175.1,102.5 176,102.7 176.8,102.8 177.7,102.8 178.6,102.7 179.5,102.5 
	180.3,102.2 181,101.8 181.5,101.4 181.9,100.9 182.3,100.4 182.4,99.8 182.4,99.3 182.3,98.7 182,98.2 181.5,97.7 181,97.3 "/>
<line class="st1" x1="181" y1="97.3" x2="128.8" y2="65"/>
<polyline class="st1" points="121.5,69.6 120.9,69.2 120.5,68.7 120.2,68.2 120,67.6 120,67 120.2,66.5 120.5,66 120.9,65.5 
	121.5,65 122.2,64.7 123,64.4 123.8,64.2 124.7,64.1 125.6,64.1 126.5,64.2 127.3,64.4 128.1,64.6 128.8,65 "/>
<line class="st1" x1="121.5" y1="69.6" x2="173.7" y2="101.9"/>
<line class="st1" x1="258.1" y1="96.5" x2="258.1" y2="96.4"/>
<polyline class="st1" points="256.9,98.3 257,98.2 257,97.9 257.1,97.7 257.3,97.4 257.5,97.1 257.6,96.8 257.9,96.6 258.1,96.5 "/>
<polyline class="st1" points="168.3,40.9 168.1,41.1 167.9,41.3 167.7,41.5 167.5,41.8 167.4,42.1 167.3,42.4 167.2,42.6 
	167.2,42.9 "/>
<line class="st1" x1="167.2" y1="42.9" x2="167.3" y2="51.6"/>
<polyline class="st1" points="167.3,51.6 167.3,51.8 167.4,52 167.5,52.2 167.7,52.3 167.8,52.3 168.1,52.3 168.3,52.2 168.5,52.1 
	"/>
<line class="st1" x1="168.5" y1="52.1" x2="191.5" y2="37.4"/>
<polyline class="st1" points="191.5,37.4 191.8,37.3 192,37.1 192.2,36.8 192.4,36.6 192.5,36.3 192.6,36 192.7,35.7 192.7,35.4 "/>
<line class="st1" x1="192.7" y1="35.4" x2="192.5" y2="26.7"/>
<line class="st1" x1="191.4" y1="26.2" x2="168.3" y2="40.9"/>
<line class="st29" x1="108.6" y1="103.5" x2="108.5" y2="103.6"/>
<line class="st29" x1="108.5" y1="100.1" x2="107.2" y2="99.3"/>
<line class="st29" x1="107.2" y1="99.3" x2="107.2" y2="102.8"/>
<line class="st29" x1="107.2" y1="102.8" x2="108.5" y2="103.6"/>
<line class="st29" x1="108.5" y1="103.6" x2="108.5" y2="100.1"/>
<line class="st30" x1="105.4" y1="98.3" x2="104.1" y2="97.4"/>
<line class="st30" x1="104.1" y1="97.4" x2="104.2" y2="100.9"/>
<line class="st30" x1="104.2" y1="100.9" x2="105.5" y2="101.7"/>
<line class="st30" x1="105.5" y1="101.7" x2="105.4" y2="98.3"/>
<line class="st30" x1="105.6" y1="101.7" x2="105.5" y2="101.7"/>
<polyline class="st1" points="225.1,94.9 225.5,94.8 225.8,94.7 226.1,94.6 226.4,94.7 226.5,94.8 "/>
<line class="st1" x1="219.8" y1="98.3" x2="225.1" y2="94.9"/>
<line class="st1" x1="221.1" y1="112.1" x2="221.4" y2="111.9"/>
<polyline class="st1" points="229.6,96.7 229.4,96.6 229.2,96.5 228.8,96.5 228.5,96.6 228.1,96.8 "/>
<line class="st1" x1="228.1" y1="96.8" x2="220.9" y2="101.4"/>
<polyline class="st1" points="144.4,45 144.8,44.8 145.1,44.7 145.4,44.7 145.7,44.8 145.8,44.8 "/>
<line class="st1" x1="139.8" y1="48" x2="144.4" y2="45"/>
<line class="st1" x1="149.4" y1="53.9" x2="149.3" y2="47.7"/>
<polyline class="st1" points="149.3,47.7 149.2,47.4 149.2,47.1 149,46.8 148.7,46.6 148.5,46.6 148.2,46.6 147.8,46.7 147.4,46.9 
	"/>
<line class="st1" x1="147.4" y1="46.9" x2="142.8" y2="49.8"/>
<line class="st1" x1="283.9" y1="83.1" x2="284.1" y2="83"/>
<line class="st1" x1="290.9" y1="91.5" x2="290.9" y2="91.1"/>
<line class="st1" x1="290.9" y1="86.8" x2="290.9" y2="91.1"/>
<polyline class="st1" points="285.6,82.7 285.5,82.7 285.2,82.6 284.9,82.6 284.5,82.7 284.2,82.9 "/>
<line class="st1" x1="290.9" y1="86.8" x2="290.9" y2="87.2"/>
<polyline class="st1" points="289,85.9 289.4,85.8 289.7,85.6 290,85.6 290.3,85.7 290.6,85.8 290.7,86.1 290.9,86.4 290.9,86.8 "/>
<line class="st1" x1="241" y1="110.4" x2="283.9" y2="83.1"/>
<line class="st1" x1="283.9" y1="83.1" x2="284.2" y2="82.9"/>
<line class="st1" x1="284.2" y1="82.9" x2="241" y2="110.4"/>
<line class="st1" x1="244.7" y1="114.1" x2="289" y2="85.9"/>
<polyline class="st1" points="241,112.4 241.1,113.1 241.3,113.7 241.5,114.1 241.9,114.5 242.4,114.7 242.9,114.8 243.5,114.7 
	244.1,114.5 244.7,114.1 "/>
<line class="st1" x1="228.1" y1="97.2" x2="228.3" y2="97.1"/>
<line class="st1" x1="221.1" y1="111.7" x2="221.1" y2="111.7"/>
<polyline class="st1" points="226.5,118.3 226.5,119.2 226.7,120.1 227,120.9 227.4,121.5 227.9,122 228.4,122.4 "/>
<polyline class="st1" points="237.8,125.2 237,125.5 236.1,125.8 235.4,125.9 234.6,125.9 233.9,125.7 233.3,125.5 232.7,125 
	232.2,124.5 231.8,123.8 231.6,123.1 231.4,122.2 231.3,121.3 "/>
<line class="st1" x1="222.1" y1="101" x2="228.1" y2="97.2"/>
<line class="st1" x1="228.4" y1="97" x2="228.1" y2="97.2"/>
<line class="st1" x1="241" y1="112.4" x2="241" y2="112.8"/>
<line class="st1" x1="240.9" y1="104.4" x2="241" y2="112.4"/>
<line class="st1" x1="222.4" y1="100.9" x2="222.1" y2="101"/>
<polyline class="st1" points="220.9,102.3 221,102.2 221.2,101.8 221.5,101.5 221.8,101.2 222.1,101 "/>
<polyline class="st1" points="229.8,96.8 229.7,96.8 229.5,96.7 229.1,96.7 228.8,96.8 228.4,97 "/>
<line class="st1" x1="240.9" y1="104.4" x2="240.9" y2="104.8"/>
<polyline class="st1" points="239.1,103.6 239.4,103.4 239.7,103.3 240.1,103.3 240.3,103.4 240.6,103.5 240.7,103.7 240.8,104 
	240.9,104.4 "/>
<line class="st1" x1="226.4" y1="114.3" x2="226.5" y2="118.3"/>
<line class="st1" x1="228.4" y1="97" x2="222.4" y2="100.9"/>
<line class="st1" x1="231.3" y1="121.3" x2="231.2" y2="110.6"/>
<line class="st1" x1="231.9" y1="121.3" x2="231.3" y2="121.3"/>
<line class="st1" x1="239.1" y1="103.6" x2="239.4" y2="104.1"/>
<line class="st1" x1="233" y1="107.4" x2="239.1" y2="103.6"/>
<line class="st1" x1="239.1" y1="124.5" x2="290.9" y2="91.5"/>
<line class="st1" x1="290.9" y1="91.5" x2="290.9" y2="87.2"/>
<line class="st1" x1="241" y1="112.8" x2="240.9" y2="104.8"/>
<polyline class="st1" points="240.9,104.8 240.9,104.5 240.8,104.3 240.6,104 240.4,103.9 240.2,103.9 239.9,103.9 239.7,104 
	239.4,104.1 "/>
<line class="st1" x1="239.4" y1="104.1" x2="233.3" y2="108"/>
<line class="st1" x1="231.8" y1="110.6" x2="231.9" y2="121.3"/>
<polyline class="st1" points="231.9,121.3 232,122.3 232.2,123.1 232.5,123.9 232.9,124.5 233.5,125.1 234.1,125.4 234.8,125.7 
	235.5,125.7 236.4,125.7 237.2,125.4 238.1,125.1 239.1,124.5 "/>
<polyline class="st1" points="222.4,100.9 222,101.1 221.7,101.5 221.3,101.9 221.1,102.3 220.9,102.5 "/>
<line class="st1" x1="233.3" y1="108" x2="233" y2="107.4"/>
<polyline class="st1" points="231.2,110.6 231.2,110.2 231.3,109.8 231.5,109.3 231.7,108.9 232,108.4 232.3,108 232.6,107.7 
	233,107.4 "/>
<line class="st1" x1="231.8" y1="110.6" x2="231.2" y2="110.6"/>
<polyline class="st1" points="233.3,108 233,108.2 232.7,108.5 232.5,108.8 232.2,109.1 232,109.5 231.9,109.9 231.8,110.3 
	231.8,110.6 "/>
<line class="st1" x1="183.4" y1="20.6" x2="183.2" y2="20.8"/>
<polyline class="st1" points="183.5,20.6 183.9,20.4 184.2,20.3 184.5,20.3 184.8,20.4 184.9,20.4 "/>
<line class="st1" x1="183.2" y1="20.8" x2="145.6" y2="44.7"/>
<line class="st1" x1="183.5" y1="20.6" x2="183.2" y2="20.8"/>
<line class="st1" x1="145.6" y1="44.7" x2="183.5" y2="20.6"/>
<line class="st1" x1="133.4" y1="38.3" x2="133.2" y2="38.4"/>
<line class="st1" x1="165" y1="45.2" x2="150.4" y2="54.5"/>
<polyline class="st1" points="188.6,24.1 188.9,24 189.2,23.9 189.5,23.9 189.7,23.9 189.9,24.1 190.1,24.3 190.1,24.4 "/>
<line class="st1" x1="149.3" y1="49.2" x2="188.6" y2="24.1"/>
<line class="st1" x1="133.2" y1="38.4" x2="127.1" y2="42.2"/>
<line class="st1" x1="133.5" y1="38.3" x2="133.2" y2="38.4"/>
<line class="st1" x1="127.1" y1="42.2" x2="127.4" y2="42.1"/>
<line class="st1" x1="127.1" y1="42.2" x2="126.8" y2="42.5"/>
<polyline class="st1" points="133.5,38.3 133.8,38.1 134.2,38 134.5,38 134.8,38 134.9,38.1 "/>
<polyline class="st1" points="145.6,44.7 145.4,44.6 145.1,44.5 144.8,44.5 144.5,44.6 144.1,44.8 "/>
<line class="st1" x1="127.4" y1="42.1" x2="133.5" y2="38.3"/>
<line class="st1" x1="144.1" y1="44.8" x2="139.4" y2="47.8"/>
<polyline class="st1" points="126.9,42.5 127.1,42.4 127.4,42.1 "/>
<line class="st1" x1="290.9" y1="91.8" x2="291" y2="92.8"/>
<line class="st1" x1="290.7" y1="91.6" x2="290.9" y2="91.8"/>
<line class="st1" x1="290.9" y1="92.2" x2="290.9" y2="91.8"/>
<line class="st1" x1="290.9" y1="91.8" x2="290.7" y2="91.7"/>
<line class="st1" x1="291" y1="93.2" x2="291" y2="92.8"/>
<line class="st1" x1="281.5" y1="81.6" x2="281.7" y2="81.5"/>
<polyline class="st1" points="283.1,81.2 283,81.2 282.8,81.1 282.4,81.1 282.1,81.2 281.7,81.4 "/>
<polyline class="st1" points="284,81.8 284.2,81.9 284.4,82.2 284.5,82.5 284.5,82.8 "/>
<line class="st1" x1="258.4" y1="96.3" x2="281.5" y2="81.6"/>
<line class="st1" x1="281.7" y1="81.4" x2="281.5" y2="81.6"/>
<line class="st1" x1="281.7" y1="81.4" x2="258.7" y2="96.1"/>
<polyline class="st1" points="265.9,110.8 265.8,110.8 265.4,110.9 265.1,110.9 264.8,110.9 264.6,110.7 "/>
<line class="st1" x1="258.4" y1="96.3" x2="258.7" y2="96.1"/>
<polyline class="st1" points="256.9,98.9 256.9,98.5 257,98.2 257.1,97.8 257.3,97.4 257.6,97.1 257.8,96.7 258.1,96.5 258.4,96.3 
	"/>
<line class="st1" x1="291" y1="93.2" x2="290.9" y2="92.2"/>
<polyline class="st1" points="264.9,109.8 264.9,110.1 265,110.3 265.2,110.6 265.3,110.7 265.6,110.7 265.8,110.7 266.1,110.6 
	266.4,110.5 "/>
<line class="st1" x1="266.4" y1="110.5" x2="289.5" y2="95.8"/>
<polyline class="st1" points="289.5,95.8 289.8,95.6 290.1,95.3 290.3,95 290.6,94.6 290.7,94.3 290.9,93.9 290.9,93.5 291,93.2 "/>
<line class="st1" x1="264.8" y1="108.8" x2="264.9" y2="109.8"/>
<line class="st1" x1="290.9" y1="92.2" x2="290.7" y2="91.7"/>
<line class="st1" x1="264.8" y1="108.8" x2="264.6" y2="108.3"/>
<polyline class="st1" points="258.7,96.1 258.3,96.4 258,96.7 257.7,97.1 257.4,97.5 257.2,98 257,98.4 256.9,98.9 256.9,99.3 "/>
<line class="st1" x1="256.9" y1="99.3" x2="256.9" y2="100.2"/>
<line class="st1" x1="192.8" y1="35" x2="192.8" y2="34.6"/>
<line class="st1" x1="189.5" y1="24.7" x2="189.7" y2="24.6"/>
<polyline class="st1" points="191.2,24.4 191.2,24.3 190.9,24.2 190.5,24.2 190.2,24.4 189.9,24.5 "/>
<polyline class="st1" points="164.2,50.5 164.3,50.9 164.4,51.2 164.5,51.4 164.7,51.5 "/>
<line class="st1" x1="166.5" y1="39.4" x2="189.5" y2="24.7"/>
<line class="st1" x1="189.5" y1="24.7" x2="189.9" y2="24.5"/>
<line class="st1" x1="164.2" y1="47.8" x2="164.2" y2="50.5"/>
<line class="st1" x1="165" y1="42.4" x2="165.1" y2="47.4"/>
<line class="st1" x1="165.1" y1="47.4" x2="163.3" y2="46.3"/>
<line class="st1" x1="189.9" y1="24.5" x2="166.8" y2="39.2"/>
<line class="st1" x1="166.5" y1="39.4" x2="166.8" y2="39.2"/>
<polyline class="st1" points="165,42 165,41.6 165.1,41.3 165.2,40.9 165.4,40.6 165.7,40.2 165.9,39.9 166.2,39.6 166.5,39.4 "/>
<line class="st1" x1="168.2" y1="52.3" x2="191.2" y2="37.6"/>
<polyline class="st1" points="192.7,35.6 192.7,35.3 192.8,35 "/>
<line class="st1" x1="191.2" y1="37.6" x2="191.5" y2="37.5"/>
<polyline class="st1" points="166.8,39.2 166.4,39.5 166.1,39.8 165.8,40.2 165.5,40.6 165.3,41.1 165.1,41.5 165,42 165,42.4 "/>
<line class="st2" x1="129.6" y1="83" x2="129.7" y2="82"/>
<line class="st2" x1="129.1" y1="83.5" x2="129.1" y2="82.5"/>
<line class="st2" x1="128.3" y1="82.3" x2="128.4" y2="82.7"/>
<polyline class="st2" points="129.1,83.5 129.1,83.5 129.2,83.5 "/>
<line class="st2" x1="129" y1="83.5" x2="129.1" y2="83.5"/>
<polyline class="st2" points="130.9,83.9 131.2,83.7 131.5,83.4 131.7,83 131.7,82.8 "/>
<polyline class="st2" points="127.1,82.9 127.1,83 127.2,83.4 127.5,83.7 127.9,83.9 "/>
<polyline class="st2" points="129.4,83.1 129.4,83.1 129.5,83.1 129.5,83.1 129.5,83 129.6,83 129.6,83 129.6,83 129.7,83 "/>
<line class="st2" x1="129.1" y1="83.6" x2="129.4" y2="83.1"/>
<line class="st2" x1="128.7" y1="83.5" x2="129.1" y2="83.6"/>
<line class="st2" x1="129" y1="83" x2="128.7" y2="83.5"/>
<polyline class="st2" points="128.9,82.9 128.9,82.9 129,82.9 129,82.9 129,82.9 129,82.9 129,83 "/>
<line class="st2" x1="128.1" y1="82.6" x2="128.9" y2="82.9"/>
<line class="st2" x1="128.3" y1="82.3" x2="128.1" y2="82.6"/>
<line class="st2" x1="129.1" y1="82.5" x2="128.3" y2="82.3"/>
<polyline class="st2" points="129.3,82.5 129.3,82.5 129.3,82.5 129.2,82.5 129.2,82.5 129.1,82.5 129.1,82.5 129.1,82.5 "/>
<line class="st2" x1="129.7" y1="82" x2="129.3" y2="82.5"/>
<line class="st2" x1="130.1" y1="82.1" x2="129.7" y2="82"/>
<line class="st2" x1="129.8" y1="82.6" x2="130.1" y2="82.1"/>
<polyline class="st2" points="129.9,82.8 129.8,82.8 129.8,82.7 129.8,82.7 129.8,82.7 129.8,82.7 129.8,82.6 129.8,82.6 "/>
<line class="st2" x1="130.6" y1="83" x2="129.9" y2="82.8"/>
<line class="st2" x1="130.4" y1="83.2" x2="130.6" y2="83"/>
<line class="st2" x1="129.7" y1="83" x2="130.4" y2="83.2"/>
<polyline class="st2" points="128.2,84 127.9,83.9 127.5,83.7 127.2,83.3 127.1,83 127.1,82.6 127.3,82.2 127.6,81.9 128,81.6 
	128.5,81.5 129.1,81.4 129.7,81.4 130.3,81.5 "/>
<polyline class="st2" points="130.3,81.5 130.8,81.7 131.2,81.9 131.5,82.2 131.7,82.6 131.7,83 131.5,83.4 131.2,83.7 130.8,83.9 
	130.6,84 "/>
<line class="st2" x1="153.8" y1="97" x2="153.8" y2="98.1"/>
<line class="st2" x1="153.9" y1="98.5" x2="153.9" y2="97.5"/>
<line class="st2" x1="154.8" y1="97.9" x2="154.9" y2="97.6"/>
<polyline class="st2" points="153.9,98.5 153.9,98.5 153.9,98.5 153.9,98.6 "/>
<line class="st2" x1="153.8" y1="98.1" x2="153.9" y2="98.5"/>
<line class="st2" x1="153.4" y1="98.1" x2="153.8" y2="98.1"/>
<line class="st2" x1="152.4" y1="97.7" x2="152.5" y2="98.1"/>
<polyline class="st2" points="155.2,98.9 155.4,98.7 155.7,98.4 155.9,98.1 155.9,97.8 "/>
<polyline class="st2" points="151.3,97.9 151.4,98 151.5,98.4 151.8,98.7 152.2,99 "/>
<polyline class="st2" points="153.9,98.1 153.9,98.1 153.9,98 153.9,98 154,98 154,98 154,98 154.1,98 154.1,97.9 "/>
<line class="st2" x1="154" y1="98.6" x2="153.9" y2="98.1"/>
<line class="st2" x1="153.5" y1="98.6" x2="154" y2="98.6"/>
<line class="st2" x1="153.4" y1="98.1" x2="153.5" y2="98.6"/>
<polyline class="st2" points="153.2,98 153.3,98 153.3,98 153.3,98 153.4,98 153.4,98.1 153.4,98.1 153.4,98.1 153.4,98.1 "/>
<line class="st2" x1="152.4" y1="98.1" x2="153.2" y2="98"/>
<line class="st2" x1="152.4" y1="97.7" x2="152.4" y2="98.1"/>
<line class="st2" x1="153.2" y1="97.7" x2="152.4" y2="97.7"/>
<polyline class="st2" points="153.4,97.6 153.4,97.6 153.3,97.6 153.3,97.7 153.3,97.7 153.2,97.7 153.2,97.7 "/>
<line class="st2" x1="153.3" y1="97.1" x2="153.4" y2="97.6"/>
<line class="st2" x1="153.8" y1="97" x2="153.3" y2="97.1"/>
<line class="st2" x1="153.9" y1="97.5" x2="153.8" y2="97"/>
<polyline class="st2" points="154,97.6 154,97.6 154,97.6 153.9,97.6 153.9,97.6 153.9,97.6 153.9,97.6 153.9,97.6 153.9,97.5 "/>
<line class="st2" x1="154.9" y1="97.6" x2="154" y2="97.6"/>
<line class="st2" x1="154.9" y1="97.9" x2="154.9" y2="97.6"/>
<line class="st2" x1="154.1" y1="97.9" x2="154.9" y2="97.9"/>
<polyline class="st2" points="152.4,99.1 152.2,99 151.8,98.7 151.5,98.4 151.4,98 151.4,97.6 151.6,97.2 151.9,96.9 152.3,96.7 
	152.8,96.5 153.4,96.4 "/>
<polyline class="st2" points="153.4,96.4 154,96.4 154.6,96.5 155.1,96.7 155.5,97 155.8,97.3 155.9,97.7 155.9,98 155.7,98.4 
	155.4,98.7 155,99 154.9,99 "/>
<polyline class="st1" points="125.5,52 125.5,51.8 125.3,51.3 124.9,50.8 124.5,50.4 123.9,50.1 123.2,49.8 122.5,49.6 121.8,49.5 
	"/>
<polyline class="st1" points="108.9,56 108.6,56.2 108.2,56.7 108,57.2 107.8,57.7 107.8,57.8 "/>
<polyline class="st1" points="88.9,69 88.8,68.3 88.7,67.6 "/>
<polyline class="st1" points="89.8,72.3 89.3,70.7 88.9,69 "/>
<line class="st1" x1="89.8" y1="72.3" x2="89.8" y2="72.3"/>
<polyline class="st1" points="93.5,76.3 92.4,75.5 91.4,74.5 90.6,73.5 89.8,72.3 "/>
<polyline class="st1" points="127.8,42.9 129.4,43.3 130.9,43.8 132.5,44.3 134,45 135.4,45.6 136.8,46.4 138.1,47.1 139.3,47.8 "/>
<polyline class="st1" points="219.1,99.4 219.2,98.8 219.1,98.4 218.9,97.8 218.4,97.3 217.9,96.7 217.1,96.1 216.2,95.4 
	215.2,94.7 "/>
<polyline class="st1" points="127.8,42.9 125.8,42.5 123.8,42.5 121.8,42.8 119.9,43.4 "/>
<polyline class="st1" points="220.9,101.7 220.9,101.4 220.8,101 220.6,100.6 220.4,100.3 220.1,100 219.8,99.7 219.5,99.5 
	219.1,99.4 "/>
<polyline class="st1" points="215.9,102.9 217.1,101.8 218,100.8 218.7,100 219.1,99.4 "/>
<polyline class="st1" points="220.9,100.9 220.9,101 220.9,101.3 "/>
<polyline class="st1" points="220.9,101.7 220.7,102.3 220.5,102.9 220,103.5 219.2,104.6 218.1,105.7 "/>
<polyline class="st1" points="215.9,107.5 216.2,107.3 216.5,107.1 216.8,106.9 217,106.7 217.3,106.4 217.6,106.2 217.9,106 
	218.1,105.7 "/>
<polyline class="st1" points="206.8,102.4 206.7,102.1 206.5,101.6 206.2,101.2 205.7,100.7 205.2,100.4 204.5,100.1 203.7,99.9 
	203.1,99.8 "/>
<polyline class="st1" points="190.2,106.3 189.9,106.6 189.5,107 189.2,107.5 189.1,108 "/>
<line class="st1" x1="170.2" y1="123.8" x2="93.5" y2="76.3"/>
<path class="st1" d="M215.9,107.5l-22,14c-13.3,8.5-22.4,2.9-22.4,2.9l-1.2-0.6"/>
<polyline class="st1" points="91.1,70.8 91.6,71.9 92.3,72.9 93.1,73.7 94.1,74.4 "/>
<path class="st1" d="M94.1,74.4l76.7,47.5c0,0,8.9,5.1,21.2-3.5l22-14"/>
<path class="st1" d="M117.6,44.6l-22.1,14c-6.1,3.9-5.2,9.1-5.2,9.1l0.3,1.5l0.5,1.5"/>
<polyline class="st1" points="214,104.3 215,103.7 215.9,102.9 "/>
<polyline class="st1" points="119.9,43.4 118.7,44 117.6,44.6 "/>
<polyline class="st1" points="182.5,99.8 182.4,100.2 182.3,100.7 182,101.3 181.5,101.7 181,102.2 180.3,102.5 179.5,102.8 
	178.6,103 177.7,103.1 176.9,103.1 176,103 175.1,102.9 174.3,102.6 173.7,102.2 "/>
<line class="st1" x1="173.7" y1="102.2" x2="121.5" y2="70"/>
<polyline class="st1" points="121.5,70 120.9,69.5 120.5,69 120.2,68.5 120,68 120,67.7 "/>
<polyline class="st2" points="151.7,98.7 151.3,98.4 151,98.1 150.9,97.7 150.9,97.2 151,96.8 151.4,96.5 151.8,96.2 152.3,95.9 
	152.9,95.8 153.5,95.7 154.2,95.8 154.8,95.9 155.4,96.1 155.8,96.4 156.2,96.7 156.4,97.1 156.4,97.5 156.3,97.9 156.1,98.3 
	155.7,98.6 155.2,98.9 154.7,99.1 154,99.2 153.4,99.2 152.8,99.1 152.2,99 151.7,98.7 "/>
<polyline class="st2" points="127.4,83.7 127,83.4 126.7,83 126.6,82.6 126.6,82.2 126.8,81.8 127.1,81.5 127.5,81.2 128.1,80.9 
	128.7,80.8 129.3,80.7 129.9,80.7 130.6,80.9 131.1,81.1 131.6,81.3 131.9,81.7 132.1,82.1 132.2,82.5 132.1,82.9 131.8,83.2 
	131.4,83.6 131,83.9 130.4,84.1 129.8,84.2 129.1,84.2 128.5,84.1 127.9,83.9 127.4,83.7 "/>
<polyline class="st1" points="196.7,109.8 196.1,110.1 195.4,110.4 194.6,110.6 193.8,110.6 192.9,110.6 192.2,110.5 191.4,110.3 
	190.7,110 190.1,109.7 189.7,109.3 189.3,108.8 189.2,108.3 189.1,107.8 189.2,107.3 189.5,106.8 189.9,106.3 190.4,105.9 "/>
<line class="st1" x1="190.4" y1="105.9" x2="199.1" y2="100.3"/>
<polyline class="st1" points="199.1,100.3 199.8,100 200.5,99.7 201.3,99.6 202.1,99.5 202.9,99.5 203.7,99.6 204.5,99.8 
	205.1,100.1 205.7,100.5 206.2,100.9 206.5,101.4 206.7,101.9 206.7,102.4 206.7,102.9 206.4,103.4 206,103.8 205.4,104.2 "/>
<line class="st1" x1="205.4" y1="104.2" x2="196.7" y2="109.8"/>
<polyline class="st1" points="115.4,59.5 114.8,59.8 114.1,60.1 113.3,60.3 112.5,60.3 111.6,60.3 110.9,60.2 110.1,60 109.4,59.7 
	108.8,59.4 108.4,58.9 108,58.5 107.9,58 107.8,57.4 107.9,56.9 108.2,56.4 108.6,56 109.1,55.6 "/>
<line class="st1" x1="109.1" y1="55.6" x2="117.9" y2="50"/>
<polyline class="st1" points="117.9,50 118.5,49.7 119.2,49.4 120,49.2 120.8,49.2 121.6,49.2 122.4,49.3 123.2,49.5 123.9,49.8 
	124.5,50.2 124.9,50.6 125.2,51 125.5,51.5 125.5,52.1 125.4,52.6 125.1,53.1 124.7,53.5 124.2,53.9 "/>
<line class="st1" x1="124.2" y1="53.9" x2="115.4" y2="59.5"/>
<line class="st1" x1="89.1" y1="90.3" x2="89.1" y2="90.7"/>
<polyline class="st1" points="89.2,91.2 89.3,91.6 89.4,91.9 89.4,92.1 "/>
<line class="st1" x1="89" y1="90.1" x2="89.1" y2="90.3"/>
<polyline class="st1" points="89.1,90.3 89.1,90.9 89.2,91.2 "/>
<line class="st30" x1="104.2" y1="101" x2="104.3" y2="101"/>
<line class="st29" x1="107.3" y1="102.8" x2="107.2" y2="102.9"/>
<polyline class="st1" points="221.2,121.9 221.2,122.2 221.2,122.2 "/>
<polyline class="st1" points="221.2,121.9 221.2,121.1 221.2,120.9 "/>
<line class="st1" x1="94.2" y1="96.2" x2="94.2" y2="96.3"/>
<line class="st29" x1="107.2" y1="99.3" x2="108.6" y2="100.2"/>
<line class="st29" x1="108.6" y1="100.2" x2="108.6" y2="103.8"/>
<line class="st29" x1="108.6" y1="103.8" x2="107.2" y2="102.9"/>
<line class="st29" x1="107.2" y1="102.9" x2="107.2" y2="99.3"/>
<line class="st30" x1="104.2" y1="101" x2="104.1" y2="97.4"/>
<line class="st30" x1="104.1" y1="97.4" x2="105.6" y2="98.3"/>
<line class="st30" x1="105.6" y1="98.3" x2="105.6" y2="101.9"/>
<line class="st30" x1="105.6" y1="101.9" x2="104.2" y2="101"/>
<polyline class="st1" points="124.8,53.5 124.9,53.3 125.1,52.8 125.2,52.3 125.2,52.2 "/>
<polyline class="st1" points="108.1,57.8 108.2,58.3 108.4,58.8 108.8,59.3 109.4,59.7 109.8,59.9 "/>
<polyline class="st1" points="109.4,55.7 108.8,56.1 108.4,56.5 108.2,57 108.1,57.6 108.2,58.1 108.4,58.6 108.8,59.1 109.4,59.4 
	110,59.8 110.8,60 111.6,60.2 112.4,60.2 113.2,60.2 114,60 114.8,59.8 115.4,59.4 "/>
<line class="st1" x1="115.4" y1="59.4" x2="123.9" y2="54"/>
<polyline class="st1" points="123.9,54 124.5,53.6 124.9,53.1 125.1,52.6 125.2,52.1 125.1,51.5 124.9,51.1 124.5,50.6 123.9,50.2 
	123.3,49.8 122.5,49.6 121.7,49.5 120.9,49.4 120.1,49.5 119.2,49.6 118.5,49.9 117.9,50.2 "/>
<line class="st1" x1="117.9" y1="50.2" x2="109.4" y2="55.7"/>
<polyline class="st1" points="206.5,102.6 206.5,102.6 206.4,103.1 206.1,103.6 206.1,103.8 "/>
<line class="st1" x1="199.1" y1="100.6" x2="190.6" y2="106"/>
<line class="st1" x1="196.7" y1="109.7" x2="205.2" y2="104.3"/>
<polyline class="st1" points="199.1,100.6 199.8,100.2 200.5,100 201.4,99.8 202.2,99.7 203,99.8 203.8,99.9 204.6,100.2 
	205.2,100.5 205.7,100.9 206.1,101.4 206.4,101.9 206.5,102.4 206.4,102.9 206.1,103.4 205.7,103.9 205.2,104.3 "/>
<polyline class="st1" points="191.1,110.2 190.6,110 190.1,109.6 189.7,109.1 189.5,108.6 189.4,108.1 "/>
<polyline class="st1" points="196.7,109.7 196.1,110.1 195.3,110.3 194.5,110.5 193.7,110.5 192.8,110.5 192,110.3 191.3,110.1 
	190.6,109.8 190.1,109.4 189.7,108.9 189.5,108.4 189.4,107.9 189.5,107.3 189.7,106.8 190.1,106.4 190.6,106 "/>
<line class="st1" x1="120" y1="67.4" x2="120" y2="67.7"/>
<line class="st1" x1="182.5" y1="99.8" x2="182.4" y2="99.5"/>
<line class="st1" x1="229.5" y1="96.6" x2="226.5" y2="94.8"/>
<line class="st1" x1="148.8" y1="46.7" x2="145.8" y2="44.8"/>
<line class="st1" x1="284.4" y1="82.8" x2="284.1" y2="83"/>
<line class="st1" x1="290.4" y1="85.8" x2="285.6" y2="82.7"/>
<line class="st1" x1="228.6" y1="96.9" x2="228.3" y2="97.1"/>
<line class="st1" x1="221.1" y1="111.7" x2="226.4" y2="115"/>
<line class="st1" x1="228.4" y1="122.4" x2="233.2" y2="125.4"/>
<line class="st1" x1="237.8" y1="125.2" x2="238.2" y2="125"/>
<line class="st1" x1="240.4" y1="103.4" x2="229.8" y2="96.8"/>
<line class="st1" x1="183.7" y1="20.5" x2="183.4" y2="20.6"/>
<line class="st1" x1="190.9" y1="24.1" x2="184.9" y2="20.4"/>
<line class="st1" x1="133.7" y1="38.1" x2="133.4" y2="38.3"/>
<line class="st1" x1="145.5" y1="44.6" x2="134.9" y2="38.1"/>
<line class="st1" x1="291" y1="93.2" x2="291" y2="92.8"/>
<line class="st1" x1="282" y1="81.3" x2="281.7" y2="81.5"/>
<line class="st1" x1="284" y1="81.8" x2="283.1" y2="81.2"/>
<line class="st1" x1="262.6" y1="109.5" x2="264.7" y2="110.8"/>
<line class="st1" x1="265.9" y1="110.8" x2="266.2" y2="110.6"/>
<line class="st1" x1="256.9" y1="98.9" x2="256.9" y2="99.2"/>
<line class="st1" x1="192.8" y1="35" x2="192.8" y2="34.7"/>
<line class="st1" x1="190.1" y1="24.4" x2="189.7" y2="24.6"/>
<path class="st1" d="M191.2,24.4l0.9,0.6c0,0,0.4-0.1,0.4,1.8l0-0.2l-0.1-0.2l-0.1-0.2l-0.2-0.1l-0.2,0h-0.2l-0.2,0.1l-0.2,0.1"/>
<path class="st1" d="M164.7,51.5l1.8,1.1c0,0,0.8,0.1,1.2-0.1l0.3-0.2"/>
<line class="st1" x1="165" y1="42" x2="165" y2="42.3"/>
<line class="st2" x1="129.8" y1="82.7" x2="129.8" y2="83.1"/>
<line class="st2" x1="129" y1="83.5" x2="129" y2="82.9"/>
<line class="st2" x1="127.1" y1="82.8" x2="127.1" y2="82.9"/>
<line class="st2" x1="131.7" y1="82.8" x2="131.7" y2="82.8"/>
<line class="st2" x1="153.4" y1="98" x2="153.4" y2="97.6"/>
<line class="st2" x1="153.9" y1="98.1" x2="153.9" y2="98.6"/>
<line class="st2" x1="151.3" y1="97.8" x2="151.3" y2="97.9"/>
<line class="st2" x1="155.9" y1="97.8" x2="155.9" y2="97.8"/>
<polyline class="st1" points="127.7,42.7 126.2,42.4 125.1,42.2 124.4,42.2 123.8,42.2 123,42.2 121.9,42.2 120.6,42.5 118.9,43.1 
	"/>
<polyline class="st1" points="118.9,43.1 117.9,43.5 116.9,44.1 116.2,44.5 "/>
<polyline class="st1" points="139.7,47.9 138.1,47 136.7,46.2 135.4,45.5 134.4,45.1 133.2,44.6 131.7,43.9 129.8,43.3 127.7,42.7 
	"/>
<line class="st1" x1="116.2" y1="44.5" x2="94.2" y2="58.5"/>
<polyline class="st1" points="94.2,58.5 93.9,58.7 92.9,59.4 92.1,60.1 91.3,60.9 90.6,61.7 90,62.6 89.5,63.5 89.1,64.5 88.9,65.5 
	88.7,66.5 88.7,67.3 "/>
<line class="st1" x1="88.7" y1="67.3" x2="88.9" y2="78.7"/>
<line class="st1" x1="215.5" y1="94.8" x2="139.7" y2="47.9"/>
<polyline class="st1" points="220.9,100.9 220.7,100 220.4,99.3 220.1,98.7 219.6,98.1 219.2,97.7 218.7,97.1 217.9,96.5 
	216.9,95.7 215.5,94.8 "/>
<line class="st1" x1="221.1" y1="111.1" x2="220.9" y2="101.3"/>
<polyline class="st1" points="89.1,90.1 89.1,90.3 89.1,90.4 "/>
<polyline class="st1" points="89.4,92.1 90,92.9 90.8,93.9 "/>
<polyline class="st1" points="90.8,93.9 91.5,94.4 92.3,95 93.2,95.6 94.2,96.2 "/>
<line class="st1" x1="88.9" y1="78.7" x2="89" y2="90.1"/>
<line class="st1" x1="221.2" y1="122" x2="221.2" y2="120.8"/>
<polyline class="st1" points="218.1,129.4 218.8,128.7 219.2,128.1 219.6,127.6 219.9,127 220.3,126.2 220.6,125.1 220.9,123.8 
	221.2,122.2 "/>
<polyline class="st1" points="215.8,131.2 216.1,131.1 217,130.4 217.9,129.7 218.1,129.4 "/>
<line class="st1" x1="221.2" y1="120.9" x2="221.1" y2="111.1"/>
<line class="st1" x1="193.7" y1="145.3" x2="215.8" y2="131.2"/>
<line class="st1" x1="94.2" y1="96.3" x2="171" y2="143.7"/>
<polyline class="st1" points="170.9,143.7 172,144.4 173.2,145.1 174.4,145.8 175.7,146.4 "/>
<polyline class="st1" points="182.2,148.5 183.7,148.4 184.4,148.3 185.4,148.2 186.5,148 187.6,147.8 188.7,147.5 189.8,147.2 
	190.9,146.7 192,146.3 193,145.7 193.7,145.3 "/>
<line class="st1" x1="125.2" y1="52.2" x2="125.2" y2="52.1"/>
<line class="st1" x1="108.1" y1="57.6" x2="108.1" y2="57.8"/>
<line class="st1" x1="206.5" y1="102.6" x2="206.5" y2="102.4"/>
<line class="st1" x1="189.4" y1="107.9" x2="189.4" y2="108.1"/>
<polyline class="st1" points="102.4,99.4 43.2,99.4 43.2,90.7 "/>
<polyline class="st1" points="104.7,103.9 43.2,103.9 43.2,112.1 "/>
<polygon class="st31" points="104.3,97.7 105.5,98.4 105.5,101.6 104.2,100.8 "/>
<polygon class="st32" points="107.2,99.4 108.5,100.1 108.5,103 108.4,103.4 107.7,103.2 107.2,102.2 "/>
</svg>
