<?xml version="1.0" encoding="utf-8"?>
<!-- Generator: Adobe Illustrator 24.0.1, SVG Export Plug-In . SVG Version: 6.00 Build 0)  -->
<svg version="1.1" id="图层_1" xmlns="http://www.w3.org/2000/svg" xmlns:xlink="http://www.w3.org/1999/xlink" x="0px" y="0px"
	 viewBox="0 0 177.1 104.3" style="enable-background:new 0 0 177.1 104.3;" xml:space="preserve">
<style type="text/css">
	.st0{fill:none;stroke:#000000;stroke-width:0.709;stroke-linecap:round;stroke-linejoin:round;stroke-miterlimit:10;}
	.st1{fill:none;stroke:#D87046;stroke-linecap:round;stroke-linejoin:round;}
	.st2{font-family:'MicrosoftYaHei';}
	.st3{font-size:5.27px;}
</style>
<line class="st0" x1="10.9" y1="83.7" x2="8.2" y2="84.1"/>
<line class="st0" x1="35.8" y1="44.1" x2="35.8" y2="43.9"/>
<line class="st0" x1="37.9" y1="44.6" x2="37.9" y2="44.5"/>
<line class="st0" x1="8.1" y1="65" x2="9.2" y2="64.9"/>
<line class="st0" x1="13.8" y1="65.7" x2="13.9" y2="65.7"/>
<line class="st0" x1="14.5" y1="66" x2="14.6" y2="66"/>
<line class="st0" x1="14.5" y1="65.7" x2="14.6" y2="65.7"/>
<line class="st0" x1="14.5" y1="66.1" x2="14.5" y2="66.1"/>
<line class="st0" x1="17" y1="81.9" x2="18.1" y2="81.7"/>
<line class="st0" x1="17.2" y1="67.4" x2="18.2" y2="67.3"/>
<line class="st0" x1="7.7" y1="85" x2="8.5" y2="85.2"/>
<line class="st0" x1="6.3" y1="74.8" x2="6.1" y2="74.8"/>
<polyline class="st0" points="5.9,75.2 5.8,75.8 5.6,76.3 5.3,76.6 5,76.8 4.9,76.8 "/>
<polyline class="st0" points="4.3,72.8 4.7,72.8 5,73 5.4,73.4 5.7,73.9 5.8,74.5 5.9,75.2 "/>
<polyline class="st0" points="3.2,74.6 3.2,74.6 3.3,74.6 "/>
<polyline class="st0" points="6.5,66.3 6.7,66.2 7.2,66.2 7.8,66.3 8.3,66.5 8.9,66.8 9.4,67.2 9.5,67.3 "/>
<polyline class="st0" points="12.7,76.6 12.6,77.3 12.5,78.1 12.3,78.9 12,79.6 11.7,80.2 11.3,80.8 10.9,81.3 10.5,81.8 "/>
<polyline class="st0" points="9,67.9 8.8,67.8 8.3,67.4 7.8,67.1 7.3,67 6.8,66.9 6.3,66.9 5.8,66.9 5.3,67.1 "/>
<polyline class="st0" points="4.3,67.8 4.2,68 3.8,68.5 3.5,69 3.2,69.6 3,70.3 2.8,71 2.6,71.8 2.5,72.6 "/>
<polyline class="st0" points="2.5,73.9 2.6,74.7 2.7,75.5 2.9,76.3 3.1,77.1 3.4,77.9 3.7,78.6 4.1,79.3 4.3,79.6 "/>
<polyline class="st0" points="7.2,82 7.6,82 8.2,82 8.7,82 8.8,81.9 "/>
<polyline class="st0" points="9.9,81.3 10.3,80.9 10.6,80.4 11,79.9 11.3,79.3 11.5,78.6 11.7,77.9 11.8,77.1 11.9,76.5 "/>
<line class="st0" x1="69.8" y1="50.4" x2="175.7" y2="35.1"/>
<path class="st0" d="M74.4,64.8"/>
<line class="st0" x1="73.4" y1="98.7" x2="175.7" y2="84"/>
<path class="st0" d="M157.1,80.5"/>
<line class="st0" x1="74" y1="92.4" x2="137" y2="83.3"/>
<line class="st0" x1="137" y1="83.4" x2="74" y2="92.5"/>
<path class="st0" d="M157.1,80.5"/>
<path class="st0" d="M157.1,80.9"/>
<line class="st0" x1="74.2" y1="92.8" x2="137" y2="83.8"/>
<line class="st0" x1="137" y1="80.7" x2="74.2" y2="89.7"/>
<path class="st0" d="M157.1,77.8"/>
<path class="st0" d="M74.3,67"/>
<path class="st0" d="M74.3,67.2"/>
<line class="st0" x1="74.3" y1="68.6" x2="175.7" y2="54.1"/>
<line class="st0" x1="32.1" y1="39.2" x2="32.1" y2="39.2"/>
<line class="st0" x1="60" y1="46.7" x2="60" y2="46.6"/>
<path class="st0" d="M39.4,39.4"/>
<line class="st0" x1="31.2" y1="39.4" x2="31.3" y2="39.3"/>
<line class="st0" x1="67.8" y1="99.3" x2="68" y2="99.5"/>
<line class="st0" x1="68.8" y1="98.1" x2="69" y2="98.1"/>
<line class="st0" x1="59.1" y1="46.7" x2="59.1" y2="46.8"/>
<line class="st0" x1="69.2" y1="66.1" x2="69.4" y2="66.2"/>
<line class="st0" x1="152.6" y1="83.3" x2="152.9" y2="83.4"/>
<line class="st0" x1="153.3" y1="84.5" x2="154.3" y2="84.7"/>
<line class="st0" x1="146.8" y1="84.1" x2="147.1" y2="84.2"/>
<line class="st0" x1="147.5" y1="85.3" x2="148.5" y2="85.6"/>
<line class="st0" x1="150.7" y1="73.1" x2="150.5" y2="73.4"/>
<polyline class="st0" points="28.4,39.2 28.7,39.1 29.9,39.1 31,39.3 "/>
<line class="st0" x1="31" y1="39.3" x2="58.9" y2="46.7"/>
<polyline class="st0" points="35.8,43.9 35.6,43.9 35.4,43.9 35.1,43.9 34.9,43.9 34.8,43.9 34.7,44 34.8,44.1 "/>
<polyline class="st0" points="34.8,44.1 35,44.1 35.2,44.1 35.5,44.1 35.7,44.1 35.9,44.1 35.9,44 35.8,43.9 "/>
<polyline class="st0" points="37.9,44.5 37.7,44.4 37.5,44.4 37.2,44.4 37,44.4 36.9,44.5 36.8,44.5 36.8,44.6 36.9,44.6 "/>
<polyline class="st0" points="36.9,44.6 37.1,44.6 37.3,44.7 37.6,44.7 37.8,44.6 37.9,44.6 38,44.6 38,44.5 37.9,44.5 "/>
<line class="st0" x1="31" y1="39.3" x2="18.5" y2="41.1"/>
<polyline class="st0" points="68.8,97.9 68.8,98.2 68.7,98.5 68.6,98.7 68.5,99 68.3,99.1 68.1,99.2 68,99.3 "/>
<line class="st0" x1="56.3" y1="99.7" x2="68.8" y2="97.9"/>
<line class="st0" x1="69.2" y1="66.2" x2="68.8" y2="97.9"/>
<polyline class="st0" points="58.9,46.7 60.1,47.2 61.2,47.8 62.3,48.6 63.4,49.6 64.4,50.8 65.4,52.1 66.2,53.6 67,55.2 67.7,56.9 
	68.2,58.7 68.6,60.5 68.9,62.4 69.1,64.3 69.2,66.2 "/>
<line class="st0" x1="46.4" y1="48.5" x2="58.9" y2="46.7"/>
<line class="st0" x1="69.2" y1="66.2" x2="56.6" y2="68"/>
<polyline class="st0" points="8.8,82.5 8.5,82.9 8.3,83.4 8.2,84.1 "/>
<polyline class="st0" points="10.9,84 10.8,83.5 10.5,82.9 10.3,82.7 "/>
<polyline class="st0" points="8.6,85.8 8.8,86 9.2,86.5 9.6,86.7 10,86.7 10.4,86.5 10.7,86.1 10.9,85.5 10.9,85.4 "/>
<line class="st0" x1="8.2" y1="84.1" x2="8.2" y2="84.4"/>
<line class="st0" x1="7.8" y1="63.8" x2="7.9" y2="55"/>
<line class="st0" x1="7.5" y1="84.5" x2="7.5" y2="82.4"/>
<line class="st0" x1="7.5" y1="86.7" x2="7.5" y2="85.8"/>
<polyline class="st0" points="7.5,86.7 7.5,87 7.6,87.3 7.7,87.7 7.8,87.9 7.9,88.2 8.1,88.4 8.3,88.5 8.5,88.6 "/>
<line class="st0" x1="55.2" y1="101" x2="8.5" y2="88.6"/>
<polyline class="st0" points="55.2,101 55.4,101.1 55.6,101 55.8,100.9 56,100.7 56.1,100.5 56.2,100.3 56.3,100 56.3,99.7 "/>
<line class="st0" x1="56.6" y1="68" x2="56.3" y2="99.7"/>
<polyline class="st0" points="56.6,68 56.6,66.1 56.4,64.2 56.1,62.3 55.7,60.5 55.1,58.7 54.5,57 53.7,55.4 52.9,53.9 51.9,52.6 
	50.9,51.4 49.8,50.4 48.7,49.6 47.5,49 46.4,48.5 "/>
<line class="st0" x1="18.5" y1="41.1" x2="46.4" y2="48.5"/>
<polyline class="st0" points="18.5,41.1 17.3,40.9 16.2,40.9 15,41.1 14,41.6 12.9,42.2 11.9,43 11.1,44 10.3,45.2 9.6,46.6 9,48.1 
	8.5,49.7 8.2,51.4 7.9,53.2 7.9,55 "/>
<polyline class="st0" points="9.3,63.2 9.4,63.2 9.5,63.3 "/>
<line class="st0" x1="11.8" y1="64.8" x2="12" y2="64.8"/>
<line class="st0" x1="11.8" y1="64.9" x2="11.9" y2="64.9"/>
<line class="st0" x1="11.8" y1="65" x2="11.9" y2="65"/>
<line class="st0" x1="11.9" y1="64.9" x2="12.1" y2="64.9"/>
<line class="st0" x1="11.9" y1="64.9" x2="12.1" y2="64.9"/>
<line class="st0" x1="12" y1="65.1" x2="12.2" y2="65"/>
<line class="st0" x1="12" y1="64.9" x2="12.2" y2="64.9"/>
<line class="st0" x1="12" y1="65" x2="12.3" y2="65"/>
<line class="st0" x1="11.8" y1="65.3" x2="11.9" y2="64.9"/>
<line class="st0" x1="11.8" y1="65" x2="11.8" y2="65.3"/>
<line class="st0" x1="11.8" y1="64.9" x2="11.8" y2="65"/>
<line class="st0" x1="11.8" y1="64.8" x2="11.8" y2="64.9"/>
<line class="st0" x1="11.7" y1="64.9" x2="11.8" y2="64.8"/>
<line class="st0" x1="11.7" y1="64.9" x2="11.7" y2="64.9"/>
<polyline class="st0" points="11.8,65 11.8,64.9 11.7,64.9 "/>
<line class="st0" x1="11.8" y1="65.3" x2="11.8" y2="65"/>
<line class="st0" x1="11.9" y1="65.1" x2="11.9" y2="65.3"/>
<line class="st0" x1="11.9" y1="65.3" x2="11.9" y2="65.1"/>
<line class="st0" x1="12" y1="65.1" x2="12" y2="65.4"/>
<polyline class="st0" points="12,65 12,65 12,65.1 "/>
<line class="st0" x1="12" y1="64.9" x2="12" y2="65"/>
<line class="st0" x1="12" y1="64.9" x2="12" y2="64.9"/>
<line class="st0" x1="12" y1="64.9" x2="12" y2="64.9"/>
<line class="st0" x1="12" y1="65" x2="12" y2="64.9"/>
<line class="st0" x1="12" y1="65" x2="12" y2="65"/>
<line class="st0" x1="11.9" y1="65.4" x2="12" y2="65"/>
<line class="st0" x1="11.9" y1="64.9" x2="11.9" y2="65.4"/>
<line class="st0" x1="11.9" y1="64.9" x2="11.9" y2="64.9"/>
<line class="st0" x1="12.6" y1="65.3" x2="12.6" y2="65.3"/>
<line class="st0" x1="12.9" y1="65.3" x2="12.9" y2="65.3"/>
<line class="st0" x1="12.5" y1="65.3" x2="12.6" y2="65.3"/>
<line class="st0" x1="12.7" y1="65.4" x2="12.9" y2="65.4"/>
<line class="st0" x1="12.7" y1="65.5" x2="12.9" y2="65.4"/>
<line class="st0" x1="12.5" y1="65.3" x2="12.6" y2="65.3"/>
<line class="st0" x1="12.6" y1="65.3" x2="12.5" y2="65.3"/>
<polyline class="st0" points="12.6,65.2 12.6,65.2 12.6,65.3 "/>
<line class="st0" x1="12.6" y1="65.3" x2="12.6" y2="65.2"/>
<line class="st0" x1="12.7" y1="65.4" x2="12.5" y2="65.4"/>
<polyline class="st0" points="12.5,65.3 12.5,65.2 12.5,65.1 12.6,65.1 "/>
<polyline class="st0" points="12.6,65.7 12.6,65.7 12.5,65.6 12.5,65.5 12.5,65.3 "/>
<polyline class="st0" points="12.7,65.5 12.7,65.6 12.6,65.7 "/>
<line class="st0" x1="12.7" y1="65.4" x2="12.7" y2="65.5"/>
<line class="st0" x1="12.6" y1="65.5" x2="12.7" y2="65.4"/>
<polyline class="st0" points="12.6,65.6 12.6,65.6 12.6,65.5 "/>
<polyline class="st0" points="12.5,65.4 12.6,65.5 12.6,65.6 "/>
<line class="st0" x1="12.6" y1="65.1" x2="12.8" y2="65.1"/>
<polyline class="st0" points="12.6,65.1 12.6,65.1 12.7,65.1 12.7,65.2 12.7,65.3 12.7,65.4 "/>
<line class="st0" x1="13.2" y1="65.8" x2="13.5" y2="65.8"/>
<line class="st0" x1="13.2" y1="65.8" x2="13.5" y2="65.7"/>
<line class="st0" x1="13.2" y1="65.4" x2="13.5" y2="65.4"/>
<line class="st0" x1="13.2" y1="65.3" x2="13.2" y2="65.3"/>
<line class="st0" x1="13.2" y1="65.3" x2="13.2" y2="65.3"/>
<polyline class="st0" points="13.2,65.4 13.2,65.4 13.2,65.3 "/>
<line class="st0" x1="13.2" y1="65.6" x2="13.2" y2="65.4"/>
<polyline class="st0" points="13.2,65.7 13.2,65.7 13.2,65.6 "/>
<polyline class="st0" points="13.2,65.8 13.2,65.8 13.2,65.7 "/>
<line class="st0" x1="13.2" y1="65.8" x2="13.2" y2="65.8"/>
<polyline class="st0" points="13.2,65.9 13.2,65.9 13.2,65.8 "/>
<polyline class="st0" points="13.2,65.8 13.2,65.8 13.2,65.9 "/>
<line class="st0" x1="13.2" y1="65.8" x2="13.2" y2="65.8"/>
<line class="st0" x1="13.2" y1="65.4" x2="13.2" y2="65.8"/>
<line class="st0" x1="13.3" y1="65.3" x2="13.2" y2="65.4"/>
<line class="st0" x1="13.2" y1="65.3" x2="13.2" y2="65.2"/>
<line class="st0" x1="13.2" y1="65.2" x2="13.4" y2="65.2"/>
<line class="st0" x1="13.2" y1="65.2" x2="13.3" y2="65.3"/>
<line class="st0" x1="13.3" y1="65.3" x2="13.5" y2="65.3"/>
<line class="st0" x1="13.3" y1="65.1" x2="13.5" y2="65.1"/>
<polyline class="st0" points="13.2,65.2 13.2,65.2 13.2,65.1 "/>
<polyline class="st0" points="13.3,65.1 13.3,65.1 13.2,65.2 "/>
<polyline class="st0" points="13.2,65.1 13.2,65.1 13.3,65.1 "/>
<line class="st0" x1="13.8" y1="66.1" x2="14" y2="66.1"/>
<line class="st0" x1="13.8" y1="66.1" x2="14" y2="66"/>
<line class="st0" x1="13.8" y1="65.4" x2="14" y2="65.4"/>
<line class="st0" x1="13.9" y1="65.4" x2="14.1" y2="65.4"/>
<polyline class="st0" points="13.8,65.7 13.8,65.8 13.8,65.9 13.9,65.9 "/>
<polyline class="st0" points="13.9,65.5 13.9,65.5 13.8,65.6 13.8,65.7 "/>
<line class="st0" x1="13.9" y1="65.6" x2="13.9" y2="65.5"/>
<polyline class="st0" points="13.9,65.9 13.9,65.9 13.9,65.8 13.9,65.6 "/>
<line class="st0" x1="13.9" y1="66" x2="13.8" y2="66"/>
<polyline class="st0" points="13.9,65.7 13.9,65.9 13.9,66 "/>
<polyline class="st0" points="13.9,65.4 13.9,65.5 13.9,65.6 13.9,65.7 "/>
<polyline class="st0" points="13.8,65.5 13.8,65.5 13.8,65.4 13.9,65.4 "/>
<line class="st0" x1="13.8" y1="65.4" x2="13.8" y2="65.5"/>
<line class="st0" x1="13.8" y1="65.4" x2="13.8" y2="65.4"/>
<line class="st0" x1="13.8" y1="65.4" x2="13.8" y2="65.4"/>
<polyline class="st0" points="13.8,65.5 13.8,65.5 13.8,65.4 "/>
<line class="st0" x1="13.8" y1="66" x2="13.8" y2="65.5"/>
<polyline class="st0" points="13.8,66.1 13.8,66.1 13.8,66 "/>
<line class="st0" x1="13.8" y1="66.2" x2="13.8" y2="66.1"/>
<line class="st0" x1="13.8" y1="66.1" x2="13.8" y2="66.2"/>
<line class="st0" x1="13.8" y1="66.1" x2="13.8" y2="66.1"/>
<line class="st0" x1="13.8" y1="66" x2="13.8" y2="66.1"/>
<line class="st0" x1="14.5" y1="65.6" x2="14.7" y2="65.5"/>
<line class="st0" x1="14.5" y1="65.7" x2="14.6" y2="65.6"/>
<line class="st0" x1="14.6" y1="66.2" x2="14.8" y2="66.2"/>
<line class="st0" x1="14.6" y1="66.1" x2="14.8" y2="66.1"/>
<line class="st0" x1="14.6" y1="65.8" x2="14.8" y2="65.7"/>
<line class="st0" x1="14.6" y1="65.6" x2="14.6" y2="65.6"/>
<line class="st0" x1="14.6" y1="65.6" x2="14.6" y2="65.6"/>
<polyline class="st0" points="14.6,65.8 14.6,65.7 14.6,65.6 "/>
<line class="st0" x1="14.6" y1="66" x2="14.6" y2="65.8"/>
<polyline class="st0" points="14.5,66.1 14.5,66.1 14.6,66.1 14.6,66 "/>
<line class="st0" x1="14.5" y1="65.7" x2="14.5" y2="65.7"/>
<line class="st0" x1="14.5" y1="65.6" x2="14.5" y2="65.7"/>
<line class="st0" x1="14.4" y1="65.6" x2="14.5" y2="65.6"/>
<line class="st0" x1="14.4" y1="65.6" x2="14.4" y2="65.6"/>
<line class="st0" x1="14.6" y1="66.2" x2="14.5" y2="66.2"/>
<line class="st0" x1="14.6" y1="66.2" x2="14.6" y2="66.2"/>
<line class="st0" x1="14.6" y1="66.2" x2="14.6" y2="66.2"/>
<line class="st0" x1="14.6" y1="66.2" x2="14.6" y2="66.2"/>
<line class="st0" x1="14.6" y1="66.1" x2="14.6" y2="66.2"/>
<line class="st0" x1="14.6" y1="65.6" x2="14.6" y2="65.6"/>
<line class="st0" x1="14.6" y1="65.6" x2="14.8" y2="65.6"/>
<line class="st0" x1="14.6" y1="65.6" x2="14.6" y2="65.7"/>
<line class="st0" x1="12.1" y1="64.9" x2="12.1" y2="64.9"/>
<line class="st0" x1="12.1" y1="64.9" x2="12.1" y2="64.9"/>
<line class="st0" x1="12.2" y1="64.9" x2="12.3" y2="65"/>
<polyline class="st0" points="12.3,65 12.3,65 12.2,65 "/>
<line class="st0" x1="12.2" y1="65" x2="12.2" y2="65.4"/>
<line class="st0" x1="12" y1="64.8" x2="12" y2="64.9"/>
<line class="st0" x1="12.8" y1="65.3" x2="12.8" y2="65.4"/>
<line class="st0" x1="12.9" y1="65.4" x2="12.9" y2="65.4"/>
<line class="st0" x1="12.9" y1="65.4" x2="12.9" y2="65.6"/>
<line class="st0" x1="13.4" y1="65.2" x2="13.5" y2="65.3"/>
<polyline class="st0" points="13.5,65.3 13.5,65.3 13.5,65.4 "/>
<line class="st0" x1="13.5" y1="65.4" x2="13.5" y2="65.7"/>
<line class="st0" x1="13.5" y1="65.7" x2="13.5" y2="65.8"/>
<line class="st0" x1="13.5" y1="65.8" x2="13.5" y2="65.8"/>
<line class="st0" x1="13.5" y1="65.1" x2="13.5" y2="65.1"/>
<line class="st0" x1="13.5" y1="65.1" x2="13.5" y2="65.1"/>
<line class="st0" x1="14" y1="65.9" x2="14" y2="66"/>
<line class="st0" x1="14" y1="66" x2="14" y2="66.1"/>
<line class="st0" x1="14" y1="66.1" x2="14" y2="66.2"/>
<line class="st0" x1="14" y1="65.4" x2="14" y2="65.4"/>
<line class="st0" x1="14.1" y1="65.4" x2="14.1" y2="65.4"/>
<line class="st0" x1="14.8" y1="65.6" x2="14.8" y2="65.7"/>
<line class="st0" x1="14.8" y1="65.7" x2="14.8" y2="65.7"/>
<line class="st0" x1="14.8" y1="65.7" x2="14.8" y2="66.1"/>
<line class="st0" x1="14.8" y1="66.2" x2="14.8" y2="66.2"/>
<line class="st0" x1="14.7" y1="65.5" x2="14.7" y2="65.6"/>
<line class="st0" x1="11.4" y1="64.5" x2="11.4" y2="65.2"/>
<line class="st0" x1="13.1" y1="66" x2="13.8" y2="66.2"/>
<polyline class="st0" points="19.8,82.7 19.8,82.9 19.7,83.1 19.6,83.3 19.6,83.4 19.5,83.5 19.3,83.6 19.2,83.6 "/>
<line class="st0" x1="19.3" y1="65.8" x2="9.5" y2="63.3"/>
<line class="st0" x1="9.5" y1="63.3" x2="8.4" y2="63.4"/>
<line class="st0" x1="19.8" y1="82.7" x2="20" y2="67.1"/>
<line class="st0" x1="18.6" y1="82.9" x2="19.8" y2="82.7"/>
<line class="st0" x1="20" y1="67.1" x2="18.8" y2="67.3"/>
<polyline class="st0" points="19.3,65.8 19.4,65.9 19.5,66 19.7,66.1 19.8,66.3 19.8,66.5 19.9,66.7 19.9,66.9 20,67.1 "/>
<line class="st0" x1="18.1" y1="66" x2="19.3" y2="65.8"/>
<polyline class="st0" points="17,81.9 17.1,82.2 17.2,82.6 17.4,82.8 17.6,82.9 17.8,82.9 18,82.8 18.1,82.5 18.1,82.2 "/>
<polyline class="st0" points="18.1,82.2 18.1,81.8 18,81.5 17.8,81.3 17.6,81.1 17.4,81.2 17.2,81.3 17.1,81.6 17,81.9 "/>
<polyline class="st0" points="8.1,65 8.2,65.4 8.2,65.6 "/>
<polyline class="st0" points="9.2,65.3 9.2,65 9.1,64.7 8.9,64.4 8.7,64.3 8.5,64.3 8.3,64.4 8.2,64.7 8.1,65 "/>
<polyline class="st0" points="17.2,67.4 17.2,67.8 17.3,68.1 17.5,68.4 17.7,68.5 17.9,68.5 18.1,68.3 18.3,68.1 18.3,67.7 "/>
<polyline class="st0" points="18.3,67.7 18.3,67.4 18.1,67.1 18,66.8 17.7,66.7 17.5,66.7 17.4,66.9 17.2,67.1 17.2,67.4 "/>
<line class="st0" x1="11.1" y1="64.4" x2="11.1" y2="65.1"/>
<line class="st0" x1="15.3" y1="65.5" x2="11.1" y2="64.4"/>
<line class="st0" x1="18.6" y1="82.9" x2="18.8" y2="67.3"/>
<polyline class="st0" points="18.8,67.3 18.8,67.1 18.7,66.9 18.7,66.7 18.6,66.5 18.5,66.3 18.4,66.2 18.2,66.1 18.1,66 "/>
<line class="st0" x1="18.1" y1="66" x2="8.4" y2="63.4"/>
<polyline class="st0" points="8.4,63.4 8.2,63.4 8.1,63.4 8,63.5 7.9,63.6 7.8,63.8 7.7,63.9 7.7,64.1 7.6,64.3 "/>
<line class="st0" x1="7.6" y1="64.3" x2="7.6" y2="65.7"/>
<line class="st0" x1="13" y1="82.5" x2="17.9" y2="83.8"/>
<polyline class="st0" points="17.9,83.8 18,83.8 18.2,83.8 18.3,83.7 18.4,83.6 18.5,83.5 18.6,83.3 18.6,83.1 18.6,82.9 "/>
<polyline class="st0" points="1.8,73.9 1.8,73.9 1.7,73.8 "/>
<polyline class="st0" points="11.8,83.9 12,83.8 12.3,83.7 12.5,83.5 12.7,83.3 12.9,83 13,82.7 13.1,82.5 "/>
<line class="st0" x1="3.3" y1="74.1" x2="1.8" y2="73.9"/>
<polyline class="st0" points="1.8,72.5 1.8,72.6 1.8,72.8 1.8,73 1.8,73.2 1.8,73.3 1.8,73.5 1.8,73.7 1.8,73.9 "/>
<polyline class="st0" points="3.9,80.6 3.9,80.5 3.8,80.5 3.9,80.4 3.9,80.3 "/>
<polyline class="st0" points="3.3,73.8 3.3,73.7 3.3,73.6 3.3,73.4 3.3,73.3 3.3,73.2 3.3,73.1 "/>
<line class="st0" x1="3.3" y1="73.1" x2="1.8" y2="72.5"/>
<line class="st0" x1="3.3" y1="73.1" x2="3.7" y2="73.1"/>
<polyline class="st0" points="1.9,72.3 1.9,72.3 1.8,72.3 1.7,72.3 1.7,72.4 1.8,72.4 1.8,72.5 "/>
<line class="st0" x1="4.7" y1="78.8" x2="3.9" y2="80.3"/>
<line class="st0" x1="4.6" y1="81.4" x2="4.6" y2="81.4"/>
<polyline class="st0" points="2.5,72.6 2.5,72.5 2.4,72.5 "/>
<line class="st0" x1="11.8" y1="83.9" x2="7.3" y2="84.6"/>
<line class="st0" x1="13.9" y1="84.5" x2="11.8" y2="83.9"/>
<polyline class="st0" points="4,67.1 4,67 4,66.9 4,66.8 4.1,66.7 4.1,66.6 "/>
<line class="st0" x1="5.4" y1="69.7" x2="4.9" y2="69.3"/>
<line class="st0" x1="4.9" y1="69.3" x2="4" y2="67.1"/>
<polyline class="st0" points="4.9,69.3 4.9,69.2 5,69.2 5.1,69.1 5.2,69.1 5.3,69 5.4,68.9 "/>
<polyline class="st0" points="4.8,66.6 4.7,66.7 4.6,66.7 4.5,66.8 4.4,66.9 4.3,66.9 4.2,67 4.1,67.1 4,67.1 "/>
<line class="st0" x1="5.4" y1="68.9" x2="4.8" y2="66.6"/>
<line class="st0" x1="5.4" y1="68.9" x2="5.9" y2="69.4"/>
<polyline class="st0" points="5.1,66 5,66.1 4.9,66.2 4.8,66.2 4.8,66.3 4.8,66.4 4.8,66.5 4.8,66.6 "/>
<polyline class="st0" points="5.5,85.3 5.4,85.3 5.2,85.1 5,85 4.8,84.7 4.7,84.5 4.6,84.2 4.6,83.8 "/>
<line class="st0" x1="9" y1="82.5" x2="8.8" y2="82.5"/>
<line class="st0" x1="8.3" y1="80.1" x2="8.5" y2="79.5"/>
<line class="st0" x1="8.3" y1="66" x2="8.2" y2="65.6"/>
<line class="st0" x1="8" y1="85.9" x2="14.3" y2="85"/>
<polyline class="st0" points="14.3,85 14.6,84.9 14.8,84.8 15.1,84.6 15.2,84.4 "/>
<polyline class="st0" points="15.2,83.1 15.1,83.3 15,83.6 14.8,83.8 14.6,84.1 14.4,84.3 14.1,84.4 13.9,84.5 "/>
<line class="st0" x1="13.9" y1="84.5" x2="8.5" y2="85.2"/>
<polyline class="st0" points="8.5,85.2 8.2,85.2 7.9,85.2 7.7,85.1 7.5,84.9 7.4,84.7 7.2,84.4 7.2,84.1 7.1,83.8 "/>
<line class="st0" x1="7.2" y1="76" x2="7.1" y2="83.8"/>
<line class="st0" x1="7.4" y1="74.9" x2="8.5" y2="74.8"/>
<line class="st0" x1="7.2" y1="74.9" x2="7.2" y2="76"/>
<polyline class="st0" points="7.2,76 7.3,75.9 7.3,75.8 7.4,75.6 7.4,75.5 7.4,75.4 7.4,75.2 7.4,75.1 7.4,74.9 "/>
<polyline class="st0" points="7.4,74.9 7.4,74.3 7.2,73.7 7,73.2 6.6,72.8 6.2,72.6 5.8,72.6 5.5,72.8 5.3,73 "/>
<polyline class="st0" points="7.2,74.9 7.2,74.3 7,73.7 6.7,73.3 6.4,73 6,72.9 "/>
<polyline class="st0" points="6.3,74.8 6.2,75.1 6.1,75.4 "/>
<polyline class="st0" points="5.9,73.9 6,73.9 6.1,74.2 6.2,74.5 6.3,74.8 "/>
<line class="st0" x1="4.7" y1="76.9" x2="4.6" y2="83.8"/>
<polyline class="st0" points="9.5,82.9 9.4,82.9 9.3,82.8 9.2,82.8 9.1,82.7 9,82.6 9,82.5 8.9,82.4 "/>
<polyline class="st0" points="8.9,79.7 8.8,79.8 8.7,79.8 8.7,79.9 8.6,79.9 8.5,80 8.4,80 8.3,80.1 "/>
<line class="st0" x1="8.3" y1="80.1" x2="8.9" y2="82.4"/>
<polyline class="st0" points="8.9,82.4 9,82.3 9.1,82.3 9.2,82.2 9.3,82.2 9.4,82.1 9.5,82 9.6,81.9 9.7,81.9 "/>
<line class="st0" x1="9" y1="79.2" x2="8.9" y2="79.7"/>
<line class="st0" x1="8.9" y1="79.7" x2="9.7" y2="81.9"/>
<polyline class="st0" points="9.7,81.9 9.7,82 9.8,82.1 9.9,82.1 10,82.2 10,82.3 10.1,82.3 10.2,82.3 10.3,82.3 "/>
<polyline class="st0" points="19.2,83.6 19.3,83.6 19.5,83.5 19.6,83.4 19.6,83.3 19.7,83.1 19.8,82.9 19.8,82.7 "/>
<line class="st0" x1="20" y1="67.1" x2="19.8" y2="82.7"/>
<line class="st0" x1="19.3" y1="65.8" x2="9.5" y2="63.3"/>
<polyline class="st0" points="9.5,63.3 9.4,63.2 9.3,63.2 "/>
<polyline class="st0" points="20,67.1 19.9,66.9 19.9,66.7 19.8,66.5 19.8,66.3 19.7,66.1 19.5,66 19.4,65.9 19.3,65.8 "/>
<polyline class="st0" points="5.1,76.8 5.2,76.8 5.6,76.6 5.9,76.2 6,75.7 6.1,75.1 "/>
<line class="st0" x1="8.6" y1="70.1" x2="8.4" y2="69.7"/>
<line class="st0" x1="5.9" y1="75.2" x2="6.1" y2="75.1"/>
<polyline class="st0" points="6.1,75.1 6.1,74.5 5.9,73.9 5.6,73.4 5.3,73 4.9,72.8 4.6,72.8 "/>
<polyline class="st0" points="12.2,66.9 12.1,66.8 11.5,66.4 11,66.1 10.4,65.9 9.9,65.8 9.4,65.8 9.2,65.9 "/>
<line class="st0" x1="13.2" y1="81.4" x2="13.4" y2="81.9"/>
<line class="st0" x1="6.3" y1="66.3" x2="6.5" y2="66.3"/>
<polyline class="st0" points="5.3,67.1 5.3,67 5.3,66.9 5.3,66.8 5.3,66.7 5.4,66.6 5.5,66.6 "/>
<line class="st0" x1="8.4" y1="69.7" x2="9.1" y2="67.8"/>
<polyline class="st0" points="8.4,69.7 8.5,69.8 8.6,69.9 8.6,70 8.7,70 8.8,70.1 8.8,70.2 8.9,70.3 9,70.4 "/>
<line class="st0" x1="9" y1="70.4" x2="9.8" y2="68.7"/>
<line class="st0" x1="9" y1="70.4" x2="9.1" y2="70.7"/>
<polyline class="st0" points="10.5,68.2 10.4,68.2 10.3,68.3 10.2,68.3 10.1,68.4 10,68.4 10,68.5 9.9,68.6 9.8,68.7 "/>
<polyline class="st0" points="9.1,67.8 9.1,67.7 9.2,67.6 9.2,67.5 9.3,67.4 9.4,67.4 9.5,67.3 9.6,67.3 9.7,67.2 "/>
<polyline class="st0" points="9.8,68.7 9.7,68.6 9.7,68.4 9.6,68.3 9.5,68.2 9.4,68.1 9.3,68 9.2,67.9 9.1,67.8 "/>
<line class="st0" x1="13.3" y1="68.2" x2="13.5" y2="67.8"/>
<line class="st0" x1="13.2" y1="81.4" x2="10.5" y2="81.8"/>
<polyline class="st0" points="13.2,81.4 13.6,80.9 14,80.4 14.4,79.9 14.7,79.2 14.9,78.5 15.1,77.7 15.3,76.9 15.4,76.2 "/>
<polyline class="st0" points="10.5,81.8 10.4,81.8 10.3,81.7 10.2,81.7 10.1,81.7 10,81.6 10,81.5 9.9,81.4 9.9,81.3 "/>
<line class="st0" x1="15.7" y1="76.2" x2="12.7" y2="76.6"/>
<polyline class="st0" points="13.4,81.9 13.8,81.4 14.3,80.9 14.7,80.3 15,79.6 15.3,78.8 15.5,78 15.6,77.1 15.7,76.2 "/>
<line class="st0" x1="13.4" y1="81.9" x2="10.3" y2="82.3"/>
<polyline class="st0" points="10.3,82.3 10.2,82.4 10.1,82.5 10,82.5 9.9,82.6 9.8,82.7 9.7,82.7 9.6,82.8 9.5,82.9 "/>
<line class="st0" x1="12.5" y1="82.4" x2="9.5" y2="82.9"/>
<polyline class="st0" points="10.6,82.7 10.8,82.7 11.4,82.7 12,82.6 12.5,82.4 "/>
<polyline class="st0" points="12.7,82.5 13,82.5 13.8,82.2 14.6,81.7 15.2,80.9 15.8,80.1 16.2,79 16.6,77.9 16.8,76.6 16.9,75.3 
	"/>
<line class="st0" x1="10.4" y1="75.9" x2="11.9" y2="76.5"/>
<polyline class="st0" points="10.4,75 10.4,75 10.4,75.1 10.4,75.2 10.4,75.3 10.4,75.4 10.4,75.5 "/>
<polyline class="st0" points="10.4,75.5 10.4,75.5 10.4,75.6 10.4,75.7 10.4,75.8 10.4,75.9 "/>
<polyline class="st0" points="12.7,75.9 12.7,76 12.7,76.1 12.7,76.2 12.7,76.3 12.7,76.4 12.7,76.5 12.7,76.6 "/>
<polyline class="st0" points="11.9,76.5 11.9,76.5 11.9,76.4 11.9,76.3 11.9,76.2 11.9,76.1 11.9,76 11.9,75.9 11.9,75.8 "/>
<polyline class="st0" points="12.7,76.6 12.6,76.6 12.5,76.6 12.4,76.6 12.3,76.6 12.2,76.6 12.1,76.6 12,76.6 11.9,76.5 "/>
<line class="st0" x1="10.5" y1="74.9" x2="10.4" y2="75"/>
<line class="st0" x1="10.4" y1="75" x2="11.9" y2="75.1"/>
<line class="st0" x1="15.4" y1="74.6" x2="15.7" y2="74.7"/>
<polyline class="st0" points="12.7,75.9 12.6,75.9 12.5,75.9 12.4,75.9 12.3,75.9 12.2,75.9 12.1,75.9 12,75.9 11.9,75.8 "/>
<polyline class="st0" points="11.9,75.1 12,75.1 12.1,75.2 12.2,75.2 12.3,75.2 12.4,75.1 12.5,75.1 12.6,75.1 12.7,75.1 "/>
<polyline class="st0" points="11.9,75.8 11.9,75.8 11.9,75.7 11.9,75.6 11.9,75.5 11.9,75.4 11.9,75.3 11.9,75.2 11.9,75.1 "/>
<line class="st0" x1="13.3" y1="68.2" x2="10.6" y2="68.6"/>
<line class="st0" x1="15.4" y1="74.6" x2="12.7" y2="75"/>
<polyline class="st0" points="15.4,74.6 15.3,73.7 15.2,72.9 15,72 14.8,71.1 14.5,70.3 14.1,69.6 13.8,68.8 13.3,68.2 "/>
<polyline class="st0" points="7.5,76.5 7.6,76.5 7.9,76.3 8.2,75.9 8.4,75.4 8.5,74.8 "/>
<polyline class="st0" points="8.5,74.8 8.4,74.2 8.3,73.5 8,73 7.6,72.7 7.2,72.5 6.9,72.4 "/>
<line class="st0" x1="9.1" y1="70.7" x2="10" y2="69"/>
<polyline class="st0" points="9.1,70.7 9.1,70.6 9,70.6 9,70.5 8.9,70.4 8.8,70.3 8.7,70.2 8.6,70.1 "/>
<line class="st0" x1="5.9" y1="69.4" x2="5.3" y2="67.1"/>
<polyline class="st0" points="5.9,69.4 5.8,69.4 5.8,69.5 5.7,69.5 5.6,69.6 5.5,69.6 5.5,69.7 5.4,69.7 "/>
<line class="st0" x1="3.8" y1="73.1" x2="2.5" y2="72.6"/>
<polyline class="st0" points="8.5,79.5 8.6,79.5 8.7,79.4 8.8,79.4 8.9,79.3 9,79.2 "/>
<line class="st0" x1="9" y1="79.2" x2="9.9" y2="81.3"/>
<line class="st0" x1="10.5" y1="74.9" x2="11.9" y2="75"/>
<polyline class="st0" points="12.7,75 12.6,75 12.5,75 12.4,75.1 12.3,75.1 12.2,75.1 12.1,75.1 12,75.1 11.9,75 "/>
<polyline class="st0" points="10.6,68.6 11.1,69.2 11.5,69.9 11.8,70.7 12.1,71.5 12.3,72.4 12.5,73.2 12.6,74.1 12.7,75 "/>
<polyline class="st0" points="10,69 10,68.9 10.1,68.9 10.2,68.8 10.3,68.7 10.4,68.7 10.5,68.6 10.6,68.6 "/>
<polyline class="st0" points="11.9,75 11.9,74.2 11.7,73.4 11.6,72.6 11.3,71.8 11.1,71 10.8,70.3 10.4,69.6 10,69 "/>
<polyline class="st0" points="12.7,75.1 12.7,75.2 12.7,75.3 12.7,75.4 12.7,75.5 12.7,75.6 12.7,75.7 12.7,75.8 12.7,75.9 "/>
<line class="st0" x1="12.7" y1="75.9" x2="16.9" y2="75.3"/>
<polyline class="st0" points="16.9,75.3 16.8,73.9 16.6,72.5 16.3,71.2 15.9,69.9 15.4,68.8 14.7,67.7 14,66.8 13.2,66.1 12.4,65.6 
	11.6,65.2 10.7,65.1 10.2,65.1 "/>
<line class="st0" x1="2.4" y1="72.2" x2="1.9" y2="72.3"/>
<line class="st0" x1="8.2" y1="65.6" x2="5.1" y2="66"/>
<polyline class="st0" points="12.7,66.8 12.2,66.3 11.6,65.9 11,65.6 10.5,65.4 9.9,65.3 9.3,65.3 8.7,65.4 8.2,65.6 "/>
<line class="st0" x1="12.7" y1="66.8" x2="9.7" y2="67.2"/>
<polyline class="st0" points="9.7,67.2 9.8,67.4 9.9,67.5 10,67.6 10.1,67.7 10.2,67.8 10.3,67.9 10.4,68.1 10.5,68.2 "/>
<line class="st0" x1="13.5" y1="67.8" x2="10.5" y2="68.2"/>
<polyline class="st0" points="15.7,74.7 15.7,73.7 15.5,72.8 15.3,71.9 15.1,70.9 14.8,70.1 14.4,69.2 14,68.5 13.5,67.8 "/>
<line class="st0" x1="15.7" y1="74.7" x2="12.7" y2="75.1"/>
<path class="st0" d="M74.3,64.5"/>
<path class="st0" d="M156.1,73.2"/>
<line class="st0" x1="74.3" y1="85" x2="143.8" y2="75"/>
<line class="st0" x1="147.1" y1="73.8" x2="74.1" y2="84.3"/>
<line class="st0" x1="175.7" y1="69.7" x2="153.5" y2="72.9"/>
<path class="st0" d="M74.2,78.4"/>
<line class="st0" x1="74.2" y1="78.3" x2="175.7" y2="63.7"/>
<line class="st0" x1="74.8" y1="70.6" x2="74.3" y2="70.7"/>
<path class="st0" d="M79.9,69.9"/>
<path class="st0" d="M74.3,70.6"/>
<polyline class="st0" points="74.2,89.7 74.2,89.8 74.2,89.9 74.1,89.9 74.1,90 "/>
<line class="st0" x1="74.3" y1="85" x2="74.2" y2="89.7"/>
<line class="st0" x1="74.3" y1="85" x2="74.1" y2="84.7"/>
<polyline class="st0" points="74.2,96.8 74.1,97 74.1,97.2 74,97.4 74,97.5 "/>
<line class="st0" x1="74.2" y1="92.8" x2="74.2" y2="96.8"/>
<polyline class="st0" points="74,92.5 74.1,92.5 74.2,92.6 74.2,92.7 74.2,92.8 "/>
<path class="st0" d="M72.7,55.8"/>
<line class="st0" x1="72.7" y1="55.8" x2="175.7" y2="41"/>
<path class="st0" d="M74.3,64.4"/>
<line class="st0" x1="73" y1="56.6" x2="73.2" y2="56.7"/>
<path class="st0" d="M72.8,56.1"/>
<line class="st0" x1="74.3" y1="64.1" x2="175.7" y2="49.5"/>
<line class="st0" x1="74.2" y1="61.9" x2="175.7" y2="47.3"/>
<path class="st0" d="M73.2,57.4"/>
<path class="st0" d="M73.3,57.6"/>
<line class="st0" x1="73.3" y1="57.7" x2="175.7" y2="43"/>
<path class="st0" d="M73.4,58"/>
<path class="st0" d="M80.5,75.8"/>
<path class="st0" d="M80.6,70.3"/>
<line class="st0" x1="175.7" y1="56.6" x2="80.6" y2="70.3"/>
<line class="st0" x1="175.7" y1="61.8" x2="80.5" y2="75.5"/>
<path class="st0" d="M80.6,71"/>
<path class="st0" d="M80.6,70.8"/>
<polyline class="st0" points="36.2,38.6 35.6,38.5 35,38.4 34.5,38.4 33.9,38.4 33.6,38.4 "/>
<polyline class="st0" points="29.4,39 29.9,39 30.5,38.9 31,39 31.6,39 32.1,39.2 "/>
<line class="st0" x1="64" y1="46" x2="36.2" y2="38.6"/>
<line class="st0" x1="36.2" y1="38.6" x2="32.1" y2="39.2"/>
<line class="st0" x1="32.1" y1="39.2" x2="60" y2="46.6"/>
<polyline class="st0" points="68.4,48.7 67.9,48.2 67.4,47.7 66.8,47.3 66.3,47 65.7,46.7 65.2,46.4 64.6,46.2 64,46 "/>
<line class="st0" x1="60" y1="46.6" x2="64" y2="46"/>
<polyline class="st0" points="68.4,48.7 68.6,48.9 68.7,49 "/>
<polyline class="st0" points="79.5,69.8 79.6,69.8 79.7,69.9 "/>
<polyline class="st0" points="80.4,76.8 80.3,76.8 80.2,76.8 80.1,76.9 80,76.9 79.9,76.9 79.8,76.9 "/>
<polyline class="st0" points="80.4,76.8 80.4,76.7 80.5,76.5 80.5,76.3 80.5,76.2 "/>
<line class="st0" x1="80.5" y1="76.1" x2="80.6" y2="70.5"/>
<polyline class="st0" points="80.6,70.4 80.6,70.3 80.6,70.1 80.5,70.1 "/>
<polyline class="st0" points="74.8,77.2 74.8,77.1 74.7,77.1 74.7,77 74.6,77 74.6,76.9 74.6,76.8 74.5,76.7 "/>
<polyline class="st0" points="80.5,70.1 80.4,70.1 80.3,70.1 80.3,70.2 80.2,70.2 80.1,70.2 80,70.2 79.9,70.3 "/>
<line class="st0" x1="80.5" y1="70.1" x2="79.5" y2="69.8"/>
<line class="st0" x1="75.1" y1="70.5" x2="79.5" y2="69.8"/>
<line class="st0" x1="74.5" y1="76.7" x2="74.6" y2="71.1"/>
<line class="st0" x1="74.5" y1="76.7" x2="75.7" y2="77"/>
<line class="st0" x1="76.2" y1="70.8" x2="79.9" y2="70.3"/>
<line class="st0" x1="75.7" y1="77" x2="75.7" y2="71.4"/>
<polyline class="st0" points="75.7,77 75.7,77.1 75.7,77.2 75.7,77.3 75.8,77.3 75.9,77.4 76,77.5 76.1,77.5 "/>
<line class="st0" x1="76.1" y1="77.5" x2="79.8" y2="76.9"/>
<line class="st0" x1="79.8" y1="76.9" x2="79.9" y2="70.3"/>
<polyline class="st0" points="76.2,70.8 76.1,70.8 76,70.9 75.9,70.9 75.9,71 75.8,71.1 75.8,71.2 75.7,71.3 75.7,71.4 "/>
<line class="st0" x1="75.1" y1="70.5" x2="76.2" y2="70.8"/>
<polyline class="st0" points="74.6,71.1 74.6,71 74.6,70.9 74.7,70.8 74.7,70.7 74.8,70.6 74.9,70.6 75,70.5 75.1,70.5 "/>
<line class="st0" x1="75.7" y1="71.4" x2="74.6" y2="71.1"/>
<polyline class="st0" points="31.9,39.2 31.3,39.1 30.7,39 30.1,39 29.5,39 29.3,39 "/>
<polyline class="st0" points="31.3,39.3 30.1,39.1 28.9,39.1 28.5,39.1 "/>
<polyline class="st0" points="73.9,97.9 73.9,97.8 74,97.6 74,97.3 "/>
<line class="st0" x1="31.9" y1="39.2" x2="31.3" y2="39.3"/>
<line class="st0" x1="67.4" y1="99.3" x2="68" y2="99.5"/>
<polyline class="st0" points="73.1,98.8 73.3,98.8 73.5,98.7 73.6,98.5 73.7,98.3 73.8,98 73.9,97.7 73.9,97.4 "/>
<polyline class="st0" points="68,99.5 68.2,99.5 68.4,99.5 68.5,99.4 68.7,99.2 68.8,99 68.9,98.7 69,98.4 69,98.1 "/>
<line class="st0" x1="74.4" y1="65.4" x2="74" y2="97.3"/>
<line class="st0" x1="74" y1="97.3" x2="73.9" y2="97.4"/>
<line class="st0" x1="74.3" y1="65.4" x2="74.4" y2="65.4"/>
<polyline class="st0" points="74.4,65.4 74.3,63.6 74.1,61.7 73.9,59.9 73.5,58.2 72.9,56.4 72.3,54.8 71.6,53.2 70.8,51.8 
	70.1,50.7 "/>
<line class="st0" x1="73.9" y1="97.4" x2="69" y2="98.1"/>
<line class="st0" x1="74.3" y1="65.4" x2="73.9" y2="97.4"/>
<line class="st0" x1="69" y1="98.1" x2="69.4" y2="66.2"/>
<line class="st0" x1="59.1" y1="46.7" x2="59.8" y2="46.6"/>
<line class="st0" x1="69.4" y1="66.2" x2="74.3" y2="65.4"/>
<polyline class="st0" points="74.3,65.4 74.3,63.6 74.1,61.7 73.8,59.9 73.4,58.1 72.9,56.3 72.2,54.6 71.5,53 70.6,51.5 69.7,50.2 
	68.7,49 "/>
<polyline class="st0" points="69.4,66.2 69.3,64.3 69.2,62.4 68.9,60.5 68.4,58.6 67.9,56.9 67.2,55.2 66.5,53.6 65.6,52.1 
	64.7,50.7 63.6,49.6 62.6,48.6 61.4,47.7 60.3,47.1 59.1,46.7 "/>
<line class="st0" x1="157" y1="85.2" x2="156.1" y2="86.4"/>
<line class="st0" x1="157" y1="85.2" x2="157" y2="85.2"/>
<line class="st0" x1="157.1" y1="75.5" x2="157" y2="85.2"/>
<polyline class="st0" points="152.9,83.4 153.3,83.2 153.6,82.9 153.9,82.5 153.9,82 153.9,81.5 153.7,81.2 153.3,80.9 "/>
<line class="st0" x1="152.6" y1="83.4" x2="152.9" y2="83.4"/>
<polyline class="st0" points="153.1,84.3 153.5,84.2 154,83.8 154.4,83.2 154.6,82.6 154.7,81.9 154.6,81.2 154.4,80.6 154.2,80.3 
	"/>
<polyline class="st0" points="154.3,84.7 154.9,84.6 155.4,84.2 155.8,83.6 156.1,83 156.2,82.3 156.1,81.6 155.8,81 155.4,80.6 
	154.9,80.3 154.4,80.3 "/>
<polyline class="st0" points="154.9,72.9 154.7,72.8 154.2,72.8 "/>
<line class="st0" x1="157.1" y1="75.5" x2="157.1" y2="75.5"/>
<polyline class="st0" points="154.9,73 155.4,73 155.8,73.1 156.2,73.3 156.5,73.6 156.8,74 157,74.4 157.1,74.9 157.1,75.5 "/>
<polyline class="st0" points="154.4,80.3 153.8,80.5 153.3,80.9 152.9,81.4 152.7,82.1 152.6,82.8 152.7,83.5 152.9,84 153.3,84.5 
	153.8,84.7 154.3,84.7 "/>
<line class="st0" x1="154.4" y1="80.3" x2="154.6" y2="80.1"/>
<line class="st0" x1="154.3" y1="84.7" x2="154.5" y2="85.1"/>
<polyline class="st0" points="147.1,84.2 147.5,84.1 147.8,83.8 148,83.3 148.1,82.8 148.1,82.4 147.8,82 147.5,81.8 "/>
<line class="st0" x1="146.8" y1="84.2" x2="147.1" y2="84.2"/>
<polyline class="st0" points="147.3,85.2 147.6,85 148.2,84.6 148.6,84.1 148.8,83.4 148.9,82.7 148.8,82 148.6,81.5 148.4,81.2 "/>
<polyline class="st0" points="148.5,85.6 149.1,85.4 149.6,85 150,84.5 150.2,83.8 150.3,83.1 150.3,82.4 150,81.8 149.6,81.4 
	149.1,81.2 148.6,81.1 "/>
<polyline class="st0" points="148.6,81.1 148,81.3 147.5,81.7 147.1,82.3 146.9,82.9 146.8,83.6 146.8,84.3 147.1,84.9 147.5,85.3 
	148,85.5 148.5,85.6 "/>
<line class="st0" x1="148.6" y1="81.1" x2="148.8" y2="80.9"/>
<line class="st0" x1="148.5" y1="85.6" x2="148.7" y2="85.9"/>
<line class="st0" x1="156.1" y1="86.4" x2="156.2" y2="86.2"/>
<line class="st0" x1="156.1" y1="86.4" x2="144.5" y2="88.1"/>
<line class="st0" x1="144.5" y1="88.1" x2="137.9" y2="86.3"/>
<line class="st0" x1="137" y1="85.4" x2="137.9" y2="86.3"/>
<line class="st0" x1="144.5" y1="88.1" x2="144.7" y2="87.9"/>
<line class="st0" x1="144.5" y1="88.1" x2="143.6" y2="87.1"/>
<line class="st0" x1="143" y1="77.7" x2="138" y2="76.3"/>
<line class="st0" x1="138" y1="76.3" x2="137.3" y2="76.4"/>
<line class="st0" x1="154.9" y1="73" x2="154.2" y2="72.8"/>
<line class="st0" x1="154.2" y1="72.8" x2="145.3" y2="74.1"/>
<line class="st0" x1="137.1" y1="76.7" x2="137.1" y2="76.6"/>
<line class="st0" x1="137.3" y1="76.4" x2="143" y2="78"/>
<line class="st0" x1="137.1" y1="76.6" x2="137.3" y2="76.4"/>
<line class="st0" x1="155.1" y1="73.3" x2="154.9" y2="73"/>
<line class="st0" x1="146" y1="74.3" x2="154.9" y2="73"/>
<line class="st0" x1="143" y1="77.2" x2="143" y2="78.3"/>
<line class="st0" x1="143" y1="78.3" x2="137.1" y2="76.7"/>
<line class="st0" x1="137.1" y1="76.7" x2="137" y2="85.4"/>
<line class="st0" x1="137" y1="85.4" x2="143.6" y2="87.1"/>
<line class="st0" x1="143.6" y1="87.1" x2="144" y2="87"/>
<line class="st0" x1="143.6" y1="87.1" x2="143.7" y2="77.4"/>
<polyline class="st0" points="154.5,85.1 153.9,85 153.4,84.8 153,84.4 152.7,83.9 152.5,83.2 152.5,82.5 152.7,81.8 153,81.1 
	153.5,80.6 154,80.2 154.6,80.1 "/>
<polyline class="st0" points="154.6,80.1 155.1,80.1 155.6,80.3 156.1,80.7 156.4,81.3 156.5,81.9 156.5,82.6 156.4,83.3 156,84 
	155.6,84.5 155.1,84.9 154.5,85.1 "/>
<polyline class="st0" points="148.7,85.9 148.1,85.9 147.6,85.7 147.2,85.3 146.9,84.7 146.7,84 146.7,83.3 146.9,82.6 147.2,82 
	147.7,81.5 148.2,81.1 148.8,80.9 "/>
<polyline class="st0" points="148.8,80.9 149.3,80.9 149.8,81.1 150.3,81.5 150.6,82.1 150.7,82.8 150.7,83.5 150.5,84.2 
	150.2,84.8 149.8,85.3 149.3,85.7 148.7,85.9 "/>
<line class="st0" x1="155.1" y1="73.3" x2="146.1" y2="74.6"/>
<line class="st0" x1="144.1" y1="77.4" x2="144" y2="87"/>
<line class="st0" x1="144" y1="87" x2="144.7" y2="87.9"/>
<line class="st0" x1="144.7" y1="87.9" x2="156.2" y2="86.2"/>
<line class="st0" x1="156.2" y1="86.2" x2="157" y2="85.2"/>
<line class="st0" x1="157" y1="85.2" x2="157.1" y2="75.5"/>
<polyline class="st0" points="157.1,75.5 157,75.1 156.9,74.6 156.7,74.2 156.5,73.9 156.2,73.6 155.9,73.4 155.5,73.3 155.1,73.3 
	"/>
<line class="st0" x1="145.3" y1="74.1" x2="146" y2="74.3"/>
<polyline class="st0" points="145.3,74.1 144.8,74.2 144.4,74.4 144,74.8 143.7,75.2 143.4,75.6 143.2,76.1 143.1,76.7 143,77.2 "/>
<line class="st0" x1="143.7" y1="77.4" x2="143" y2="77.2"/>
<line class="st0" x1="146.1" y1="74.6" x2="146" y2="74.3"/>
<polyline class="st0" points="143.7,77.4 143.8,76.8 143.9,76.3 144.1,75.8 144.4,75.3 144.7,74.9 145.1,74.6 145.5,74.4 146,74.3 
	"/>
<line class="st0" x1="143.7" y1="77.4" x2="144.1" y2="77.4"/>
<polyline class="st0" points="146.1,74.6 145.8,74.7 145.4,74.9 145,75.2 144.7,75.6 144.5,76 144.3,76.4 144.1,76.9 144.1,77.4 "/>
<line class="st0" x1="150.7" y1="72.4" x2="150.7" y2="73.1"/>
<line class="st0" x1="150.7" y1="72.4" x2="150.7" y2="72.4"/>
<line class="st0" x1="149.5" y1="71.9" x2="149.5" y2="71.9"/>
<polyline class="st0" points="147.2,72.3 147.2,72.3 147.2,72.2 147.3,72.2 "/>
<line class="st0" x1="149.5" y1="71.9" x2="147.3" y2="72.2"/>
<line class="st0" x1="150.5" y1="72.1" x2="149.5" y2="71.9"/>
<line class="st0" x1="150.7" y1="73.1" x2="150.7" y2="72.4"/>
<line class="st0" x1="147.3" y1="72.2" x2="148.3" y2="72.4"/>
<line class="st0" x1="147.1" y1="72.5" x2="147.3" y2="72.2"/>
<line class="st0" x1="148.3" y1="72.4" x2="150.5" y2="72.1"/>
<line class="st0" x1="150.7" y1="72.4" x2="148.4" y2="72.8"/>
<polyline class="st0" points="150.7,72.4 150.7,72.4 150.6,72.3 150.6,72.2 150.6,72.1 150.5,72.1 "/>
<line class="st0" x1="148.4" y1="72.8" x2="148.4" y2="73.7"/>
<line class="st0" x1="148" y1="72.7" x2="148.4" y2="72.8"/>
<polyline class="st0" points="148.3,72.4 148.3,72.4 148.3,72.5 148.4,72.5 148.4,72.6 148.4,72.7 148.4,72.8 "/>
<line class="st0" x1="148" y1="72.7" x2="148.3" y2="72.4"/>
<line class="st0" x1="152.9" y1="72.8" x2="152.9" y2="72.8"/>
<polyline class="st0" points="150.5,73.2 150.5,73.2 150.6,73.1 150.7,73.1 "/>
<line class="st0" x1="152.9" y1="72.8" x2="150.7" y2="73.1"/>
<line class="st0" x1="153.5" y1="72.9" x2="152.9" y2="72.8"/>
<line class="st0" x1="147.1" y1="72.5" x2="147.1" y2="73.9"/>
<line class="st0" x1="148" y1="73.7" x2="148" y2="72.7"/>
<line class="st0" x1="148" y1="72.7" x2="147.1" y2="72.5"/>
<line class="st0" x1="150.7" y1="73.1" x2="151.3" y2="73.2"/>
<line class="st0" x1="28.4" y1="39.2" x2="15.9" y2="41"/>
<line class="st0" x1="55.5" y1="101.1" x2="68" y2="99.3"/>
<line class="st0" x1="9.3" y1="63.2" x2="8.2" y2="63.4"/>
<line class="st0" x1="12.6" y1="65.7" x2="12.9" y2="65.6"/>
<polyline class="st0" points="12.7,65.3 12.8,65.3 12.9,65.3 "/>
<line class="st0" x1="13.2" y1="65.9" x2="13.5" y2="65.8"/>
<line class="st0" x1="13.2" y1="65.2" x2="13.5" y2="65.1"/>
<line class="st0" x1="13.4" y1="65" x2="13.2" y2="65.1"/>
<line class="st0" x1="13.8" y1="66.2" x2="14" y2="66.2"/>
<line class="st0" x1="18.1" y1="83.8" x2="19.2" y2="83.6"/>
<polyline class="st0" points="1.7,72.4 1.7,73 1.7,73.8 "/>
<polyline class="st0" points="3.9,80.6 4.2,81.1 4.6,81.5 "/>
<polyline class="st0" points="2.4,73.9 2.5,74.5 2.6,75.7 2.9,76.8 3.3,78 3.7,79 4.2,79.8 "/>
<polyline class="st0" points="4.2,67.6 3.8,68.1 3.3,69 2.9,69.9 2.6,71 2.5,72.1 2.4,72.5 "/>
<polyline class="st0" points="5,66.1 4.6,66.3 4.1,66.6 "/>
<line class="st0" x1="5.5" y1="85.3" x2="7.6" y2="85.8"/>
<line class="st0" x1="8.8" y1="82.5" x2="9" y2="82.5"/>
<polyline class="st0" points="7.2,82.3 7.9,82.5 8.7,82.5 8.9,82.5 "/>
<line class="st0" x1="7.2" y1="76.5" x2="7.5" y2="76.5"/>
<line class="st0" x1="6.9" y1="72.4" x2="5.9" y2="72.6"/>
<line class="st0" x1="6" y1="72.9" x2="5.5" y2="73"/>
<line class="st0" x1="4.9" y1="76.8" x2="5.1" y2="76.8"/>
<polyline class="st0" points="3.2,74.6 3.2,74.9 3.3,75.5 3.5,76 3.9,76.5 4.3,76.7 4.7,76.9 4.9,76.8 "/>
<line class="st0" x1="4.6" y1="72.8" x2="4.3" y2="72.8"/>
<line class="st0" x1="9.2" y1="65.9" x2="6.5" y2="66.3"/>
<polyline class="st0" points="4.3,72.8 4.1,72.9 3.7,73.1 3.5,73.4 3.3,73.9 3.2,74.4 3.2,74.6 "/>
<polyline class="st0" points="6.3,66.3 5.9,66.4 5.5,66.6 "/>
<line class="st0" x1="11.6" y1="82.7" x2="12.7" y2="82.5"/>
<line class="st0" x1="10.2" y1="65.1" x2="9.1" y2="65.3"/>
<line class="st0" x1="156.5" y1="85.8" x2="175.7" y2="83"/>
<line class="st0" x1="73.9" y1="97.7" x2="143.2" y2="87.8"/>
<line class="st0" x1="137" y1="83.3" x2="74" y2="92.4"/>
<line class="st0" x1="175.7" y1="77.7" x2="157.1" y2="80.4"/>
<line class="st0" x1="157.1" y1="78" x2="175.7" y2="75.3"/>
<line class="st0" x1="74.1" y1="90" x2="137" y2="80.9"/>
<path class="st0" d="M74.3,67"/>
<line class="st0" x1="33.6" y1="38.4" x2="29.5" y2="39"/>
<line class="st0" x1="175.7" y1="19.8" x2="39.3" y2="39.4"/>
<line class="st0" x1="80.5" y1="70.1" x2="79.7" y2="69.9"/>
<line class="st0" x1="80.5" y1="76.2" x2="80.5" y2="76.1"/>
<line class="st0" x1="80.6" y1="70.5" x2="80.6" y2="70.4"/>
<line class="st0" x1="74.8" y1="77.2" x2="76" y2="77.4"/>
<line class="st0" x1="29.3" y1="39" x2="28.6" y2="39.1"/>
<line class="st0" x1="73.8" y1="98.1" x2="73.9" y2="97.9"/>
<line class="st0" x1="68.2" y1="99.5" x2="73.1" y2="98.8"/>
<line class="st0" x1="70.1" y1="50.7" x2="70" y2="50.6"/>
<line class="st0" x1="155.6" y1="73" x2="154.9" y2="72.9"/>
<line class="st0" x1="150.7" y1="72.4" x2="150.6" y2="72.2"/>
<line class="st0" x1="149.5" y1="71.9" x2="147.3" y2="72.2"/>
<line class="st0" x1="147.2" y1="72.3" x2="147.1" y2="72.5"/>
<line class="st0" x1="152.9" y1="72.8" x2="150.6" y2="73.1"/>
<line class="st0" x1="150.5" y1="73.2" x2="150.5" y2="73.4"/>
<path class="st0" d="M175.3,52.3"/>
<line class="st0" x1="175.7" y1="19.8" x2="175.7" y2="84"/>
<line class="st1" x1="35.3" y1="11.6" x2="35.3" y2="41.1"/>
<line class="st1" x1="44.3" y1="11.6" x2="35.3" y2="11.6"/>
<line class="st1" x1="47.1" y1="22.3" x2="38" y2="22.3"/>
<line class="st1" x1="38" y1="22.3" x2="38" y2="42.3"/>
<text transform="matrix(1 0 0 1 45.7717 13.9242)" class="st2 st3">Power Indicator</text>
<text transform="matrix(1 0 0 1 49.8804 24.4072)" class="st2 st3">Status Indicator</text>
</svg>
